<svg width="97" height="100" viewBox="0 0 97 100" fill="none" xmlns="http://www.w3.org/2000/svg">
<path d="M90.8496 32.1177L71.5313 41.1329L59.0281 28.6297V21.117L71.5313 8.61376L90.8496 17.629C92.8888 18.5949 95.2499 17.6826 96.2158 15.6971C97.1817 13.658 96.2695 11.2969 94.284 10.3309L73.2485 0.510811C71.2094 -0.455103 68.7946 -0.0258077 67.1847 1.58405L57.8475 10.9212C56.8816 9.63334 55.3791 8.77475 53.6619 8.77475C50.7105 8.77475 48.2957 11.1895 48.2957 14.1409V19.5071H31.2312C28.9774 13.2823 23.0746 8.77475 16.0986 8.77475C7.1907 8.77475 0 15.9654 0 24.8733C0 30.7761 3.21971 35.874 7.94196 38.7181L21.8941 83.9014H16.0986C10.1958 83.9014 5.36619 88.731 5.36619 94.6338V100H75.1267V94.6338C75.1267 88.731 70.2971 83.9014 64.3943 83.9014H55.7011L29.0311 34.3715C29.9433 33.0836 30.6946 31.742 31.2312 30.2395H48.2957V35.6057C48.2957 38.5571 50.7105 40.9719 53.6619 40.9719C55.3791 40.9719 56.8816 40.1133 57.8475 38.8254L67.1847 48.1626C68.7946 49.7725 71.2094 50.2017 73.2485 49.2358L94.284 39.4157C96.3231 38.4498 97.1817 36.0887 96.2158 34.0495C95.2499 32.064 92.8888 31.1518 90.8496 32.1177ZM16.0986 30.2395C13.1472 30.2395 10.7324 27.8247 10.7324 24.8733C10.7324 21.9219 13.1472 19.5071 16.0986 19.5071C19.05 19.5071 21.4648 21.9219 21.4648 24.8733C21.4648 27.8247 19.05 30.2395 16.0986 30.2395ZM43.5198 83.9014H33.1094L19.9086 40.9719H20.4452L43.5198 83.9014Z" fill="#E68A00"/>
</svg>
