<svg width="106" height="100" viewBox="0 0 106 100" fill="none" xmlns="http://www.w3.org/2000/svg">
<path d="M42.1053 68.4211H73.0526C74.4737 66.7895 76.5789 65.7895 78.9474 65.7895C83.3158 65.7895 86.8421 69.3158 86.8421 73.6842C86.8421 78.0526 83.3158 81.5789 78.9474 81.5789C76.6316 81.5789 74.5263 80.5789 73.0526 78.9474H52.1053C49.6842 90.9474 39.0526 100 26.3158 100C11.7895 100 0 88.2105 0 73.6842C0 60.9474 9.05263 50.3158 21.0526 47.8947V58.7895C14.9474 60.9474 10.5263 66.8421 10.5263 73.6842C10.5263 82.3684 17.6316 89.4737 26.3158 89.4737C35 89.4737 42.1053 82.3684 42.1053 73.6842V68.4211ZM55.2632 10.5263C63.9474 10.5263 71.0526 17.6316 71.0526 26.3158H81.5789C81.5789 11.7895 69.7895 0 55.2632 0C40.7368 0 28.9474 11.7895 28.9474 26.3158C28.9474 33.8421 32.1053 40.5789 37.1053 45.3684L24.7368 65.8947C21.1579 66.6316 18.4211 69.8421 18.4211 73.6842C18.4211 78.0526 21.9474 81.5789 26.3158 81.5789C30.6842 81.5789 34.2105 78.0526 34.2105 73.6842C34.2105 72.8421 34.1053 72.0526 33.8421 71.3158L51.6316 41.6842C44.6842 40.0526 39.4737 33.7895 39.4737 26.3158C39.4737 17.6316 46.5789 10.5263 55.2632 10.5263ZM78.9474 57.8947C75.5789 57.8947 72.4737 58.9474 69.8947 60.7368L53.8421 34.0526C50.1579 33.4211 47.3684 30.2105 47.3684 26.3158C47.3684 21.9474 50.8947 18.4211 55.2632 18.4211C59.6316 18.4211 63.1579 21.9474 63.1579 26.3158C63.1579 27.1053 63.0526 27.8421 62.8421 28.5789L74.3684 47.7895C75.8421 47.5263 77.3684 47.3684 78.9474 47.3684C93.4737 47.3684 105.263 59.1579 105.263 73.6842C105.263 88.2105 93.4737 100 78.9474 100C69.2105 100 60.6842 94.6842 56.1579 86.8421H70.2105C72.7368 88.5263 75.7368 89.4737 78.9474 89.4737C87.6316 89.4737 94.7368 82.3684 94.7368 73.6842C94.7368 65 87.6316 57.8947 78.9474 57.8947Z" fill="#E68A00"/>
</svg>
