<svg width="49" height="49" viewBox="0 0 49 49" fill="none" xmlns="http://www.w3.org/2000/svg">
<path d="M0 36.0781C0.138086 35.4287 0.222472 34.7613 0.423207 34.1323C1.96389 29.3148 5.21274 26.4331 10.2299 25.6455C12.3523 25.3118 14.4172 25.6379 16.3939 26.4932C16.9142 26.7182 16.9142 26.7195 16.9142 26.1672C16.9142 18.7378 16.9219 11.3084 16.9078 3.87898C16.9053 2.38058 17.4615 1.22864 18.7579 0.450034C19.1172 0.235245 19.5276 0.159813 19.9061 0C28.6157 0 37.3241 0 46.0337 0C46.1833 0.141914 46.3892 0.122737 46.5669 0.185383C48.0232 0.696785 48.9962 2.02643 48.9974 3.56703C49 17.5232 49.0013 31.4794 48.9974 45.4355C48.9974 47.4044 47.4069 48.9846 45.4353 48.9949C43.6006 49.0038 41.7671 48.9987 39.9324 48.9962C39.3839 48.9949 39.0527 48.7162 39.0565 48.2725C39.0604 47.8302 39.389 47.5668 39.9464 47.5655C41.6687 47.5642 43.3922 47.5668 45.1144 47.5642C46.6909 47.5617 47.5629 46.6833 47.5629 45.098C47.5642 31.3656 47.5642 17.6319 47.5629 3.89944C47.5629 2.31282 46.6922 1.43448 45.1144 1.43448C37.0108 1.4332 28.9085 1.44599 20.8049 1.42298C19.3 1.41914 18.3424 2.47007 18.3488 3.89688C18.3859 11.6165 18.3692 19.3361 18.359 27.0557C18.359 27.4252 18.4587 27.6579 18.7669 27.8816C19.9662 28.7549 20.943 29.8403 21.7293 31.0984C21.7945 31.2032 21.8649 31.3068 22.0234 31.4039C22.0234 30.9232 22.0221 30.4412 22.0234 29.9605C22.026 28.6922 22.6729 28.0338 23.9246 28.0299C24.8017 28.0274 25.6788 28.0223 26.5559 28.0325C27.5929 28.044 28.2897 28.7318 28.3076 29.7764C28.3229 30.7007 28.3268 31.6264 28.3063 32.552C28.2846 33.5672 27.5865 34.2639 26.5764 34.2665C25.4321 34.2691 24.2852 34.3189 23.1012 34.2243C23.2521 34.9825 23.4375 35.7355 23.4516 36.5103C23.4567 36.7609 23.6344 36.7148 23.793 36.7136C24.6547 36.7097 25.5152 36.7033 26.3769 36.711C27.6619 36.7225 28.3076 37.3809 28.3114 38.6722C28.3127 39.47 28.314 40.2678 28.3114 41.0643C28.3063 42.2827 27.6287 42.9642 26.423 42.9667C25.6418 42.968 24.8593 42.945 24.0781 42.9731C23.4209 42.9974 22.8455 42.8593 22.3673 42.3083C22.0336 42.8977 21.7332 43.4641 21.3624 43.9882C20.7231 44.8934 19.9905 45.713 19.1095 46.3842C18.7746 46.6386 18.8321 46.7933 19.1044 47.0234C19.5954 47.4402 20.1682 47.5668 20.7921 47.5668C25.2902 47.5642 29.7882 47.5655 34.2862 47.5655C35.116 47.5655 35.9445 47.5629 36.7743 47.5668C37.3151 47.5693 37.6066 47.8135 37.6156 48.261C37.6258 48.7289 37.3241 48.9962 36.7628 48.9962C31.3237 48.9974 25.8847 49 20.4456 48.9936C19.3832 48.9923 18.4894 48.5666 17.8041 47.7637C17.5932 47.5156 17.4576 47.5093 17.1853 47.6512C10.4229 51.1645 2.26052 47.5208 0.354165 40.1399C0.212243 39.5902 0.11635 39.0289 0 38.4728C0 37.6724 0 36.8759 0 36.0781ZM22.0234 37.3017C22.0349 31.62 17.4487 26.9956 11.7897 26.9816C6.09751 26.9675 1.44734 31.5816 1.43967 37.2531C1.432 42.8964 6.06683 47.545 11.7168 47.5591C17.3732 47.5745 22.0119 42.959 22.0234 37.3017ZM25.2173 29.4695C24.7711 29.4695 24.3248 29.4772 23.8786 29.467C23.6165 29.4606 23.4925 29.5705 23.4925 29.8288C23.4925 30.7046 23.4925 31.5816 23.4925 32.4574C23.4925 32.7106 23.5999 32.832 23.8697 32.8295C24.7301 32.8205 25.5906 32.8218 26.4511 32.8295C26.7119 32.832 26.836 32.7297 26.8347 32.4676C26.8334 31.5919 26.8321 30.7148 26.8347 29.839C26.836 29.5833 26.7273 29.4606 26.4601 29.467C26.0458 29.4785 25.6315 29.4708 25.2173 29.4695ZM25.1866 38.1736C24.757 38.1736 24.3261 38.1851 23.8965 38.1698C23.6101 38.1595 23.4887 38.2695 23.4899 38.5546C23.495 39.415 23.4938 40.2742 23.4912 41.1346C23.4899 41.4133 23.6165 41.5348 23.9003 41.5322C24.7442 41.5246 25.5881 41.5246 26.4332 41.5322C26.7158 41.5348 26.8385 41.4133 26.8372 41.1333C26.8321 40.2729 26.8308 39.4138 26.8385 38.5533C26.8411 38.2631 26.7132 38.1608 26.4306 38.1711C26.0151 38.1851 25.6009 38.1736 25.1866 38.1736Z" fill="#E68A00"/>
<path d="M32.9616 14.4675C30.1231 14.4675 27.2847 14.4687 24.4476 14.4662C22.8864 14.4649 22.0259 13.6006 22.0247 12.0383C22.0234 10.3967 22.0221 8.75383 22.0247 7.11223C22.0285 5.67391 22.9018 4.78407 24.3389 4.76745C25.4231 4.75466 26.5073 4.75978 27.5916 4.76745C28.1529 4.77128 28.4687 5.04488 28.4636 5.49364C28.4584 5.93472 28.1247 6.21088 27.5762 6.21216C26.5073 6.21599 25.4397 6.21088 24.3709 6.21472C23.7507 6.21727 23.4963 6.45508 23.4938 7.07899C23.4848 8.76917 23.4848 10.4594 23.4938 12.1495C23.4976 12.776 23.7482 13.0189 24.3657 13.0189C30.0899 13.0215 35.8141 13.0215 41.5382 13.0189C42.166 13.0189 42.4128 12.7786 42.4141 12.161C42.4192 10.4709 42.4179 8.78068 42.4141 7.09049C42.4128 6.44613 42.1699 6.21344 41.5088 6.21344C38.0004 6.21216 34.4933 6.21216 30.9849 6.21216C30.8417 6.21216 30.6959 6.22239 30.5553 6.20449C30.1679 6.15718 29.8547 5.81454 29.8956 5.45528C29.9403 5.0679 30.1487 4.8058 30.5681 4.77512C30.7113 4.76489 30.8545 4.76361 30.9977 4.76361C34.4575 4.76361 37.9186 4.80069 41.3771 4.74699C42.9843 4.7227 43.9496 5.78002 43.9036 7.29505C43.8563 8.85611 43.8614 10.421 43.9023 11.9821C43.942 13.5278 42.8923 14.5109 41.427 14.4815C38.6078 14.4278 35.7847 14.4675 32.9616 14.4675Z" fill="#E68A00"/>
<path d="M37.6182 35.5053C37.6182 33.6399 37.6169 31.7759 37.6182 29.9105C37.6195 28.6845 38.2741 28.0324 39.5092 28.0286C40.3544 28.026 41.1982 28.0235 42.0434 28.0286C43.2273 28.0363 43.8883 28.7036 43.8922 29.9131C43.8998 32.0162 43.8947 34.1207 43.8947 36.2238C43.8947 37.8181 43.8973 39.4111 43.8934 41.0054C43.8896 42.3184 43.2363 42.9628 41.9193 42.9628C41.0589 42.9628 40.1984 42.9679 39.3379 42.9615C38.3393 42.9539 37.6246 42.2443 37.6195 41.2407C37.6118 39.3306 37.6182 37.4179 37.6182 35.5053ZM42.4167 35.5091C42.4167 33.6604 42.409 31.8117 42.4231 29.9642C42.4256 29.5973 42.3183 29.4516 41.9334 29.4631C41.1535 29.4874 40.371 29.4874 39.5911 29.4631C39.196 29.4516 39.0566 29.5884 39.0579 29.9834C39.0681 33.6642 39.0668 37.3451 39.0592 41.0259C39.0579 41.3928 39.1883 41.5424 39.5629 41.5347C40.3429 41.5168 41.1253 41.513 41.9053 41.536C42.3093 41.5488 42.4256 41.3954 42.4231 41.0067C42.4077 39.1746 42.4167 37.3412 42.4167 35.5091Z" fill="#E68A00"/>
<path d="M25.1968 19.3335C25.6431 19.3335 26.088 19.3309 26.5342 19.3335C27.5469 19.3399 28.2744 20.0034 28.3038 21.0045C28.3319 21.9749 28.3319 22.9478 28.3038 23.9169C28.2756 24.8426 27.63 25.5253 26.7119 25.5636C25.6789 25.6058 24.6419 25.6071 23.6089 25.5624C22.696 25.5227 22.049 24.8208 22.0298 23.9054C22.0094 22.935 22.0055 21.9634 22.0311 20.9917C22.0554 20.0226 22.7867 19.3412 23.7636 19.3335C24.2417 19.3297 24.7199 19.3335 25.1968 19.3335ZM25.1687 24.1253C25.583 24.1253 25.9972 24.1125 26.4102 24.1292C26.7183 24.1419 26.8411 24.0256 26.8372 23.7162C26.827 22.8724 26.8283 22.0286 26.836 21.1835C26.8385 20.8741 26.703 20.7616 26.4013 20.7654C25.5727 20.7756 24.7442 20.7756 23.917 20.7654C23.6076 20.7616 23.4861 20.892 23.4887 21.1924C23.4951 22.0363 23.4963 22.8801 23.4874 23.7252C23.4848 24.0384 23.6229 24.1432 23.9247 24.1292C24.3402 24.1113 24.7545 24.1253 25.1687 24.1253Z" fill="#E68A00"/>
<path d="M40.7763 19.3335C41.2698 19.3335 41.7633 19.3246 42.2568 19.3361C43.0406 19.354 43.7374 19.8961 43.8269 20.6721C43.965 21.8573 43.9625 23.0565 43.8269 24.2417C43.7438 24.9679 43.1339 25.5049 42.3949 25.5547C41.2992 25.6289 40.1983 25.6327 39.1039 25.5534C38.2715 25.4946 37.6386 24.7953 37.6233 23.9579C37.6054 22.9555 37.6028 21.9519 37.6233 20.9495C37.6425 20.0405 38.3764 19.3476 39.2944 19.3348C39.7892 19.3271 40.2827 19.3335 40.7763 19.3335ZM42.4154 22.4786C42.4154 22.0478 42.4039 21.6169 42.4192 21.1873C42.4307 20.8741 42.2926 20.7642 41.9922 20.7667C41.1637 20.7757 40.3339 20.7757 39.5053 20.7667C39.2062 20.7642 39.0617 20.8805 39.063 21.1873C39.0668 22.0324 39.0668 22.8775 39.063 23.7226C39.0617 23.9937 39.1576 24.133 39.4555 24.1292C40.316 24.119 41.1777 24.1177 42.0382 24.1292C42.3387 24.133 42.4269 23.9962 42.4192 23.7226C42.4077 23.3071 42.4154 22.8929 42.4154 22.4786Z" fill="#E68A00"/>
<path d="M32.9603 28.0337C33.4705 28.0337 33.9819 28.0197 34.4908 28.0376C35.3692 28.0682 36.0621 28.7586 36.0762 29.6306C36.0928 30.6355 36.0916 31.6404 36.0775 32.644C36.0647 33.5403 35.3704 34.2422 34.4652 34.2601C33.4615 34.2805 32.4553 34.2792 31.4516 34.2601C30.5771 34.2434 29.8854 33.6055 29.8534 32.7361C29.8138 31.6698 29.8138 30.5984 29.8559 29.5321C29.8892 28.6883 30.5796 28.0631 31.4286 28.035C31.9387 28.0197 32.4489 28.0337 32.9603 28.0337ZM31.2879 31.1315C31.2879 31.5611 31.2956 31.992 31.2854 32.4203C31.279 32.6939 31.3685 32.8332 31.6664 32.8294C32.5256 32.8192 33.3861 32.8205 34.2453 32.8281C34.5291 32.8307 34.6506 32.7118 34.6493 32.4305C34.6442 31.5714 34.6455 30.7109 34.648 29.8518C34.6493 29.5999 34.547 29.4669 34.2798 29.4682C33.404 29.472 32.5282 29.4733 31.6536 29.4669C31.389 29.4656 31.2803 29.5794 31.2867 29.8403C31.2943 30.2711 31.2879 30.702 31.2879 31.1315Z" fill="#E68A00"/>
<path d="M36.0801 22.4851C36.0801 22.9798 36.0903 23.4746 36.0775 23.9681C36.0571 24.7902 35.4549 25.4857 34.6378 25.5496C33.5255 25.6366 32.4055 25.6327 31.2931 25.5509C30.5055 25.4934 29.8854 24.8644 29.8573 24.0742C29.8176 22.9913 29.8151 21.9046 29.8598 20.823C29.8931 19.9894 30.6103 19.3489 31.4465 19.3361C32.4515 19.322 33.4564 19.322 34.4614 19.3361C35.3538 19.3489 36.0583 20.061 36.0801 20.9534C36.0903 21.4648 36.0801 21.9749 36.0801 22.4851ZM31.288 22.3968C31.288 22.8418 31.2982 23.288 31.2842 23.7329C31.2752 24.0193 31.3864 24.1318 31.6754 24.1279C32.5346 24.1177 33.3938 24.1177 34.2517 24.1279C34.5407 24.1305 34.6506 24.009 34.6481 23.729C34.6417 22.8865 34.6404 22.0427 34.6481 21.2002C34.6506 20.8972 34.5228 20.7668 34.221 20.768C33.3785 20.7744 32.5346 20.7757 31.692 20.7668C31.3788 20.7629 31.2714 20.9036 31.2829 21.204C31.2995 21.6016 31.288 21.9992 31.288 22.3968Z" fill="#E68A00"/>
<path d="M36.08 39.8293C36.08 40.324 36.0876 40.8188 36.0787 41.3123C36.0608 42.2341 35.3588 42.9488 34.4408 42.9616C33.4525 42.9744 32.4629 42.9744 31.4745 42.9616C30.6115 42.9501 29.8904 42.3096 29.8559 41.4542C29.8124 40.388 29.8162 39.3179 29.852 38.2503C29.8802 37.4333 30.4977 36.7992 31.3096 36.7429C32.4066 36.6662 33.51 36.665 34.607 36.7429C35.4509 36.803 36.0582 37.4985 36.0761 38.3462C36.0889 38.841 36.08 39.3358 36.08 39.8293ZM32.9743 38.1736C32.5447 38.1736 32.1151 38.1825 31.6855 38.1698C31.4068 38.1621 31.2789 38.2567 31.2828 38.5533C31.2943 39.4125 31.293 40.2716 31.284 41.1295C31.2815 41.4172 31.4042 41.5309 31.6829 41.5284C32.5255 41.5233 33.3694 41.5233 34.212 41.5284C34.5073 41.5309 34.6518 41.4146 34.6492 41.1052C34.6416 40.2627 34.6403 39.4189 34.6505 38.5763C34.6543 38.2618 34.515 38.1557 34.2145 38.1672C33.8015 38.1851 33.3873 38.1736 32.9743 38.1736Z" fill="#E68A00"/>
<path d="M19.9163 37.12C19.9163 41.9707 15.9962 45.6758 11.2629 45.4431C5.53366 45.1618 1.82709 38.9074 4.33948 33.7601C4.60926 33.2078 5.07082 33.0212 5.4838 33.2986C5.82518 33.5287 5.88144 33.8867 5.64746 34.3981C4.89822 36.0359 4.79849 37.7158 5.36362 39.4226C6.3072 42.266 9.25687 44.2503 12.1094 43.9831C15.4797 43.6673 17.9601 41.3813 18.3961 38.1914C18.772 35.4388 17.4615 32.7782 15.059 31.4141C12.6745 30.0601 9.7325 30.2903 7.56532 31.9945C7.41572 32.1121 7.26357 32.2502 7.08969 32.3065C6.73424 32.4215 6.42099 32.3167 6.23049 31.9779C6.02719 31.6161 6.13076 31.299 6.43122 31.0408C7.45536 30.165 8.62525 29.5705 9.94218 29.2879C14.7419 28.2587 19.2208 31.4256 19.878 36.3095C19.9189 36.6253 19.9087 36.9474 19.9163 37.12Z" fill="#E68A00"/>
<path d="M12.5327 34.4467C12.5327 34.6845 12.5557 34.9096 12.5288 35.1282C12.4368 35.8672 12.5531 36.3837 13.3804 36.734C14.2293 37.0932 14.5886 37.9486 14.526 38.8793C14.4556 39.9226 13.9353 40.7229 12.9853 41.187C12.6886 41.3315 12.5033 41.4427 12.5173 41.8224C12.5327 42.2316 12.2002 42.5064 11.8128 42.5103C11.4139 42.5141 11.1173 42.2635 11.1032 41.8352C11.093 41.5437 11.0073 41.4184 10.7133 41.3737C10.2837 41.3085 9.8988 41.1026 9.54208 40.8584C9.17002 40.604 9.07157 40.2077 9.2787 39.8625C9.4871 39.5147 9.87835 39.4188 10.2785 39.6157C11.0879 40.0146 11.0879 40.0146 11.0879 39.1133C11.0879 38.9701 11.0725 38.8243 11.0904 38.6837C11.1978 37.8322 11.0278 37.2339 10.1737 36.7135C8.86444 35.9183 9.20582 33.7512 10.6647 33.048C10.9562 32.9074 11.1045 32.777 11.1083 32.4318C11.1134 32.0176 11.4165 31.7977 11.8064 31.7964C12.2028 31.7951 12.4892 32.038 12.5122 32.4356C12.5301 32.7463 12.6311 32.8755 12.9252 32.9534C13.2141 33.0302 13.4826 33.1874 13.7141 33.3894C14.0644 33.6937 14.1296 34.0683 13.8943 34.4033C13.6565 34.7421 13.2857 34.8047 12.8843 34.5771C12.7922 34.5247 12.7219 34.4212 12.5327 34.4467ZM12.5595 39.6912C13.2499 39.1567 13.2333 38.2644 12.5595 37.9856C12.5595 38.5469 12.5595 39.1082 12.5595 39.6912ZM11.0585 34.6385C10.7465 35.0988 10.7529 35.2599 11.0585 35.4951C11.0585 35.2253 11.0585 34.9505 11.0585 34.6385Z" fill="#E68A00"/>
</svg>
