<svg width="21" height="46" viewBox="0 0 21 46" fill="none" xmlns="http://www.w3.org/2000/svg">
<path d="M20.9996 44.903V28.1904C20.9996 27.5849 20.454 27.0937 19.7814 27.0937H15.1406C14.4676 27.0937 13.9224 27.5849 13.9224 28.1904C13.9224 28.7962 14.4676 29.287 15.1406 29.287H18.5633V43.8062H2.43578V29.287H10.4998C10.8225 29.287 11.1324 29.1717 11.3609 28.966C11.5894 28.7603 11.7175 28.4813 11.7175 28.1904V18.7818C12.1273 18.7361 12.5339 18.6705 12.9357 18.5845L13.167 18.5188C13.3741 18.5188 13.5691 18.4202 13.7638 18.3654L14.2022 18.2119C14.3726 18.1572 14.531 18.0911 14.7014 18.0255L15.1886 17.8173L15.5783 17.6199C15.7487 17.5321 15.9317 17.4443 16.09 17.3457L16.4188 17.1483L16.9306 16.7975L17.2227 16.578C17.369 16.4572 17.5274 16.3368 17.6732 16.2051L17.9654 15.9421L18.3429 15.5692L18.6476 15.2293L19.0264 14.856L19.331 14.4392L19.5502 14.1101L19.8423 13.6276L20.0128 13.3095L20.2441 12.7944L20.3904 12.4544L20.5608 11.9389L20.6825 11.5442L20.7921 11.0726L20.865 10.5902V8.24374L20.7921 7.79428L20.6704 7.26789V7.10356L20.5975 6.8732L20.427 6.39072L20.2566 5.94125L20.0861 5.56833L19.794 5.03106L19.6598 4.8007L19.6594 4.80034C19.5293 4.58921 19.3866 4.38424 19.2331 4.18617C19.2121 4.14191 19.1835 4.10128 19.1481 4.06537L18.6242 3.42943L18.5513 3.35252C18.3563 3.14429 18.1616 2.95783 17.9545 2.77137L17.857 2.67269C17.662 2.49712 17.4548 2.33278 17.2481 2.17933L17.0531 2.02588C16.8706 1.90508 16.6876 1.77376 16.4926 1.65296L16.1638 1.45561L15.8837 1.29128C15.8108 1.29128 15.7374 1.22562 15.6645 1.18172L15.2503 0.984377C15.0798 0.90747 14.9094 0.830928 14.7385 0.764899C14.5681 0.699237 14.4705 0.655343 14.3364 0.611453C14.2022 0.567558 13.9588 0.479764 13.7638 0.42499C13.5687 0.370212 13.52 0.348084 13.3983 0.315433C13.2766 0.282421 12.9599 0.216759 12.7527 0.17286L12.4118 0.107198L11.7055 0.00852525H11.4008H10.6578H10.4873H10.3169V0.00816248C10.0977 -0.00272083 9.87806 -0.00272083 9.65925 0.00816248H9.19626C9.02581 0.00816248 8.85536 0.00816294 8.68451 0.0850695L8.68491 0.0847067C8.49593 0.108287 8.30896 0.141299 8.1244 0.18338H7.94186C7.84434 0.18338 7.74683 0.238158 7.64972 0.260287C7.55221 0.282054 7.35758 0.337195 7.2113 0.381092C7.06503 0.424987 6.84582 0.490649 6.66328 0.556669L6.33447 0.677474L6.33366 0.677111C5.4532 1.0221 4.63281 1.48028 3.89782 2.0368L3.75154 2.14636C3.55651 2.28893 3.37397 2.44238 3.19103 2.59583L2.996 2.78229L2.55758 3.21L2.33837 3.45124L1.99747 3.85682L1.76618 4.15284L1.4982 4.53665L1.04769 5.30426L0.901417 5.57851L0.70639 6.02798L0.560113 6.37877L0.425928 6.80648L0.304232 7.22331L0.206717 7.618L0.12129 8.16614V8.46216V9.35058V9.50403L0.121693 9.50475C0.10356 9.81165 0.10356 10.1189 0.121693 10.4258L0.182539 10.7766C0.182539 11.0287 0.267968 11.27 0.340908 11.5112V11.6429C0.340908 11.7525 0.413843 11.8624 0.450512 11.972L0.620956 12.4544L0.815984 12.926L1.03519 13.3867L1.29108 13.8253L1.55904 14.2639L1.86368 14.6695C1.962 14.8153 2.072 14.9546 2.19249 15.0863L2.5213 15.4593L2.91096 15.8539L3.28853 16.183C3.38605 16.2599 3.47107 16.3586 3.58068 16.4351C3.69028 16.512 3.58068 16.4351 3.58068 16.4351H3.58108C4.20042 16.9575 4.88746 17.4102 5.6273 17.7838C6.21965 18.0581 6.94698 17.8528 7.25965 17.3235C7.58847 16.8102 7.40512 16.1546 6.84541 15.8431C6.17489 15.5256 5.55637 15.1273 5.00592 14.6586L4.6892 14.3735L4.42123 14.0992L4.42163 14.0996C4.3217 14.002 4.22781 13.8997 4.14117 13.7923L3.90987 13.4963C3.82162 13.3871 3.74023 13.2736 3.66608 13.1564L3.47105 12.8495L3.26393 12.4766L3.10557 12.1584L2.93512 11.7746L2.82552 11.4347L2.69133 11.0291V10.7222L2.61839 10.2836L2.61879 10.2832C2.61275 10.1809 2.61275 10.0786 2.61879 9.97634V8.45199L2.67964 8.14508L2.77716 7.71738V7.47613L2.93552 7.01542L3.02095 6.81807L3.19099 6.36824L3.3006 6.17089L3.54439 5.75407L3.69067 5.54584L3.94655 5.19504L4.15366 4.94292L4.40914 4.66867L4.68919 4.38354L4.9205 4.1753H4.9209C5.03292 4.07446 5.15059 3.97941 5.27429 3.89017L5.48141 3.72584C5.6156 3.63805 5.74938 3.53937 5.89564 3.45159L6.11485 3.3199H6.11445C6.25105 3.23501 6.3937 3.1581 6.54078 3.08954L6.84541 2.95785L7.25965 2.77139C7.37006 2.72459 7.48409 2.68432 7.60055 2.65095L7.97813 2.51926C8.11231 2.51926 8.2461 2.44235 8.39236 2.4097C8.53864 2.37669 8.62366 2.35492 8.74576 2.32191L9.17209 2.25625H9.57423H9.57383C9.69552 2.24537 9.81802 2.24537 9.93932 2.25625H10.4023H10.7432H11.2062H11.5717H11.9738C12.108 2.25625 12.2539 2.31103 12.3881 2.33316C12.5223 2.35492 12.6073 2.38793 12.7048 2.41006C12.8023 2.43183 13.0215 2.48697 13.1678 2.54175L13.1674 2.54139C13.2585 2.56569 13.3479 2.59508 13.4354 2.62881C13.5937 2.68359 13.74 2.73837 13.8984 2.80439H13.898C13.9858 2.83632 14.0712 2.87296 14.1539 2.91395L14.5681 3.1113L14.8481 3.26475C14.9698 3.33041 15.0794 3.40732 15.2015 3.48422L15.5062 3.68157L15.7862 3.8898V3.89016C15.9043 3.97287 16.0143 4.06465 16.115 4.16405L16.3342 4.35051C16.4507 4.45463 16.5603 4.56455 16.6631 4.67955L16.8456 4.86601L17.1502 5.23893L17.2965 5.43628C17.3908 5.55925 17.4762 5.68731 17.5524 5.82009C17.6104 5.89554 17.6592 5.97644 17.6987 6.06133L17.9058 6.43426L18.04 6.74116L18.1862 7.08108L18.3079 7.454L18.4054 7.78304L18.4784 8.14508V10.2506L18.393 10.7222V10.9634L18.2713 11.3911L18.1737 11.6654L18.0154 12.0492L17.8937 12.3343L17.6987 12.6964L17.5282 12.9706L17.5278 12.9699C17.4581 13.0907 17.3807 13.2079 17.2965 13.3207L17.1261 13.5511L16.8093 13.9349L16.6752 14.0666C16.547 14.2128 16.4084 14.3521 16.2613 14.4834C16.2392 14.5142 16.2101 14.5403 16.1759 14.5599C16.0175 14.7025 15.8471 14.8342 15.6766 14.9655L15.6158 15.0203V15.0206C15.4409 15.1509 15.258 15.2717 15.0674 15.3823L14.9698 15.448C14.7994 15.5467 14.6165 15.6453 14.4339 15.7331V15.7335C14.3759 15.7669 14.3146 15.7962 14.2514 15.8209C14.093 15.8978 13.9347 15.9635 13.7763 16.0291V16.0295C13.6812 16.0705 13.5837 16.1071 13.4842 16.1391C13.354 16.1924 13.2198 16.2366 13.082 16.2707C12.9478 16.2707 12.8261 16.3477 12.6923 16.3803C11.9791 16.5631 11.2413 16.6553 10.4998 16.6546C10.1767 16.6546 9.86681 16.7699 9.63833 16.9756C9.40985 17.1813 9.28171 17.4603 9.28171 17.7512V27.0947H1.21814L1.21774 27.0944C0.894971 27.0944 0.585096 27.2101 0.356614 27.4158C0.128131 27.6215 0 27.9005 0 28.191V44.9037C0 45.1943 0.128142 45.4733 0.356614 45.679C0.585086 45.8846 0.894971 46 1.21774 46H19.7819C20.1046 46 20.4145 45.8846 20.643 45.679C20.8715 45.4733 21 45.1943 21 44.9037L20.9996 44.903Z" fill="#E68A00"/>
</svg>
