<svg width="71" height="45" viewBox="0 0 71 45" fill="none" xmlns="http://www.w3.org/2000/svg">
<g clip-path="url(#clip0_1071_261)">
<path d="M70.8428 23.5211C70.2203 21.3524 68.837 19.9614 66.737 19.3923C66.1459 19.2342 65.951 18.8991 65.8378 18.4502C65.3411 16.4142 64.8318 14.3783 64.3162 12.3423C64.2156 11.9566 64.0773 11.4002 64.7752 11.1156C64.8821 11.0714 64.9701 10.8943 65.0016 10.6604C65.2342 8.85205 64.8444 7.33455 63.8887 6.26598C63.0021 5.27961 61.6314 4.72952 60.1538 4.76746C58.6825 4.8054 57.186 4.79907 55.7399 4.79275C54.7464 4.78643 53.7467 4.7801 52.7533 4.79275C52.5018 4.79275 52.2251 4.76746 52.049 4.57777C51.873 4.38176 51.873 4.10988 51.8856 3.91387C51.9107 3.57876 51.9044 3.22467 51.8981 2.88324C51.8981 2.74413 51.8919 2.60503 51.8919 2.4596C51.8919 0.758747 51.131 0 49.4397 0H7.21819C5.5394 0 4.75344 0.784038 4.75344 2.46593V21.9088C4.75344 22.5601 4.85404 22.9774 5.06782 23.1924C5.19986 23.3251 5.39478 23.382 5.66515 23.382C6.10528 23.3757 6.53913 23.2619 6.53913 21.9404V18.2668C6.53913 13.1073 6.54542 7.94155 6.52655 2.78207C6.52655 2.4849 6.5517 2.18772 6.75291 1.98539C6.95411 1.78305 7.25592 1.75776 7.52629 1.75776H7.53258C21.1453 1.77673 35.1353 1.77673 49.1253 1.75776C49.4208 1.77041 49.7163 1.78305 49.9112 1.97906C50.1062 2.17507 50.1313 2.4849 50.1313 2.7631C50.1125 7.89729 50.1125 13.0378 50.1125 18.172V21.991C50.1125 22.0542 50.1125 22.1175 50.1062 22.1807C50.0999 22.3451 50.0936 22.5032 50.125 22.6359C50.2445 23.1544 50.5337 23.382 51.0242 23.3757C51.5272 23.3568 51.8038 23.1038 51.8667 22.598C51.8981 22.3324 51.9044 22.0669 51.8793 21.8076C51.8604 21.6306 51.8604 21.3714 52.0239 21.1943C52.1937 21.011 52.4515 20.9793 52.6589 20.9857C54.4006 20.992 56.136 20.992 57.8777 20.992C60.3927 20.992 62.9141 20.992 65.4291 21.011C66.8124 21.0236 67.9442 21.7065 68.7113 22.9963C68.8622 23.2493 69.0131 23.5464 68.8685 23.7804C68.7301 24.0143 68.4032 24.027 68.1328 24.0143C67.3154 23.9764 66.4792 23.989 65.6681 24.0017L65.4229 24.008C64.7752 24.0207 64.4671 24.3115 64.4546 24.9312C64.4357 25.7468 64.4168 26.7079 64.4734 27.6437C64.5614 29.1106 65.7812 30.3815 67.2526 30.5459C67.6298 30.5901 68.0385 30.6028 68.5478 30.5965C68.705 30.6028 68.9062 30.6091 69.0571 30.7609C69.208 30.9126 69.2269 31.1339 69.2269 31.292C69.208 32.8158 69.2143 34.0867 69.2269 35.288C69.2269 35.4461 69.2143 35.6674 69.0508 35.8318C68.8936 35.9899 68.6673 36.0025 68.4849 36.0025L68.3215 35.9962C67.831 35.9836 67.328 35.9646 66.8439 36.0089C66.2151 36.0658 65.8441 35.8318 65.5675 35.2185C64.3036 32.4427 61.4554 30.862 58.475 31.2857C56.0291 31.6334 54.212 32.9865 53.0928 35.3133C53.0739 35.3576 53.0551 35.4019 53.0362 35.4524C52.967 35.6611 52.8161 36.0911 52.3006 35.9646C51.7787 35.8445 51.8478 35.3766 51.8793 35.1806C51.8856 35.13 51.8981 35.0794 51.8981 35.0288C51.8856 34.2448 51.8856 33.4544 51.8856 32.6704V31.7283L51.8793 27.3086C51.8793 26.9355 51.7221 26.6763 51.3888 26.5056C51.087 26.3475 50.8041 26.3728 50.5086 26.5751C50.2193 26.7711 50.1062 27.0556 50.1062 27.5425C50.1125 28.5858 50.1125 29.6227 50.1062 30.666C50.1062 32.1519 50.1062 33.6378 50.1187 35.1236C50.1187 35.3639 50.1062 35.6358 49.9238 35.8192C49.7478 35.9962 49.49 36.0278 49.2825 36.0152C42.6679 36.0025 35.456 36.0025 27.2317 36.0152C26.7413 36.0152 26.4647 35.8318 26.2446 35.3639C24.9682 32.6261 22.8555 31.2351 19.9695 31.2351C17.0961 31.2351 14.9834 32.6324 13.6945 35.3766C13.4744 35.8445 13.1789 36.0089 12.701 36.0152C11.7327 36.0025 10.7581 36.0025 9.78355 36.0089H8.65178C7.60803 36.0089 7.08615 36.0089 6.77806 35.6927C6.47625 35.3766 6.48883 34.8644 6.52027 33.8401C6.53913 33.2458 6.80321 33.0118 7.33766 33.0181C8.77124 33.0371 10.2111 33.0308 11.3114 33.0245C11.7516 33.0181 12.0911 32.9106 12.286 32.7146C12.4306 32.5629 12.4998 32.3605 12.4935 32.1013C12.4747 31.3299 11.7579 31.2098 11.3303 31.2098C7.93499 31.2035 4.53966 31.2035 1.14434 31.2098C0.716778 31.2098 0.00627534 31.3299 -0.00629993 32.114C-0.0125876 32.8537 0.603601 33.0245 1.12547 33.0308L1.60962 33.0371C2.31384 33.0497 3.0432 33.0624 3.75371 33.0181C3.99892 32.9992 4.35103 33.0055 4.5711 33.2331C4.78488 33.4607 4.78488 33.7958 4.75344 34.0677C4.722 34.3839 4.72829 34.6937 4.74087 35.0288C4.74715 35.1679 4.74715 35.307 4.74715 35.4461C4.75344 36.9826 5.5897 37.8298 7.09873 37.8362H7.6709C9.17365 37.8425 10.7267 37.8488 12.2546 37.8235C12.2672 37.8235 12.2797 37.8235 12.2923 37.8235C12.8708 37.8235 13.0971 38.0511 13.1349 38.6581C13.3549 42.1294 16.3541 44.981 19.8249 45.0127C23.478 45.0506 26.3075 42.4898 26.7979 38.6455C26.8671 38.127 27.0305 37.8235 27.6907 37.8235C27.6907 37.8235 27.6907 37.8235 27.697 37.8235C35.4748 37.8362 43.5293 37.8362 51.6341 37.8235C51.6341 37.8235 51.6341 37.8235 51.6403 37.8235C52.2314 37.8235 52.464 38.0385 52.5269 38.6455C52.879 42.2053 55.7022 44.9431 59.0849 45.0127C62.8323 45.0822 65.8504 42.4203 66.2025 38.6645C66.2717 37.9373 66.6175 37.8046 67.1582 37.8298C67.5229 37.8425 67.8813 37.8425 68.246 37.8362C68.6673 37.8298 69.1011 37.8235 69.535 37.8488C70.1826 37.8868 70.6416 37.7224 71 37.3114V24.0017C70.8994 23.8752 70.8805 23.7298 70.8679 23.6286C70.8617 23.5907 70.8554 23.5591 70.8428 23.5211ZM52.1748 6.9046C52.4766 6.6011 52.9859 6.6011 53.9982 6.6011H55.8468C57.3684 6.6011 58.8837 6.59477 60.4053 6.60742C61.7697 6.61374 62.7317 7.29029 63.1153 8.50429C63.2348 8.88998 63.3228 9.16819 63.1782 9.37052C63.0273 9.57285 62.738 9.57918 62.3671 9.57918C61.2416 9.57918 60.1161 9.57918 58.9843 9.57918H56.2303C55.0734 9.57285 53.9165 9.57285 52.7658 9.59182C52.7533 9.59182 52.7344 9.59182 52.7218 9.59182C52.5018 9.59182 52.2691 9.56653 52.0993 9.39581C51.917 9.21877 51.8919 8.94689 51.8919 8.73191C51.8793 7.69496 51.8793 7.20809 52.1748 6.9046ZM63.9515 19.0193C63.8069 19.2026 63.568 19.2153 63.3228 19.2153C62.015 19.2026 60.7008 19.2026 59.3867 19.2089H57.9531H56.5384C55.2683 19.2026 53.9982 19.2026 52.7281 19.2216C52.7155 19.2216 52.703 19.2216 52.6904 19.2216C52.4766 19.2216 52.244 19.1963 52.0805 19.0319C51.9044 18.8549 51.8856 18.6019 51.8856 18.3996C51.9107 16.3067 51.9107 14.2328 51.8856 12.2348C51.8856 12.0325 51.9044 11.7795 52.0742 11.6088C52.244 11.4318 52.5143 11.4065 52.7281 11.4128C55.5387 11.4255 58.4121 11.4255 61.5057 11.4128C61.9395 11.4065 62.2979 11.533 62.4425 12.1399C62.9141 14.1569 63.4297 16.2498 63.9893 18.368C64.0521 18.5893 64.0899 18.8422 63.9515 19.0193ZM19.9884 43.2169C19.9821 43.2169 19.9821 43.2169 19.9758 43.2169C17.2281 43.2169 14.9017 40.8838 14.8954 38.1144C14.8891 36.7676 15.411 35.4967 16.3667 34.5356C17.3287 33.5619 18.6051 33.0245 19.9695 33.0245C19.9695 33.0245 19.9758 33.0245 19.9821 33.0245C21.3465 33.0245 22.6229 33.5493 23.566 34.4977C24.5155 35.4461 25.0311 36.7233 25.0374 38.0954C25.0311 40.9154 22.7675 43.2106 19.9884 43.2169ZM59.3867 43.2169C59.3804 43.2169 59.3679 43.2169 59.3616 43.2169C58.0286 43.2169 56.7711 42.6858 55.8091 41.7247C54.8408 40.7573 54.3063 39.4738 54.3 38.1207C54.2937 36.7676 54.8093 35.4904 55.7588 34.5293C56.7145 33.5619 57.9909 33.0245 59.3553 33.0245C59.3616 33.0245 59.3679 33.0245 59.3679 33.0245C62.1533 33.0245 64.4294 35.2944 64.442 38.0891C64.4608 40.8522 62.1407 43.2043 59.3867 43.2169ZM69.1388 28.5542C68.9942 28.7186 68.7679 28.7944 68.4221 28.7944C68.4032 28.7944 68.3843 28.7944 68.3655 28.7944C67.0891 28.7691 66.2843 28.4909 66.2402 27.2074C66.2214 26.5625 66.2088 26.2463 66.4226 26.0187C66.6489 25.7847 67.001 25.7847 67.7681 25.7847C69.12 25.7847 69.2332 25.8986 69.2332 27.2643C69.2394 27.2959 69.2457 27.3591 69.2143 27.4287C69.1829 27.4982 69.208 27.65 69.2332 27.7828C69.2772 28.0294 69.3275 28.3329 69.1388 28.5542Z" fill="#E68A00"/>
<path d="M38.3105 10.9132C38.0527 10.7614 37.7447 10.7678 37.468 10.9195C37.2919 11.0207 37.1285 11.1851 36.965 11.3431L35.4937 12.8164C32.9283 15.3898 30.3693 17.9632 27.8165 20.5493C27.6278 20.739 27.4015 20.9476 27.1248 20.9476C27.1248 20.9476 27.1248 20.9476 27.1185 20.9476C26.8482 20.9476 26.6344 20.7579 26.4521 20.5682C25.0751 19.1266 23.6352 17.704 22.2456 16.3193L21.8809 15.9525C21.6357 15.7059 21.3779 15.5858 21.139 15.5858C20.9315 15.5858 20.7303 15.6743 20.548 15.8514C20.3593 16.0347 20.2587 16.2497 20.2524 16.4647C20.2524 16.705 20.3719 16.9579 20.5983 17.1918C22.472 19.095 24.4274 21.0678 26.4143 23.0405C26.9173 23.54 27.3449 23.5337 27.8542 23.0278C30.3378 20.5429 32.8089 18.0517 35.2862 15.5605L38.4111 12.418C38.6689 12.1588 38.7758 11.9438 38.7507 11.7225V11.7036C38.7507 11.3684 38.5809 11.0713 38.3105 10.9132Z" fill="#E68A00"/>
<path d="M28.6401 32.1204C28.659 32.7337 29.0802 32.9234 29.4261 32.9803C29.6147 33.0119 29.8033 33.0119 30.0171 33.0119H37.8201H39.568C41.6115 33.0119 43.6487 33.0119 45.6922 33.0119C45.9751 33.0119 46.2329 33.0056 46.4656 32.9487C46.8617 32.8538 47.0817 32.5883 47.1132 32.1646C47.1446 31.7537 46.9686 31.4754 46.5662 31.2858C46.3649 31.1909 46.1386 31.1909 45.8871 31.1909H29.8222C29.665 31.1909 29.5141 31.1909 29.3883 31.2225C28.879 31.349 28.6275 31.6525 28.6401 32.1204Z" fill="#E68A00"/>
<path d="M18.2405 27.903C18.5046 27.5806 18.5549 27.296 18.4103 26.9799C18.2216 26.5689 17.9324 26.3792 17.3917 26.3919C14.4113 26.3982 11.431 26.3982 8.45694 26.3919H4.62777C4.48944 26.3919 4.35111 26.3919 4.21278 26.3855C3.87325 26.3792 3.52114 26.3729 3.18161 26.4045C2.71633 26.4424 2.37051 26.8281 2.37679 27.3024C2.38308 27.7766 2.71004 28.118 3.20676 28.1686C3.36395 28.1812 3.52114 28.1812 3.68462 28.1812H3.81037H10.4375H12.1666C12.7388 28.1812 13.3173 28.1812 13.8895 28.1812C15.0401 28.1812 16.197 28.1812 17.3477 28.1812C17.7123 28.1939 18.033 28.1686 18.2405 27.903Z" fill="#E68A00"/>
<path d="M19.982 36.0024C19.4287 36.0024 18.8879 36.2364 18.4855 36.6411C18.0831 37.0457 17.8693 37.5768 17.8756 38.1269C17.8819 38.677 18.1271 39.2208 18.5421 39.6191C18.9508 40.0112 19.4978 40.2325 20.026 40.2135C21.1452 40.1819 22.0758 39.2018 22.0569 38.0827C22.0506 36.9382 21.1138 36.0088 19.982 36.0024Z" fill="#E68A00"/>
<path d="M59.3993 36.0024C59.3868 36.0024 59.3742 36.0024 59.3679 36.0024C58.8334 36.0024 58.3053 36.2237 57.9092 36.6158C57.5068 37.0141 57.2741 37.5579 57.2804 38.1016C57.2867 39.2271 58.2361 40.1882 59.3553 40.2072C59.9086 40.2261 60.4368 39.9859 60.8455 39.5812C61.2542 39.1765 61.4868 38.6328 61.4868 38.089C61.4742 36.9825 60.5185 36.0277 59.3993 36.0024Z" fill="#E68A00"/>
</g>
<defs>
<clipPath id="clip0_1071_261">
<rect width="71" height="45" fill="white"/>
</clipPath>
</defs>
</svg>
