<svg width="42" height="40" viewBox="0 0 42 40" fill="none" xmlns="http://www.w3.org/2000/svg">
<path d="M20.9903 4.99065V19.534L28.1453 25.734L26.8353 27.2451L18.9903 20.4472V4.99048L20.9903 4.99065ZM29.5403 12.6273L39.1974 15.2157L41.7853 5.55611L39.8538 5.04065L38.1129 11.5361C36.1533 7.33899 32.7971 3.95232 28.6179 1.95481C24.4388 -0.0426905 19.6958 -0.527275 15.1988 0.583727C10.7021 1.6949 6.73043 4.3329 3.96251 8.04707C1.1946 11.7613 -0.197986 16.3212 0.0227224 20.9479C0.243589 25.5746 2.06372 29.9813 5.17272 33.415C8.2816 36.8488 12.4861 39.0967 17.0686 39.7746C21.6506 40.4527 26.3261 39.5186 30.2961 37.1324C34.2661 34.746 37.2844 31.0553 38.8356 26.6907L36.9512 26.0208L36.951 26.0206C35.5553 29.9508 32.8386 33.2744 29.2643 35.4244C25.6905 37.5741 21.481 38.4162 17.3552 37.8073C13.2292 37.1983 9.44268 35.1758 6.64227 32.0852C3.84181 28.9946 2.20102 25.0277 2.00018 20.8619C1.79934 16.6962 3.05114 12.5898 5.54135 9.24437C8.03177 5.89882 11.6064 3.52186 15.6547 2.51894C19.703 1.51602 23.9738 1.94961 27.738 3.74565C31.502 5.5417 34.5259 8.58858 36.293 12.3665L30.0555 10.6961L29.5403 12.6273Z" fill="#E68A00"/>
</svg>
