<svg width="43" height="31" viewBox="0 0 43 31" fill="none" xmlns="http://www.w3.org/2000/svg">
<path d="M42.1336 0.0573371C41.6953 -0.0672476 41.2775 -0.0273806 40.6638 0.570626C36.9456 4.16863 33.2221 7.77162 29.4987 11.3696C24.4086 16.2882 19.3237 21.2068 14.2388 26.1254C14.1047 26.255 13.7437 26.6038 13.1919 26.6038C12.6401 26.6038 12.2842 26.255 12.145 26.1254C9.36016 23.4145 6.55985 20.7185 3.76469 18.0175L2.29491 16.5972C2.18146 16.4876 2.07832 16.3879 1.99065 16.3231C1.53166 15.9992 1.13456 15.9693 0.613696 16.2185C0.350684 16.348 0.180499 16.5922 0 16.9859V17.4992C0.170185 17.8381 0.350684 18.0922 0.572439 18.3065C3.16131 20.8032 5.75018 23.2999 8.33389 25.8015L12.1141 29.4543C12.8773 30.1919 13.5013 30.1869 14.2697 29.4444C23.6557 20.3796 33.0365 11.3098 42.4173 2.24006C42.572 2.09056 42.6751 1.97594 42.7576 1.87129C42.9948 1.56232 43.0567 1.17362 42.9278 0.804845C42.804 0.441058 42.5152 0.166972 42.1336 0.0573371Z" fill="#E68A00"/>
</svg>
