<svg width="31" height="46" viewBox="0 0 31 46" fill="none" xmlns="http://www.w3.org/2000/svg">
<path d="M15.4997 0C10.1552 0 5.81232 4.29624 5.81232 9.58328V23.6388C5.81232 28.9258 10.1552 33.222 15.4997 33.222C20.8442 33.222 25.1872 28.9258 25.1872 23.6388V9.58328C25.1872 4.29624 20.8442 0 15.4997 0ZM15.4997 2.55554C19.4578 2.55554 22.6039 5.66782 22.6039 9.58328V23.6388C22.6039 27.5542 19.4578 30.6665 15.4997 30.6665C11.5417 30.6665 8.39563 27.5542 8.39563 23.6388V9.58328C8.39563 5.66782 11.5417 2.55554 15.4997 2.55554ZM1.31197 15.9721C0.622228 15.9615 -0.010576 16.5875 0.000134024 17.2699V23.6587C0.000134024 31.7033 6.24529 38.2871 14.2084 38.9323V43.4445H9.04173C8.32841 43.4445 7.75007 44.0166 7.75007 44.7222C7.75007 45.4279 8.32841 46 9.04173 46H21.9583C22.6716 46 23.2499 45.4279 23.2499 44.7222C23.2499 44.0166 22.6716 43.4459 21.9583 43.4445H16.7917V38.9323C24.7547 38.2872 30.9999 31.7039 30.9999 23.6587V17.2699C31.0096 16.5948 30.3907 15.974 29.7082 15.974C29.0258 15.974 28.4069 16.595 28.4166 17.2699V23.6587C28.4166 30.7599 22.6784 36.4364 15.5 36.4364C8.32163 36.4364 2.58345 30.7599 2.58345 23.6587V17.2699C2.59396 16.6008 1.98826 15.9825 1.31197 15.9721V15.9721Z" fill="#E68A00"/>
</svg>
