<svg width="49" height="40" viewBox="0 0 49 40" fill="none" xmlns="http://www.w3.org/2000/svg">
<path d="M0.0109816 10.1331C0.263559 9.19358 0.614971 8.33238 1.33976 7.65013C1.99866 7.04617 2.74541 6.64353 3.63492 6.54287C3.96437 6.50932 4.03026 6.36392 4.01927 6.07313C4.00829 5.7376 4.00829 5.39088 4.03026 5.05535C4.07418 4.29481 4.6013 3.73559 5.34805 3.7244C6.68781 3.70204 8.02757 3.70204 9.36733 3.7244C10.0592 3.73559 10.5753 4.25007 10.6522 4.97706C10.6961 5.34614 10.6961 5.72641 10.6741 6.0955C10.6632 6.43103 10.8059 6.48695 11.0805 6.40866C11.9151 6.17379 12.53 5.68167 12.9144 4.89877C13.2987 4.11586 13.6721 3.33295 14.0565 2.55004C14.9021 0.850014 16.2418 0 18.0977 0C22.3586 0 26.6195 0 30.8693 0C32.7033 0 34.043 0.827646 34.8776 2.48294C35.251 3.23229 35.6354 3.98165 35.9978 4.74218C36.5578 5.90536 37.4693 6.47577 38.7541 6.47577C40.6869 6.46458 42.6087 6.46458 44.5415 6.47577C46.8805 6.48695 48.5498 7.87382 48.9561 10.1107C49 10.3456 49 10.5916 49 10.8377C49 18.7674 49 26.6972 49 34.6157C49 37.0763 47.1441 38.9776 44.7391 38.9776C32.7801 38.9776 20.8102 38.9776 8.85119 38.9776C8.74137 38.9776 8.62057 38.9888 8.52174 38.9664C8.13738 38.8658 7.90677 38.6197 7.93971 38.1947C7.96168 37.8033 8.18131 37.5684 8.56567 37.5237C8.77432 37.5013 8.98297 37.5125 9.19162 37.5125C20.942 37.5125 32.7033 37.5125 44.4536 37.5125C45.0027 37.5125 45.5408 37.4677 46.035 37.1993C47.0563 36.6513 47.5834 35.7565 47.5834 34.5933C47.5944 26.686 47.5944 18.7674 47.5834 10.8601C47.5834 9.19358 46.3754 7.98566 44.7281 7.97448C42.7624 7.96329 40.8077 7.96329 38.842 7.97448C36.9422 7.97448 35.5475 7.13565 34.6909 5.39088C34.3395 4.66389 33.9662 3.94809 33.6147 3.22111C33.0437 2.03556 32.0993 1.47634 30.8144 1.47634C26.5865 1.47634 22.3586 1.47634 18.1307 1.47634C16.8348 1.47634 15.9014 2.04675 15.3413 3.24348C14.9789 4.00402 14.6275 4.76455 14.2432 5.51391C13.4195 7.13565 12.0908 7.95211 10.3117 7.97448C8.34603 7.99685 6.3913 7.97448 4.42559 7.98566C2.59166 7.98566 1.43859 9.17121 1.43859 11.0278C1.43859 18.8457 1.43859 26.6524 1.43859 34.4703C1.43859 36.3157 2.62461 37.5125 4.43658 37.5237C4.85388 37.5237 5.27118 37.5125 5.6775 37.5348C6.08382 37.5572 6.31443 37.8145 6.32542 38.2283C6.3364 38.6533 6.10578 38.9553 5.71044 38.9664C4.85388 39 3.98633 39.0895 3.14074 38.8322C1.55939 38.3625 0.560063 37.3 0.109816 35.6894C0.0768714 35.5888 0.109816 35.4545 0 35.3763C0.0109816 26.9656 0.0109816 18.5437 0.0109816 10.1331ZM7.33572 5.18956C6.98431 5.18956 6.6329 5.18956 6.28149 5.18956C5.44689 5.18956 5.45787 5.18956 5.44689 6.03958C5.44689 6.37511 5.53474 6.48695 5.87517 6.47577C6.69879 6.4534 7.53339 6.47577 8.368 6.46458C9.35634 6.44221 9.19162 6.68827 9.22456 5.54746C9.23555 5.27904 9.14769 5.16719 8.87315 5.17838C8.35701 5.20075 7.84088 5.18956 7.33572 5.18956Z" fill="#E68A00"/>
<path d="M36.7115 22.2123C36.6896 29.0795 31.2317 34.627 24.5 34.6158C17.7573 34.6046 12.2994 29.0348 12.3214 22.1899C12.3433 15.3339 17.8231 9.75284 24.5329 9.77521C31.2427 9.7864 36.7225 15.3786 36.7115 22.2123ZM24.5329 11.2739C18.6248 11.2516 13.8039 16.1056 13.7709 22.1228C13.738 28.1847 18.515 33.1282 24.4121 33.1506C30.3861 33.173 35.218 28.3189 35.24 22.2682C35.2729 16.1839 30.5069 11.2963 24.5329 11.2739Z" fill="#E68A00"/>
<path d="M8.04951 12.191C8.03852 13.5108 6.98429 14.5733 5.69944 14.5621C4.41459 14.5509 3.36035 13.4772 3.36035 12.1686C3.36035 10.8601 4.41459 9.77519 5.69944 9.764C7.00625 9.75282 8.06049 10.8489 8.04951 12.191ZM5.71042 13.0746C6.21557 13.0746 6.63288 12.6496 6.61091 12.1575C6.59993 11.6653 6.20459 11.2739 5.71042 11.2739C5.20526 11.2739 4.78796 11.6877 4.80993 12.191C4.83189 12.6831 5.22723 13.0746 5.71042 13.0746Z" fill="#E68A00"/>
<path d="M24.4672 5.18948C23.369 5.18948 22.2709 5.18948 21.1727 5.18948C20.5797 5.18948 20.2393 4.92105 20.2283 4.46249C20.2173 3.99274 20.5797 3.71313 21.1947 3.71313C23.4349 3.71313 25.6861 3.71313 27.9264 3.71313C28.3657 3.71313 28.6731 3.8809 28.783 4.32828C28.8598 4.66381 28.6951 4.93223 28.4206 5.1C28.2339 5.21184 28.0252 5.18948 27.8166 5.18948C26.6964 5.18948 25.5763 5.18948 24.4672 5.18948Z" fill="#E68A00"/>
<path d="M43.608 11.9674C43.3993 11.9674 43.1907 11.9897 42.993 11.9674C42.5867 11.9003 42.3561 11.6318 42.3671 11.2292C42.3781 10.8378 42.5977 10.547 43.015 10.5246C43.4323 10.5022 43.8386 10.5022 44.2559 10.5246C44.6732 10.547 44.9368 10.8489 44.9258 11.2516C44.9258 11.643 44.6403 11.945 44.234 11.9674C44.0253 11.9897 43.8167 11.9786 43.608 11.9674C43.608 11.9786 43.608 11.9786 43.608 11.9674Z" fill="#E68A00"/>
<path d="M24.4229 13.1975C26.8389 13.2422 28.8485 14.0363 30.5506 15.6357C30.8471 15.9153 30.935 16.2397 30.7373 16.5976C30.5506 16.9443 30.2212 17.0449 29.8698 16.9107C29.6831 16.8436 29.5293 16.6759 29.3756 16.5416C25.565 13.2199 19.7557 14.5285 17.7461 19.1812C15.7584 23.7668 18.6795 29.0123 23.5773 29.6498C29.0681 30.3767 33.351 24.8964 31.4402 19.595C31.3852 19.4608 31.3413 19.3266 31.2974 19.1812C31.1546 18.7562 31.3084 18.3759 31.6817 18.2193C32.0551 18.0627 32.4395 18.2081 32.6262 18.6331C32.9886 19.4496 33.2192 20.3108 33.307 21.2055C33.7683 25.903 30.8142 30.0188 26.2678 31.0143C21.4579 32.0768 16.5381 28.6208 15.8133 23.6661C15.0666 18.5996 18.3281 14.0587 23.3028 13.287C23.6981 13.2199 24.1154 13.2199 24.4229 13.1975Z" fill="#E68A00"/>
</svg>
