<svg width="49" height="36" viewBox="0 0 49 36" fill="none" xmlns="http://www.w3.org/2000/svg">
<path d="M8.90909 0H49V27H8.90909V0ZM28.9545 6.75C30.7267 6.75 32.4262 7.46116 33.6793 8.72703C34.9324 9.9929 35.6364 11.7098 35.6364 13.5C35.6364 15.2902 34.9324 17.0071 33.6793 18.273C32.4262 19.5388 30.7267 20.25 28.9545 20.25C27.1824 20.25 25.4829 19.5388 24.2298 18.273C22.9767 17.0071 22.2727 15.2902 22.2727 13.5C22.2727 11.7098 22.9767 9.9929 24.2298 8.72703C25.4829 7.46116 27.1824 6.75 28.9545 6.75ZM15.68 3C15.68 4.19347 15.5354 4.65609 14.7 5.5C13.8646 6.34391 12.9414 6 11.76 6V21C12.9414 21 13.8646 20.6561 14.7 21.5C15.5354 22.3439 15.68 22.8065 15.68 24H42.14C42.14 22.8065 42.2846 22.3439 43.12 21.5C43.9554 20.6561 44.8786 21 46.06 21V6C44.8786 6 43.9554 6.34391 43.12 5.5C42.2846 4.65609 42.14 4.19347 42.14 3H15.68ZM0 9H2.94V33H40.0909V36H0V9Z" fill="#E68A00"/>
</svg>
