<svg width="64" height="66" viewBox="0 0 64 66" fill="none" xmlns="http://www.w3.org/2000/svg">
<path fill-rule="evenodd" clip-rule="evenodd" d="M29.3279 0.317759C29.0501 0.492066 28.7842 0.810825 28.7371 1.026C28.6901 1.24117 28.4852 2.32822 28.282 3.44196L27.9127 5.46676L27.0873 5.81888C26.6332 6.01254 26.1739 6.171 26.0667 6.171C25.9594 6.171 25.0566 5.57051 24.0605 4.83658C22.8129 3.91734 22.106 3.50217 21.7881 3.50217C21.2922 3.50217 20.8725 3.84278 18.6977 6.01003C17.5862 7.11743 17.4364 7.33778 17.4364 7.86404C17.4364 8.19247 17.5693 8.64016 17.7317 8.85901C17.8942 9.07785 18.4799 9.94255 19.0331 10.7806L20.0391 12.3043L19.6985 13.1992C19.5112 13.6914 19.3084 14.1465 19.2478 14.2105C19.1874 14.2746 18.1542 14.4821 16.9516 14.6717C13.8597 15.1593 13.9524 15.0378 13.9524 18.5966C13.9524 21.1181 13.9787 21.3671 14.2765 21.6727C14.5107 21.9131 15.2297 22.1289 16.8693 22.4512C18.117 22.6965 19.1537 22.9094 19.1731 22.9242C19.1924 22.9391 19.389 23.3721 19.61 23.8865L20.0119 24.8219L18.6431 26.7785C17.6884 28.1433 17.2744 28.8794 17.2744 29.2122C17.2744 29.7433 17.7322 30.3287 19.7638 32.3966C21.4063 34.0683 21.562 34.0788 23.5329 32.6504C26.0122 30.8533 25.7666 30.9607 26.6421 31.2912C27.0602 31.4491 27.4948 31.664 27.6078 31.7687C27.7205 31.8736 27.92 32.6408 28.0508 33.4734C28.4428 35.9673 28.621 36.647 28.9688 36.9711C29.2623 37.2447 29.5992 37.2795 31.952 37.2795C35.3454 37.2795 35.1689 37.4245 35.7419 34.1655L36.1591 31.7927L37.0887 31.4219L38.0184 31.0513L39.0304 31.7802C41.4958 33.5558 41.9786 33.8601 42.3305 33.8601C42.7472 33.8601 43.2873 33.4099 45.2602 31.4179C47.0426 29.6185 47.0484 29.4725 45.4304 27.1443C44.7841 26.2146 44.1941 25.3504 44.1189 25.2238C44.0351 25.0826 44.1173 24.6224 44.3313 24.033L44.6804 23.0722L46.8176 22.6897C49.4927 22.2108 49.6472 22.1488 49.935 21.4397C50.2085 20.766 50.2685 16.8001 50.0155 16.1152C49.7669 15.4423 49.2481 15.2215 46.9538 14.813L44.7906 14.4277L44.4047 13.4486L44.0189 12.4694L45.2416 10.7224C46.6773 8.67036 46.8426 8.33775 46.7058 7.77663C46.6494 7.54528 45.8198 6.52578 44.8622 5.51113C42.6075 3.12186 42.6436 3.12553 40.0345 5.02324L38.1727 6.3775L37.2461 5.96567C36.2038 5.50229 36.2889 5.69561 35.8346 2.75757C35.5571 0.961947 35.3094 0.406831 34.6757 0.15863C34.4517 0.0710587 33.2705 -0.000332439 32.0508 1.16443e-06C30.1574 0.00050157 29.7593 0.0470394 29.3279 0.317759ZM32.9238 3.0825C33.0194 3.11152 33.2308 4.01008 33.3937 5.07928C33.7397 7.35112 33.9379 7.69373 35.1424 8.09989C35.6091 8.25735 36.4926 8.644 37.1054 8.95926C37.7899 9.31137 38.3537 9.49802 38.5666 9.44298C38.7574 9.39377 39.6361 8.82498 40.5193 8.17912C41.4026 7.53343 42.1706 7.00501 42.2258 7.00501C42.2809 7.00501 42.5955 7.2889 42.9246 7.63585L43.523 8.2667L42.3093 10.0098C40.9085 12.0212 40.8601 12.2733 41.5887 13.7525C41.8577 14.2984 42.1897 15.1413 42.3263 15.6253C42.6498 16.7704 43.0729 17.0947 44.5352 17.3187C45.1836 17.4179 46.0969 17.5836 46.5647 17.687L47.4154 17.8748V18.6985C47.4154 19.6924 47.3983 19.7025 44.9847 20.1026C44.0489 20.2577 43.1307 20.4831 42.9442 20.6037C42.7408 20.7351 42.4258 21.3448 42.1562 22.1288C41.909 22.8472 41.5329 23.7419 41.3201 24.1169C41.1075 24.4918 40.9335 24.953 40.9335 25.1417C40.9335 25.4366 41.992 27.1929 43.0991 28.7354L43.4316 29.1986L42.7877 29.8617L42.1437 30.5246L40.4477 29.2732C38.5321 27.8599 38.1186 27.7578 36.9922 28.4202C36.6198 28.639 35.8314 28.98 35.2401 29.1778C34.6489 29.3756 34.0395 29.6804 33.886 29.855C33.7183 30.0457 33.4804 30.893 33.2905 31.9747C33.1166 32.9657 32.9406 33.9455 32.8996 34.152C32.8341 34.4809 32.7248 34.5273 32.0137 34.5273C31.0437 34.5273 31.0655 34.5682 30.6353 31.9444C30.2866 29.8175 30.1279 29.5895 28.6708 29.1234C28.1514 28.9573 27.3791 28.629 26.9545 28.3938C25.7576 27.7311 25.4301 27.8057 23.4899 29.1828L21.7761 30.3991L21.1214 29.7252L20.4668 29.0514L21.7064 27.3004C22.5021 26.1765 22.9461 25.3931 22.9461 25.113C22.9461 24.873 22.7362 24.247 22.4796 23.722C22.223 23.1973 21.8813 22.3351 21.72 21.8063C21.559 21.2774 21.3002 20.7266 21.1453 20.5822C20.9902 20.4379 20.0741 20.1688 19.1094 19.9845C16.64 19.5125 16.6262 19.5048 16.6262 18.6217C16.6262 18.2181 16.7174 17.8114 16.8288 17.7178C16.9403 17.6243 17.8532 17.4183 18.8578 17.26C20.9997 16.9225 21.3339 16.7145 21.7259 15.4742C21.8788 14.9903 22.2537 14.0586 22.5588 13.4035C23.2264 11.9704 23.2268 11.9722 21.7072 9.72871L20.6319 8.14109L21.2883 7.46538L21.9446 6.78967L23.1341 7.68072C25.7567 9.64548 25.6565 9.61946 27.3081 8.76326C27.9202 8.44601 28.7525 8.10056 29.1576 7.99548C29.5627 7.89056 30.0095 7.67355 30.1501 7.51342C30.291 7.35329 30.5927 6.29376 30.8207 5.15885C31.0489 4.02393 31.2707 3.03663 31.3138 2.9649C31.3817 2.85164 32.413 2.92704 32.9238 3.0825ZM30.3614 11.7685C29.1039 12.0823 28.2365 12.5618 27.305 13.4587C25.7706 14.9361 25.0271 16.694 25.0336 18.8287C25.0432 21.9419 27.0477 24.7242 29.9032 25.5876C30.9771 25.9121 32.787 25.9283 33.9006 25.6231C37.1602 24.7297 39.4287 21.0822 38.8387 17.6835C38.3156 14.6709 36.4026 12.528 33.5546 11.7644C32.4101 11.4574 31.6039 11.4586 30.3614 11.7685ZM33.7223 14.8223C34.4879 15.1811 35.5169 16.3025 35.8645 17.1566C36.18 17.932 36.1822 19.5914 35.869 20.3613C34.9468 22.6273 32.2339 23.6765 30.1119 22.588C27.4063 21.2002 26.9912 17.4715 29.3144 15.4245C29.6818 15.1009 30.2039 14.7696 30.4749 14.6886C31.3533 14.4257 33.0229 14.4944 33.7223 14.8223ZM14.6816 37.4705C13.3681 37.7389 12.0707 38.1687 9.98383 39.0266C7.0266 40.2424 0.754833 43.1591 0.390061 43.4884C-0.0225147 43.8607 -0.123147 44.6026 0.162059 45.1702C0.657117 46.1557 1.39687 46.111 3.76489 44.9524C4.79633 44.4478 5.66961 44.035 5.70574 44.035C5.74188 44.035 6.59134 43.6539 7.59329 43.188C13.1235 40.6164 15.0986 40.0668 18.1537 40.2489C21.5462 40.4514 22.7661 40.994 25.0341 43.3097C26.7395 45.051 27.5932 45.5666 29.9144 46.2568C32.0024 46.8778 34.1151 47.1992 36.8013 47.3048C39.6943 47.4184 40.7381 47.6678 41.3245 48.385C41.8601 49.0402 41.8883 49.9725 41.3924 50.6213C40.7134 51.5099 40.2475 51.5975 35.7855 51.6742C30.873 51.7589 28.4995 51.5669 24.8307 50.788C22.5011 50.2934 22.0347 50.2383 21.6766 50.4157C20.7933 50.8528 20.6132 51.9754 21.3112 52.6938C21.634 53.0261 23.9553 53.6404 26.8353 54.1557C28.2696 54.4122 29.4528 54.4601 34.3705 54.4601C41.3328 54.4601 40.9868 54.5385 44.4757 52.1706C50.6169 48.0027 55.4602 44.7517 55.9867 44.4442C58.076 43.2238 60.1748 42.8465 60.8131 43.5763C60.9937 43.7828 61.191 44.0422 61.2516 44.1528C61.4249 44.4687 60.9677 45.3904 60.2792 46.1133C59.7004 46.721 55.5072 49.6223 47.2515 55.1273C45.4629 56.3199 43.5102 57.623 42.9121 58.0232C40.2714 59.7897 36.7181 61.9795 35.6261 62.5133C34.583 63.0232 34.2822 63.0943 33.168 63.0943C32.3874 63.0943 31.5319 62.976 30.9468 62.787C30.4235 62.6182 27.0477 60.9485 23.445 59.0767C19.8424 57.205 16.4948 55.5318 16.0059 55.3587C14.8053 54.9335 13.5215 54.9593 12.4129 55.4311C11.4112 55.8574 7.66605 58.2532 7.10584 58.826C6.32412 59.6253 6.9271 61.2156 8.01186 61.2156C8.25428 61.2156 9.4656 60.5434 10.9427 59.5893C13.2966 58.0687 13.5144 57.9634 14.2919 57.9713C15.0456 57.9789 15.7905 58.3249 22.2354 61.6603C29.5582 65.4502 30.171 65.7055 32.588 65.9731C33.7585 66.1025 35.5314 65.7552 36.8346 65.1411C37.7559 64.7071 42.3051 61.8646 45.6329 59.6436C46.6579 58.9596 47.934 58.1184 48.4688 57.7741C49.0035 57.4298 52.2121 55.2622 55.5989 52.9572C62.0619 48.5585 62.877 47.8774 63.6176 46.2558C64.6433 44.0095 63.5273 41.373 61.206 40.5587C60.4566 40.2958 58.8545 40.3155 57.7862 40.6007L56.905 40.8359L56.3675 40.3502C55.7264 39.7707 54.5116 39.1185 53.7624 38.9519C52.9961 38.7812 51 38.8211 50.3497 39.0199C49.8553 39.1712 49.7366 39.1364 49.169 38.6736C48.8219 38.3908 48.0136 37.9716 47.3728 37.7422C46.3869 37.3893 46.0074 37.3376 44.9074 37.4065C42.8131 37.5374 41.7903 38.0148 37.022 41.0869C34.3138 42.8318 32.5485 43.8682 32.284 43.8682C32.0523 43.8682 31.1508 43.6338 30.2807 43.3474C28.7175 42.8327 28.6797 42.8077 27.0736 41.2167C24.2388 38.4086 22.0868 37.5447 17.6795 37.4458C16.2535 37.4138 14.9044 37.425 14.6816 37.4705ZM46.378 40.3869C46.7775 40.4905 47.0789 40.6543 47.0474 40.751C47.0162 40.8477 46.2292 41.4124 45.2989 42.0057C44.3686 42.599 42.9986 43.4745 42.2545 43.9513C40.9894 44.7622 40.8583 44.8096 40.2289 44.684C39.859 44.6103 39.0638 44.5467 38.4623 44.5427C37.8607 44.5387 37.3684 44.4668 37.3684 44.3831C37.3684 44.2992 38.59 43.4554 40.0827 42.5078C43.4529 40.3684 44.6938 39.9504 46.378 40.3869ZM53.5492 41.8829C53.8298 41.9837 54.058 42.1149 54.0562 42.1748C54.0544 42.2347 53.161 42.8816 52.0711 43.6125C50.981 44.3434 49.1411 45.5819 47.9823 46.3647C44.1396 48.9605 44.5025 48.7521 44.4077 48.4182C44.3613 48.2551 44.1529 47.7668 43.9444 47.333C43.6713 46.765 43.6165 46.5028 43.7484 46.3956C44.219 46.0124 50.3174 42.204 50.8185 41.9802C51.4973 41.6771 52.8421 41.6292 53.5492 41.8829Z" fill="#E68A00"/>
</svg>
