<svg width="56" height="50" viewBox="0 0 56 50" fill="none" xmlns="http://www.w3.org/2000/svg">
<path fill-rule="evenodd" clip-rule="evenodd" d="M12.1319 0.188259C11.2127 0.430275 10.0005 1.24886 9.50548 1.96216C9.27857 2.2891 8.81895 3.22599 8.48398 4.04444C8.149 4.86275 7.77847 5.61082 7.66049 5.70683C7.50511 5.83303 6.42384 5.90036 3.74927 5.9505L0.0526389 6.01977V7.12803V8.23628H4.01853C7.84207 8.23628 8.00552 8.2252 8.57123 7.9293C9.49386 7.44679 10.0603 6.67544 10.7305 4.98881C11.2265 3.7405 11.4432 3.36937 11.899 2.98786C12.2068 2.73019 12.655 2.48097 12.8949 2.434C13.465 2.32249 42.5876 2.32249 43.1577 2.434C43.3977 2.48097 43.8458 2.73019 44.1536 2.98786C44.6094 3.36937 44.8261 3.7405 45.3221 4.98881C45.9924 6.67544 46.5588 7.44679 47.4814 7.9293C48.0471 8.2252 48.2106 8.23628 52.0341 8.23628H56V7.12803V6.01977L52.3034 5.9505C49.6288 5.90036 48.5475 5.83303 48.3922 5.70683C48.2742 5.61082 47.9042 4.86275 47.5701 4.04444C46.8379 2.251 46.2482 1.41593 45.2883 0.813593C43.9355 -0.0356089 44.5403 -0.0072094 27.96 0.00290345C16.1757 0.0102457 12.6513 0.0515279 12.1319 0.188259ZM0.0461236 10.835C0.00349029 10.9438 -0.0125151 11.4946 0.010572 12.0589L0.0526389 13.0849L3.67732 13.1219C7.22212 13.1579 7.30852 13.1655 7.59718 13.4682C7.78074 13.6606 8.64601 16.0023 9.88719 19.6652C10.9843 22.9034 11.9861 25.7398 12.1132 25.9684C12.4568 26.5857 13.0185 27.1386 13.5991 27.4307C14.0517 27.6585 16.8023 28.6231 19.1031 29.3608C19.5315 29.4982 21.5638 30.1783 23.6192 30.8719C26.318 31.7826 27.5464 32.1331 28.0406 32.1331C28.4759 32.1331 29.3321 31.9264 30.394 31.5651C31.3119 31.2526 32.4136 30.8848 32.842 30.7476C35.75 29.817 41.9724 27.6726 42.4235 27.4457C43.0313 27.1401 43.5902 26.5955 43.9399 25.9684C44.0673 25.7398 45.0693 22.9034 46.1664 19.6652C47.4041 16.0124 48.2732 13.6601 48.4559 13.4682C48.7441 13.1655 48.8304 13.1579 52.3753 13.1219L56 13.0849V11.9074V10.7299H52.1758H48.3515L47.5834 11.1455C46.8285 11.554 46.1081 12.3331 45.8543 13.0156C45.7752 13.228 45.5097 13.4508 45.1676 13.5917C44.8608 13.718 44.056 14.1855 43.3791 14.6307L42.1483 15.44L41.0715 15.4368C39.8904 15.4332 39.5431 15.2966 38.0827 14.2608C36.935 13.4468 35.6619 13.1007 34.1295 13.1862C32.6824 13.2668 32.0865 13.4937 30.4611 14.5824C28.5891 15.8364 27.4636 15.8364 25.5915 14.5824C23.9906 13.5101 23.3746 13.2721 21.9798 13.1869C20.3013 13.0845 19.3405 13.3685 17.6269 14.4736C15.4828 15.8562 14.5555 15.8673 12.5215 14.5349C11.8261 14.0793 11.0485 13.6327 10.7937 13.5426C10.5124 13.4432 10.2793 13.2395 10.2001 13.0241C9.94711 12.3361 9.22871 11.5563 8.46925 11.1455L7.70114 10.7299L3.91244 10.6835C0.728965 10.6445 0.111419 10.6688 0.0461236 10.835ZM23.9844 16.3942C25.7618 17.563 26.3929 17.7792 28.0263 17.7792C29.6597 17.7792 30.2908 17.563 32.0684 16.3942L33.3089 15.5785H34.5492H35.7895L36.8299 16.2869C38.2757 17.2716 38.9086 17.5603 40.035 17.7493C41.2489 17.9528 42.6388 17.7583 43.6552 17.2425C44.04 17.0472 44.3843 16.9163 44.4203 16.9516C44.4564 16.9869 43.8676 18.83 43.1119 21.0475C42.07 24.1047 41.6642 25.1258 41.4329 25.2728C41.2652 25.3794 40.6499 25.6208 40.0656 25.8095C39.4814 25.9982 37.5055 26.6577 35.6748 27.2753C33.8441 27.8928 31.3856 28.7199 30.2112 29.1134L28.0763 29.8287L26.9535 29.4683C26.3361 29.2699 23.8551 28.443 21.4401 27.6308C19.0252 26.8184 16.5183 25.9752 15.8692 25.757C15.2202 25.5387 14.6025 25.2897 14.4965 25.2038C14.2907 25.0368 11.522 17.0595 11.6323 16.9516C11.6683 16.9163 12.0126 17.0472 12.3975 17.2425C13.4139 17.7583 14.8038 17.9528 16.0176 17.7493C17.121 17.5642 17.8025 17.2592 19.0447 16.3943C20.2206 15.5756 20.4298 15.508 21.6672 15.5458C22.7249 15.5781 22.7663 15.5933 23.9844 16.3942ZM27.5098 34.7311C26.7184 35.1671 24.5464 37.7634 23.3756 39.6731C22.6476 40.8606 22.264 41.8458 22.0462 43.0888C21.6496 45.3503 22.6933 47.6851 24.7063 49.0397C26.3269 50.1302 28.6678 50.3109 30.4733 49.4845C32.3596 48.621 33.665 46.9556 34.0131 44.9677C34.4464 42.4932 33.1063 39.5958 29.8147 35.8906C28.6243 34.5507 28.213 34.3438 27.5098 34.7311ZM28.7774 38.4017C30.1748 40.0111 31.4377 42.3423 31.6309 43.6689C31.8673 45.2918 30.7354 46.983 29.1046 47.4438C27.0773 48.0165 25.1142 46.9841 24.5369 45.0415C24.2594 44.1082 24.3631 43.3384 24.9411 42.0381C25.6257 40.4985 27.6222 37.6744 28.0263 37.6744C28.0922 37.6744 28.4301 38.0017 28.7774 38.4017Z" fill="#E68A00"/>
</svg>
