<svg width="49" height="51" viewBox="0 0 49 51" fill="none" xmlns="http://www.w3.org/2000/svg">
<path d="M40.1415 -3.87133e-07C40.9163 0.267336 41.4405 0.809988 41.915 1.45904C44.0425 4.37314 46.1941 7.26994 48.347 10.1654C48.9824 11.0206 49.2184 11.929 48.7197 12.9053C48.2331 13.8576 47.3751 14.2433 46.3241 14.2473C45.7048 14.2499 45.0868 14.2593 44.4674 14.2446C44.1913 14.238 44.072 14.2938 44.0251 14.6091C43.6175 17.2904 42.9338 19.8919 41.655 22.3099C41.1174 23.3261 40.4927 24.285 39.7433 25.1602C39.5851 25.3451 39.4605 25.4847 39.6803 25.7427C41.911 28.3562 43.0666 31.4512 43.7422 34.7563C43.8481 35.2751 43.9647 35.7964 44.0103 36.3218C44.0425 36.6902 44.2087 36.7381 44.5224 36.7301C45.1913 36.7142 45.8603 36.7142 46.5292 36.7381C47.5065 36.7727 48.2746 37.2009 48.7224 38.0721C49.1715 38.9486 49.0575 39.8264 48.4851 40.6071C46.1847 43.7447 43.8803 46.8782 41.5464 49.9918C40.549 51.3219 38.8304 51.3432 37.8303 50.0171C35.4683 46.8836 33.1438 43.7221 30.83 40.5539C30.271 39.7892 30.1959 38.9114 30.6356 38.0562C31.0753 37.2023 31.834 36.7846 32.7885 36.7407C33.3891 36.7128 33.9923 36.7141 34.5942 36.7288C34.9321 36.7368 35.0567 36.7009 34.9616 36.2939C34.0366 32.3796 31.0458 30.0214 26.8807 29.9869C24.1714 29.9642 21.4622 29.9829 18.7542 29.9815C18.6041 29.9815 18.4526 29.9842 18.3025 29.9802C17.7274 29.9669 17.3735 29.6743 17.3828 29.2221C17.3922 28.7699 17.7515 28.4799 18.3266 28.4799C21.2195 28.4773 24.1124 28.4693 27.0054 28.4813C31.8139 28.4999 35.5863 31.5975 36.5233 36.2806C36.585 36.5891 36.6426 36.899 36.6922 37.2089C36.7914 37.8247 36.4764 38.2118 35.849 38.2184C34.9294 38.2291 34.0098 38.2224 33.0901 38.2211C32.633 38.2211 32.2121 38.3102 31.9882 38.7571C31.7724 39.1893 31.9681 39.5511 32.2282 39.9022C34.4656 42.9214 36.6976 45.9446 38.9323 48.9651C39.4269 49.6341 39.923 49.6434 40.4123 48.9837C42.659 45.9512 44.9004 42.9148 47.1445 39.8796C47.4006 39.5325 47.6017 39.1694 47.3604 38.7345C47.1284 38.3195 46.7303 38.2224 46.2919 38.2224C45.3884 38.2211 44.4862 38.2251 43.5827 38.2211C42.9727 38.2184 42.7234 38.0269 42.6429 37.4297C42.3333 35.1248 41.8534 32.8624 40.9244 30.7157C39.5637 27.5689 37.5408 25.0152 34.3154 23.5588C32.7738 22.8632 31.1463 22.5081 29.4599 22.5001C24.4771 22.4788 19.4929 22.4908 14.51 22.4895C14.3425 22.4895 14.1736 22.5014 14.0087 22.4802C13.5864 22.4243 13.3116 22.1024 13.3397 21.6928C13.3692 21.2659 13.6119 21.0304 14.0408 20.9945C14.2071 20.9812 14.3746 20.9852 14.5422 20.9852C18.5558 20.9852 22.5695 20.9865 26.5831 20.9839C27.6555 20.9826 28.7199 20.8948 29.7455 20.5516C32.6679 19.5754 34.2417 17.4354 34.9884 14.5771C35.0688 14.2699 34.9361 14.2433 34.6934 14.2446C34.0755 14.2486 33.4561 14.2566 32.8381 14.2327C31.8649 14.1954 31.0833 13.7858 30.6383 12.9093C30.1852 12.0168 30.3031 11.1297 30.8916 10.3303C33.1759 7.22206 35.4737 4.12442 37.7633 1.0188C38.1172 0.539992 38.6213 0.262015 39.1387 -4.30964e-07C39.4725 -4.16374e-07 39.8077 -4.01724e-07 40.1415 -3.87133e-07ZM31.9574 21.2525C34.3623 21.7314 36.4027 22.701 38.1668 24.2185C38.4014 24.4207 38.4899 24.3103 38.6266 24.1454C39.3371 23.2822 39.939 22.3485 40.4418 21.3523C41.6818 18.8931 42.2783 16.2556 42.6443 13.553C42.7247 12.9545 42.9647 12.7537 43.5693 12.7497C44.4554 12.7443 45.3415 12.7483 46.2276 12.7483C46.6981 12.7483 47.1351 12.6725 47.3738 12.203C47.611 11.7362 47.355 11.3771 47.0936 11.0233C44.8803 8.03072 42.6671 5.03682 40.4538 2.04426C39.9176 1.31939 39.4457 1.31407 38.9175 2.0283C36.6936 5.03416 34.4709 8.04136 32.2443 11.0446C31.9748 11.4077 31.7603 11.7814 31.9989 12.231C32.2322 12.6699 32.6571 12.7497 33.1129 12.7497C34.0326 12.7483 34.9522 12.7417 35.8705 12.7523C36.4321 12.759 36.7794 13.1154 36.7083 13.6328C36.3611 16.1333 35.4254 18.3504 33.5084 20.0901C33.0539 20.5011 32.5392 20.8309 31.9574 21.2525Z" fill="#E68A00"/>
<path d="M7.87984 29.9828C5.59017 29.9828 3.29916 29.9842 1.00949 29.9815C0.225265 29.9802 0.00273023 29.7567 0.00138971 28.9747C4.92535e-05 26.6365 4.93557e-05 24.297 0.00139001 21.9588C0.0027306 21.2352 0.235988 20.9892 0.945142 20.9892C4.22146 20.9852 7.49778 20.9865 10.7754 20.9878C10.9577 20.9878 11.1495 20.9679 11.3157 21.0623C11.616 21.2352 11.7862 21.4933 11.7272 21.8457C11.6696 22.1915 11.443 22.407 11.1012 22.4748C10.9403 22.5067 10.7687 22.4921 10.6012 22.4921C7.72567 22.4934 4.85018 22.4988 1.97469 22.4841C1.60872 22.4828 1.49209 22.5639 1.49745 22.9456C1.52024 24.6202 1.52158 26.296 1.49745 27.9705C1.49075 28.3841 1.59933 28.4919 2.01893 28.4892C6.23095 28.4733 10.4443 28.4786 14.6577 28.4799C14.8078 28.4799 14.9606 28.4693 15.1081 28.4866C15.525 28.5358 15.828 28.8696 15.7972 29.262C15.7636 29.6783 15.5384 29.935 15.1027 29.9709C14.9365 29.9842 14.7689 29.9802 14.6014 29.9815C12.36 29.9828 10.1199 29.9828 7.87984 29.9828Z" fill="#E68A00"/>
</svg>
