<svg width="37" height="37" viewBox="0 0 37 37" fill="none" xmlns="http://www.w3.org/2000/svg">
<path d="M35.4396 35.1616L33.5619 33.2283C31.2734 30.8734 28.9897 28.5136 26.6866 26.1733C26.2709 25.7517 25.7086 24.8795 26.5643 23.7844C29.0533 20.5913 30.0802 16.9572 29.6205 12.9936C29.1707 9.1269 27.3809 5.88528 24.3003 3.36564C21.156 0.792696 17.469 -0.312071 13.3467 0.075567C11.2489 0.274231 9.23913 0.923524 7.38583 2.01375C4.77458 3.53523 2.78436 5.67693 1.45918 8.37586C0.251353 10.847 -0.213194 13.5266 0.089984 16.3467C0.358933 18.8566 1.27336 21.2018 2.80881 23.3144C4.34915 25.4367 6.35404 27.06 8.75991 28.1454C11.8259 29.5263 15.0875 29.8219 18.4567 29.0224C20.0998 28.6299 21.6401 27.9564 23.0289 27.0164C23.7721 26.5124 24.6181 26.6094 25.2342 27.2635C25.9335 28.0097 26.6474 28.7462 27.3614 29.4779L28.6328 30.7861C30.2611 32.4675 31.8895 34.1441 33.5227 35.8206C33.6352 35.932 33.7428 36.0483 33.8504 36.1646C34.178 36.5183 34.4714 36.8284 34.7893 36.9932H35.3663C36.0069 36.6734 36.0313 36.3827 35.9922 35.966C35.9677 35.7431 35.7868 35.5202 35.4396 35.1616ZM24.0313 23.9007C21.5716 26.3041 18.3198 27.6269 14.8626 27.6269C14.8577 27.6269 14.8528 27.6269 14.8479 27.6269C11.3956 27.6221 8.14377 26.2992 5.68901 23.9007C3.20001 21.4683 1.83571 18.2073 1.8406 14.7186C1.85038 7.49398 7.56676 1.82963 14.8577 1.81994C14.8626 1.81994 14.8724 1.81994 14.8773 1.81994C18.3736 1.81994 21.6401 3.15244 24.0851 5.57033C26.5448 8.00275 27.8944 11.2638 27.8895 14.7476C27.8846 18.2218 26.5154 21.4732 24.0313 23.9007Z" fill="#E68A00"/>
</svg>
