<svg width="50" height="46" viewBox="0 0 50 46" fill="none" xmlns="http://www.w3.org/2000/svg">
<path d="M24.963 44.9977C18.3084 44.9977 11.6537 44.9977 4.99908 44.9977C2.43711 44.9977 0.50407 43.3773 0.0508694 40.8422C0.00462449 40.5822 0.00462449 40.3129 0.00462449 40.0482C0 31.1151 0 22.182 0 13.2535C0 10.4212 2.11802 8.30866 4.94821 8.30401C8.25009 8.29937 11.552 8.29473 14.8585 8.3133C15.2469 8.3133 15.3579 8.2158 15.3533 7.82114C15.3302 6.40503 15.3394 4.98891 15.3441 3.57279C15.3533 1.6088 16.9303 0.0116075 18.8864 0.00696451C22.9698 -0.0023215 27.0533 -0.0023215 31.1367 0.00696451C33.0697 0.0116075 34.6467 1.60416 34.6606 3.54029C34.6698 4.95641 34.6791 6.37252 34.6513 7.78864C34.6421 8.19723 34.7392 8.31794 35.1646 8.3133C38.4341 8.29473 41.7037 8.29937 44.9732 8.30401C47.9282 8.30401 50 10.3934 50 13.3742C50 22.2237 50 31.0687 50 39.9182C50 42.9223 47.9236 45.0023 44.9316 45.0023C38.2769 45.0023 31.6223 44.9977 24.963 44.9977ZM39.6411 26.6578C39.6411 21.1094 39.6411 15.561 39.6458 10.0126C39.6458 9.6737 39.6319 9.48798 39.1879 9.48798C29.7262 9.50191 20.2691 9.50191 10.8074 9.49262C10.4282 9.49262 10.3404 9.59941 10.345 9.96621C10.3681 11.4148 10.3542 12.8634 10.3542 14.3167C10.3542 14.5164 10.3681 14.716 10.2248 14.8832C10.0398 15.0967 9.80392 15.1617 9.54957 15.0642C9.2721 14.9574 9.16112 14.7346 9.16112 14.4328C9.16574 12.9145 9.15649 11.4009 9.17037 9.88264C9.17499 9.57156 9.0825 9.48334 8.77728 9.49262C8.14835 9.51584 7.5148 9.52977 6.88587 9.48798C6.4003 9.45548 6.25694 9.5762 6.25694 10.1009C6.27543 21.1326 6.27081 32.1644 6.27081 43.1962C6.27081 43.2983 6.28006 43.3958 6.27081 43.498C6.24306 43.7348 6.34018 43.8184 6.58065 43.8137C7.22808 43.7998 7.87551 43.7766 8.52294 43.8184C9.02238 43.8509 9.17962 43.7255 9.17962 43.1823C9.16112 35.1499 9.16574 27.1175 9.16574 19.0851C9.16574 18.9365 9.15187 18.7833 9.17037 18.6347C9.22124 18.2865 9.42934 18.1008 9.7808 18.11C10.1091 18.1193 10.3034 18.305 10.3496 18.6301C10.3727 18.7926 10.3589 18.9644 10.3589 19.1315C10.3589 27.1778 10.3635 35.2288 10.3496 43.2751C10.3496 43.7209 10.4606 43.8184 10.8953 43.8184C20.3061 43.8044 29.717 43.8044 39.1278 43.8184C39.5903 43.8184 39.6596 43.6744 39.6596 43.2612C39.6365 37.7267 39.6411 32.1923 39.6411 26.6578ZM44.9177 26.6532C44.9177 32.2016 44.9269 37.7453 44.9038 43.2937C44.9038 43.7812 45.0657 43.8416 45.468 43.7859C47.438 43.5212 48.793 42.0447 48.7976 40.0622C48.8115 31.1197 48.8115 22.1727 48.7976 13.2302C48.793 11.2523 47.4195 9.76192 45.4634 9.5112C45.0425 9.45548 44.9038 9.5437 44.9038 10.0173C44.9269 15.561 44.9177 21.1094 44.9177 26.6532ZM5.08232 26.6671C5.08232 21.1187 5.07307 15.575 5.09619 10.0266C5.09619 9.51584 4.92508 9.45548 4.49963 9.51584C2.51572 9.79906 1.19774 11.2895 1.19774 13.3138C1.19312 22.1912 1.19312 31.0687 1.19774 39.9461C1.19774 41.989 2.46948 43.4608 4.47188 43.7719C5.07769 43.8648 5.08694 43.8601 5.08694 43.2566C5.08232 37.7267 5.08232 32.1969 5.08232 26.6671ZM43.7246 26.6996C43.7246 21.4855 43.7246 16.2668 43.7246 11.0527C43.7246 10.6348 43.7107 10.2169 43.7292 9.80371C43.7384 9.56227 43.6459 9.48798 43.4147 9.49262C42.7488 9.50655 42.0829 9.52977 41.4216 9.48334C40.9499 9.45084 40.8204 9.58084 40.8204 10.073C40.8389 21.1234 40.8343 32.1737 40.8343 43.2241C40.8343 43.3076 40.8435 43.3912 40.8343 43.4748C40.7973 43.7441 40.9175 43.8184 41.1718 43.8091C41.8331 43.7951 42.4991 43.7766 43.165 43.8137C43.609 43.8369 43.7431 43.7209 43.7384 43.2519C43.7199 37.736 43.7246 32.2155 43.7246 26.6996ZM24.9491 8.30401C26.6879 8.30401 28.4314 8.29473 30.1702 8.3133C30.4939 8.31794 30.591 8.22973 30.5864 7.90007C30.5679 6.81825 30.5818 5.73643 30.5771 4.65461C30.5725 4.10674 30.3737 3.90709 29.8233 3.90709C26.6093 3.90245 23.3907 3.90245 20.1767 3.90709C19.6263 3.90709 19.4275 4.10674 19.4229 4.65461C19.4182 5.73643 19.4321 6.81825 19.4136 7.90007C19.409 8.22973 19.5061 8.31794 19.8298 8.31794C21.5363 8.29473 23.2427 8.30401 24.9491 8.30401ZM24.9676 2.69991C26.5585 2.69991 28.1539 2.75098 29.7447 2.68134C30.924 2.63026 31.8674 3.47993 31.7841 4.75676C31.7148 5.80143 31.7795 6.8554 31.7656 7.90472C31.761 8.19258 31.8165 8.33652 32.1448 8.30866C32.4593 8.2808 32.7784 8.2808 33.0882 8.30866C33.4027 8.33652 33.4767 8.22044 33.4767 7.914C33.4628 6.49789 33.4813 5.08177 33.4674 3.66565C33.4536 2.26811 32.4454 1.21415 31.0535 1.20486C27.0209 1.18629 22.9883 1.18629 18.9604 1.20486C17.5684 1.2095 16.5511 2.26346 16.5372 3.65637C16.5233 5.07248 16.5418 6.4886 16.5279 7.90472C16.5233 8.19258 16.5742 8.34116 16.9025 8.30866C17.217 8.2808 17.5361 8.2808 17.8459 8.30866C18.1558 8.33652 18.239 8.22508 18.2344 7.91864C18.2159 6.80432 18.2251 5.68536 18.2297 4.57104C18.2344 3.41957 18.9419 2.70919 20.0934 2.70455C21.7166 2.69991 23.3444 2.69991 24.9676 2.69991Z" fill="#E68A00"/>
<path d="M21.3097 19.4472C21.1109 19.9626 21.4392 20.3897 21.8092 20.8169C22.5722 21.6991 23.326 22.5859 24.0567 23.4913C24.2972 23.7884 24.4266 23.7745 24.6856 23.5098C27.1736 20.9933 29.6801 18.4861 32.1865 15.9835C33.3935 14.7764 35.0213 14.5999 36.2977 15.5146C37.9163 16.6753 38.0874 18.8854 36.6492 20.3433C34.5358 22.4884 32.4085 24.6149 30.2859 26.746C29.8512 27.1825 29.4257 27.6282 28.9771 28.0507C28.8014 28.2179 28.8014 28.3107 28.9864 28.4732C30.0916 29.4297 31.2385 30.3397 32.3946 31.2312C32.5426 31.3472 32.686 31.3472 32.8571 31.3333C35.6642 31.1383 37.7775 32.9119 38.092 35.7117C38.1244 36.0135 38.092 36.3106 38.0643 36.6078C38.0319 36.9328 37.9949 37.2578 37.6388 37.3831C37.2689 37.5178 37.0145 37.2903 36.7694 37.0442C36.0896 36.3617 35.3913 35.6977 34.7161 35.0059C34.5034 34.7877 34.3231 34.732 34.0271 34.8341C32.6305 35.3124 32.6351 35.3077 32.1634 36.7424C32.0848 36.9792 32.1218 37.1278 32.3021 37.3042C33.0282 38.0146 33.7357 38.7435 34.4479 39.4586C34.6791 39.6907 34.8965 39.9182 34.767 40.285C34.6468 40.6193 34.36 40.675 34.0502 40.7215C31.2894 41.1486 28.6765 38.9664 28.7043 36.162C28.7089 35.4099 28.5239 34.8295 28.043 34.277C27.3123 33.4366 26.614 32.5683 25.9204 31.6955C25.7169 31.4401 25.6013 31.4355 25.3654 31.6723C23.3445 33.7198 21.3097 35.7535 19.2842 37.7964C19.0437 38.0378 18.7848 38.2096 18.461 38.3257C16.7777 38.9293 15.1037 39.5514 13.425 40.1736C13.1198 40.285 12.8238 40.3825 12.5509 40.0993C12.2827 39.8207 12.3845 39.5236 12.5001 39.2171C13.1198 37.5178 13.7394 35.8138 14.3499 34.1098C14.4516 33.822 14.6135 33.5852 14.8308 33.3669C16.8563 31.3472 18.868 29.3136 20.8982 27.2985C21.1525 27.0432 21.2034 26.9178 20.8889 26.6624C19.9455 25.901 19.0206 25.1117 18.1142 24.3084C17.7396 23.9741 17.3604 23.8627 16.861 23.8906C14.5071 24.0159 12.5556 22.5209 12.0145 20.2272C11.8758 19.6376 11.8619 19.0433 11.9544 18.4443C11.996 18.1565 12.107 17.9336 12.3891 17.8315C12.6527 17.7386 12.8747 17.8454 13.0643 18.0357C13.8134 18.7693 14.5718 19.489 15.3025 20.2412C15.5245 20.4687 15.7095 20.4919 15.9916 20.3944C17.3604 19.9115 17.3558 19.9162 17.8275 18.514C17.9154 18.2586 17.8737 18.1007 17.6795 17.9104C16.9535 17.2046 16.2505 16.4711 15.5337 15.756C15.3025 15.5239 15.0944 15.2871 15.2424 14.9296C15.3765 14.5999 15.6679 14.5396 15.9731 14.5117C18.9744 14.1867 21.3467 16.3364 21.3097 19.4472ZM29.2176 33.822C29.7032 32.9537 30.3414 32.3176 31.2015 31.8348C29.2315 30.3211 27.3724 28.7379 25.666 26.9875C23.9549 25.2324 22.3317 23.3938 20.7594 21.4484C20.2877 22.2887 19.6588 22.883 18.8726 23.3706C22.711 26.5046 26.2394 29.8661 29.2176 33.822ZM34.5265 16.1693C34.0595 16.1553 33.634 16.2853 33.2964 16.6057C32.7415 17.1304 32.2143 17.6829 31.6686 18.2122C31.5206 18.3561 31.5021 18.4536 31.664 18.6115C32.4455 19.3776 33.2132 20.1576 33.9808 20.9376C34.115 21.0769 34.2121 21.0769 34.3462 20.9376C34.8872 20.3758 35.4607 19.8465 35.974 19.2615C36.4919 18.6718 36.5474 17.9568 36.2283 17.2557C35.9 16.55 35.3127 16.1832 34.5265 16.1693ZM16.787 34.9874C16.9488 34.8388 17.0644 34.7459 17.1662 34.6438C18.9374 32.8655 20.7132 31.0872 22.4844 29.3043C23.0763 28.71 23.0578 28.7286 22.4844 28.1296C22.1838 27.8139 22.0219 27.8789 21.7444 28.1575C19.9224 30.0054 18.0818 31.8348 16.2598 33.678C16.1396 33.7987 15.839 33.8963 16.0054 34.1284C16.2182 34.4348 16.5095 34.6902 16.787 34.9874ZM36.5891 35.3217C36.6353 35.2799 36.6862 35.2381 36.7324 35.1963C36.5567 33.743 34.9381 32.4662 33.3242 32.508C31.4836 32.5591 29.9668 34.0355 29.8789 35.8602C29.7957 37.5735 31.0628 39.2125 32.6767 39.375C32.1773 38.8271 31.6455 38.3071 31.0998 37.8057C30.7714 37.5039 30.7159 37.1881 30.8732 36.7749C31.1229 36.1249 31.3495 35.4656 31.5622 34.8016C31.664 34.4859 31.8536 34.3002 32.1634 34.198C32.8386 33.9752 33.5138 33.7477 34.1797 33.4923C34.5543 33.3484 34.8502 33.4041 35.1185 33.7012C35.5994 34.2491 36.0989 34.7831 36.5891 35.3217ZM17.3188 15.9C17.8552 16.42 18.3824 16.94 18.9235 17.4507C19.2148 17.7247 19.2842 18.0125 19.1408 18.3933C18.8911 19.0618 18.6553 19.7351 18.4425 20.413C18.3362 20.7473 18.1327 20.933 17.8044 21.0398C17.1569 21.2487 16.5141 21.4623 15.8852 21.713C15.4551 21.8802 15.1314 21.8012 14.8169 21.4716C14.3314 20.9608 13.8134 20.4826 13.2539 19.9347C13.4157 21.5041 15.0158 22.7391 16.7222 22.7112C18.4888 22.6834 19.9825 21.2301 20.1166 19.424C20.2369 17.7293 18.9882 16.0578 17.3188 15.9ZM24.9076 30.3908C24.6902 30.2329 24.4544 30.1122 24.3018 29.9265C24.0428 29.6108 23.8856 29.6015 23.585 29.9126C21.8554 31.6862 20.0981 33.432 18.3501 35.187C17.661 35.8788 17.6656 35.8695 18.3732 36.5428C18.5674 36.7285 18.6738 36.7146 18.8495 36.5335C20.7687 34.5973 22.6925 32.6659 24.6162 30.7297C24.6764 30.6601 24.7365 30.5811 24.9076 30.3908ZM26.1285 25.6224C26.2256 25.5296 26.3227 25.446 26.4152 25.3531C27.9181 23.8441 29.4165 22.3398 30.9194 20.8308C31.5437 20.204 31.5299 20.218 30.9194 19.5772C30.679 19.3265 30.5541 19.3219 30.309 19.5726C28.7598 21.1512 27.1921 22.7066 25.6336 24.2713C25.1804 24.7263 25.1758 24.7263 25.6429 25.1999C25.7909 25.3485 25.8972 25.5481 26.1285 25.6224ZM27.7794 27.5028C27.9921 27.3078 28.1031 27.215 28.2049 27.1082C29.7171 25.5899 31.2246 24.0717 32.7322 22.5534C33.3103 21.973 33.2872 21.9916 32.7184 21.3741C32.4548 21.0862 32.3206 21.1326 32.0709 21.388C30.5032 22.9852 28.9124 24.5685 27.3401 26.161C27.2152 26.2864 26.9239 26.4024 27.0441 26.6067C27.2383 26.9317 27.5204 27.1964 27.7794 27.5028ZM15.2563 35.1963C15.1037 35.6188 14.9557 36.0042 14.8216 36.3988C14.7013 36.7517 15.765 37.9914 16.1164 37.8799C16.5604 37.736 17.0182 37.6153 17.4113 37.3739C16.6945 36.6449 15.9962 35.9392 15.2563 35.1963ZM14.0354 38.711C14.2713 38.5021 14.5534 38.581 14.595 38.3582C14.6181 38.2328 14.4239 38.1028 14.2713 38.0285C14.1418 38.1817 14.0909 38.3675 14.0354 38.711Z" fill="#E68A00"/>
<path d="M2.69151 20.7009C2.69151 19.2337 2.69151 17.7712 2.69151 16.304C2.69151 15.7561 2.88111 15.5054 3.28344 15.5007C3.68577 15.5007 3.88 15.7515 3.88 16.2993C3.88 19.2291 3.88 22.1634 3.88 25.0932C3.88 25.6411 3.6904 25.8918 3.28807 25.8964C2.88574 25.8964 2.69151 25.6457 2.69151 25.0978C2.68688 23.6353 2.69151 22.1681 2.69151 20.7009Z" fill="#E68A00"/>
<path d="M3.88003 13.9174C3.8754 14.3492 3.64418 14.6185 3.26497 14.5906C2.83489 14.5628 2.67766 14.2889 2.68691 13.8803C2.69616 13.4485 2.92276 13.1931 3.30196 13.2024C3.67192 13.2163 3.88465 13.4763 3.88003 13.9174Z" fill="#E68A00"/>
</svg>
