<svg width="46" height="46" viewBox="0 0 46 46" fill="none" xmlns="http://www.w3.org/2000/svg">
<path d="M45.3991 27.9536C45.1435 27.8694 44.8948 27.7852 44.6392 27.701C44.1902 27.5466 43.7481 27.3923 43.2922 27.266C43.1885 27.2379 43.0849 27.2239 42.9882 27.2239C42.5945 27.2239 42.2629 27.4554 42.1455 27.8343C41.9866 28.3395 42.2353 28.8026 42.781 28.999C43.2162 29.1534 43.6583 29.3008 44.1004 29.4481L44.3629 29.5323C45.3024 29.841 45.4682 29.813 45.9863 29.1113V28.564C45.8274 28.2483 45.6685 28.0448 45.3991 27.9536Z" fill="#E68A00"/>
<path d="M40.9916 13.0085C37.6896 12.4963 34.36 12.0052 31.0994 11.5421C30.4984 11.4579 30.1323 11.1913 29.8767 10.651C28.7093 8.21629 27.528 5.79561 26.3468 3.36791L25.5178 1.65589C24.9997 0.582367 24.1708 0.0420988 22.9895 0C21.8359 0.0420988 21.0207 0.582367 20.5026 1.65589L19.646 3.41702C18.4717 5.83771 17.2904 8.26541 16.1161 10.6861C15.9917 10.9387 15.7638 11.4088 15.1835 11.5L8.83512 12.4332C8.42755 12.4963 8.01307 12.5525 7.6055 12.6016C6.72819 12.7209 5.81634 12.8472 4.93213 13.0085C3.85449 13.212 3.14297 13.8646 2.83211 14.9381C2.51435 16.0116 2.77685 16.9799 3.59889 17.7938C5.96832 20.1443 8.33774 22.4878 10.7141 24.8383C10.9973 25.119 11.2736 25.4908 11.1631 26.1223C10.6312 29.1675 10.12 32.2196 9.6088 35.2648L9.55354 35.5735C9.43611 36.2471 9.32558 36.8856 9.519 37.5171C9.76769 38.317 10.341 38.9555 11.0802 39.2642C11.8401 39.5869 12.7243 39.5308 13.498 39.1239C16.4408 37.5662 19.3835 35.9945 22.3125 34.4158C22.5543 34.2825 22.7823 34.2193 23.0171 34.2193C23.2451 34.2193 23.473 34.2825 23.7079 34.4158C24.5161 34.8578 25.3382 35.2929 26.1533 35.7279L28.7507 37.1171C30.0563 37.8188 31.3619 38.5204 32.6813 39.201C33.6692 39.7062 34.6294 39.608 35.5205 38.9063C36.3909 38.2257 36.7363 37.3066 36.5429 36.1769L36.0386 33.1528C35.6448 30.8093 35.258 28.4658 34.8504 26.1223C34.7675 25.6242 34.8919 25.2383 35.2718 24.8734C36.4254 23.7367 37.5791 22.6001 38.7258 21.4634L40.508 19.7023C41.1712 19.0497 41.8275 18.4042 42.4768 17.7376C43.285 16.9097 43.513 15.9414 43.1607 14.8609C42.8084 13.8014 42.0761 13.1769 40.9916 13.0085ZM41.1021 16.5729C40.3215 17.3377 39.5478 18.1095 38.7741 18.8813C37.2613 20.3829 35.7001 21.9405 34.1389 23.442C33.1856 24.3612 32.8748 25.3996 33.1304 26.8029C33.5448 29.0552 33.9317 31.3566 34.2978 33.5808C34.4429 34.4649 34.5879 35.349 34.7399 36.2261L34.7537 36.3032C34.8159 36.64 34.9057 37.1452 34.4083 37.5031C33.9179 37.8539 33.4688 37.6083 33.1718 37.4469L30.0563 35.784C28.205 34.7947 26.3606 33.8054 24.5092 32.816C23.9981 32.5424 23.5076 32.3951 23.024 32.374C22.5336 32.388 22.0431 32.5284 21.5388 32.802C19.2937 34.0018 17.0487 35.2016 14.8036 36.4015L12.6897 37.5311C12.5032 37.6364 12.3236 37.6855 12.144 37.6855C11.9437 37.6855 11.7572 37.6223 11.5914 37.489C11.2805 37.2505 11.1631 36.8996 11.2391 36.4436C11.5016 34.907 11.7572 33.3703 12.0197 31.8337L12.3236 30.0235C12.3927 29.6165 12.4618 29.2026 12.5378 28.7956C12.6897 27.9185 12.8486 27.0134 12.973 26.1153C13.1042 25.1821 12.8003 24.3682 12.0542 23.6245C10.341 21.9335 8.63479 20.2425 6.92161 18.5516L4.98739 16.6361C4.93903 16.5869 4.89759 16.5448 4.84923 16.5027C4.53147 16.2151 4.42094 15.8151 4.5591 15.4152C4.64199 15.1696 4.85614 14.8539 5.39496 14.7767C6.47951 14.6223 7.55715 14.461 8.63478 14.2996L12.0888 13.7944C13.2148 13.633 14.3407 13.4716 15.4667 13.2892C16.4753 13.1348 17.1937 12.5735 17.6704 11.5772C18.7135 9.41611 19.7635 7.26205 20.8066 5.10098L22.0017 2.63118C22.05 2.53295 22.0915 2.44173 22.1467 2.35052C22.354 1.99268 22.6717 1.77517 23.0171 1.79622C23.3556 1.80323 23.6665 2.01373 23.853 2.37157C24.0809 2.80659 24.2951 3.24863 24.5092 3.69067L24.7372 4.16077C25.0688 4.84838 25.4073 5.52898 25.7458 6.2166C26.5471 7.83039 27.3691 9.50732 28.1221 11.1843C28.7231 12.5244 29.6764 13.212 31.203 13.4015C33.2892 13.6681 35.3962 13.9838 37.434 14.2996C38.4633 14.4539 39.4926 14.6153 40.5288 14.7627C40.7498 14.7977 41.2679 14.8679 41.4475 15.4222C41.6548 16.0326 41.2403 16.4396 41.1021 16.5729Z" fill="#E68A00"/>
<path d="M23.0103 41.9656H23.0034C22.4715 41.9656 22.1261 42.3515 22.0985 42.9689C22.0916 43.2005 22.0916 43.432 22.0916 43.6636V43.9723V44.3091C22.0916 44.5476 22.0847 44.7862 22.0985 45.0177C22.1261 45.6212 22.4715 46 22.9965 46C23.5561 45.993 23.8807 45.6352 23.9015 45.0388C23.9222 44.3722 23.9222 43.6846 23.9015 42.9338C23.8807 42.3445 23.5422 41.9726 23.0103 41.9656Z" fill="#E68A00"/>
<path d="M3.06028 27.2098C2.99811 27.2098 2.92903 27.2169 2.86686 27.2379C2.02409 27.4765 1.25731 27.7291 0.525067 28.0027C0.138222 28.143 -0.0690159 28.55 0.0207874 28.992C0.103683 29.42 0.469804 29.6796 1.01553 29.7007C1.20205 29.6446 1.39547 29.5884 1.5958 29.5323C2.21751 29.3569 2.92212 29.1534 3.55075 28.8096C3.91687 28.6061 3.97904 28.115 3.82706 27.7571C3.67509 27.4133 3.37114 27.2098 3.06028 27.2098Z" fill="#E68A00"/>
<path d="M9.94055 4.77816C10.2445 5.1781 10.735 5.2623 11.1356 4.98164C11.557 4.68695 11.6606 4.16773 11.3912 3.74674C10.9836 3.11526 10.5208 2.50483 10.0787 1.90843L10.0096 1.83124C9.85075 1.62075 9.64351 1.5155 9.36719 1.5155H9.36028C9.34647 1.5155 9.33956 1.5155 9.32574 1.5155C8.99416 1.5155 8.74547 1.66285 8.57278 1.95754C8.38626 2.2803 8.38626 2.59604 8.58659 2.89073C9.07015 3.59238 9.50535 4.21685 9.94055 4.77816Z" fill="#E68A00"/>
<path d="M36.1147 4.72203C36.3911 4.35015 36.6605 3.97126 36.9299 3.59237L37.3444 3.01001C37.4825 2.81355 37.5516 2.61708 37.5447 2.40659V2.39957C37.5378 2.00665 37.3236 1.70494 36.9506 1.56461C36.8401 1.52251 36.7296 1.50146 36.6259 1.50146C36.3842 1.50146 36.1631 1.61373 35.9904 1.83826C35.5138 2.44869 35.0647 3.0942 34.6779 3.64851C34.3463 4.12563 34.4085 4.64485 34.8299 4.9676C35.2582 5.29036 35.7624 5.19213 36.1147 4.72203Z" fill="#E68A00"/>
</svg>
