<svg width="46" height="47" viewBox="0 0 46 47" fill="none" xmlns="http://www.w3.org/2000/svg">
<path d="M17.6101 46C17.6101 44.5776 17.6101 43.1552 17.6245 41.7329C17.6245 41.4801 17.5379 41.3718 17.2996 41.2996C16.1805 40.9603 15.1047 40.5126 14.0794 39.9567C13.8556 39.8339 13.7256 39.8628 13.5451 40.0433C12.6354 40.9747 11.704 41.8845 10.7942 42.8159C10.5848 43.0253 10.4765 43.0253 10.2671 42.8159C7.91336 40.4477 5.55235 38.0866 3.18412 35.7329C2.97473 35.5235 2.97473 35.4152 3.18412 35.2058C4.11552 34.296 5.02527 33.3574 5.95668 32.4549C6.16607 32.2527 6.13718 32.1011 6.02166 31.8773C5.48014 30.8736 5.03971 29.8267 4.7148 28.7437C4.62816 28.4621 4.4982 28.3754 4.21661 28.3754C2.94585 28.3899 1.67509 28.3755 0.397112 28.3899C0.0938628 28.3971 0 28.3177 0 27.9928C0.0144404 24.6715 0.0144404 21.343 0 18.0217C0 17.6679 0.115523 17.6029 0.433213 17.6101C1.68953 17.6245 2.94585 17.6101 4.20217 17.6245C4.47653 17.6245 4.62816 17.574 4.7148 17.278C5.03971 16.1733 5.48736 15.1119 6.0361 14.1011C6.16607 13.8556 6.13718 13.7184 5.94224 13.5307C5.01805 12.6282 4.12274 11.7112 3.19856 10.8087C2.97473 10.5921 2.96751 10.4765 3.19856 10.2527C5.55957 7.91336 7.90614 5.55957 10.2527 3.20578C10.4693 2.98195 10.5921 2.97473 10.8087 3.19856C11.704 4.12274 12.6282 5.01805 13.5307 5.94224C13.7184 6.13718 13.8628 6.17328 14.1011 6.04332C15.1119 5.49458 16.1733 5.05415 17.278 4.7148C17.5379 4.63538 17.6318 4.51986 17.6245 4.24549C17.6173 2.97473 17.6318 1.70397 17.6173 0.433213C17.6101 0.108303 17.6823 0 18.0289 0C21.3502 0.0144404 24.6787 0.0144404 28 0C28.3249 0 28.3971 0.101083 28.3899 0.404332C28.3755 1.67509 28.3899 2.94585 28.3755 4.22383C28.3755 4.47653 28.4116 4.62094 28.7004 4.70758C29.8195 5.03971 30.8953 5.48736 31.9206 6.05054C32.1444 6.17329 32.2744 6.15162 32.4549 5.97112C33.3646 5.03971 34.296 4.12996 35.2058 3.19856C35.4079 2.99639 35.5162 2.97473 35.7329 3.19134C38.0866 5.55957 40.4404 7.92058 42.8159 10.2744C43.0614 10.5126 42.9964 10.6282 42.787 10.8303C41.87 11.7329 40.9675 12.6498 40.0505 13.5523C39.87 13.7256 39.8339 13.8556 39.9567 14.0866C40.5126 15.1119 40.9603 16.1877 41.2996 17.3069C41.3718 17.5523 41.4801 17.639 41.7329 17.6318C43.1552 17.6173 44.5776 17.6173 46 17.6173C46 21.213 46 24.8014 46 28.3971C44.5776 28.3971 43.1552 28.3971 41.7329 28.3827C41.4801 28.3827 41.3718 28.4621 41.2996 28.7076C40.9603 29.8267 40.5199 30.9025 39.9567 31.9278C39.8339 32.1516 39.8628 32.2816 40.0433 32.4621C40.9747 33.3718 41.8845 34.3032 42.8159 35.213C43.0253 35.4152 43.0325 35.5307 42.8159 35.7401C40.4477 38.0939 38.0866 40.4549 35.7329 42.8231C35.5307 43.0253 35.4152 43.0469 35.2058 42.8303C34.296 41.8989 33.3646 40.9892 32.4549 40.0578C32.2816 39.8773 32.1516 39.8412 31.9206 39.9639C30.8953 40.5199 29.8195 40.9675 28.7004 41.3069C28.4549 41.3791 28.3682 41.4874 28.3755 41.7401C28.3899 43.1625 28.3899 44.5848 28.3899 46.0072C24.8014 46 21.2058 46 17.6101 46ZM23.0036 1.53791C21.8845 1.53791 20.7581 1.55235 19.639 1.53069C19.2491 1.52347 19.1697 1.65343 19.1769 2.01444C19.1986 3.13357 19.1769 4.25993 19.1913 5.37906C19.1986 5.68953 19.1047 5.81949 18.8014 5.89892C17.0469 6.32491 15.4007 7.01805 13.8628 7.95668C13.6173 8.1083 13.4874 8.0722 13.2996 7.87726C12.4693 7.03249 11.6245 6.20939 10.8014 5.3574C10.6065 5.15523 10.5054 5.16245 10.3105 5.3574C8.66426 7.01083 7.02527 8.64982 5.37906 10.2816C5.16968 10.4838 5.16968 10.5993 5.37906 10.8014C6.23105 11.6245 7.05415 12.4765 7.89892 13.2996C8.07942 13.4801 8.1083 13.6029 7.97112 13.8339C7.01805 15.3863 6.32491 17.0469 5.8917 18.8159C5.81949 19.1119 5.68953 19.1913 5.40072 19.1913C4.24549 19.1769 3.09747 19.1913 1.94224 19.1769C1.64621 19.1697 1.52347 19.2419 1.53069 19.5668C1.54513 21.8556 1.54513 24.1444 1.53069 26.4404C1.53069 26.7653 1.63899 26.8375 1.94224 26.8375C3.09747 26.8231 4.24549 26.8375 5.40072 26.8231C5.68231 26.8231 5.81949 26.8953 5.8917 27.1913C6.33213 28.9603 7.01805 30.6209 7.97112 32.1733C8.1083 32.3971 8.07942 32.5271 7.89892 32.7076C7.03971 33.5451 6.20939 34.4043 5.35018 35.2419C5.16968 35.4224 5.16968 35.5162 5.35018 35.6967C7.01083 37.343 8.65704 38.9892 10.3032 40.6498C10.4982 40.8448 10.5921 40.852 10.7942 40.6498C11.6173 39.7978 12.4621 38.9747 13.2924 38.13C13.4801 37.9422 13.6173 37.8989 13.8556 38.0505C15.3935 38.9964 17.0397 39.6823 18.7942 40.1155C19.0975 40.1877 19.1913 40.3249 19.1913 40.6354C19.1769 41.7762 19.1913 42.9097 19.1769 44.0505C19.1697 44.3682 19.2347 44.491 19.5884 44.491C21.8628 44.4765 24.1372 44.4765 26.4116 44.491C26.7653 44.491 26.8303 44.3755 26.8303 44.0578C26.8159 42.917 26.8375 41.7834 26.8159 40.6426C26.8087 40.3321 26.9025 40.2022 27.2058 40.1227C28.9603 39.6967 30.6065 39.0036 32.1444 38.065C32.3899 37.9134 32.5199 37.9495 32.7076 38.1444C33.5379 38.9892 34.3827 39.8123 35.2058 40.6643C35.4007 40.8664 35.5018 40.8592 35.6968 40.6643C37.3285 39.018 38.9675 37.3718 40.6209 35.7401C40.8303 35.5379 40.8303 35.4224 40.6209 35.2202C39.769 34.3971 38.9459 33.5451 38.1011 32.722C37.9206 32.5415 37.8917 32.4188 38.0289 32.1877C38.982 30.6354 39.6751 28.9747 40.1083 27.2058C40.1805 26.9097 40.3105 26.8303 40.5993 26.8303C41.7545 26.8448 42.9025 26.8303 44.0578 26.8448C44.3538 26.852 44.4765 26.7798 44.4693 26.4549C44.4549 24.1661 44.4549 21.8773 44.4693 19.5812C44.4693 19.2563 44.361 19.1841 44.0578 19.1841C42.9025 19.1986 41.7545 19.1841 40.5993 19.1986C40.3177 19.1986 40.1805 19.1264 40.1083 18.8303C39.6751 17.0614 38.982 15.4007 38.0289 13.8484C37.8917 13.6245 37.9206 13.4946 38.1011 13.3141C38.9603 12.4765 39.7906 11.6173 40.6498 10.7798C40.8303 10.5993 40.8303 10.5054 40.6498 10.3249C38.9892 8.6787 37.343 7.03249 35.6968 5.37184C35.5018 5.1769 35.4079 5.16967 35.2058 5.37184C34.3827 6.22383 33.5379 7.04693 32.7076 7.8917C32.5199 8.07942 32.3827 8.12274 32.1444 7.97112C30.6065 7.02527 28.9603 6.33935 27.2058 5.90614C26.9025 5.83394 26.8087 5.69675 26.8087 5.38628C26.8303 4.28159 26.8014 3.16967 26.8231 2.06498C26.8303 1.67509 26.7509 1.52347 26.3177 1.53069C25.2202 1.55957 24.1155 1.53791 23.0036 1.53791Z" fill="#E68A00"/>
<path d="M23.0542 36.0289C15.8773 36.0938 9.97842 30.1949 9.9712 23.0469C9.96398 15.8267 15.7474 10.0144 22.9748 9.97832C30.0939 9.94222 36.1589 15.7689 36.029 23.2563C35.9134 30.2021 30.2239 36 23.0542 36.0289ZM26.7004 14.6642C26.4983 14.8086 26.3394 14.8808 26.2239 14.9964C24.8087 16.3971 23.408 17.8123 21.9929 19.213C21.8051 19.4007 21.7402 19.5668 21.7907 19.8411C21.9207 20.5487 22.0073 21.2563 22.0867 21.9711C22.1156 22.2166 22.2022 22.3465 22.4622 22.3754C23.177 22.4621 23.8918 22.5343 24.5921 22.6715C24.9098 22.7364 25.0831 22.6281 25.2853 22.4187C26.6788 21.018 28.0723 19.6173 29.473 18.2238C29.5885 18.1083 29.6752 17.9639 29.8701 17.9061C29.9929 18.2455 30.1156 18.5776 30.2239 18.9097C31.5741 22.9242 29.5885 27.1408 25.6391 28.6498C25.3936 28.7437 25.2997 28.8592 25.2997 29.1263C25.3142 30.7003 25.3142 32.2671 25.2997 33.8411C25.2997 34.166 25.3503 34.2382 25.6968 34.1516C31.8846 32.6426 35.6752 26.3899 34.1228 20.2166C32.5849 14.0866 26.3394 10.3177 20.26 11.8556C14.6066 13.2852 10.9387 18.5198 11.5957 24.3177C11.9423 27.379 13.3503 29.9061 15.7185 31.8772C16.2817 32.3465 16.8809 32.787 17.6102 33.0975C17.6102 31.0614 17.6102 29.0902 17.6174 27.1119C17.6174 26.9242 17.5163 26.8086 17.408 26.6931C16.1373 25.3141 15.4441 23.6895 15.3503 21.805C15.1914 18.8159 16.8809 15.9206 19.5669 14.6065C21.8918 13.4801 24.2167 13.5956 26.7004 14.6642ZM23.6679 15.3935C22.9098 15.3285 22.2672 15.3502 21.6463 15.509C19.3069 16.1083 17.7329 17.5523 17.1048 19.8845C16.4694 22.231 17.1192 24.2888 18.8665 25.9783C19.0903 26.1949 19.1842 26.4115 19.177 26.7148C19.1625 28.9603 19.177 31.2058 19.1625 33.4512C19.1625 33.7689 19.2636 33.8917 19.5596 33.9711C20.7726 34.3249 22.0073 34.4982 23.2708 34.4982C23.6391 34.4982 23.7546 34.4043 23.7546 34.0216C23.7329 32.0144 23.7546 30.0144 23.7402 28.0072C23.7402 27.7039 23.8051 27.5668 24.13 27.4946C26.3105 27.0036 27.8557 25.7328 28.6932 23.6534C29.047 22.7798 29.2131 21.87 29.0687 20.8736C28.9748 20.9603 28.917 21.0036 28.8593 21.0541C27.834 22.0794 26.8015 23.1047 25.7835 24.1372C25.6102 24.3177 25.4297 24.3827 25.1914 24.3465C23.834 24.1372 22.4766 23.935 21.112 23.7473C20.8521 23.7112 20.7726 23.6317 20.7365 23.3718C20.5488 22.0072 20.3466 20.6498 20.1373 19.2924C20.0939 19.0252 20.1878 18.852 20.3755 18.6642C21.4586 17.6029 22.5199 16.5343 23.6679 15.3935Z" fill="#E68A00"/>
</svg>
