<svg width="45" height="49" viewBox="0 0 45 49" fill="none" xmlns="http://www.w3.org/2000/svg">
<path d="M36.0406 8.27004C36.0267 7.22939 36.0337 6.18875 36.0337 5.1481V2.06062L36.2841 2.19156C37.0492 2.5775 37.6195 3.06681 38.1273 3.53544C38.4472 3.83179 38.9271 4.09367 39.3862 3.63882C39.5531 3.47342 39.6366 3.29423 39.6366 3.10816C39.6366 2.87384 39.4975 2.61885 39.2401 2.37075C38.8854 2.02616 38.4611 1.68158 37.9116 1.28186C37.3204 0.854571 36.6458 0.537553 35.992 0.227426C35.825 0.151617 35.665 0.0758087 35.5051 0H34.9208C34.5522 0.261885 34.3992 0.634036 34.4061 1.21983C34.42 2.27426 34.42 3.32869 34.42 4.39001C34.42 5.41688 34.42 6.45063 34.427 7.4775C34.4339 7.9737 34.2601 8.29761 33.8636 8.57328C33.2863 8.95921 32.7438 9.40028 32.2152 9.82067C31.9856 10.0068 31.777 10.0068 31.5405 9.82757C30.8797 9.31758 30.2329 8.81449 29.5791 8.34585C29.3147 8.15288 29.3217 7.91167 29.3287 7.73249V7.64979V6.12672C29.3217 4.51406 29.3217 2.83938 29.3426 1.19916C29.3495 0.60647 29.1895 0.254993 28.7861 0.0068917H28.2367C28.1393 0.110267 28.0071 0.144726 27.9098 0.172293C27.875 0.179184 27.8402 0.192968 27.8054 0.206751C22.9575 2.21913 20.3492 7.34655 21.6081 12.3982C22.3385 15.3065 24.0773 17.5532 26.776 19.0762C26.8038 19.09 26.8386 19.1038 26.8734 19.1176C27.0195 19.1727 27.2559 19.2761 27.2559 19.5862V21.1989L26.8038 21.0335C26.6926 20.9921 26.6091 20.9646 26.5256 20.937C25.6631 20.6751 24.7381 20.7785 23.9799 21.2333C23.2218 21.6882 22.721 22.4187 22.561 23.2939C22.2689 24.9135 21.9837 26.5399 21.7055 28.1664L21.4064 29.8755C21.3369 30.2821 21.1978 30.8059 20.7735 31.2125L20.7318 31.2539C20.5092 31.4675 20.2101 31.7639 19.8693 31.6536C19.5563 31.5571 19.598 31.2056 19.6258 30.992C19.6328 30.9231 19.6467 30.8541 19.6398 30.799C19.6189 29.9375 19.3685 29.6895 18.5199 29.6895H17.5392C16.016 29.6895 14.4927 29.6826 12.9765 29.6963C12.5174 29.7032 12.0862 29.6274 11.6828 29.4689C10.9107 29.1657 10.1317 28.8762 9.35964 28.5868L7.25215 27.7942C5.25595 27.043 3.25974 26.2849 1.26353 25.5338C0.860119 25.3821 0.317596 25.327 0.0672008 25.9335C-0.0162642 26.1402 -0.0232196 26.3263 0.05329 26.4986C0.150666 26.7191 0.380195 26.9052 0.714055 27.0361L1.88257 27.4772C4.85949 28.6075 7.83641 29.7377 10.8203 30.8473C11.2167 30.992 11.3698 31.2125 11.3698 31.626C11.3558 35.8644 11.3558 39.7444 11.3698 43.4797C11.3698 43.6658 11.3489 43.8726 11.2167 44.0035C11.0776 44.1413 10.862 44.1551 10.6881 44.1551C9.02578 44.1345 7.34257 44.1413 5.70805 44.1482H5.24203C4.94295 44.1482 4.69951 44.2378 4.54649 44.4101C4.40043 44.5686 4.34478 44.7892 4.37261 45.0442C4.42825 45.6093 4.91513 45.7264 5.30463 45.7264C8.1494 45.7264 10.9942 45.7264 13.8389 45.7264H17.261C17.7827 45.7264 18.2974 45.7264 18.819 45.7195C19.292 45.7127 19.5632 45.4577 19.6119 44.989C19.6398 44.6996 19.6467 44.3963 19.6258 44.1C19.6189 43.9759 19.6189 43.7899 19.7441 43.6589C19.8693 43.528 20.0571 43.5004 20.224 43.5142C22.3037 43.528 24.133 43.528 25.8162 43.5142C25.8231 43.5142 25.8301 43.5142 25.837 43.5142C25.9831 43.5142 26.1639 43.5349 26.2822 43.652C26.4074 43.7761 26.4143 43.9622 26.4074 44.1345C26.3587 45.2716 26.317 46.5121 26.2822 48.0283C26.2752 48.3522 26.3587 48.6072 26.5187 48.7726C26.6578 48.9104 26.8386 48.9862 27.0751 48.9862H27.0821C27.7498 48.9862 27.868 48.4211 27.8819 48.0765C27.9306 46.712 27.9793 45.3405 28.028 43.9759L28.6679 26.0231C28.7444 23.797 28.8209 21.5641 28.9044 19.3381C28.9392 18.4146 28.8835 18.3181 28.0349 17.8977C24.8841 16.3402 23.1662 13.8454 22.9366 10.4892C22.7071 7.16737 24.0425 4.47271 26.9151 2.47412C26.936 2.46034 26.9638 2.43966 26.9847 2.41899C27.1168 2.31561 27.3046 2.17089 27.5759 2.2398L27.708 2.27426V3.99719C27.708 5.43066 27.715 6.86413 27.7011 8.29761C27.7011 8.74557 27.8472 9.0488 28.1949 9.3038C28.8279 9.77243 29.4539 10.248 30.0868 10.7304C30.4624 11.0129 30.838 11.3024 31.2136 11.5849C31.7213 11.9709 31.9856 11.9709 32.4864 11.5918C32.8551 11.3162 33.2167 11.0336 33.5854 10.7579C34.2183 10.2686 34.8582 9.78622 35.4981 9.31069C35.8876 9.04191 36.0476 8.73179 36.0406 8.27004ZM18.0331 43.5762C18.0331 43.721 18.0191 43.9001 17.8939 44.0173C17.7757 44.1345 17.6018 44.1551 17.4418 44.1482C16.0716 44.1345 14.8057 44.1345 13.5607 44.1482C13.5538 44.1482 13.5468 44.1482 13.5329 44.1482C13.3938 44.1482 13.2269 44.1276 13.1156 44.0173C12.9973 43.9001 12.9765 43.7278 12.9834 43.5693C12.9904 42.0876 12.9904 40.6059 12.9904 39.1242V37.6976V36.2228C12.9904 34.7893 12.9904 33.3489 12.9834 31.9155C12.9834 31.7432 12.9973 31.5502 13.1295 31.4193C13.2616 31.2883 13.4494 31.2814 13.6233 31.2814C15.0074 31.3021 16.3777 31.2952 17.4071 31.2814C17.581 31.2814 17.7687 31.2952 17.8939 31.4193C18.0191 31.5433 18.04 31.7294 18.04 31.8741C18.0191 35.5336 18.0191 39.3654 18.0331 43.5762ZM26.9082 29.9858L26.7273 35.0167C26.6508 37.1187 26.5743 39.2138 26.5048 41.3157C26.4908 41.7637 26.3239 41.936 25.8857 41.936C25.8788 41.936 25.8718 41.936 25.8649 41.936C24.0425 41.9153 22.1646 41.9153 20.2797 41.936C20.0919 41.9291 19.918 41.9222 19.7858 41.7913C19.6537 41.6603 19.6398 41.4743 19.6398 41.302C19.6537 38.8554 19.6537 36.3951 19.6398 33.983C19.6398 33.5902 19.7928 33.3903 20.1684 33.2938C21.7542 32.8872 22.7001 31.8397 22.9992 30.1788C23.2427 28.828 23.4722 27.4703 23.7017 26.1127C23.8339 25.3339 23.966 24.562 24.0982 23.7902C24.2582 22.8529 24.9259 22.2947 25.7814 22.398C26.623 22.5014 27.1447 23.1837 27.1099 24.1347C27.0403 26.092 26.9708 28.0354 26.9082 29.9858Z" fill="#E68A00"/>
<path d="M43.1005 36.1263C42.9266 35.7886 42.9614 35.5612 43.2326 35.2786C44.2829 34.1759 44.2899 32.5771 43.2396 31.4675C43.0031 31.2194 42.9057 31.0058 43.0935 30.6267C43.5317 29.7515 43.4969 28.7384 42.9961 27.9252C42.4954 27.105 41.5981 26.6088 40.6104 26.5951C39.4419 26.5744 38.3569 26.5744 37.3066 26.5951C36.8615 26.5951 36.6945 26.4297 36.6806 26.0024C36.625 24.1899 36.5485 22.205 36.4441 19.7447C36.4302 19.4621 36.5346 19.2899 36.7989 19.1382L36.8893 19.0831C37.2997 18.8557 37.7239 18.6145 38.0926 18.3319C40.7843 16.3264 42.245 13.5904 42.4328 10.1997C42.4536 9.88268 42.3632 9.61391 42.1963 9.44851C42.0572 9.30378 41.8555 9.23486 41.6259 9.23486C41.6051 9.23486 41.5912 9.23486 41.5703 9.23486C41.2086 9.25554 40.8608 9.40026 40.7913 10.3582C40.527 13.8661 38.7533 16.4229 35.533 17.9667C34.9905 18.2285 34.8027 18.5249 34.8235 19.0693C34.8861 20.551 34.9279 22.0396 34.9765 23.5214C35.0044 24.4449 35.0322 25.3683 35.067 26.2918C35.0739 26.5813 35.0252 26.8018 34.7262 26.9879C34.0306 27.4358 33.5646 28.0837 33.4116 28.8073C33.2586 29.5378 33.4394 30.3235 33.9054 31.0195C34.0584 31.247 34.1071 31.433 33.9193 31.7087C33.1542 32.8045 33.1542 33.9141 33.9054 35.0098C34.0793 35.2648 34.0793 35.4578 33.9124 35.7059C33.1612 36.7948 33.1612 37.9112 33.9054 39.0139C34.0515 39.2276 34.1071 39.4205 33.9124 39.7031C33.3768 40.4818 33.2168 41.364 33.4742 42.1772C33.7315 43.0042 34.3784 43.652 35.2965 43.9966C35.5956 44.1138 35.7138 44.2792 35.7208 44.6031C35.7416 45.6093 35.7695 46.6775 35.8251 48.0627C35.846 48.6485 36.1659 49.0069 36.6806 48.9793C37.1745 48.9586 37.4596 48.5865 37.4457 47.9869C37.4388 47.6216 37.4388 47.2564 37.4388 46.8842V46.5603H37.4318L37.404 46.4018L37.3831 45.8987C37.3623 45.5059 37.3483 45.1131 37.3136 44.7271C37.2997 44.5824 37.2997 44.4032 37.4249 44.2792C37.5431 44.1551 37.7309 44.1413 37.8561 44.1482C38.4751 44.1689 39.115 44.1689 39.741 44.1482C40.7217 44.1138 41.5703 43.6451 42.085 42.8526C42.5858 42.0738 42.6623 41.1228 42.2867 40.2475C42.1337 39.8892 42.1824 39.6617 42.4675 39.4136C43.4413 38.5659 43.6917 37.2703 43.1005 36.1263ZM35.3035 28.5661C35.5399 28.3249 35.8668 28.187 36.2285 28.1802C37.71 28.1664 39.1568 28.1664 40.5478 28.1802C41.2573 28.187 41.772 28.6901 41.772 29.3724C41.772 30.0823 41.2782 30.5509 40.5061 30.5647C40.2279 30.5647 39.9427 30.5716 39.6645 30.5716C39.4489 30.5716 39.2333 30.5716 39.0176 30.5716H38.3708H37.6822C37.2023 30.5716 36.7224 30.5716 36.2355 30.5647C35.5191 30.5578 34.9905 30.0685 34.9696 29.4138C34.9696 29.0968 35.0878 28.7935 35.3035 28.5661ZM39.5949 42.5631C39.0385 42.57 38.489 42.5769 37.9465 42.5769C37.3901 42.5769 36.8336 42.57 36.2911 42.5631C35.4912 42.5494 34.9626 42.06 34.9765 41.3502C34.9905 40.6541 35.5191 40.1855 36.3189 40.1648C36.7015 40.1579 37.084 40.1579 37.4666 40.1579H37.9743H38.4682C38.8368 40.1579 39.2124 40.151 39.581 40.1648C40.3948 40.1855 40.9026 40.6404 40.9095 41.3571C40.9095 42.0738 40.3948 42.5494 39.5949 42.5631ZM40.5339 38.5591C40.2488 38.5591 39.9636 38.5659 39.6854 38.5659C39.4628 38.5659 39.2402 38.5659 39.0176 38.5659H38.3499H37.7031C37.2231 38.5659 36.7432 38.5659 36.2633 38.5659C35.5191 38.5591 34.9765 38.0629 34.9765 37.3806C34.9765 36.7052 35.526 36.1883 36.2633 36.1883C37.6892 36.1814 39.1081 36.1814 40.5339 36.1883C40.9026 36.1883 41.2295 36.3193 41.459 36.5467C41.6746 36.7672 41.7929 37.0704 41.7859 37.4081C41.765 38.0835 41.2642 38.5453 40.5339 38.5591ZM41.0486 34.5757C40.2627 34.5825 39.4767 34.5825 38.6907 34.5825C37.9048 34.5825 37.1188 34.5825 36.3329 34.5757C35.533 34.5688 34.9905 34.1001 34.9765 33.3972C34.9696 33.0802 35.0739 32.7976 35.2826 32.5839C35.533 32.329 35.8947 32.198 36.3468 32.1911C36.8893 32.1842 37.4318 32.1842 37.9743 32.1911H38.6838H39.4419C39.9844 32.1911 40.527 32.1911 41.0695 32.198C41.8624 32.2118 42.4119 32.7011 42.4049 33.3972C42.391 34.0932 41.8485 34.5688 41.0486 34.5757Z" fill="#E68A00"/>
<path d="M0.860166 44.1482C0.853211 44.1482 0.8393 44.1482 0.832344 44.1482C0.630637 44.1482 0.435885 44.224 0.282866 44.3687C0.122891 44.5203 0.0324707 44.7202 0.0324707 44.9338C0.0324707 45.1406 0.10898 45.3336 0.262 45.4852C0.415019 45.6368 0.623682 45.7264 0.846255 45.7264H0.853211C1.29836 45.7195 1.61831 45.3956 1.62526 44.9476C1.62526 44.4928 1.30531 44.162 0.860166 44.1482Z" fill="#E68A00"/>
<path d="M40.9165 7.02954C40.9234 7.02954 40.9234 7.02954 40.9304 7.02954C41.1321 7.02954 41.3268 6.94684 41.4729 6.80211C41.6329 6.6436 41.7163 6.43685 41.7163 6.20943C41.7094 5.78214 41.3546 5.43066 40.9304 5.43066C40.9304 5.43066 40.9304 5.43066 40.9234 5.43066C40.7217 5.43066 40.52 5.52026 40.36 5.67877C40.2001 5.83727 40.1096 6.04403 40.1166 6.24389C40.1166 6.65739 40.4991 7.02265 40.9165 7.02954Z" fill="#E68A00"/>
</svg>
