<svg width="34" height="36" viewBox="0 0 34 36" fill="none" xmlns="http://www.w3.org/2000/svg">
<path d="M4.97602 31.0306C8.1562 34.094 12.4054 35.7804 16.9441 35.7804C16.9528 35.7804 16.9615 35.7803 16.9702 35.7803C21.5027 35.774 25.7692 34.0892 28.9831 31.0364C32.1877 27.9926 33.9568 23.9296 33.9645 19.5956C33.9723 15.2411 32.2037 11.1476 28.9846 8.06907C28.353 7.46521 27.3291 7.46521 26.6975 8.06936C26.066 8.67352 26.066 9.65292 26.6976 10.257C29.3043 12.7498 30.7364 16.0643 30.7299 19.5905C30.7236 23.096 29.2938 26.3812 26.7038 28.8416C24.0984 31.316 20.6398 32.6817 16.9652 32.6872C16.958 32.6873 16.9512 32.6873 16.9441 32.6873C13.2738 32.6872 9.83895 31.3255 7.26678 28.8476C4.66686 26.3611 3.23488 23.0608 3.23449 19.554C3.23419 16.0472 4.66555 12.7465 7.26487 10.2598C7.89633 9.65559 7.89633 8.67619 7.26472 8.07207C6.6331 7.46821 5.60917 7.46821 4.97759 8.07236C1.76732 11.1436 -0.000383272 15.2213 6.23325e-08 19.5545C0.000599022 23.8871 1.76916 27.9648 4.97606 31.0312L4.97602 31.0306Z" fill="#E68A00"/>
<path d="M16.8187 0C15.9255 0.00014322 15.2017 0.692818 15.2017 1.54701L15.2036 17.244C15.2038 18.0984 15.9279 18.7908 16.8209 18.7908C17.7141 18.7906 18.438 18.098 18.438 17.2438L18.436 1.54675C18.436 0.692378 17.7119 0 16.8187 0Z" fill="#E68A00"/>
</svg>
