<svg width="43" height="37" viewBox="0 0 43 37" fill="none" xmlns="http://www.w3.org/2000/svg">
<path d="M1.11951 10.1054H39.802L38.9192 11.0359C38.8291 11.1353 38.748 11.2166 38.6759 11.2889L37.4598 12.5084C36.0635 13.9087 34.6762 15.2999 33.2799 16.7001C32.9465 17.0344 32.8565 17.3416 32.9736 17.721C33.0817 18.0462 33.2979 18.272 33.5951 18.3443C33.9285 18.4256 34.3068 18.2991 34.6041 18.001L42.4235 10.1687C42.6847 9.90667 42.8739 9.68986 43 9.43691V8.94005C42.8829 8.7142 42.7208 8.50642 42.4505 8.24444C41.8469 7.65724 41.2614 7.05197 40.6668 6.45573L38.2886 4.07079C37.0544 2.84218 35.8293 1.60454 34.6041 0.366895C34.2438 0.00554023 33.9014 -0.0847986 33.4961 0.0778113C33.2078 0.195252 33.0096 0.421099 32.9465 0.710183C32.8745 1.0354 32.9916 1.37869 33.2528 1.64067C34.2708 2.67053 35.2978 3.7004 36.3247 4.73026L38.694 7.1152C38.8561 7.24168 39.0903 7.44042 39.0903 7.81081V8.26251H1.18257C1.13753 8.26251 1.09249 8.26251 1.04745 8.26251C0.984387 8.26251 0.930336 8.26251 0.867277 8.26251C0.42586 8.28961 0.038495 8.67806 0.0294865 9.12976C0.020478 9.40981 0.101554 9.63566 0.254699 9.8073C0.443877 10.006 0.741158 10.1054 1.11951 10.1054Z" fill="#E68A00"/>
<path d="M41.7296 25.8966C31.7752 25.9147 21.8298 25.9056 11.8755 25.9056H4.06508L3.83086 25.3184L4.03806 24.9932L4.16418 24.8938C4.23625 24.8396 4.30831 24.7854 4.36237 24.7222L6.31721 22.7619C7.45228 21.6236 8.58735 20.4853 9.72242 19.347C10.0647 19.0128 10.1638 18.6876 10.0557 18.3172C9.96565 17.992 9.73143 17.7571 9.43415 17.6848C9.36208 17.6667 9.29001 17.6577 9.20894 17.6577C8.93868 17.6577 8.66843 17.7752 8.44321 18.001C6.38027 20.0607 4.32633 22.1204 2.27239 24.1892L0.479702 25.9869C-0.159901 26.6284 -0.159901 27.0349 0.479702 27.6763L8.35313 35.5719C8.47024 35.6893 8.5333 35.7526 8.59636 35.8068C8.96571 36.1049 9.4882 36.0688 9.82151 35.7345C10.2179 35.337 10.1819 34.795 9.74044 34.3523C8.70446 33.3134 7.66848 32.2745 6.63251 31.2266L4.32633 28.9049C4.16418 28.7603 3.98401 28.5977 3.91194 28.3087L3.78582 27.7486H11.9115C21.8479 27.7486 31.7932 27.7486 41.7296 27.7576C41.7296 27.7576 41.7296 27.7576 41.7386 27.7576C42.4143 27.7576 42.7746 27.5679 42.9998 27.071V26.5741C42.7656 26.0863 42.3872 25.8514 41.7296 25.8966Z" fill="#E68A00"/>
</svg>
