<svg width="78" height="78" viewBox="0 0 78 78" fill="none" xmlns="http://www.w3.org/2000/svg">
<path d="M41.2442 77.915C39.7217 77.915 38.2011 77.915 36.6786 77.915C36.4824 77.873 36.288 77.8045 36.0918 77.7892C30.6554 77.4177 25.4877 76.0193 20.7411 73.3596C7.93804 66.1922 0.975353 55.2372 0.0721475 40.586C-0.3604 33.5596 1.15256 26.8361 4.5958 20.686C11.7471 7.91347 22.7056 0.974668 37.3265 0.0715952C44.3521 -0.362794 51.0537 1.18424 57.2313 4.58315C68.2184 10.6265 74.9315 19.8458 77.3 32.1821C77.5859 33.6663 77.7135 35.1809 77.9136 36.6803C77.9136 38.2026 77.9136 39.723 77.9136 41.2452C77.8698 41.4643 77.7993 41.6815 77.784 41.9006C77.4048 47.3343 75.9681 52.4822 73.3385 57.2415C67.279 68.2117 58.0755 74.9314 45.7469 77.2996C44.2625 77.5854 42.7457 77.7149 41.2442 77.915ZM57.662 38.9628C47.8334 33.2872 38.1344 27.6877 28.3612 22.0445C28.3612 33.3615 28.3612 44.5679 28.3612 55.883C38.1383 50.236 47.8372 44.6346 57.662 38.9628Z" fill="#E68A00"/>
<path d="M57.6622 38.9628C47.8394 44.6347 38.1385 50.236 28.3614 55.8812C28.3614 44.568 28.3614 33.3615 28.3614 22.0426C38.1328 27.6878 47.8337 33.2872 57.6622 38.9628Z" fill="#E58A00"/>
<path d="M49.3306 39.0067C42.408 42.8524 35.5713 46.6504 28.6808 50.4781C28.6808 42.8072 28.6808 35.2087 28.6808 27.5339C35.5672 31.3616 42.4039 35.1583 49.3306 39.0067Z" fill="white"/>
</svg>
