<svg width="31" height="30" viewBox="0 0 31 30" fill="none" xmlns="http://www.w3.org/2000/svg">
<path d="M16.5664 26.9539V29.9992C19.5966 29.6976 22.3554 28.4916 24.5865 26.6675L22.4458 24.5117C20.7724 25.8082 18.7674 26.6826 16.5664 26.9539Z" fill="#E68A00"/>
<path d="M3.01508 15C3.01508 8.89447 7.58291 3.82915 13.4925 3.04523V0C5.90955 0.798995 0 7.22111 0 15C0 22.7789 5.90955 29.201 13.4925 30V26.9548C7.58291 26.1709 3.01508 21.1055 3.01508 15Z" fill="#E68A00"/>
<path d="M27.0164 13.4947H30.0617C29.7601 10.4646 28.5541 7.70577 26.73 5.47461L24.5742 7.63039C25.8707 9.28868 26.7451 11.2937 27.0164 13.4947Z" fill="#E68A00"/>
<path d="M24.5865 3.33166C22.3554 1.50754 19.5815 0.301508 16.5664 0V3.04523C18.7674 3.31658 20.7724 4.19095 22.4458 5.48744L24.5865 3.33166Z" fill="#E68A00"/>
<path d="M24.5742 22.3853L26.73 24.526C28.5541 22.2948 29.7601 19.536 30.0617 16.5059H27.0164C26.7451 18.7069 25.8707 20.7119 24.5742 22.3853Z" fill="#E68A00"/>
<path d="M21.0603 13.6418C21.0603 9.88807 18.196 7.46094 15.0302 7.46094C11.8643 7.46094 9 9.88807 9 13.6418C9 16.1444 11.005 19.1142 15.0302 22.5363C19.0553 19.1142 21.0603 16.1444 21.0603 13.6418ZM15.0302 14.9986C14.1407 14.9986 13.4171 14.275 13.4171 13.3856C13.4171 12.4961 14.1407 11.7725 15.0302 11.7725C15.9196 11.7725 16.6432 12.4961 16.6432 13.3856C16.6432 14.275 15.9196 14.9986 15.0302 14.9986Z" fill="#E68A00"/>
</svg>
