<svg width="30" height="30" viewBox="0 0 30 30" fill="none" xmlns="http://www.w3.org/2000/svg">
<path d="M2.85714 24.2857V8.57143H25.7143V13.2714C26.7429 13.5857 27.7143 14.0429 28.5714 14.6571V8.57143C28.5714 6.98571 27.3 5.71429 25.7143 5.71429H20V2.85714C20 1.27143 18.7286 0 17.1429 0H11.4286C9.84286 0 8.57143 1.27143 8.57143 2.85714V5.71429H2.85714C1.27143 5.71429 0.0142857 6.98571 0.0142857 8.57143L0 24.2857C0 25.8714 1.27143 27.1429 2.85714 27.1429H13.8286C13.4 26.2571 13.1143 25.3 12.9714 24.2857H2.85714ZM11.4286 2.85714H17.1429V5.71429H11.4286V2.85714Z" fill="#E68A00"/>
<path d="M22.8577 15.7148C18.9148 15.7148 15.7148 18.9148 15.7148 22.8577C15.7148 26.8006 18.9148 30.0006 22.8577 30.0006C26.8006 30.0006 30.0006 26.8006 30.0006 22.8577C30.0006 18.9148 26.8006 15.7148 22.8577 15.7148ZM25.2148 26.2148L22.1434 23.1434V18.572H23.572V22.5577L26.2148 25.2006L25.2148 26.2148Z" fill="#E68A00"/>
</svg>
