<svg width="31" height="30" viewBox="0 0 31 30" fill="none" xmlns="http://www.w3.org/2000/svg">
<path d="M14.2098 23.4C9.5561 23.1805 5.85366 19.3463 5.85366 14.6341C5.85366 9.79024 9.79024 5.85366 14.6341 5.85366C19.3463 5.85366 23.1805 9.5561 23.4 14.2098L20.3268 13.2878C19.7268 10.6976 17.4 8.78049 14.6341 8.78049C11.4 8.78049 8.78049 11.4 8.78049 14.6341C8.78049 17.4 10.6976 19.7268 13.2878 20.3268L14.2098 23.4ZM29.2683 14.6341C29.2683 15.0732 29.2537 15.5122 29.2098 15.9512L26.3268 15.0878C26.3415 14.9415 26.3415 14.7805 26.3415 14.6341C26.3415 8.16585 21.1024 2.92683 14.6341 2.92683C8.16585 2.92683 2.92683 8.16585 2.92683 14.6341C2.92683 21.1024 8.16585 26.3415 14.6341 26.3415C14.7805 26.3415 14.9415 26.3415 15.0878 26.3268L15.9512 29.2098C15.5122 29.2537 15.0732 29.2683 14.6341 29.2683C6.5561 29.2683 0 22.7122 0 14.6341C0 6.5561 6.5561 0 14.6341 0C22.7122 0 29.2683 6.5561 29.2683 14.6341ZM23.7512 20.8683L29.2683 19.0244L14.6341 14.6341L19.0244 29.2683L20.8683 23.7512L27.1171 30L30.0146 27.1024L23.7512 20.8683Z" fill="#E68A00"/>
</svg>
