<svg width="40" height="30" viewBox="0 0 40 30" fill="none" xmlns="http://www.w3.org/2000/svg">
<path d="M36.6667 0H3.33333C1.5 0 0 1.5 0 3.33333V26.6667C0 28.5 1.5 30 3.33333 30H36.6667C38.5 30 39.9833 28.5 39.9833 26.6667L40 3.33333C40 1.5 38.5 0 36.6667 0ZM36.6667 26.6667H3.33333V3.33333H36.6667V26.6667ZM35 5H23.3333V13.3333H35V5ZM33.3333 8.33333L29.1667 11.25L25 8.33333V6.66667L29.1667 9.58333L33.3333 6.66667V8.33333ZM15 15C17.75 15 20 12.75 20 10C20 7.25 17.75 5 15 5C12.25 5 10 7.25 10 10C10 12.75 12.25 15 15 15ZM15 8.33333C15.9167 8.33333 16.6667 9.08333 16.6667 10C16.6667 10.9167 15.9167 11.6667 15 11.6667C14.0833 11.6667 13.3333 10.9167 13.3333 10C13.3333 9.08333 14.0833 8.33333 15 8.33333ZM25 22.65C25 18.4833 18.3833 16.6833 15 16.6833C11.6167 16.6833 5 18.4833 5 22.65V25H25V22.65ZM9.13333 21.6667C10.3667 20.8333 12.8333 20 15 20C17.1667 20 19.6167 20.8167 20.8667 21.6667H9.13333Z" fill="#E68A00"/>
</svg>
