<svg width="33" height="30" viewBox="0 0 33 30" fill="none" xmlns="http://www.w3.org/2000/svg">
<path d="M25.0123 2.94262H1.47131V0H25.0123V2.94262ZM17.7146 11.7705H3.00147L3.88426 7.35655H22.5993L23.1878 10.2992C24.2766 10.358 25.3212 10.5787 26.3217 10.976L25.0123 4.41393H1.47131L0 11.7705V14.7131H1.47131V23.541H13.9774C13.4919 22.3639 13.2418 21.1133 13.2418 19.8627V20.5983H4.41393V14.7131H13.2418V19.8627C13.2418 17.4203 14.1834 14.9632 16.0373 13.0947C16.5669 12.5797 17.126 12.1383 17.7146 11.7705ZM32.9426 27.9549L30.8975 30L26.307 25.4831C25.2918 26.1157 24.0853 26.4836 22.8053 26.4836C19.127 26.4836 16.1844 23.541 16.1844 19.8627C16.1844 16.1844 19.127 13.2418 22.8053 13.2418C26.4836 13.2418 29.4262 16.1844 29.4262 19.8627C29.4262 21.1574 29.0584 22.3786 28.411 23.3938L32.9426 27.9549ZM26.4836 19.8627C26.4836 17.8323 24.8357 16.1844 22.8053 16.1844C20.7749 16.1844 19.127 17.8323 19.127 19.8627C19.127 21.8931 20.7749 23.541 22.8053 23.541C24.8357 23.541 26.4836 21.8931 26.4836 19.8627Z" fill="#E68A00"/>
</svg>
