<svg width="27" height="30" viewBox="0 0 27 30" fill="none" xmlns="http://www.w3.org/2000/svg">
<path d="M19.6983 7.03333L18.0316 7.7C17.6816 7.43333 17.315 7.21667 16.915 7.05L16.665 5.28333C16.6316 5.11667 16.4983 5 16.3316 5H13.665C13.4983 5 13.365 5.11667 13.3483 5.28333L13.0983 7.05C12.6983 7.21667 12.315 7.43333 11.9816 7.7L10.315 7.03333C10.165 6.98333 9.98163 7.03333 9.91496 7.18333L8.58163 9.48333C8.4983 9.63333 8.53163 9.81667 8.66496 9.91667L10.0816 11.0167C10.0316 11.2167 9.9983 11.45 9.9983 11.6667C9.9983 11.8833 10.015 12.1 10.0483 12.3167L8.6483 13.4167C8.51496 13.5167 8.48163 13.7 8.56496 13.8333L9.8983 16.15C9.98163 16.3 10.1483 16.35 10.315 16.3L11.965 15.6333C12.315 15.9 12.6816 16.1167 13.0983 16.2833L13.3316 18.05C13.365 18.2167 13.4983 18.3333 13.665 18.3333H16.3316C16.4983 18.3333 16.6316 18.2167 16.665 18.05L16.915 16.2833C17.315 16.1167 17.6983 15.9 18.0316 15.6333L19.6816 16.3C19.8316 16.3667 20.015 16.3 20.0816 16.15L21.415 13.8333C21.4983 13.6833 21.465 13.5167 21.3316 13.4167L19.9483 12.3167C19.9816 12.1 19.9983 11.8833 19.9983 11.6667C19.9983 11.4333 19.9816 11.2167 19.9483 11.0167L21.365 9.91667C21.4983 9.81667 21.5316 9.63333 21.4483 9.48333L20.115 7.18333C20.0316 7.03333 19.8483 6.98333 19.6983 7.03333ZM14.9983 14.05C13.6816 14.05 12.615 12.9833 12.615 11.6667C12.615 10.35 13.6816 9.28333 14.9983 9.28333C16.315 9.28333 17.3816 10.35 17.3816 11.6667C17.3816 12.9833 16.315 14.05 14.9983 14.05Z" fill="#E68A00"/>
<path d="M26.5664 10.1C25.8497 4.65 21.1831 0.333333 15.6831 0.0166667C15.4497 -1.5522e-08 15.2331 0 14.9997 0C9.11641 0 4.28308 4.35 3.46641 10L0.249746 15.8C-0.433588 16.9 0.366412 18.3333 1.66641 18.3333H3.33308V21.6667C3.33308 23.5 4.83308 25 6.66641 25H8.33308V30H19.9997V22.2C24.3664 20.1167 27.2497 15.4 26.5664 10.1ZM18.1497 19.3833L16.6664 20.0833V26.6667H11.6664V21.6667H6.66641V15H4.49974L6.71641 11.1167C7.01641 6.76667 10.5831 3.33333 14.9997 3.33333C19.5997 3.33333 23.3331 7.06667 23.3331 11.6667C23.3331 15.15 21.1831 18.1333 18.1497 19.3833Z" fill="#E68A00"/>
</svg>
