<svg width="30" height="30" viewBox="0 0 30 30" fill="none" xmlns="http://www.w3.org/2000/svg">
<path d="M18.5714 14.2857H20.7143V20.3571L24.8 22.7714L23.7286 24.5143L18.5714 21.4286V14.2857ZM20 10C20.9857 10 21.9571 10.1429 22.8571 10.4143V3.85714L18.5714 5.51429V10.1C19.0429 10 19.5143 10 20 10ZM30 20C30 22.6522 28.9464 25.1957 27.0711 27.0711C25.1957 28.9464 22.6522 30 20 30C15.7143 30 12 27.2571 10.6 23.4286L8.57143 22.7143L0.942857 25.6714L0.714286 25.7143C0.524845 25.7143 0.343164 25.639 0.20921 25.5051C0.075255 25.3711 0 25.1894 0 25V3.4C0 3.07143 0.214286 2.81429 0.514286 2.71429L8.57143 0L17.1429 3L24.7714 0.0428571L25 0C25.1894 0 25.3711 0.075255 25.5051 0.20921C25.639 0.343164 25.7143 0.524845 25.7143 0.714286V11.7857C28.3 13.5714 30 16.6 30 20ZM10 20C10 16.0143 12.3286 12.5714 15.7143 10.9571V5.52857L10 3.52857V20.1857C10 20.1286 10 20.0571 10 20ZM20 12.8571C18.1056 12.8571 16.2888 13.6097 14.9492 14.9492C13.6097 16.2888 12.8571 18.1056 12.8571 20C12.8571 21.8944 13.6097 23.7112 14.9492 25.0508C16.2888 26.3903 18.1056 27.1429 20 27.1429C21.8944 27.1429 23.7112 26.3903 25.0508 25.0508C26.3903 23.7112 27.1429 21.8944 27.1429 20C27.1429 18.1056 26.3903 16.2888 25.0508 14.9492C23.7112 13.6097 21.8944 12.8571 20 12.8571ZM2.85714 4.94286V21.8714L7.14286 20.2143V3.5L2.85714 4.94286Z" fill="#E68A00"/>
</svg>
