<svg width="52" height="30" viewBox="0 0 52 30" fill="none" xmlns="http://www.w3.org/2000/svg">
<path d="M26 0C23.9888 0 22.0599 0.790177 20.6378 2.1967C19.2156 3.60322 18.4167 5.51088 18.4167 7.5C18.4167 9.48912 19.2156 11.3968 20.6378 12.8033C22.0599 14.2098 23.9888 15 26 15C28.0112 15 29.9401 14.2098 31.3622 12.8033C32.7844 11.3968 33.5833 9.48912 33.5833 7.5C33.5833 5.51088 32.7844 3.60322 31.3622 2.1967C29.9401 0.790177 28.0112 0 26 0ZM26 4.28571C26.862 4.28571 27.6886 4.62436 28.2981 5.22716C28.9076 5.82995 29.25 6.64752 29.25 7.5C29.25 8.35248 28.9076 9.17005 28.2981 9.77284C27.6886 10.3756 26.862 10.7143 26 10.7143C25.138 10.7143 24.3114 10.3756 23.7019 9.77284C23.0924 9.17005 22.75 8.35248 22.75 7.5C22.75 6.64752 23.0924 5.82995 23.7019 5.22716C24.3114 4.62436 25.138 4.28571 26 4.28571ZM11.9167 6.42857C10.4801 6.42857 9.10233 6.99298 8.0865 7.99764C7.07068 9.0023 6.5 10.3649 6.5 11.7857C6.5 13.8 7.64833 15.5357 9.295 16.4571C10.075 16.8857 10.9633 17.1429 11.9167 17.1429C12.87 17.1429 13.7583 16.8857 14.5383 16.4571C15.34 16.0071 16.0117 15.3643 16.51 14.5929C14.9283 12.5571 14.0833 10.0714 14.0833 7.5C14.0833 7.30714 14.0833 7.09286 14.0833 6.9C13.4333 6.6 12.6967 6.42857 11.9167 6.42857ZM40.0833 6.42857C39.3033 6.42857 38.5667 6.6 37.9167 6.9C37.9167 7.09286 37.9167 7.30714 37.9167 7.5C37.9167 10.0714 37.0717 12.5571 35.49 14.5929C35.75 15 36.0317 15.3214 36.3567 15.6429C36.7033 15.9643 37.05 16.2429 37.4617 16.4571C38.2417 16.8857 39.13 17.1429 40.0833 17.1429C41.0367 17.1429 41.925 16.8857 42.705 16.4571C44.3517 15.5357 45.5 13.8 45.5 11.7857C45.5 10.3649 44.9293 9.0023 43.9135 7.99764C42.8977 6.99298 41.5199 6.42857 40.0833 6.42857ZM26 19.2857C20.93 19.2857 10.8333 21.7929 10.8333 26.7857V30H41.1667V26.7857C41.1667 21.7929 31.07 19.2857 26 19.2857ZM10.205 20.4643C6.02333 20.9571 0 23.0571 0 26.7857V30H6.5V25.8643C6.5 23.7 7.995 21.9 10.205 20.4643ZM41.795 20.4643C44.005 21.9 45.5 23.7 45.5 25.8643V30H52V26.7857C52 23.0571 45.9767 20.9571 41.795 20.4643ZM26 23.5714C29.315 23.5714 33.02 24.6429 35.165 25.7143H16.835C18.98 24.6429 22.685 23.5714 26 23.5714Z" fill="#E58A00"/>
</svg>
