<svg width="151" height="46" viewBox="0 0 151 46" fill="none" xmlns="http://www.w3.org/2000/svg">
<path d="M6.538 9.4C7.434 9.106 8.008 8.224 8.008 7.23C8.008 6.53 7.756 5.928 7.252 5.424C6.762 4.906 6.048 4.654 5.138 4.654H1.414V15H5.278C6.328 15 7.126 14.706 7.7 14.132C8.274 13.544 8.554 12.858 8.554 12.06C8.554 10.842 7.826 9.75 6.538 9.4ZM5.054 5.466C6.384 5.466 7.14 6.208 7.14 7.23C7.14 8.252 6.342 9.064 5.208 9.064H2.268V5.466H5.054ZM2.268 14.188V9.876H5.194C5.936 9.876 6.524 10.086 6.986 10.492C7.448 10.898 7.672 11.402 7.672 12.018C7.672 12.634 7.448 13.152 6.986 13.572C6.538 13.978 5.95 14.188 5.208 14.188H2.268ZM20.0779 15L17.3059 10.548C18.1319 10.394 18.7619 10.058 19.1959 9.512C19.6439 8.966 19.8679 8.336 19.8679 7.65C19.8679 6.838 19.5879 6.138 19.0139 5.55C18.4539 4.948 17.6419 4.654 16.5919 4.654H13.4699V15H14.3239V10.632H16.3959L19.0419 15H20.0779ZM16.6059 5.466C18.0759 5.466 18.9859 6.348 18.9859 7.622C18.9859 8.924 18.0759 9.82 16.3959 9.82H14.3239V5.466H16.6059ZM32.4278 15L28.3258 4.654H27.8638L23.7338 15H24.6718L25.9038 11.864H30.2578L31.4898 15H32.4278ZM29.9778 11.066H26.1838L28.0878 6.18L29.9778 11.066ZM44.3606 15L40.2586 4.654H39.7966L35.6666 15H36.6046L37.8366 11.864H42.1906L43.4226 15H44.3606ZM41.9106 11.066H38.1166L40.0206 6.18L41.9106 11.066ZM48.8035 4.654V15H49.6575V10.982H51.8695C52.9755 10.982 53.8155 10.674 54.4035 10.058C55.0055 9.428 55.2995 8.686 55.2995 7.818C55.2995 6.964 55.0195 6.222 54.4455 5.592C53.8855 4.962 53.0735 4.654 51.9955 4.654H48.8035ZM49.6575 10.184V5.466H52.0375C53.5075 5.466 54.4315 6.446 54.4315 7.804C54.4315 9.162 53.4655 10.184 51.8835 10.184H49.6575ZM66.6051 15V10.17H71.1691V9.344H66.6051V5.48H71.7431V4.654H65.7511V15H66.6051ZM82.5747 15V14.188H77.1707V10.156H82.1827V9.358H77.1707V5.466H82.5467V4.654H76.3167V15H82.5747ZM95.0149 15L90.9129 4.654H90.4509L86.3209 15H87.2589L88.4909 11.864H92.8449L94.0769 15H95.0149ZM92.5649 11.066H88.7709L90.6749 6.18L92.5649 11.066ZM100.433 15H101.287V5.48H104.423V4.654H97.2967V5.48H100.433V15ZM108.736 11.64C108.736 12.746 109.058 13.614 109.688 14.244C110.332 14.874 111.186 15.182 112.236 15.182C113.286 15.182 114.14 14.874 114.77 14.244C115.4 13.614 115.722 12.746 115.722 11.64V4.654H114.868V11.5C114.868 13.278 113.902 14.328 112.236 14.328C110.556 14.328 109.59 13.292 109.59 11.5V4.654H108.736V11.64ZM127.84 15L125.068 10.548C125.894 10.394 126.524 10.058 126.958 9.512C127.406 8.966 127.63 8.336 127.63 7.65C127.63 6.838 127.35 6.138 126.776 5.55C126.216 4.948 125.404 4.654 124.354 4.654H121.232V15H122.086V10.632H124.158L126.804 15H127.84ZM124.368 5.466C125.838 5.466 126.748 6.348 126.748 7.622C126.748 8.924 125.838 9.82 124.158 9.82H122.086V5.466H124.368ZM138.958 15V14.188H133.554V10.156H138.566V9.358H133.554V5.466H138.93V4.654H132.7V15H138.958ZM146.344 15.168C147.268 15.168 148.038 14.902 148.654 14.384C149.284 13.852 149.592 13.166 149.592 12.326C149.592 11.318 149.032 10.52 147.926 9.918C147.716 9.806 147.324 9.624 146.75 9.372C146.176 9.12 145.798 8.938 145.616 8.84C144.79 8.406 144.37 7.832 144.37 7.118C144.37 6.012 145.238 5.27 146.456 5.27C147.38 5.27 148.136 5.69 148.724 6.53L149.368 6.012C148.654 4.99 147.674 4.472 146.442 4.472C145.56 4.472 144.832 4.724 144.286 5.242C143.74 5.746 143.474 6.39 143.474 7.16C143.474 8.21 144.062 9.036 145.238 9.624C145.42 9.722 145.756 9.876 146.26 10.1C146.778 10.324 147.128 10.492 147.324 10.59C148.22 11.038 148.682 11.556 148.682 12.354C148.682 12.928 148.458 13.404 148.024 13.782C147.59 14.16 147.016 14.356 146.316 14.356C145.098 14.356 144.146 13.684 143.628 12.55L142.942 13.012C143.572 14.426 144.888 15.168 146.344 15.168Z" fill="white"/>
<path d="M87.5833 30L75.5 41.4286L63.4167 30L61 32.2857L75.5 46L90 32.2857L87.5833 30Z" fill="#E68A00"/>
</svg>
