<svg width="258" height="101" viewBox="0 0 258 101" fill="none" xmlns="http://www.w3.org/2000/svg">
<path d="M110.285 40.2102C110.285 40.2102 158.388 29.9636 194.17 44.6064C229.953 59.2492 253.416 98.7813 253.416 98.7813" stroke="black" stroke-width="2" stroke-linecap="round" stroke-dasharray="7 7"/>
<path d="M243.104 93.0411L250.919 96.1134L253.161 88.4205" stroke="black" stroke-width="2" stroke-linecap="round" stroke-linejoin="round"/>
<path d="M77.2738 22.333C76.1253 22.333 75.0026 22.6736 74.0476 23.3117C73.0927 23.9497 72.3484 24.8567 71.9088 25.9178C71.4693 26.9789 71.3543 28.1464 71.5784 29.2729C71.8024 30.3993 72.3555 31.4341 73.1676 32.2462C73.9798 33.0583 75.0145 33.6114 76.1409 33.8354C77.2674 34.0595 78.435 33.9445 79.496 33.505C80.5571 33.0655 81.4641 32.3212 82.1022 31.3662C82.7402 30.4112 83.0808 29.2885 83.0808 28.14C83.0795 26.6003 82.4673 25.124 81.3785 24.0353C80.2898 22.9466 78.8135 22.3343 77.2738 22.333ZM77.2738 31.266C76.6553 31.266 76.0508 31.0826 75.5365 30.739C75.0223 30.3954 74.6215 29.907 74.3848 29.3357C74.1482 28.7643 74.0862 28.1355 74.2069 27.529C74.3275 26.9224 74.6254 26.3652 75.0627 25.9279C75.5 25.4906 76.0572 25.1927 76.6638 25.0721C77.2703 24.9514 77.8991 25.0134 78.4705 25.25C79.0418 25.4867 79.5302 25.8875 79.8738 26.4017C80.2174 26.916 80.4008 27.5205 80.4008 28.139C80.4 28.9681 80.0703 29.763 79.484 30.3493C78.8978 30.9355 78.1029 31.2652 77.2738 31.266Z" fill="black"/>
<path d="M46.007 19.577C40.7804 19.5774 35.6713 21.1276 31.3257 24.0316C26.9801 26.9356 23.5932 31.063 21.5933 35.8918C19.5933 40.7206 19.0702 46.034 20.0899 51.1602C21.1097 56.2863 23.6266 60.995 27.3223 64.6907C31.0181 68.3865 35.7267 70.9034 40.8529 71.9231C45.979 72.9429 51.2925 72.4197 56.1213 70.4198C60.9501 68.4198 65.0775 65.0329 67.9815 60.6873C70.8854 56.3417 72.4356 51.2326 72.436 46.006C72.4281 38.9991 69.6411 32.2813 64.6864 27.3267C59.7317 22.372 53.014 19.585 46.007 19.577ZM46.007 69.751C41.3103 69.7506 36.7192 68.3575 32.8143 65.7478C28.9093 63.1381 25.8659 59.4291 24.0689 55.0898C22.2719 50.7504 21.8021 45.9756 22.7187 41.3693C23.6354 36.7629 25.8974 32.5317 29.2188 29.2109C32.5401 25.8901 36.7717 23.6288 41.3782 22.7129C45.9847 21.797 50.7594 22.2677 55.0985 24.0654C59.4375 25.8631 63.146 28.9072 65.7551 32.8126C68.3641 36.718 69.7564 41.3093 69.756 46.006C69.7476 52.3013 67.2425 58.3362 62.7903 62.7869C58.3381 67.2376 52.3023 69.7407 46.007 69.747V69.751Z" fill="black"/>
<path d="M11.6136 12.0561V9.18808C11.6136 8.94938 11.7084 8.72047 11.8772 8.55168C12.046 8.3829 12.2749 8.28808 12.5136 8.28808H18.8206C19.0593 8.28808 19.2882 8.3829 19.457 8.55168C19.6258 8.72047 19.7206 8.94938 19.7206 9.18808V12.0561H22.4006V9.18808C22.4006 8.23807 22.0232 7.32698 21.3515 6.65522C20.6797 5.98347 19.7686 5.60608 18.8186 5.60608H12.5156C11.5658 5.60687 10.6552 5.98452 9.98361 6.6561C9.31203 7.32768 8.93439 8.23832 8.93359 9.18808V12.1361C9.37844 12.0847 9.82579 12.058 10.2736 12.0561H11.6136Z" fill="black"/>
<path d="M81.74 13.4H69.368C68.8608 13.4008 68.3601 13.2856 67.9042 13.0635C67.4482 12.8413 67.049 12.5179 66.737 12.118L66.692 12.06L58.987 2.22003C58.4478 1.52635 57.7567 0.965541 56.9669 0.580689C56.1771 0.195837 55.3096 -0.0028053 54.431 2.99287e-05H37.583C36.7044 -0.0028053 35.8369 0.195837 35.0471 0.580689C34.2573 0.965541 33.5662 1.52635 33.027 2.22003L25.327 12.06L25.282 12.118C24.9694 12.5185 24.5694 12.8422 24.1125 13.0644C23.6556 13.2866 23.154 13.4014 22.646 13.4H10.273C9.82486 13.4002 9.37722 13.4299 8.933 13.489C6.46325 13.817 4.19643 15.0301 2.55352 16.903C0.910612 18.776 0.00327043 21.1816 0 23.673L0 68.34C0.00317538 71.0637 1.08649 73.6749 3.01234 75.601C4.93818 77.527 7.54931 78.6106 10.273 78.614H81.74C84.4639 78.6109 87.0752 77.5274 89.0013 75.6013C90.9274 73.6753 92.0108 71.0639 92.014 68.34V23.673C92.0106 20.9493 90.927 18.3382 89.001 16.4124C87.0749 14.4865 84.4637 13.4032 81.74 13.4ZM89.333 68.34C89.3311 70.3532 88.5306 72.2835 87.107 73.707C85.6835 75.1306 83.7532 75.9312 81.74 75.933H10.273C8.25978 75.9312 6.32955 75.1306 4.90599 73.707C3.48242 72.2835 2.68185 70.3532 2.68 68.34V23.673C2.68185 21.6598 3.48242 19.7296 4.90599 18.306C6.32955 16.8825 8.25978 16.0819 10.273 16.08H22.646C23.5604 16.0821 24.4632 15.8751 25.2854 15.475C26.1076 15.0748 26.8275 14.492 27.39 13.771L28.73 12.06L35.135 3.87303C35.4248 3.50034 35.7961 3.19902 36.2204 2.99221C36.6448 2.7854 37.1109 2.67861 37.583 2.68003H54.431C54.9031 2.67861 55.3692 2.7854 55.7936 2.99221C56.2179 3.19902 56.5892 3.50034 56.879 3.87303L63.289 12.06L64.625 13.766C65.187 14.4879 65.9066 15.0717 66.7289 15.4727C67.5511 15.8738 68.4542 16.0815 69.369 16.08H81.74C83.7532 16.0819 85.6835 16.8825 87.107 18.306C88.5306 19.7296 89.3311 21.6598 89.333 23.673V68.34Z" fill="black"/>
<path d="M11 22.879H9V67.879H11V22.879Z" fill="black"/>
<path d="M46.0077 65.2131C43.4738 65.2313 40.9613 64.7481 38.615 63.791C36.2688 62.834 34.135 61.4222 32.3368 59.6369C30.5386 57.8516 29.1114 55.7281 28.1374 53.3888C27.1635 51.0494 26.6621 48.5405 26.6621 46.0066C26.6621 43.4726 27.1635 40.9637 28.1374 38.6244C29.1114 36.285 30.5386 34.1616 32.3368 32.3762C34.135 30.5909 36.2688 29.1791 38.615 28.2221C40.9613 27.2651 43.4738 26.7818 46.0077 26.8001V29.4801C42.7389 29.4799 39.5435 30.449 36.8255 32.2649C34.1075 34.0808 31.9891 36.6619 30.738 39.6818C29.487 42.7017 29.1596 46.0247 29.7971 49.2307C30.4347 52.4367 32.0087 55.3816 34.32 57.6931C36.6313 60.0045 39.5761 61.5786 42.7821 62.2164C45.988 62.8542 49.3111 62.527 52.3311 61.2761C55.3511 60.0253 57.9323 57.9069 59.7483 55.1891C61.5644 52.4712 62.5337 49.2758 62.5337 46.0071H65.2137C65.2076 51.0989 63.1822 55.9805 59.5817 59.581C55.9812 63.1815 51.0996 65.207 46.0077 65.2131Z" fill="#E68A00"/>
</svg>
