<svg width="48" height="48" viewBox="0 0 48 48" fill="none" xmlns="http://www.w3.org/2000/svg">
<path d="M38.4 38.4C39.673 38.4 40.8939 38.9057 41.7941 39.8059C42.6943 40.7061 43.2 41.927 43.2 43.2C43.2 44.473 42.6943 45.6939 41.7941 46.5941C40.8939 47.4943 39.673 48 38.4 48C35.736 48 33.6 45.84 33.6 43.2C33.6 40.536 35.736 38.4 38.4 38.4ZM0 0H7.848L10.104 4.8H45.6C46.2365 4.8 46.847 5.05286 47.2971 5.50294C47.7471 5.95303 48 6.56348 48 7.2C48 7.608 47.88 8.016 47.712 8.4L39.12 23.928C38.304 25.392 36.72 26.4 34.92 26.4H17.04L14.88 30.312L14.808 30.6C14.808 30.7591 14.8712 30.9117 14.9837 31.0243C15.0963 31.1368 15.2489 31.2 15.408 31.2H43.2V36H14.4C11.736 36 9.6 33.84 9.6 31.2C9.6 30.36 9.816 29.568 10.176 28.896L13.44 23.016L4.8 4.8H0V0ZM14.4 38.4C15.673 38.4 16.8939 38.9057 17.7941 39.8059C18.6943 40.7061 19.2 41.927 19.2 43.2C19.2 44.473 18.6943 45.6939 17.7941 46.5941C16.8939 47.4943 15.673 48 14.4 48C11.736 48 9.6 45.84 9.6 43.2C9.6 40.536 11.736 38.4 14.4 38.4ZM36 21.6L42.672 9.6H12.336L18 21.6H36Z" fill="white"/>
</svg>
