<svg width="211" height="103" viewBox="0 0 211 103" fill="none" xmlns="http://www.w3.org/2000/svg">
<g clip-path="url(#clip0_216_2325)">
<path d="M147.534 42.3109C147.534 42.3109 99.4318 32.0643 63.6491 46.7071C27.8664 61.3499 4.40322 100.882 4.40322 100.882" stroke="black" stroke-width="2" stroke-linecap="round" stroke-dasharray="7 7"/>
<path d="M14.7154 95.1411L6.90078 98.2135L4.66058 90.5208" stroke="black" stroke-width="2" stroke-linecap="round" stroke-linejoin="round"/>
<path d="M194.501 5.61694H181.001C179.987 6.27107 179.071 7.06564 178.279 7.97694H197.22C196.43 7.06586 195.515 6.2713 194.501 5.61694Z" fill="#E68A00"/>
<path d="M199.433 11.6649H176.066C175.774 12.4279 175.556 13.2177 175.418 14.0229H200.081C199.942 13.2177 199.725 12.4279 199.433 11.6649Z" fill="#E68A00"/>
<path d="M200.261 17.7169H175.236V20.0749H200.261V17.7169Z" fill="#E68A00"/>
<path d="M200.261 23.7649H175.236V26.1229H200.261V23.7649Z" fill="#E68A00"/>
<path d="M207.812 33.142V45.887C207.812 48.5217 207.293 51.1306 206.285 53.5647C205.277 55.9989 203.799 58.2106 201.936 60.0736C200.073 61.9367 197.861 63.4145 195.427 64.4228C192.993 65.431 190.384 65.95 187.749 65.95C185.114 65.95 182.506 65.431 180.071 64.4228C177.637 63.4145 175.425 61.9367 173.562 60.0736C171.699 58.2106 170.222 55.9989 169.213 53.5647C168.205 51.1306 167.686 48.5217 167.686 45.887V33.142H165.328V45.887C165.335 51.6273 167.54 57.1469 171.491 61.3113C175.442 65.4756 180.838 67.9683 186.57 68.277V78.696H175.004V81.054H200.494V78.696H188.928V68.277C194.66 67.9683 200.056 65.4756 204.007 61.3113C207.958 57.1469 210.163 51.6273 210.17 45.887V33.142H207.812Z" fill="black" stroke="black" stroke-width="0.2"/>
<path d="M187.748 61.935C192.003 61.9302 196.083 60.2378 199.091 57.2291C202.1 54.2204 203.793 50.141 203.797 45.886V16.149C203.797 11.8923 202.106 7.80989 199.096 4.79994C196.086 1.78998 192.004 0.098999 187.747 0.098999C183.491 0.098999 179.408 1.78998 176.398 4.79994C173.388 7.80989 171.697 11.8923 171.697 16.149V45.886C171.702 50.1413 173.395 54.221 176.404 57.2298C179.413 60.2386 183.493 61.9308 187.748 61.935ZM174.057 16.149C174.056 14.6226 174.311 13.1069 174.812 11.665C175.748 8.97971 177.496 6.65216 179.814 5.00512C182.132 3.35809 184.906 2.47322 187.749 2.47322C190.593 2.47322 193.366 3.35809 195.684 5.00512C198.002 6.65216 199.751 8.97971 200.686 11.665C201.187 13.1069 201.442 14.6226 201.441 16.149V45.886C201.441 49.5172 199.999 52.9997 197.431 55.5674C194.863 58.135 191.381 59.5775 187.75 59.5775C184.119 59.5775 180.636 58.135 178.068 55.5674C175.501 52.9997 174.058 49.5172 174.058 45.886L174.057 16.149Z" fill="black" stroke="black" stroke-width="0.2"/>
</g>
<defs>
<clipPath id="clip0_216_2325">
<rect width="210.271" height="102.339" fill="white"/>
</clipPath>
</defs>
</svg>
