<svg width="741" height="60" viewBox="0 0 741 60" fill="none" xmlns="http://www.w3.org/2000/svg">
<g filter="url(#filter0_b_216_2263)">
<path d="M27.0643 38.526C29.3415 38.5255 31.5531 37.7632 33.3469 36.3605L38.9867 42L40.8008 40.186L35.161 34.5465C36.5645 32.7526 37.3273 30.5407 37.3279 28.263C37.3279 22.6042 32.7234 18 27.0643 18C21.4053 18 16.8008 22.6042 16.8008 28.263C16.8008 33.9217 21.4053 38.526 27.0643 38.526ZM27.0643 20.5657C31.3096 20.5657 34.762 24.018 34.762 28.263C34.762 32.508 31.3096 35.9602 27.0643 35.9602C22.8191 35.9602 19.3667 32.508 19.3667 28.263C19.3667 24.018 22.8191 20.5657 27.0643 20.5657Z" fill="#696969"/>
<rect x="0.5" y="0.5" width="739.4" height="59" rx="7.5" fill="white" fill-opacity="0.15" stroke="#696969"/>
<g clip-path="url(#clip0_216_2263)">
<path d="M685.2 23.6575C685.282 23.5958 685.257 23.497 685.281 23.4155C685.636 22.1893 686.434 21.4469 687.685 21.2283C687.902 21.1904 687.959 21.121 687.948 20.9209C687.935 20.7016 687.94 20.4808 687.948 20.261C687.966 19.7225 688.313 19.3349 688.851 19.3221C689.769 19.3003 690.688 19.2991 691.606 19.323C692.141 19.337 692.478 19.7247 692.5 20.2714C692.509 20.48 692.517 20.6906 692.5 20.8982C692.477 21.1721 692.613 21.1863 692.817 21.1286C693.374 20.9716 693.791 20.6402 694.053 20.1219C694.315 19.603 694.571 19.0807 694.824 18.5572C695.394 17.3806 696.33 16.8007 697.627 16.8005C700.537 16.8005 703.446 16.7988 706.355 16.8013C707.609 16.8023 708.531 17.359 709.102 18.4878C709.36 18.997 709.622 19.5043 709.873 20.0167C710.26 20.8075 710.892 21.193 711.764 21.1928C713.076 21.1927 714.389 21.1902 715.701 21.1936C717.589 21.1983 718.799 22.4159 718.799 24.3086C718.8 29.5563 718.8 34.8039 718.799 40.0516C718.799 41.9603 717.579 43.1881 715.683 43.1881C707.59 43.1885 699.496 43.1883 691.403 43.1876C691.272 43.1876 691.135 43.198 691.012 43.1656C690.761 43.0999 690.621 42.9266 690.64 42.6568C690.659 42.3889 690.815 42.237 691.076 42.2062C691.206 42.1907 691.338 42.1985 691.47 42.1985C699.53 42.1984 707.591 42.1984 715.651 42.1982C717.053 42.1982 717.815 41.4286 717.815 40.0124C717.815 34.7427 717.816 29.4731 717.814 24.2034C717.814 23.2241 717.261 22.4799 716.374 22.2424C716.149 22.182 715.919 22.1842 715.69 22.1838C714.4 22.1822 713.109 22.179 711.819 22.1842C710.509 22.1893 709.559 21.6142 708.976 20.4313C708.728 19.9294 708.476 19.43 708.224 18.9304C707.84 18.171 707.223 17.7913 706.377 17.7912C703.446 17.7901 700.515 17.7899 697.584 17.7913C696.739 17.7917 696.119 18.1665 695.74 18.9306C695.491 19.4318 695.243 19.9333 694.998 20.4366C694.426 21.6131 693.483 22.1838 692.188 22.1835C690.886 22.1829 689.585 22.1808 688.283 22.1842C686.957 22.1875 686.184 22.9663 686.184 24.2946C686.183 29.5533 686.183 34.8119 686.184 40.0706C686.184 41.4134 686.967 42.1975 688.306 42.1985C688.558 42.1987 688.81 42.1915 689.061 42.2037C689.339 42.2174 689.506 42.3726 689.533 42.6546C689.559 42.9232 689.379 43.1666 689.1 43.1762C688.468 43.1975 687.826 43.2569 687.213 43.0428C686.186 42.6837 685.537 41.9644 685.269 40.9021C685.251 40.8292 685.265 40.7458 685.199 40.6885C685.2 35.0114 685.2 29.3344 685.2 23.6575ZM690.22 20.303C689.991 20.303 689.761 20.303 689.532 20.303C688.917 20.303 688.929 20.3032 688.923 20.9065C688.922 21.1446 689.004 21.203 689.225 21.1976C689.782 21.1843 690.34 21.1932 690.897 21.1932C691.555 21.1932 691.547 21.1936 691.524 20.5384C691.517 20.3456 691.447 20.295 691.269 20.3002C690.92 20.3103 690.57 20.3032 690.22 20.303Z" fill="#696969"/>
<path d="M702.002 23.4237C706.62 23.428 710.365 27.2079 710.35 31.85C710.336 36.4903 706.604 40.2348 701.996 40.233C697.376 40.2312 693.634 36.4561 693.648 31.8113C693.663 27.1752 697.403 23.4195 702.002 23.4237ZM701.988 24.4138C697.901 24.4312 694.609 27.7678 694.633 31.8675C694.657 35.9647 697.958 39.2576 702.027 39.2429C706.094 39.2282 709.383 35.8974 709.366 31.811C709.348 27.7147 706.039 24.3966 701.988 24.4138Z" fill="#696969"/>
<path d="M689.112 26.6481C688.226 26.6491 687.504 25.9289 687.502 25.042C687.5 24.1573 688.224 23.4282 689.107 23.4255C689.99 23.4229 690.712 24.1469 690.713 25.0364C690.714 25.9292 690.001 26.6468 689.112 26.6481ZM689.727 25.0442C689.73 24.6998 689.449 24.4172 689.107 24.419C688.767 24.4206 688.481 24.7122 688.488 25.0506C688.495 25.3803 688.765 25.6489 689.096 25.655C689.444 25.6615 689.724 25.3903 689.727 25.0442Z" fill="#E68A00"/>
<path d="M701.967 20.3028C701.213 20.3028 700.459 20.3048 699.704 20.3021C699.295 20.3007 699.065 20.1157 699.07 19.8031C699.076 19.5036 699.307 19.3145 699.688 19.314C701.229 19.3115 702.771 19.3115 704.312 19.314C704.693 19.3145 704.924 19.504 704.929 19.8036C704.935 20.1086 704.711 20.3 704.328 20.3018C703.541 20.3053 702.754 20.3027 701.967 20.3028Z" fill="#696969"/>
<path d="M715.144 23.9208C715.275 23.9208 715.407 23.9085 715.536 23.9233C715.811 23.9547 715.975 24.1131 715.984 24.3964C715.993 24.6827 715.831 24.8639 715.563 24.8937C715.272 24.926 714.973 24.924 714.681 24.896C714.411 24.8701 714.253 24.6895 714.246 24.4072C714.24 24.139 714.432 23.943 714.719 23.9215C714.86 23.9109 715.002 23.9197 715.144 23.9197C715.144 23.9199 715.144 23.9203 715.144 23.9208Z" fill="#E68A00"/>
<path d="M708.046 31.8463C708.041 35.0257 705.576 37.6922 702.445 37.907C699.264 38.1254 696.475 35.8701 696.014 32.7063C695.645 30.1819 696.882 27.7 699.117 26.4789C701.33 25.2696 704.081 25.5737 705.974 27.237C705.998 27.2586 706.022 27.2812 706.047 27.3035C706.368 27.6003 706.421 27.8868 706.198 28.1242C705.984 28.3528 705.715 28.3268 705.396 28.0466C702.636 25.6169 698.39 26.7151 697.209 30.1641C696.244 32.9832 697.884 36.0432 700.752 36.777C703.635 37.5144 706.528 35.5953 707.001 32.6293C707.15 31.696 707.049 30.7884 706.696 29.9124C706.609 29.6972 706.559 29.4944 706.718 29.2929C706.963 28.9819 707.407 29.0683 707.578 29.4712C707.899 30.2289 708.059 31.0208 708.046 31.8463Z" fill="#E68A00"/>
</g>
<path d="M627 10.8V48.6" stroke="#696969"/>
<path d="M64.1424 35.4V34.07H59.1024V30.808H63.7644V29.478H59.1024V26.384H64.1424V25.054H57.7024V35.4H64.1424ZM67.3116 35.4V31.242C67.3116 30.57 67.5076 30.024 67.8856 29.59C68.2776 29.156 68.7816 28.946 69.3836 28.946C70.5176 28.946 71.3016 29.772 71.3016 31.228V35.4H72.6316V30.85C72.6316 29.828 72.3516 29.058 71.7776 28.512C71.2036 27.966 70.5036 27.7 69.6636 27.7C68.5576 27.7 67.7596 28.12 67.2836 28.96V27.896H65.9676V35.4H67.3116ZM78.9359 33.916C78.4739 34.21 78.0259 34.35 77.5919 34.35C76.7799 34.35 76.3739 33.86 76.3739 32.866V29.044H79.0339V27.896H76.3739V25.236H75.0579V27.896H73.7139V29.044H75.0439V32.768C75.0439 34.56 75.8559 35.582 77.4379 35.582C78.2359 35.582 78.8939 35.372 79.4399 34.952L78.9359 33.916ZM87.3771 31.508C87.3771 30.346 87.0411 29.422 86.3551 28.736C85.6831 28.05 84.8151 27.714 83.7511 27.714C82.6311 27.714 81.7211 28.078 81.0071 28.82C80.3071 29.562 79.9571 30.486 79.9571 31.62C79.9571 33.566 81.1331 35.568 83.9611 35.568C85.2071 35.568 86.4391 35.092 87.1811 34.518L86.6071 33.496C85.9211 34 84.8851 34.336 83.9891 34.336C82.4211 34.336 81.5811 33.468 81.3571 32.194H87.3351C87.3631 31.83 87.3771 31.606 87.3771 31.508ZM81.3571 31.032C81.5811 29.786 82.5191 28.904 83.7511 28.904C84.9831 28.904 85.9211 29.73 85.9911 31.032H81.3571ZM90.3077 35.4V31.424C90.3077 29.814 91.1757 28.988 92.3657 28.988C92.6177 28.988 92.8837 29.03 93.1497 29.114L93.2757 27.812C92.9817 27.742 92.6877 27.7 92.3937 27.7C91.3997 27.7 90.6717 28.134 90.2377 29.002V27.896H88.9637V35.4H90.3077ZM103.39 28.988C102.69 28.134 101.808 27.714 100.744 27.714C99.666 27.714 98.77 28.078 98.056 28.82C97.342 29.548 96.992 30.472 96.992 31.592C96.992 32.726 97.342 33.664 98.056 34.434C98.77 35.204 99.666 35.582 100.744 35.582C101.836 35.582 102.718 35.162 103.39 34.336V35.4H104.678V27.896H103.39V28.988ZM103.474 31.634C103.474 32.404 103.236 33.048 102.76 33.566C102.284 34.084 101.668 34.35 100.898 34.35C100.128 34.35 99.512 34.084 99.05 33.566C98.588 33.048 98.35 32.404 98.35 31.648C98.35 30.892 98.588 30.248 99.05 29.73C99.512 29.212 100.128 28.946 100.898 28.946C101.668 28.946 102.284 29.212 102.76 29.73C103.236 30.248 103.474 30.892 103.474 31.634ZM108.109 35.4V31.242C108.109 30.57 108.305 30.024 108.683 29.59C109.075 29.156 109.579 28.946 110.181 28.946C111.315 28.946 112.099 29.772 112.099 31.228V35.4H113.429V30.85C113.429 29.828 113.149 29.058 112.575 28.512C112.001 27.966 111.301 27.7 110.461 27.7C109.355 27.7 108.557 28.12 108.081 28.96V27.896H106.765V35.4H108.109ZM118.197 33.524L115.873 27.896H114.319L117.581 35.372L117.301 36.03C116.923 36.912 116.433 37.346 115.817 37.346C115.565 37.346 115.257 37.276 114.907 37.122L114.739 38.298C115.061 38.494 115.453 38.592 115.943 38.592C117.119 38.592 117.917 37.92 118.547 36.24L121.697 27.896H120.213L118.197 33.524ZM130.402 27.714C129.324 27.714 128.428 28.148 127.728 29.03V27.896H126.384V38.494H127.728V34.308C128.414 35.162 129.296 35.582 130.388 35.582C131.466 35.582 132.362 35.204 133.076 34.448C133.79 33.678 134.154 32.754 134.154 31.648C134.154 30.556 133.79 29.632 133.076 28.862C132.362 28.092 131.466 27.714 130.402 27.714ZM132.81 31.634C132.81 32.404 132.572 33.048 132.096 33.566C131.62 34.084 131.004 34.35 130.234 34.35C129.464 34.35 128.848 34.084 128.372 33.566C127.91 33.048 127.672 32.404 127.672 31.634C127.672 30.892 127.91 30.248 128.372 29.73C128.848 29.212 129.464 28.946 130.234 28.946C131.004 28.946 131.62 29.212 132.096 29.73C132.572 30.248 132.81 30.878 132.81 31.634ZM141.699 28.988C140.999 28.134 140.117 27.714 139.053 27.714C137.975 27.714 137.079 28.078 136.365 28.82C135.651 29.548 135.301 30.472 135.301 31.592C135.301 32.726 135.651 33.664 136.365 34.434C137.079 35.204 137.975 35.582 139.053 35.582C140.145 35.582 141.027 35.162 141.699 34.336V35.4H142.987V27.896H141.699V28.988ZM141.783 31.634C141.783 32.404 141.545 33.048 141.069 33.566C140.593 34.084 139.977 34.35 139.207 34.35C138.437 34.35 137.821 34.084 137.359 33.566C136.897 33.048 136.659 32.404 136.659 31.648C136.659 30.892 136.897 30.248 137.359 29.73C137.821 29.212 138.437 28.946 139.207 28.946C139.977 28.946 140.593 29.212 141.069 29.73C141.545 30.248 141.783 30.892 141.783 31.634ZM146.417 35.4V31.424C146.417 29.814 147.285 28.988 148.475 28.988C148.727 28.988 148.993 29.03 149.259 29.114L149.385 27.812C149.091 27.742 148.797 27.7 148.503 27.7C147.509 27.7 146.781 28.134 146.347 29.002V27.896H145.073V35.4H146.417ZM155.129 33.916C154.667 34.21 154.219 34.35 153.785 34.35C152.973 34.35 152.567 33.86 152.567 32.866V29.044H155.227V27.896H152.567V25.236H151.251V27.896H149.907V29.044H151.237V32.768C151.237 34.56 152.049 35.582 153.631 35.582C154.429 35.582 155.087 35.372 155.633 34.952L155.129 33.916ZM157.338 33.888C156.848 33.888 156.428 34.294 156.428 34.756C156.428 35.19 156.778 35.554 157.212 35.554H157.268C157.24 35.61 157.212 35.666 157.17 35.708C157.044 35.904 156.694 36.212 156.134 36.632L156.568 37.234C157.73 36.492 158.304 35.722 158.304 34.924C158.304 34.322 157.898 33.888 157.338 33.888ZM167.575 27.714C166.497 27.714 165.601 28.148 164.901 29.03V27.896H163.557V38.494H164.901V34.308C165.587 35.162 166.469 35.582 167.561 35.582C168.639 35.582 169.535 35.204 170.249 34.448C170.963 33.678 171.327 32.754 171.327 31.648C171.327 30.556 170.963 29.632 170.249 28.862C169.535 28.092 168.639 27.714 167.575 27.714ZM169.983 31.634C169.983 32.404 169.745 33.048 169.269 33.566C168.793 34.084 168.177 34.35 167.407 34.35C166.637 34.35 166.021 34.084 165.545 33.566C165.083 33.048 164.845 32.404 164.845 31.634C164.845 30.892 165.083 30.248 165.545 29.73C166.021 29.212 166.637 28.946 167.407 28.946C168.177 28.946 168.793 29.212 169.269 29.73C169.745 30.248 169.983 30.878 169.983 31.634ZM174.28 35.4V31.424C174.28 29.814 175.148 28.988 176.338 28.988C176.59 28.988 176.856 29.03 177.122 29.114L177.248 27.812C176.954 27.742 176.66 27.7 176.366 27.7C175.372 27.7 174.644 28.134 174.21 29.002V27.896H172.936V35.4H174.28ZM181.508 35.582C182.642 35.582 183.58 35.204 184.322 34.448C185.064 33.678 185.442 32.74 185.442 31.634C185.442 30.542 185.064 29.618 184.322 28.848C183.58 28.078 182.642 27.7 181.508 27.7C180.36 27.7 179.408 28.078 178.666 28.848C177.924 29.604 177.56 30.528 177.56 31.634C177.56 32.74 177.924 33.678 178.666 34.448C179.408 35.204 180.36 35.582 181.508 35.582ZM184.098 31.634C184.098 32.376 183.846 33.02 183.342 33.552C182.838 34.084 182.222 34.35 181.508 34.35C180.794 34.35 180.178 34.084 179.674 33.552C179.17 33.02 178.918 32.376 178.918 31.634C178.918 30.892 179.17 30.262 179.674 29.744C180.178 29.212 180.794 28.946 181.508 28.946C182.222 28.946 182.838 29.212 183.342 29.744C183.846 30.262 184.098 30.892 184.098 31.634ZM191.036 27.714C189.958 27.714 189.076 28.148 188.39 29.03V24.802H187.046V35.4H188.39V34.308C189.062 35.162 189.944 35.582 191.022 35.582C192.1 35.582 192.982 35.204 193.696 34.448C194.41 33.678 194.774 32.754 194.774 31.648C194.774 30.542 194.41 29.618 193.696 28.862C192.982 28.092 192.1 27.714 191.036 27.714ZM190.868 34.322C190.098 34.322 189.482 34.07 189.02 33.552C188.558 33.034 188.334 32.404 188.334 31.634C188.334 30.892 188.558 30.262 189.02 29.744C189.482 29.226 190.098 28.974 190.868 28.974C191.624 28.974 192.24 29.226 192.702 29.744C193.178 30.262 193.416 30.892 193.416 31.634C193.416 32.39 193.178 33.034 192.702 33.552C192.24 34.07 191.624 34.322 190.868 34.322ZM197.741 24.802H196.397V35.4H197.741V24.802ZM206.801 31.508C206.801 30.346 206.465 29.422 205.779 28.736C205.107 28.05 204.239 27.714 203.175 27.714C202.055 27.714 201.145 28.078 200.431 28.82C199.731 29.562 199.381 30.486 199.381 31.62C199.381 33.566 200.557 35.568 203.385 35.568C204.631 35.568 205.863 35.092 206.605 34.518L206.031 33.496C205.345 34 204.309 34.336 203.413 34.336C201.845 34.336 201.005 33.468 200.781 32.194H206.759C206.787 31.83 206.801 31.606 206.801 31.508ZM200.781 31.032C201.005 29.786 201.943 28.904 203.175 28.904C204.407 28.904 205.345 29.73 205.415 31.032H200.781ZM217.054 27.7C215.878 27.7 214.828 28.246 214.324 29.1C213.918 28.218 212.98 27.7 211.972 27.7C210.978 27.686 210.152 28.176 209.704 29.002V27.896H208.388V35.4H209.732V31.2C209.732 29.842 210.572 28.946 211.748 28.946C212.868 28.946 213.568 29.772 213.568 31.172V35.4H214.898V31.172C214.898 29.842 215.724 28.946 216.9 28.946C218.02 28.946 218.706 29.744 218.706 31.144V35.4H220.05V30.934C220.05 29.94 219.784 29.156 219.238 28.582C218.692 27.994 217.964 27.7 217.054 27.7ZM231.399 28.988C230.713 28.134 229.845 27.714 228.767 27.714C227.689 27.714 226.793 28.092 226.079 28.862C225.365 29.618 225.015 30.542 225.015 31.634C225.015 32.74 225.365 33.678 226.079 34.448C226.793 35.204 227.703 35.582 228.795 35.582C229.873 35.582 230.741 35.176 231.399 34.35V35.4H232.743V24.802H231.399V28.988ZM231.497 31.634C231.497 32.404 231.259 33.048 230.783 33.566C230.321 34.084 229.705 34.35 228.935 34.35C228.165 34.35 227.549 34.084 227.073 33.566C226.611 33.048 226.373 32.404 226.373 31.634C226.373 30.892 226.611 30.248 227.073 29.73C227.549 29.212 228.165 28.946 228.935 28.946C229.705 28.946 230.321 29.212 230.783 29.73C231.259 30.248 231.497 30.892 231.497 31.634ZM241.787 31.508C241.787 30.346 241.451 29.422 240.765 28.736C240.093 28.05 239.225 27.714 238.161 27.714C237.041 27.714 236.131 28.078 235.417 28.82C234.717 29.562 234.367 30.486 234.367 31.62C234.367 33.566 235.543 35.568 238.371 35.568C239.617 35.568 240.849 35.092 241.591 34.518L241.017 33.496C240.331 34 239.295 34.336 238.399 34.336C236.831 34.336 235.991 33.468 235.767 32.194H241.745C241.773 31.83 241.787 31.606 241.787 31.508ZM235.767 31.032C235.991 29.786 236.929 28.904 238.161 28.904C239.393 28.904 240.331 29.73 240.401 31.032H235.767ZM245.474 35.568C246.272 35.568 246.916 35.344 247.42 34.91C247.924 34.476 248.176 33.93 248.176 33.286C248.176 32.46 247.756 31.83 246.902 31.396C246.678 31.27 246.342 31.116 245.894 30.934L245.068 30.57C244.648 30.374 244.438 30.08 244.438 29.688C244.438 29.184 244.844 28.778 245.516 28.778C246.188 28.778 246.72 29.072 247.126 29.646L247.98 28.834C247.476 28.05 246.552 27.644 245.6 27.644C244.858 27.644 244.27 27.84 243.822 28.246C243.374 28.638 243.15 29.142 243.15 29.744C243.15 30.542 243.528 31.144 244.298 31.564C244.452 31.648 244.76 31.788 245.222 31.984C245.684 32.18 246.006 32.32 246.16 32.404C246.622 32.642 246.846 32.964 246.846 33.356C246.846 33.93 246.314 34.392 245.516 34.392C244.83 34.392 244.088 34 243.654 33.202L242.688 33.944C243.262 35.022 244.354 35.568 245.474 35.568ZM253.231 35.568C253.973 35.568 254.645 35.386 255.275 35.036C255.905 34.686 256.367 34.21 256.675 33.636L255.555 32.992C255.121 33.776 254.169 34.336 253.231 34.336C252.489 34.336 251.859 34.084 251.369 33.566C250.879 33.048 250.627 32.418 250.627 31.648C250.627 30.878 250.879 30.234 251.383 29.716C251.901 29.198 252.531 28.946 253.301 28.946C254.253 28.946 255.093 29.478 255.597 30.318L256.703 29.674C256.129 28.484 254.771 27.714 253.301 27.714C252.111 27.714 251.145 28.078 250.389 28.82C249.647 29.562 249.269 30.5 249.269 31.648C249.269 32.782 249.633 33.72 250.375 34.462C251.117 35.204 252.069 35.568 253.231 35.568ZM259.456 35.4V31.424C259.456 29.814 260.324 28.988 261.514 28.988C261.766 28.988 262.032 29.03 262.298 29.114L262.424 27.812C262.13 27.742 261.836 27.7 261.542 27.7C260.548 27.7 259.82 28.134 259.386 29.002V27.896H258.112V35.4H259.456ZM264.254 26.832C264.772 26.832 265.206 26.426 265.206 25.866C265.206 25.348 264.772 24.928 264.254 24.928C263.694 24.928 263.274 25.32 263.274 25.866C263.274 26.426 263.694 26.832 264.254 26.832ZM264.898 27.896H263.554V35.4H264.898V27.896ZM271.003 27.714C269.925 27.714 269.029 28.148 268.329 29.03V27.896H266.985V38.494H268.329V34.308C269.015 35.162 269.897 35.582 270.989 35.582C272.067 35.582 272.963 35.204 273.677 34.448C274.391 33.678 274.755 32.754 274.755 31.648C274.755 30.556 274.391 29.632 273.677 28.862C272.963 28.092 272.067 27.714 271.003 27.714ZM273.411 31.634C273.411 32.404 273.173 33.048 272.697 33.566C272.221 34.084 271.605 34.35 270.835 34.35C270.065 34.35 269.449 34.084 268.973 33.566C268.511 33.048 268.273 32.404 268.273 31.634C268.273 30.892 268.511 30.248 268.973 29.73C269.449 29.212 270.065 28.946 270.835 28.946C271.605 28.946 272.221 29.212 272.697 29.73C273.173 30.248 273.411 30.878 273.411 31.634ZM280.637 33.916C280.175 34.21 279.727 34.35 279.293 34.35C278.481 34.35 278.075 33.86 278.075 32.866V29.044H280.735V27.896H278.075V25.236H276.759V27.896H275.415V29.044H276.745V32.768C276.745 34.56 277.557 35.582 279.139 35.582C279.937 35.582 280.595 35.372 281.141 34.952L280.637 33.916ZM282.916 26.832C283.434 26.832 283.868 26.426 283.868 25.866C283.868 25.348 283.434 24.928 282.916 24.928C282.356 24.928 281.936 25.32 281.936 25.866C281.936 26.426 282.356 26.832 282.916 26.832ZM283.56 27.896H282.216V35.4H283.56V27.896ZM289.133 35.582C290.267 35.582 291.205 35.204 291.947 34.448C292.689 33.678 293.067 32.74 293.067 31.634C293.067 30.542 292.689 29.618 291.947 28.848C291.205 28.078 290.267 27.7 289.133 27.7C287.985 27.7 287.033 28.078 286.291 28.848C285.549 29.604 285.185 30.528 285.185 31.634C285.185 32.74 285.549 33.678 286.291 34.448C287.033 35.204 287.985 35.582 289.133 35.582ZM291.723 31.634C291.723 32.376 291.471 33.02 290.967 33.552C290.463 34.084 289.847 34.35 289.133 34.35C288.419 34.35 287.803 34.084 287.299 33.552C286.795 33.02 286.543 32.376 286.543 31.634C286.543 30.892 286.795 30.262 287.299 29.744C287.803 29.212 288.419 28.946 289.133 28.946C289.847 28.946 290.463 29.212 290.967 29.744C291.471 30.262 291.723 30.892 291.723 31.634ZM296.015 35.4V31.242C296.015 30.57 296.211 30.024 296.589 29.59C296.981 29.156 297.485 28.946 298.087 28.946C299.221 28.946 300.005 29.772 300.005 31.228V35.4H301.335V30.85C301.335 29.828 301.055 29.058 300.481 28.512C299.907 27.966 299.207 27.7 298.367 27.7C297.261 27.7 296.463 28.12 295.987 28.96V27.896H294.671V35.4H296.015ZM303.955 33.888C303.465 33.888 303.045 34.294 303.045 34.756C303.045 35.19 303.395 35.554 303.829 35.554H303.885C303.857 35.61 303.829 35.666 303.787 35.708C303.661 35.904 303.311 36.212 302.751 36.632L303.185 37.234C304.347 36.492 304.921 35.722 304.921 34.924C304.921 34.322 304.515 33.888 303.955 33.888ZM313.661 35.582C314.795 35.582 315.733 35.204 316.475 34.448C317.217 33.678 317.595 32.74 317.595 31.634C317.595 30.542 317.217 29.618 316.475 28.848C315.733 28.078 314.795 27.7 313.661 27.7C312.513 27.7 311.561 28.078 310.819 28.848C310.077 29.604 309.713 30.528 309.713 31.634C309.713 32.74 310.077 33.678 310.819 34.448C311.561 35.204 312.513 35.582 313.661 35.582ZM316.251 31.634C316.251 32.376 315.999 33.02 315.495 33.552C314.991 34.084 314.375 34.35 313.661 34.35C312.947 34.35 312.331 34.084 311.827 33.552C311.323 33.02 311.071 32.376 311.071 31.634C311.071 30.892 311.323 30.262 311.827 29.744C312.331 29.212 312.947 28.946 313.661 28.946C314.375 28.946 314.991 29.212 315.495 29.744C315.999 30.262 316.251 30.892 316.251 31.634ZM320.542 35.4V31.424C320.542 29.814 321.41 28.988 322.6 28.988C322.852 28.988 323.118 29.03 323.384 29.114L323.51 27.812C323.216 27.742 322.922 27.7 322.628 27.7C321.634 27.7 320.906 28.134 320.472 29.002V27.896H319.198V35.4H320.542ZM336.354 27.7C335.178 27.7 334.128 28.246 333.624 29.1C333.218 28.218 332.28 27.7 331.272 27.7C330.278 27.686 329.452 28.176 329.004 29.002V27.896H327.688V35.4H329.032V31.2C329.032 29.842 329.872 28.946 331.048 28.946C332.168 28.946 332.868 29.772 332.868 31.172V35.4H334.198V31.172C334.198 29.842 335.024 28.946 336.2 28.946C337.32 28.946 338.006 29.744 338.006 31.144V35.4H339.35V30.934C339.35 29.94 339.084 29.156 338.538 28.582C337.992 27.994 337.264 27.7 336.354 27.7ZM347.255 28.988C346.555 28.134 345.673 27.714 344.609 27.714C343.531 27.714 342.635 28.078 341.921 28.82C341.207 29.548 340.857 30.472 340.857 31.592C340.857 32.726 341.207 33.664 341.921 34.434C342.635 35.204 343.531 35.582 344.609 35.582C345.701 35.582 346.583 35.162 347.255 34.336V35.4H348.543V27.896H347.255V28.988ZM347.339 31.634C347.339 32.404 347.101 33.048 346.625 33.566C346.149 34.084 345.533 34.35 344.763 34.35C343.993 34.35 343.377 34.084 342.915 33.566C342.453 33.048 342.215 32.404 342.215 31.648C342.215 30.892 342.453 30.248 342.915 29.73C343.377 29.212 343.993 28.946 344.763 28.946C345.533 28.946 346.149 29.212 346.625 29.73C347.101 30.248 347.339 30.892 347.339 31.634ZM351.33 26.832C351.848 26.832 352.282 26.426 352.282 25.866C352.282 25.348 351.848 24.928 351.33 24.928C350.77 24.928 350.35 25.32 350.35 25.866C350.35 26.426 350.77 26.832 351.33 26.832ZM351.974 27.896H350.63V35.4H351.974V27.896ZM355.405 35.4V31.242C355.405 30.57 355.601 30.024 355.979 29.59C356.371 29.156 356.875 28.946 357.477 28.946C358.611 28.946 359.395 29.772 359.395 31.228V35.4H360.725V30.85C360.725 29.828 360.445 29.058 359.871 28.512C359.297 27.966 358.597 27.7 357.757 27.7C356.651 27.7 355.853 28.12 355.377 28.96V27.896H354.061V35.4H355.405ZM367.03 33.916C366.568 34.21 366.12 34.35 365.686 34.35C364.874 34.35 364.468 33.86 364.468 32.866V29.044H367.128V27.896H364.468V25.236H363.152V27.896H361.808V29.044H363.138V32.768C363.138 34.56 363.95 35.582 365.532 35.582C366.33 35.582 366.988 35.372 367.534 34.952L367.03 33.916ZM375.471 31.508C375.471 30.346 375.135 29.422 374.449 28.736C373.777 28.05 372.909 27.714 371.845 27.714C370.725 27.714 369.815 28.078 369.101 28.82C368.401 29.562 368.051 30.486 368.051 31.62C368.051 33.566 369.227 35.568 372.055 35.568C373.301 35.568 374.533 35.092 375.275 34.518L374.701 33.496C374.015 34 372.979 34.336 372.083 34.336C370.515 34.336 369.675 33.468 369.451 32.194H375.429C375.457 31.83 375.471 31.606 375.471 31.508ZM369.451 31.032C369.675 29.786 370.613 28.904 371.845 28.904C373.077 28.904 374.015 29.73 374.085 31.032H369.451ZM378.401 35.4V31.242C378.401 30.57 378.597 30.024 378.975 29.59C379.367 29.156 379.871 28.946 380.473 28.946C381.607 28.946 382.391 29.772 382.391 31.228V35.4H383.721V30.85C383.721 29.828 383.441 29.058 382.867 28.512C382.293 27.966 381.593 27.7 380.753 27.7C379.647 27.7 378.849 28.12 378.373 28.96V27.896H377.057V35.4H378.401ZM391.648 28.988C390.948 28.134 390.066 27.714 389.002 27.714C387.924 27.714 387.028 28.078 386.314 28.82C385.6 29.548 385.25 30.472 385.25 31.592C385.25 32.726 385.6 33.664 386.314 34.434C387.028 35.204 387.924 35.582 389.002 35.582C390.094 35.582 390.976 35.162 391.648 34.336V35.4H392.936V27.896H391.648V28.988ZM391.732 31.634C391.732 32.404 391.494 33.048 391.018 33.566C390.542 34.084 389.926 34.35 389.156 34.35C388.386 34.35 387.77 34.084 387.308 33.566C386.846 33.048 386.608 32.404 386.608 31.648C386.608 30.892 386.846 30.248 387.308 29.73C387.77 29.212 388.386 28.946 389.156 28.946C389.926 28.946 390.542 29.212 391.018 29.73C391.494 30.248 391.732 30.892 391.732 31.634ZM396.366 35.4V31.242C396.366 30.57 396.562 30.024 396.94 29.59C397.332 29.156 397.836 28.946 398.438 28.946C399.572 28.946 400.356 29.772 400.356 31.228V35.4H401.686V30.85C401.686 29.828 401.406 29.058 400.832 28.512C400.258 27.966 399.558 27.7 398.718 27.7C397.612 27.7 396.814 28.12 396.338 28.96V27.896H395.022V35.4H396.366ZM407.177 35.568C407.919 35.568 408.591 35.386 409.221 35.036C409.851 34.686 410.313 34.21 410.621 33.636L409.501 32.992C409.067 33.776 408.115 34.336 407.177 34.336C406.435 34.336 405.805 34.084 405.315 33.566C404.825 33.048 404.573 32.418 404.573 31.648C404.573 30.878 404.825 30.234 405.329 29.716C405.847 29.198 406.477 28.946 407.247 28.946C408.199 28.946 409.039 29.478 409.543 30.318L410.649 29.674C410.075 28.484 408.717 27.714 407.247 27.714C406.057 27.714 405.091 28.078 404.335 28.82C403.593 29.562 403.215 30.5 403.215 31.648C403.215 32.782 403.579 33.72 404.321 34.462C405.063 35.204 406.015 35.568 407.177 35.568ZM419.029 31.508C419.029 30.346 418.693 29.422 418.007 28.736C417.335 28.05 416.467 27.714 415.403 27.714C414.283 27.714 413.373 28.078 412.659 28.82C411.959 29.562 411.609 30.486 411.609 31.62C411.609 33.566 412.785 35.568 415.613 35.568C416.859 35.568 418.091 35.092 418.833 34.518L418.259 33.496C417.573 34 416.537 34.336 415.641 34.336C414.073 34.336 413.233 33.468 413.009 32.194H418.987C419.015 31.83 419.029 31.606 419.029 31.508ZM413.009 31.032C413.233 29.786 414.171 28.904 415.403 28.904C416.635 28.904 417.573 29.73 417.643 31.032H413.009Z" fill="#696969"/>
</g>
<path d="M658.668 16.181H653.331C652.93 16.4389 652.568 16.7542 652.256 17.1131H659.743C659.431 16.7542 659.069 16.4389 658.668 16.181Z" fill="#E68A00"/>
<path d="M660.618 18.5717H651.381C651.266 18.8699 651.181 19.1821 651.125 19.5037H660.874C660.818 19.1821 660.733 18.8699 660.618 18.5717Z" fill="#E68A00"/>
<path d="M660.945 20.964H651.053V21.896H660.945V20.964Z" fill="#E68A00"/>
<path d="M660.945 23.3546H651.053V24.2867H660.945V23.3546Z" fill="#E68A00"/>
<path d="M663.93 27.0612V32.0991C663.93 36.4721 660.373 40.03 655.999 40.03C651.627 40.03 648.069 36.4723 648.069 32.0991V27.0612H647.137V32.0991C647.137 36.8299 650.862 40.7064 655.533 40.9496V45.068H650.961V46H661.038V45.068H656.466V40.9496C661.137 40.7064 664.863 36.8299 664.863 32.0991V27.0612H663.93Z" fill="#696969"/>
<path d="M656 38.4427C659.499 38.4427 662.344 35.5969 662.344 32.0986V20.3441C662.344 16.8458 659.499 14 656 14C652.502 14 649.656 16.8458 649.656 20.3441V32.0986C649.656 35.5969 652.502 38.4427 656 38.4427ZM650.588 20.3441C650.588 20.0583 650.61 19.7771 650.654 19.5037C650.703 19.1821 650.782 18.8715 650.887 18.5717C651.07 18.0435 651.334 17.5526 651.662 17.113C651.92 16.7682 652.218 16.4544 652.549 16.181C653.485 15.4012 654.689 14.932 656 14.932C657.311 14.932 658.515 15.4012 659.452 16.181C659.783 16.4544 660.081 16.7682 660.339 17.113C660.667 17.5526 660.931 18.0435 661.114 18.5717C661.218 18.8715 661.297 19.1821 661.347 19.5037C661.391 19.7771 661.412 20.0583 661.412 20.3441V32.0986C661.412 35.0827 658.984 37.5107 656 37.5107C653.016 37.5107 650.588 35.0827 650.588 32.0986V20.3441Z" fill="#696969"/>
<defs>
<filter id="filter0_b_216_2263" x="-6" y="-6" width="752.4" height="72" filterUnits="userSpaceOnUse" color-interpolation-filters="sRGB">
<feFlood flood-opacity="0" result="BackgroundImageFix"/>
<feGaussianBlur in="BackgroundImage" stdDeviation="3"/>
<feComposite in2="SourceAlpha" operator="in" result="effect1_backgroundBlur_216_2263"/>
<feBlend mode="normal" in="SourceGraphic" in2="effect1_backgroundBlur_216_2263" result="shape"/>
</filter>
<clipPath id="clip0_216_2263">
<rect width="33.6" height="26.4" fill="white" transform="translate(685.199 16.8)"/>
</clipPath>
</defs>
</svg>
