<svg width="24" height="24" viewBox="0 0 24 24" fill="none" xmlns="http://www.w3.org/2000/svg">
<rect width="24" height="24" rx="1" fill="black"/>
<path d="M17.3505 20.1606C16.2303 21.3128 14.8319 21.8821 13.2237 21.8889C10.6914 21.8997 8.15914 21.8919 5.62684 21.8919C5.58098 21.8919 5.53512 21.8879 5.48144 21.885V16.1942C6.46216 16.8016 7.42238 17.3972 8.40115 18.0026V19.3033C8.4353 19.3091 8.45775 19.3169 8.47921 19.316C9.94882 19.316 11.4184 19.355 12.8861 19.3013C14.2162 19.2525 15.1813 18.5475 15.7424 17.3523C16.2752 16.2138 16.1317 15.1026 15.4018 14.087C14.7333 13.1565 13.7946 12.7288 12.6577 12.7268C11.2945 12.7239 9.93126 12.7249 8.56801 12.7278C8.44018 12.7288 8.33186 12.6985 8.22257 12.6302C7.35115 12.0853 6.4768 11.5453 5.60342 11.0034C5.56439 10.979 5.52536 10.9526 5.48047 10.9233V1.9165H9.76244V4.45529H8.40895V10.1246C8.43823 10.1607 8.47531 10.1549 8.50946 10.1539C9.94297 10.1529 11.3765 10.1666 12.81 10.1431C14.0952 10.1226 15.2515 9.0456 15.4125 7.76352C15.5784 6.44335 15.0671 5.41905 13.9107 4.75604C13.8961 4.74822 13.8824 4.73651 13.8668 4.72577V1.95459C15.8575 2.31197 17.2822 3.3929 18.057 5.24133C18.8758 7.19425 18.6377 9.36198 16.4547 11.2973C16.5494 11.3969 16.6782 11.4428 16.7875 11.518C18.0512 12.3919 18.7879 13.5998 19.0065 15.1113C19.2886 17.0613 18.7138 18.7565 17.3505 20.1606Z" fill="white"/>
</svg>
