<svg width="69" height="100" viewBox="0 0 69 100" fill="none" xmlns="http://www.w3.org/2000/svg">
<path d="M60.1424 91.3196C54.4664 97.087 47.3812 99.9365 39.233 99.9707C26.4025 100.024 13.5721 99.9853 0.741644 99.9853C0.509263 99.9853 0.276881 99.9658 0.0049443 99.9511V71.4663C4.97396 74.5064 9.83915 77.4878 14.7983 80.5181V87.0283C14.9713 87.0577 15.085 87.0968 15.1938 87.0919C22.6399 87.0919 30.086 87.2874 37.5223 87.0186C44.2613 86.7742 49.1513 83.2454 51.9942 77.2629C54.6938 71.564 53.967 66.002 50.2687 60.9189C46.8818 56.261 42.1254 54.1202 36.3653 54.1105C29.4581 54.0958 22.5509 54.1007 15.6438 54.1153C14.9961 54.1202 14.4472 53.9687 13.8935 53.6266C9.47822 50.8993 5.04813 48.1965 0.622981 45.4839C0.425209 45.3617 0.227438 45.2297 0 45.0831V0H21.6956V12.7077H14.8378V41.085C14.9862 41.2659 15.174 41.2366 15.3471 41.2317C22.6103 41.2268 29.8734 41.2952 37.1366 41.1779C43.6482 41.0753 49.5072 35.6843 50.323 29.2669C51.1636 22.6588 48.5728 17.5318 42.7138 14.2131C42.6396 14.174 42.5704 14.1153 42.4913 14.0616V0.190616C52.5776 1.97947 59.7963 7.39003 63.7221 16.6422C67.8704 26.4174 66.6639 37.2678 55.6036 46.955C56.0832 47.4536 56.7358 47.6833 57.2896 48.0596C63.6924 52.434 67.4254 58.48 68.5329 66.0459C69.9618 75.8065 67.0496 84.2913 60.1424 91.3196Z" fill="black"/>
</svg>
