<svg width="57" height="59" viewBox="0 0 57 59" fill="none" xmlns="http://www.w3.org/2000/svg">
<path d="M11.6376 10.1174L11.6377 10.1175C11.824 9.96885 12.0153 9.82234 12.2016 9.67968C12.2674 9.62932 12.3326 9.57943 12.3966 9.5301L12.403 9.52524L12.4094 9.52057L12.9601 9.12397L12.9614 9.12304C12.9706 9.11643 12.9819 9.10821 12.9947 9.09893C13.0374 9.06779 13.0967 9.02456 13.152 8.98887L13.5521 8.73082L13.7864 9.05774C14.0958 8.40816 14.4409 7.7623 14.8221 7.12381C14.048 7.11882 13.2608 7.14968 12.4641 7.21845L12.7276 7.58619L12.2907 7.87173C12.2564 7.89418 12.2324 7.9114 12.2019 7.93334C12.1796 7.94936 12.1538 7.9679 12.1179 7.99283L11.523 8.42023C11.4703 8.46066 11.4178 8.50079 11.3656 8.54073C11.1457 8.70892 10.9302 8.87375 10.717 9.0437C10.617 9.12751 10.5214 9.20578 10.4285 9.28183C10.2584 9.42103 10.0973 9.55282 9.93521 9.69758L9.93029 9.70197L9.93026 9.70194C7.87278 11.4908 6.07899 13.5713 4.65798 15.8754L4.65771 15.8758C3.2332 18.1802 2.15567 20.6933 1.5011 23.3075L1.50103 23.3077C0.844456 25.9239 0.595327 28.6368 0.758368 31.323L0.758402 31.3236C0.918466 34.0105 1.4862 36.6796 2.46496 39.196L2.46525 39.1968C3.44035 41.7154 4.80824 44.0883 6.50395 46.2067L6.50406 46.2068C8.19993 48.3268 10.2225 50.1943 12.4826 51.7287C14.6066 53.1708 16.9434 54.3148 19.3971 55.1137L19.8223 53.7814C17.5129 53.026 15.3152 51.9471 13.3132 50.5883C13.3131 50.5883 13.3131 50.5882 13.313 50.5882L13.5938 50.1745C11.4942 48.7509 9.61297 47.0137 8.03787 45.0443L11.6376 10.1174ZM11.6376 10.1174L11.6284 10.1251M11.6376 10.1174L11.6284 10.1251M11.6284 10.1251C11.5551 10.1865 11.4758 10.2512 11.3938 10.3182C11.228 10.4535 11.051 10.598 10.8894 10.7428C8.94425 12.4338 7.24432 14.4059 5.89727 16.5945C4.54697 18.7778 3.52655 21.158 2.9045 23.6405L11.6284 10.1251Z" stroke="#696969"/>
<path d="M47.2423 10.5587L47.2426 10.559C47.6915 11.0263 47.575 11.7834 47.0014 12.1039L47.0009 12.1042C46.5876 12.3357 46.0641 12.2596 45.7362 11.9206L45.7359 11.9204C44.7731 10.9264 43.7187 9.99755 42.578 9.15155C42.1323 8.8202 42.0351 8.22712 42.3325 7.79134L42.3392 7.78149L42.3444 7.77308C42.6738 7.30342 43.3487 7.19067 43.8305 7.54951L43.8306 7.54958C45.0548 8.46093 46.1951 9.46691 47.2423 10.5587Z" stroke="#696969"/>
<path d="M36.4835 3.87422L36.483 3.87408C35.0425 3.37287 33.5591 2.98977 32.0453 2.72842L32.0452 2.7284C31.4511 2.62569 30.9039 3.02707 30.8301 3.59312L30.8295 3.60294L30.8281 3.61466C30.7667 4.13738 31.1315 4.62153 31.6818 4.71619L36.4835 3.87422ZM36.4835 3.87422C37.1013 4.0886 37.3515 4.81584 36.9907 5.35855L36.9905 5.35898C36.7314 5.74959 36.2316 5.91634 35.7825 5.76217L35.7821 5.76206M36.4835 3.87422L35.7821 5.76206M35.7821 5.76206C34.4622 5.31004 33.0912 4.95694 31.6821 4.71624L35.7821 5.76206Z" stroke="#696969"/>
<path d="M23.8836 2.68902L23.8841 2.68893C24.5307 2.56432 25.1305 3.07176 25.1018 3.72151L25.1018 3.72203C25.0819 4.1835 24.7429 4.5715 24.28 4.66229L24.2797 4.66236C22.9087 4.93229 21.5449 5.31293 20.2067 5.80939C19.6869 6.00152 19.1135 5.76915 18.8909 5.28013L18.8861 5.26955L18.8816 5.26071C18.6493 4.73323 18.9145 4.12297 19.47 3.91817L19.4701 3.91812C20.9083 3.38751 22.3836 2.97677 23.8836 2.68902Z" stroke="#696969"/>
<path d="M52.3831 16.5346L52.4055 16.5704L52.4091 16.5782L52.4298 16.6094C52.4391 16.6235 52.4478 16.6365 52.4557 16.6482C52.5427 16.792 52.6196 16.9178 52.689 17.0312C53.1176 17.7319 53.2579 17.9613 53.707 19.053L53.7114 19.0636L53.7162 19.074C53.7141 19.0696 53.8844 19.4612 54.076 19.9015L54.0762 19.902C54.2572 20.3169 54.1417 20.8025 53.8263 21.071L53.8253 21.0719L53.5214 21.3321C53.5212 21.3322 53.521 21.3324 53.5208 21.3325C53.1 21.6901 52.4538 21.5447 52.2248 20.9533C52.0437 20.4716 51.9371 20.1637 51.8613 19.9447L51.859 19.9381L51.8533 19.9215C51.7825 19.717 51.7297 19.5645 51.6604 19.4182C51.5867 19.2628 51.4996 19.1244 51.3713 18.9315C51.3219 18.8572 51.2677 18.7768 51.2048 18.6835C51.096 18.522 50.961 18.3216 50.7789 18.0463L50.7763 18.0422L50.764 18.0229L50.7247 17.9619C50.6918 17.9112 50.6457 17.8403 50.5909 17.7569C50.2529 17.2362 50.3614 16.5223 50.8205 16.1405L50.8492 16.1174L50.8493 16.1175L50.8544 16.1132C51.3005 15.7444 51.9489 15.8429 52.2808 16.3717L52.2811 16.3722L52.3831 16.5346Z" stroke="#696969"/>
<path d="M55.3731 26.9258L55.3751 26.9402L55.378 26.9545C55.5623 27.8618 55.6001 28.0705 55.6046 28.2848C55.6066 28.3747 55.6027 28.463 55.5962 28.609C55.5945 28.6492 55.5925 28.6937 55.5904 28.7438C55.5811 28.9675 55.5711 29.2733 55.5711 29.7398C55.5711 30.1471 55.562 30.5543 55.5439 30.9584L55.5439 30.9585C55.2948 36.5354 53.339 41.7946 49.8423 46.237L49.8423 46.237C46.5363 50.4376 41.9805 53.6291 36.8897 55.3357C36.3236 55.5251 35.7175 55.2 35.5607 54.6455C35.4178 54.1396 35.7004 53.6016 36.2319 53.4233C45.2219 50.4137 51.7392 42.6896 53.1901 33.5854L53.1901 33.5849C53.2317 33.3225 53.2682 33.1113 53.2998 32.9282C53.4145 32.2634 53.4655 31.9683 53.4655 30.9296C53.4655 30.4864 53.4976 30.2948 53.5269 30.1194C53.532 30.0891 53.537 30.0593 53.5417 30.0287C53.5829 29.7624 53.592 29.5113 53.5138 28.9375L53.5137 28.9365L53.5104 28.9045L53.498 28.7783L53.4557 28.342L53.3416 27.1612L53.3416 27.161C53.3095 26.8306 53.4523 26.504 53.727 26.2962L53.7327 26.2919L53.7383 26.2874L53.7489 26.2789C54.3772 25.8108 55.2677 26.1888 55.3731 26.9258Z" stroke="#696969"/>
<circle cx="28" cy="55" r="3" stroke="#696969" stroke-width="2"/>
</svg>
