<svg width="121" height="127" viewBox="0 0 121 127" fill="none" xmlns="http://www.w3.org/2000/svg">
<path d="M24.9569 22.2288L24.957 22.2289C25.3533 21.9128 25.7583 21.6026 26.158 21.2965C26.3006 21.1874 26.4424 21.0788 26.5829 20.9706L26.5892 20.9658L26.5957 20.9611L27.781 20.1074L27.7823 20.1065C27.8094 20.0871 27.8389 20.0656 27.8701 20.0429C27.9608 19.9768 28.0662 19.9 28.1697 19.8333L28.5698 19.5752L28.8472 19.9622L29.3299 20.6358C30.2212 18.6624 31.2671 16.701 32.4692 14.7741C30.1384 14.7154 27.75 14.8066 25.3245 15.0594L25.8209 15.7521L26.1249 16.1764L25.688 16.4619C25.607 16.5149 25.5395 16.5633 25.4636 16.6177C25.4142 16.653 25.3613 16.6909 25.2989 16.7342L24.0074 17.6621C23.8927 17.7501 23.7783 17.8376 23.6641 17.9249C23.1884 18.2888 22.7169 18.6494 22.2511 19.0208C22.0455 19.1932 21.843 19.359 21.6433 19.5224C21.2701 19.828 20.9065 20.1256 20.5492 20.4446L20.5443 20.449L20.5443 20.449C16.074 24.3356 12.1741 28.858 9.08309 33.87L9.08281 33.8704C5.98653 38.8791 3.64322 44.3434 2.21924 50.0304L2.21917 50.0307C0.791419 55.7197 0.249774 61.6183 0.60428 67.459L0.604313 67.4596C0.952297 73.301 2.18661 79.1056 4.31593 84.5801L4.31622 84.5808C6.43656 90.0576 9.41062 95.2165 13.0972 99.822L13.0973 99.8221C16.7841 104.431 21.1805 108.49 26.0927 111.825C30.8688 115.068 36.1392 117.617 41.6738 119.359L42.9392 115.394C37.8202 113.778 32.9494 111.418 28.5275 108.416C23.9668 105.324 19.8804 101.551 16.4585 97.2721C13.0332 92.9935 10.2728 88.2038 8.30416 83.1217C6.32449 78.0369 5.18156 72.6526 4.85737 67.2211L24.9569 22.2288ZM24.9569 22.2288L24.9477 22.2365M24.9569 22.2288L24.9477 22.2365M24.9477 22.2365C24.7781 22.3786 24.6011 22.5231 24.4213 22.6698C24.0698 22.9566 23.7077 23.2522 23.3685 23.5563C19.2214 27.1609 15.5998 31.3629 12.7316 36.0229C9.85494 40.6743 7.68218 45.7432 6.3581 51.0273M24.9477 22.2365L6.3581 51.0273M6.3581 51.0273C5.03452 56.3062 4.52649 61.7879 4.85735 67.2208L6.3581 51.0273Z" stroke="#696969"/>
<path d="M101.656 22.329L101.656 22.3287C99.3794 19.9555 96.9009 17.769 94.2404 15.7885L94.2404 15.7884C92.9459 14.8243 91.1107 15.1195 90.2128 16.4184L90.2065 16.4286L90.2003 16.4387L90.1935 16.4486C89.3722 17.6518 89.6552 19.2721 90.8524 20.1619L101.656 22.329ZM101.656 22.329C102.886 23.6097 102.56 25.6841 100.999 26.5564L100.999 26.5567C99.8798 27.1835 98.4672 26.9777 97.5803 26.0608L97.58 26.0606M101.656 22.329L97.58 26.0606M97.58 26.0606C95.5288 23.943 93.2825 21.9642 90.8525 20.162L97.58 26.0606Z" stroke="#696969"/>
<path d="M78.2649 7.79766L78.2654 7.7978C79.9578 8.385 80.6362 10.3777 79.6549 11.8538L79.6546 11.8543C78.9526 12.9129 77.6016 13.363 76.3858 12.9457L76.3855 12.9456C73.5733 11.9825 70.6523 11.2302 67.6504 10.7175C66.1713 10.4633 65.162 9.14901 65.3311 7.7089L65.3325 7.69717L65.3333 7.68539L65.3341 7.67343C65.5265 6.115 67.0203 5.03108 68.6195 5.30755L68.6196 5.30757C71.9094 5.87555 75.1335 6.70818 78.2649 7.79766Z" stroke="#696969"/>
<path d="M50.8483 5.22818L50.8487 5.2281C52.6137 4.88792 54.2394 6.27069 54.1615 8.03356L54.1615 8.03407C54.1073 9.29161 53.1829 10.3484 51.9235 10.5954L51.9232 10.5955C49.0025 11.1705 46.0976 11.9814 43.2473 13.0388C41.8452 13.5573 40.286 12.9322 39.6796 11.5998L39.6748 11.5893L39.6695 11.5789L39.6639 11.568C39.0183 10.1271 39.7437 8.4569 41.2544 7.89992L41.2545 7.89988C44.3805 6.74655 47.5875 5.85371 50.8483 5.22818Z" stroke="#696969"/>
<path d="M112.885 35.434C112.907 35.4677 112.928 35.4986 112.947 35.5267C113.134 35.8365 113.3 36.1082 113.451 36.3539C114.382 37.8756 114.702 38.4002 115.687 40.7931L115.691 40.8037L115.696 40.8141C115.696 40.8136 116.068 41.6703 116.477 42.6089L116.477 42.6094C116.964 43.7259 116.664 45.0459 115.784 45.7951L115.783 45.796L115.128 46.3571C115.128 46.3572 115.127 46.3574 115.127 46.3575C113.896 47.4048 112.049 46.9255 111.425 45.3081C111.032 44.2628 110.8 43.5938 110.636 43.1202L110.631 43.1061L110.627 43.0928C110.467 42.6324 110.363 42.3314 110.228 42.0452C110.088 41.7512 109.921 41.483 109.646 41.0701C109.545 40.917 109.43 40.7463 109.295 40.5465C109.058 40.1945 108.76 39.7523 108.366 39.1572L108.358 39.1438L108.334 39.1059C108.314 39.075 108.286 39.0313 108.251 38.9771C108.181 38.8687 108.082 38.7167 107.964 38.5376C107.079 37.1766 107.354 35.3099 108.576 34.297L108.641 34.2444L108.641 34.2445L108.646 34.2402C109.887 33.2148 111.681 33.5146 112.572 34.9345L112.572 34.935C112.664 35.0809 112.74 35.201 112.792 35.2854L112.853 35.383L112.86 35.3936L112.864 35.4028L112.885 35.434Z" stroke="#696969"/>
<path d="M119.31 57.8773L119.312 57.8917L119.315 57.9061C119.707 59.8344 119.803 60.346 119.815 60.8721C119.819 61.0859 119.81 61.2996 119.796 61.6188C119.792 61.7032 119.788 61.7951 119.784 61.8962C119.764 62.3712 119.742 63.0213 119.742 64.0161C119.742 64.9014 119.723 65.7866 119.683 66.6652L119.683 66.6653C119.142 78.791 114.888 90.2271 107.288 99.8836L107.658 100.175L107.288 99.8836C100.101 109.015 90.1999 115.95 79.1363 119.659C77.6094 120.17 75.9664 119.297 75.5384 117.783C75.1438 116.386 75.9317 114.927 77.355 114.449C96.505 108.039 110.383 91.5861 113.472 72.2033L113.472 72.2029C113.563 71.6277 113.642 71.1687 113.71 70.7737C113.955 69.3576 114.058 68.7628 114.058 66.5772C114.058 65.5762 114.132 65.1282 114.197 64.7416C114.208 64.6767 114.219 64.6136 114.228 64.5499C114.306 64.0469 114.33 63.5642 114.166 62.359C114.166 62.3586 114.166 62.3583 114.166 62.3579L114.164 62.3472L114.157 62.2756L114.13 62.0027C114.107 61.7694 114.076 61.4418 114.039 61.0628C114.008 60.7382 113.973 60.3758 113.937 60.0029C113.889 59.5059 113.839 58.9904 113.794 58.5212L113.794 58.521C113.705 57.6066 114.101 56.7099 114.849 56.1441L114.855 56.1398L114.86 56.1353L114.891 56.1109C116.581 54.8419 119.019 55.8388 119.31 57.8773Z" stroke="#696969"/>
<circle cx="59.8182" cy="118.39" r="7.61017" stroke="#696969" stroke-width="2"/>
</svg>
