<svg width="24" height="24" viewBox="0 0 24 24" fill="none" xmlns="http://www.w3.org/2000/svg">
<g filter="url(#filter0_d_1448_2218)">
<circle cx="12" cy="8" r="8" fill="white"/>
</g>
<path d="M14.9638 4.00937L14.6102 3.65582L14.2566 4.00937L11.9993 6.26673L9.74193 4.00937L9.38838 3.65582L9.03483 4.00937L8.00937 5.03483L7.65582 5.38838L8.00937 5.74193L10.2667 7.99929L8.00937 10.2566L7.65582 10.6102L8.00937 10.9638L9.03483 11.9892L9.38838 12.3428L9.74193 11.9892L11.9993 9.73185L14.2566 11.9892L14.6102 12.3428L14.9638 11.9892L15.9892 10.9638L16.3428 10.6102L15.9892 10.2566L13.7319 7.99929L15.9892 5.74193L16.3428 5.38838L15.9892 5.03483L14.9638 4.00937ZM11.9993 1.22656C15.745 1.22656 18.772 4.25361 18.772 7.99929C18.772 11.745 15.745 14.772 11.9993 14.772C8.25361 14.772 5.22656 11.745 5.22656 7.99929C5.22656 4.25361 8.25361 1.22656 11.9993 1.22656Z" fill="black" stroke="black"/>
<defs>
<filter id="filter0_d_1448_2218" x="0" y="0" width="24" height="24" filterUnits="userSpaceOnUse" color-interpolation-filters="sRGB">
<feFlood flood-opacity="0" result="BackgroundImageFix"/>
<feColorMatrix in="SourceAlpha" type="matrix" values="0 0 0 0 0 0 0 0 0 0 0 0 0 0 0 0 0 0 127 0" result="hardAlpha"/>
<feOffset dy="4"/>
<feGaussianBlur stdDeviation="2"/>
<feComposite in2="hardAlpha" operator="out"/>
<feColorMatrix type="matrix" values="0 0 0 0 0 0 0 0 0 0 0 0 0 0 0 0 0 0 0.25 0"/>
<feBlend mode="normal" in2="BackgroundImageFix" result="effect1_dropShadow_1448_2218"/>
<feBlend mode="normal" in="SourceGraphic" in2="effect1_dropShadow_1448_2218" result="shape"/>
</filter>
</defs>
</svg>
