<svg width="40" height="40" viewBox="0 0 40 40" fill="none" xmlns="http://www.w3.org/2000/svg">
<g clip-path="url(#clip0_1724_244)">
<path fill-rule="evenodd" clip-rule="evenodd" d="M20 2.5C15.3588 2.5 10.9076 4.34374 7.6257 7.62562C4.34382 10.9075 2.50008 15.3587 2.50008 20C2.50008 24.6412 4.34382 29.0924 7.6257 32.3743C10.9076 35.6562 15.3588 37.4999 20 37.4999C24.6413 37.4999 29.0925 35.6562 32.3744 32.3743C35.6563 29.0924 37.5 24.6412 37.5 20C37.5 15.3587 35.6563 10.9075 32.3744 7.62562C29.0925 4.34374 24.6413 2.5 20 2.5V2.5ZM20 39.9999C14.6957 39.9999 9.60865 37.8928 5.85793 34.1421C2.10721 30.3913 8.04104e-05 25.3043 8.03471e-05 20C8.02839e-05 14.6956 2.10721 9.60857 5.85793 5.85785C9.60865 2.10713 14.6957 3.01752e-07 20 2.38499e-07C25.3044 1.75245e-07 30.3914 2.10713 34.1421 5.85785C37.8929 9.60857 40 14.6956 40 20C40 25.3043 37.8929 30.3913 34.1421 34.1421C30.3914 37.8928 25.3044 39.9999 20 39.9999V39.9999ZM28.75 21.25C29.0815 21.25 29.3995 21.1183 29.6339 20.8838C29.8683 20.6494 30 20.3315 30 20C30 19.6684 29.8683 19.3505 29.6339 19.1161C29.3995 18.8817 29.0815 18.75 28.75 18.75L14.2676 18.75L19.635 13.385C19.8698 13.1503 20.0016 12.8319 20.0016 12.5C20.0016 12.168 19.8698 11.8497 19.635 11.615C19.4003 11.3803 19.082 11.2484 18.75 11.2484C18.4181 11.2484 18.0998 11.3803 17.865 11.615L10.3651 19.115C10.2487 19.2311 10.1563 19.369 10.0933 19.5209C10.0303 19.6727 9.99783 19.8355 9.99783 20C9.99783 20.1644 10.0303 20.3272 10.0933 20.479C10.1563 20.6309 10.2487 20.7688 10.3651 20.885L17.865 28.3849C18.0998 28.6197 18.4181 28.7515 18.75 28.7515C19.082 28.7515 19.4003 28.6197 19.635 28.3849C19.8698 28.1502 20.0016 27.8319 20.0016 27.4999C20.0016 27.168 19.8698 26.8497 19.635 26.6149L14.2676 21.25L28.75 21.25Z" fill="#E68A00"/>
</g>
<defs>
<clipPath id="clip0_1724_244">
<rect width="39.9999" height="39.9999" fill="white" transform="translate(40) rotate(90)"/>
</clipPath>
</defs>
</svg>
