<svg width="24" height="16" viewBox="0 0 24 16" fill="none" xmlns="http://www.w3.org/2000/svg">
<path fill-rule="evenodd" clip-rule="evenodd" d="M0.625 7.99995C0.625 7.78446 0.710602 7.5778 0.862975 7.42543C1.01535 7.27305 1.22201 7.18745 1.4375 7.18745L20.6011 7.18745L15.4873 2.0752C15.3347 1.92263 15.249 1.71571 15.249 1.49995C15.249 1.28419 15.3347 1.07727 15.4873 0.9247C15.6398 0.772134 15.8467 0.686425 16.0625 0.686424C16.2783 0.686424 16.4852 0.772134 16.6377 0.9247L23.1378 7.4247C23.2134 7.50017 23.2734 7.58983 23.3144 7.68855C23.3554 7.78726 23.3765 7.89308 23.3765 7.99995C23.3765 8.10682 23.3554 8.21264 23.3144 8.31135C23.2734 8.41006 23.2134 8.49973 23.1378 8.5752L16.6378 15.0752C16.4852 15.2278 16.2783 15.3135 16.0625 15.3135C15.8467 15.3135 15.6398 15.2278 15.4873 15.0752C15.3347 14.9226 15.249 14.7157 15.249 14.4999C15.249 14.2842 15.3347 14.0773 15.4873 13.9247L20.6011 8.81245L1.4375 8.81245C1.22201 8.81245 1.01535 8.72685 0.862975 8.57447C0.710602 8.4221 0.625 8.21544 0.625 7.99995Z" fill="#E68A00"/>
</svg>
