<svg width="40" height="40" viewBox="0 0 40 40" fill="none" xmlns="http://www.w3.org/2000/svg">
<path fill-rule="evenodd" clip-rule="evenodd" d="M20 37.5C24.6412 37.5 29.0924 35.6563 32.3743 32.3744C35.6562 29.0925 37.4999 24.6413 37.4999 20C37.4999 15.3588 35.6562 10.9076 32.3743 7.6257C29.0924 4.34382 24.6412 2.50007 20 2.50007C15.3587 2.50007 10.9075 4.34382 7.62561 7.6257C4.34373 10.9076 2.49999 15.3588 2.49999 20C2.49999 24.6413 4.34374 29.0925 7.62562 32.3744C10.9075 35.6563 15.3587 37.5 20 37.5V37.5ZM20 7.92344e-05C25.3043 7.90026e-05 30.3913 2.10721 34.1421 5.85793C37.8928 9.60865 39.9999 14.6957 39.9999 20C39.9999 25.3044 37.8928 30.3914 34.1421 34.1421C30.3913 37.8929 25.3043 40 20 40C14.6956 40 9.60857 37.8929 5.85785 34.1421C2.10713 30.3914 -6.42367e-07 25.3044 -8.74226e-07 20C-1.10609e-06 14.6957 2.10713 9.60865 5.85785 5.85793C9.60857 2.10721 14.6956 7.94663e-05 20 7.92344e-05V7.92344e-05ZM11.25 18.75C10.9185 18.75 10.6005 18.8817 10.3661 19.1162C10.1317 19.3506 9.99998 19.6685 9.99998 20C9.99998 20.3316 10.1317 20.6495 10.3661 20.8839C10.6005 21.1183 10.9185 21.25 11.25 21.25L25.7324 21.25L20.365 26.615C20.1302 26.8497 19.9984 27.1681 19.9984 27.5C19.9984 27.832 20.1302 28.1503 20.365 28.385C20.5997 28.6197 20.918 28.7516 21.25 28.7516C21.5819 28.7516 21.9002 28.6197 22.135 28.385L29.6349 20.885C29.7513 20.7689 29.8437 20.631 29.9067 20.4791C29.9697 20.3273 30.0022 20.1645 30.0022 20C30.0022 19.8356 29.9697 19.6728 29.9067 19.521C29.8437 19.3691 29.7513 19.2312 29.6349 19.115L22.135 11.6151C21.9002 11.3803 21.5819 11.2485 21.25 11.2485C20.918 11.2485 20.5997 11.3803 20.365 11.6151C20.1302 11.8498 19.9984 12.1681 19.9984 12.5001C19.9984 12.832 20.1302 13.1503 20.365 13.3851L25.7324 18.75L11.25 18.75Z" fill="#E68A00"/>
</svg>
