<svg width="47" height="28" viewBox="0 0 47 28" fill="none" xmlns="http://www.w3.org/2000/svg">
<path d="M38.9748 16.6569C38.8711 16.6569 38.7654 16.6608 38.6637 16.6706L39.1294 17.835C39.7658 17.8684 40.3717 18.1181 40.8468 18.5429C41.3219 18.9676 41.6376 19.5419 41.7418 20.1706C41.846 20.7993 41.7323 21.4448 41.4196 22C41.1068 22.5553 40.6139 22.9871 40.0222 23.224C39.4306 23.4608 38.7758 23.4885 38.1663 23.3025C37.5568 23.1164 37.0291 22.7278 36.6706 22.2009C36.3121 21.674 36.1444 21.0405 36.1951 20.4052C36.2458 19.77 36.5119 19.1711 36.9494 18.7077L36.4837 17.5414C35.7588 18.1296 35.2652 18.955 35.0899 19.8719C34.9147 20.7887 35.0691 21.738 35.526 22.5521C35.9828 23.3661 36.7127 23.9925 37.5866 24.3205C38.4605 24.6485 39.4223 24.6572 40.3019 24.3448C41.1816 24.0325 41.9225 23.4193 42.3939 22.6136C42.8653 21.8079 43.0367 20.8615 42.8779 19.9416C42.7191 19.0218 42.2403 18.1876 41.5261 17.5866C40.8119 16.9855 39.9083 16.6563 38.9748 16.6569V16.6569Z" fill="white"/>
<path d="M11.4689 20.2125L10.3124 20.6626C10.3021 21.3874 10.0402 22.086 9.57153 22.6389C9.10281 23.1918 8.45644 23.5645 7.74314 23.6931C7.02983 23.8218 6.29398 23.6985 5.66162 23.3442C5.02926 22.99 4.53974 22.4269 4.27692 21.7514C4.01409 21.0759 3.99431 20.3301 4.22097 19.6416C4.44763 18.9531 4.90662 18.3649 5.51932 17.9777C6.13201 17.5904 6.8603 17.4282 7.57942 17.5189C8.29854 17.6096 8.96375 17.9476 9.46111 18.4748L10.6157 18.0247C9.99973 17.2121 9.11494 16.645 8.11937 16.4246C7.1238 16.2042 6.08231 16.345 5.18097 16.8218C4.27962 17.2985 3.57714 18.0802 3.19902 19.0272C2.82089 19.9741 2.79177 21.0247 3.11684 21.9912C3.44191 22.9576 4.1 23.777 4.97354 24.303C5.84708 24.829 6.87917 25.0272 7.88542 24.8624C8.89167 24.6975 9.80653 24.1803 10.4666 23.403C11.1266 22.6258 11.4888 21.6392 11.4885 20.6196C11.4889 20.4836 11.4823 20.3478 11.4689 20.2125V20.2125Z" fill="white"/>
<path d="M38.9744 13.4196C38.4572 13.4189 37.9414 13.4747 37.4363 13.5859L37.8766 14.6935C38.2388 14.6274 38.6062 14.594 38.9744 14.5937C40.4246 14.5922 41.8267 15.113 42.9241 16.061C44.0215 17.009 44.7407 18.3205 44.9499 19.7555C45.1591 21.1905 44.8443 22.6528 44.0632 23.8746C43.2822 25.0964 42.0871 25.9959 40.6968 26.4085C39.3066 26.821 37.8143 26.7188 36.4933 26.1207C35.1722 25.5227 34.1108 24.4687 33.5035 23.1518C32.8962 21.835 32.7836 20.3434 33.1864 18.9504C33.5891 17.5573 34.4803 16.3559 35.6966 15.5663L35.2563 14.4568C33.7677 15.3564 32.6555 16.7649 32.1254 18.4215C31.5954 20.0781 31.6834 21.8707 32.3733 23.4674C33.0631 25.0641 34.3081 26.3568 35.8777 27.1062C37.4473 27.8556 39.2352 28.0111 40.9106 27.5437C42.586 27.0764 44.0353 26.0179 44.9904 24.5642C45.9454 23.1106 46.3415 21.3601 46.1053 19.6369C45.869 17.9136 45.0165 16.3343 43.7055 15.1913C42.3945 14.0482 40.7138 13.4188 38.9744 13.4196V13.4196Z" fill="white"/>
<path d="M13.1226 19.5687C13.3861 21.044 13.0914 22.5646 12.2958 23.8346C11.5002 25.1046 10.2605 26.0332 8.81806 26.4397C7.37559 26.8463 5.83348 26.7016 4.49177 26.034C3.15006 25.3663 2.10471 24.2234 1.55912 22.8276C1.01353 21.4317 1.00672 19.8829 1.54001 18.4823C2.07331 17.0818 3.10856 15.9297 4.44435 15.2503C5.78014 14.5708 7.32092 14.4126 8.76691 14.8064C10.2129 15.2003 11.4607 16.1179 12.2674 17.3809L13.3789 16.9484C12.4892 15.4514 11.0866 14.328 9.43148 13.7867C7.77633 13.2454 5.981 13.3228 4.37862 14.0047C2.77625 14.6866 1.47564 15.9266 0.718149 17.4947C-0.0393468 19.0627 -0.202296 20.8523 0.259538 22.5314C0.721373 24.2105 1.77663 25.665 3.2295 26.6251C4.68236 27.5852 6.43418 27.9856 8.15989 27.7521C9.88559 27.5186 11.468 26.667 12.6135 25.3553C13.7589 24.0437 14.3897 22.361 14.3887 20.6196C14.3893 20.1211 14.3375 19.6239 14.2341 19.1362L13.1226 19.5687Z" fill="white"/>
<path d="M36.84 13.6726L35.7461 14.1011L35.7735 14.1735L36.2099 15.2655L36.9789 17.1989L37.4212 18.3065L38.429 20.8368C38.4728 20.9458 38.5482 21.0392 38.6455 21.1051C38.7428 21.171 38.8575 21.2064 38.975 21.2066C39.0495 21.2066 39.1233 21.1919 39.1922 21.1636C39.2638 21.1352 39.3291 21.0931 39.3844 21.0394C39.4397 20.9858 39.4839 20.9218 39.5144 20.8511C39.5449 20.7804 39.5612 20.7044 39.5624 20.6274C39.5635 20.5504 39.5494 20.4739 39.521 20.4024L38.5112 17.8701L38.0709 16.7625L37.3018 14.8311L36.8654 13.7372L36.84 13.6726Z" fill="white"/>
<path d="M27.5574 1.11071L30.7765 2.75255L30.7961 2.76234C30.9897 2.85179 31.1636 2.97881 31.3077 3.13603C31.4518 3.29325 31.5633 3.47752 31.6356 3.67817L31.6806 3.80145L32.7745 3.37289L32.7393 3.277C32.4882 2.58227 31.9716 2.01566 31.3029 1.7017L28.0897 0.0637695C28.021 0.0288197 27.946 0.00775234 27.8691 0.00176981C27.7922 -0.00421273 27.7149 0.00500651 27.6416 0.028902C27.5683 0.0527976 27.5004 0.0909009 27.4418 0.141037C27.3832 0.191172 27.335 0.252359 27.3001 0.321102C27.2651 0.389845 27.2441 0.464799 27.2381 0.541685C27.2321 0.61857 27.2413 0.69588 27.2652 0.769202C27.2891 0.842524 27.3272 0.910421 27.3774 0.969018C27.4275 1.02761 27.4887 1.07576 27.5574 1.11071V1.11071Z" fill="white"/>
<path d="M33.574 12.5083L33.9732 13.5317C34.0157 13.6419 34.0906 13.7367 34.1881 13.8034C34.2856 13.8701 34.401 13.9057 34.5192 13.9055C34.5928 13.9053 34.6658 13.8914 34.7344 13.8644L34.981 13.7685L35.527 13.5552H35.5289L36.6228 13.1261L37.1688 12.9128L37.3841 12.8286C37.5285 12.7716 37.6446 12.6598 37.7069 12.5176C37.7693 12.3753 37.7728 12.2142 37.7167 12.0693L37.0044 10.2435C37.1923 10.1927 37.3841 10.1477 37.5797 10.1085C37.8028 10.0674 38.0298 10.0342 38.2607 10.0126C38.9729 9.94331 39.6915 9.98291 40.3918 10.13C40.4672 10.1461 40.5451 10.1472 40.6209 10.1331C40.6967 10.1191 40.7691 10.0903 40.8338 10.0483C40.8985 10.0063 40.9542 9.95202 40.9979 9.88849C41.0416 9.82495 41.0724 9.75343 41.0885 9.678C41.1045 9.60258 41.1056 9.52473 41.0916 9.4489C41.0775 9.37307 41.0487 9.30074 41.0067 9.23605C40.9648 9.17136 40.9104 9.11557 40.8469 9.07187C40.7834 9.02817 40.7119 8.99741 40.6364 8.98135C39.8192 8.80946 38.9805 8.76261 38.1492 8.84241C37.8123 8.87505 37.4778 8.92798 37.1473 9.00091C36.9535 9.04201 36.7618 9.09093 36.5739 9.14768L34.5407 3.94233C34.4839 3.79768 34.3721 3.68144 34.2298 3.61908C34.0875 3.55672 33.9262 3.55333 33.7814 3.60965L32.9752 3.92471L31.8812 4.35132L31.1318 4.64485C31.0599 4.67295 30.9943 4.71494 30.9387 4.76842C30.8831 4.8219 30.8385 4.88581 30.8076 4.95651C30.7767 5.02721 30.7601 5.10331 30.7586 5.18045C30.7571 5.25759 30.7709 5.33427 30.7991 5.40609L31.529 7.27493L30.8617 7.181V7.17904L30.4547 7.12229C29.2419 6.95263 28.0062 7.07473 26.8501 7.47845L24.6838 8.23381C22.1634 9.11554 19.435 9.21311 16.8581 8.51365L0.739116 4.166C0.644572 4.14012 0.545046 4.13839 0.449657 4.16095C0.354268 4.18352 0.266068 4.22966 0.19314 4.29516C0.120725 4.36129 0.0658399 4.44435 0.0333965 4.5369C0.000953005 4.62945 -0.00803592 4.7286 0.00723432 4.82548C0.195097 5.99766 0.954375 9.81949 2.83691 9.81949C4.72924 9.81949 12.9541 11.6414 13.5157 13.8742C13.5476 14.0011 13.6209 14.1137 13.7241 14.1942C13.8272 14.2747 13.9543 14.3184 14.0852 14.3184C14.5098 14.3184 15.0695 14.338 15.7486 14.3771L16.1536 15.8657L16.3102 16.4352L13.6605 17.4684L12.5627 17.895L10.9444 18.5252L9.83479 18.9576L6.97576 20.0711C6.8307 20.1277 6.71405 20.2396 6.65148 20.3821C6.58891 20.5247 6.58554 20.6863 6.64211 20.8314C6.69868 20.9764 6.81056 21.0931 6.95314 21.1556C7.09571 21.2182 7.2573 21.2216 7.40237 21.165L10.2634 20.0515L11.371 19.6191L12.9893 18.9889L14.0871 18.5604L16.6194 17.5741L16.7759 18.1455L17.4197 20.5095C17.6272 21.2631 18.076 21.9279 18.6973 22.4022C19.3187 22.8765 20.0783 23.1341 20.86 23.1356H24.3061C24.8497 23.1376 25.3865 23.0144 25.8749 22.7755C26.3632 22.5366 26.79 22.1884 27.1221 21.758C27.14 21.7353 27.1557 21.7111 27.169 21.6855C27.2062 21.619 30.5055 15.7698 33.1219 12.9676C33.2746 12.8038 33.4252 12.6492 33.574 12.5083ZM33.662 4.91745L35.5778 9.82144L36.4095 11.9506L36.1884 12.0367L35.0925 12.4633L34.8538 12.5572L34.0221 10.43L32.1043 5.52605L33.662 4.91745ZM27.7737 18.3751C26.2297 18.3091 23.9675 18.2119 23.8583 18.2056C23.7814 18.2007 23.7042 18.2111 23.6313 18.236C23.5583 18.261 23.491 18.3001 23.4331 18.3511C23.3163 18.454 23.2452 18.5992 23.2354 18.7546C23.2256 18.91 23.2779 19.063 23.3808 19.1798C23.4838 19.2966 23.629 19.3678 23.7844 19.3776C23.8691 19.3831 25.8929 19.4699 27.0747 19.5206C26.5935 20.3245 26.2649 20.9036 26.1691 21.0719C25.9454 21.3507 25.6617 21.5755 25.3392 21.7297C25.0167 21.8838 24.6635 21.9633 24.3061 21.9623H20.86C20.3357 21.9615 19.8261 21.7889 19.4094 21.4707C18.9926 21.1526 18.6917 20.7066 18.5528 20.201L17.8483 17.6179L17.5802 16.6317L17.3141 15.6552L16.9834 14.438C18.6976 14.5123 22.2809 14.6658 23.1693 14.7037C23.1777 14.7037 23.1863 14.7037 23.1948 14.7037C23.3505 14.707 23.5011 14.6483 23.6135 14.5405C23.7259 14.4327 23.7909 14.2847 23.7942 14.129C23.7974 13.9733 23.7387 13.8227 23.6309 13.7102C23.5231 13.5978 23.3751 13.5328 23.2194 13.5296C20.832 13.4274 16.2791 13.2321 16.1331 13.2241H16.1319C16.1164 13.2241 16.101 13.2221 16.0873 13.2221C15.465 13.183 14.9308 13.1595 14.4905 13.1497C12.9561 10.0915 4.00714 8.64476 2.83691 8.64476C2.379 8.64476 1.73126 7.2534 1.34184 5.54307L16.5509 9.64669C19.3558 10.408 22.3256 10.3022 25.0693 9.34337L27.2356 8.58605C28.2156 8.24547 29.2625 8.14219 30.2903 8.28469L31.3509 8.43537L32.0026 8.52735L32.0065 8.49799L33.1161 11.3355C32.9654 11.4666 32.8108 11.6114 32.6523 11.768C31.0046 13.3967 29.0966 16.2479 27.7737 18.3751V18.3751Z" fill="white"/>
</svg>
