<svg width="51" height="22" viewBox="0 0 51 22" fill="none" xmlns="http://www.w3.org/2000/svg">
<path d="M9.64053 7.32507L7.21039 11.465C7.72311 11.3569 8.28245 11.2383 8.89051 11.1133H8.89263L10.9944 7.53058C11.0666 7.40581 11.0946 7.26033 11.0738 7.11768C11.053 6.97503 10.9847 6.84356 10.88 6.74455L7.07267 3.17879L20.1768 1.67664L22.3633 4.26356L23.0688 5.0962L23.554 4.68518L24.0392 4.27415L23.8591 4.06016L23.8209 4.01779L20.9268 0.596103C20.8594 0.516141 20.7732 0.454153 20.676 0.415697C20.5787 0.377241 20.4734 0.363518 20.3696 0.375758L5.56205 2.07283C5.44175 2.08703 5.328 2.13525 5.23415 2.21183C5.1403 2.28841 5.07024 2.39018 5.03221 2.50518C4.99417 2.62019 4.98973 2.74365 5.0194 2.86109C5.04908 2.97853 5.11164 3.08507 5.19975 3.16819L9.64053 7.32507Z" fill="white"/>
<path d="M50.9021 8.23606C50.262 7.22545 48.33 6.13009 39.9908 6.75722C39.4654 6.79747 38.9145 6.84197 38.3359 6.89705C36.0392 7.11104 33.321 7.43944 30.0984 7.9119C22.0368 9.09413 13.4921 10.7954 8.45812 11.8527H8.45642C7.83988 11.9819 7.27914 12.1006 6.77418 12.2086C6.39705 12.2891 6.05383 12.3633 5.74662 12.429C5.08828 12.5735 4.47876 12.8865 3.97775 13.3374C3.47674 13.7883 3.10141 14.3615 2.8885 15.001L1.02998 20.6137C0.998503 20.7092 0.990141 20.8108 1.00559 20.9102C1.02103 21.0096 1.05984 21.1039 1.11883 21.1854C1.17781 21.2668 1.25529 21.3332 1.34489 21.3788C1.43449 21.4245 1.53366 21.4483 1.63424 21.4482H1.63635C12.5476 21.4334 32.2387 21.4122 37.0333 21.4334H37.0355C37.6075 21.4355 37.9677 21.4398 38.0736 21.444C38.1555 21.454 38.2385 21.4476 38.3178 21.425C38.3972 21.4025 38.4712 21.3642 38.5355 21.3126C43.1112 17.6849 47.2512 13.5392 50.8726 8.95854C50.95 8.85519 50.9942 8.73084 50.9994 8.60187C51.0047 8.4729 50.9707 8.34536 50.9021 8.23606V8.23606ZM46.5461 12.0921C46.3596 12.0688 46.1011 12.0412 45.76 12.0137C42.8256 11.7828 33.8614 11.6408 13.7042 15.2595L13.9288 16.5117C31.8529 13.2934 40.9188 13.09 44.6074 13.2319C44.9274 13.2447 45.207 13.2595 45.4465 13.2743C43.104 15.7506 40.5892 18.058 37.9209 20.1791C37.6264 20.1664 37.1984 20.1643 36.5691 20.1622C35.567 20.1579 34.139 20.1558 32.4271 20.1537H27.3723L25.5799 16.5212L24.4398 17.0835L25.9549 20.1541C23.9985 20.1541 21.9396 20.1562 19.8781 20.1577C12.4436 20.162 5.01334 20.1726 2.5154 20.1768L4.09382 15.3992C4.23739 14.9697 4.48992 14.5848 4.82675 14.2822C5.16357 13.9795 5.57316 13.7694 6.01548 13.6724C10.0643 12.7932 20.5328 10.5982 30.283 9.16808C44.5163 7.08117 48.455 7.9011 49.5228 8.62145C49.0294 9.24456 48.0037 10.4988 46.5461 12.0921V12.0921Z" fill="white"/>
<path d="M36.1741 2.91594C36.1067 2.84878 36.025 2.79756 35.9352 2.76603C35.8454 2.7345 35.7497 2.72347 35.655 2.73373L25.6718 3.81638L25.623 3.82274L23.8603 4.06003L22.3645 4.26343L15.9258 5.13209L16.0953 6.39272L25.8434 5.07701V5.07489L35.4877 4.03037L37.7568 6.31221C38.3288 6.255 38.8733 6.20627 39.3988 6.16178L36.1741 2.91594Z" fill="white"/>
</svg>
