<svg width="53" height="28" viewBox="0 0 53 28" fill="none" xmlns="http://www.w3.org/2000/svg">
<path d="M33.2948 2.94523C33.2502 2.84653 33.1821 2.7602 33.0966 2.69369C33.0111 2.62717 32.9107 2.58248 32.8041 2.56347C32.6974 2.54445 32.5877 2.55169 32.4845 2.58456C32.3813 2.61742 32.2876 2.67493 32.2116 2.7521L31.2127 3.77077L28.6117 0.268817C28.5498 0.18542 28.4692 0.117675 28.3764 0.0709979C28.2835 0.0243208 28.1811 7.29839e-06 28.0772 0H24.7422V1.33188H27.7422L30.2695 4.73394L29.7101 5.30443C29.5881 5.42894 29.5195 5.59624 29.5192 5.77058V9.57754C29.5392 9.562 29.5614 9.54646 29.5813 9.53314C29.9871 9.25654 30.4113 9.00808 30.8511 8.78951V6.04384L32.4804 4.38121L34.0387 7.84632C34.5101 7.79716 34.9851 7.79345 35.4571 7.83522L35.4882 7.8219L33.2948 2.94523Z" fill="white"/>
<path d="M10.1845 13.8753L8.917 13.4468L7.97581 15.5579L4.17773 17.7843L6.81041 17.7821H6.81263L8.59269 16.7388H13.3635C13.5401 16.7388 13.7095 16.6686 13.8344 16.5437C13.9593 16.4189 14.0294 16.2495 14.0294 16.0729C14.0294 15.8962 13.9593 15.7268 13.8344 15.602C13.7095 15.4771 13.5401 15.4069 13.3635 15.4069H9.50103L10.1845 13.8753Z" fill="white"/>
<path d="M3.00347 10.7356L9.19005 12.8355L10.4553 13.2639L19.8673 16.4582C20.6101 16.711 21.4012 16.7899 22.1793 16.6886C22.9575 16.5874 23.702 16.3089 24.3555 15.8744L24.9038 15.5215C25.7229 14.9976 26.5686 14.456 27.3966 13.9055C28.021 13.4698 28.611 12.9866 29.1613 12.4604C29.6444 11.9995 30.1592 11.573 30.7019 11.184C32.3934 10.0386 34.2269 9.5813 35.8673 9.90317C37.8392 10.3268 39.7112 11.1256 41.3813 12.2562C42.6791 13.1227 43.9183 14.0741 45.0906 15.1042H47.1128C45.5459 13.66 43.8727 12.3355 42.1074 11.1418C40.2952 9.91695 38.2641 9.05251 36.1251 8.59571C34.4269 8.26496 32.5867 8.59793 30.8508 9.5369C30.578 9.68563 30.307 9.84767 30.0406 10.0253C30.0117 10.043 29.9829 10.063 29.954 10.083C29.3587 10.5064 28.7942 10.9715 28.2648 11.4748C27.7649 11.9561 27.2283 12.3977 26.6598 12.7956L26.3469 13.002C24.9439 11.2994 23.0127 10.336 20.9705 10.336C20.9306 10.336 20.8928 10.3383 20.8529 10.3383C16.633 10.3383 9.19249 6.59123 8.65974 6.32042L6.67746 5.02184C6.32636 4.78216 5.91649 4.64289 5.49206 4.61902C5.06762 4.59516 4.64473 4.68762 4.26898 4.88643C3.30115 5.39032 2.67317 6.4869 2.63077 7.74997L2.55307 10.083C2.54852 10.2256 2.5898 10.366 2.67086 10.4834C2.75192 10.6009 2.86849 10.6892 3.00347 10.7356V10.7356ZM20.8569 11.6701C20.8946 11.6701 20.9301 11.6679 20.9678 11.6679C22.5617 11.6679 24.082 12.4138 25.2208 13.7345C24.8745 13.9587 24.5282 14.1807 24.1863 14.3983L23.6358 14.7512C23.1504 15.0766 22.5967 15.286 22.0175 15.3634C21.4383 15.4408 20.849 15.384 20.2952 15.1974L14.2976 13.1618L14.4485 12.5092L14.7793 11.0774L14.9302 10.427C16.9766 11.1249 19.1299 11.671 20.8569 11.671V11.6701ZM3.95998 7.79525C3.98662 7.02498 4.34845 6.34794 4.8812 6.07047C5.04699 5.97991 5.23502 5.9381 5.42357 5.94989C5.61211 5.96167 5.79347 6.02656 5.9467 6.13706L7.95761 7.45562C7.97759 7.46672 7.99757 7.48004 8.01755 7.48892C9.85531 8.41777 11.7411 9.2484 13.6669 9.97731L13.516 10.6277L13.1808 12.0795L13.0298 12.7321L3.90005 9.63324L3.95998 7.79525Z" fill="white"/>
<path d="M52.042 16.5501C51.8705 16.3096 51.6441 16.1134 51.3816 15.9779C51.119 15.8424 50.828 15.7715 50.5326 15.7709H39.6445C37.8287 15.7665 36.115 15.7621 34.317 16.4369C33.8464 16.6122 33.3891 16.8187 32.9451 17.0162C32.4257 17.2493 31.9373 17.4669 31.4312 17.6445C29.9595 18.1572 28.3501 18.3037 26.7899 18.4436L5.67337 18.448H5.66893L3.03625 18.4502H0.66595C0.489332 18.4502 0.319948 18.5204 0.19506 18.6453C0.0701725 18.7702 1.12592e-05 18.9396 1.12592e-05 19.1162C-0.000501719 19.2037 0.016519 19.2904 0.0500692 19.3712C0.0836193 19.4521 0.133019 19.5254 0.195353 19.5868C0.256776 19.6491 0.330063 19.6985 0.410888 19.7321C0.491713 19.7656 0.57844 19.7826 0.66595 19.7821H1.49371L1.72679 20.4481L2.2995 22.0752L2.53258 22.7367H2.4571C2.16088 22.7367 1.86986 22.8146 1.6132 22.9625C1.35654 23.1104 1.14323 23.3231 0.994642 23.5794C0.846054 23.8356 0.767399 24.1264 0.766552 24.4227C0.765706 24.7189 0.842698 25.0101 0.989819 25.2672L1.96209 26.9698C2.11033 27.228 2.32403 27.4426 2.58163 27.5918C2.83924 27.7411 3.13165 27.8198 3.42938 27.82H34.9949C35.5654 27.8156 49.0524 27.5891 52.2847 18.2152C52.3822 17.9387 52.411 17.6428 52.3688 17.3527C52.3265 17.0626 52.2144 16.7872 52.042 16.5501V16.5501ZM51.0254 17.7796C48.1019 26.2613 35.1121 26.4877 34.9878 26.4877H3.42938C3.36629 26.4879 3.30429 26.4714 3.24968 26.4398C3.19508 26.4082 3.14985 26.3627 3.1186 26.3079L2.14633 24.6053C2.11425 24.5512 2.09733 24.4895 2.09733 24.4266C2.09733 24.3637 2.11425 24.302 2.14633 24.2479C2.17749 24.193 2.2227 24.1474 2.27733 24.1158C2.33195 24.0842 2.394 24.0678 2.4571 24.0681H10.8721C11.0488 24.0681 11.2181 23.9979 11.343 23.873C11.4679 23.7482 11.5381 23.5788 11.5381 23.4022C11.5381 23.2255 11.4679 23.0562 11.343 22.9313C11.2181 22.8064 11.0488 22.7362 10.8721 22.7362H3.94437L3.70907 22.0703L3.13858 20.4476L2.9055 19.7817H3.24735L26.8189 19.775C26.839 19.7746 26.859 19.7732 26.8789 19.7706C28.5282 19.6241 30.2352 19.4731 31.871 18.9004C32.4304 18.7051 32.9675 18.4653 33.4892 18.2323C33.9332 18.0325 34.3527 17.8438 34.7856 17.6817C36.355 17.0935 37.88 17.0957 39.6423 17.1024H50.5324C50.6156 17.1017 50.6977 17.1213 50.7716 17.1596C50.8455 17.1979 50.9089 17.2537 50.9563 17.3221C51.004 17.3871 51.0351 17.4627 51.0471 17.5424C51.0592 17.6221 51.0517 17.7035 51.0254 17.7796V17.7796Z" fill="white"/>
</svg>
