<svg width="23" height="21" viewBox="0 0 23 21" fill="none" xmlns="http://www.w3.org/2000/svg">
<path d="M19.921 4.71053C20.5315 4.71053 21.0263 4.92105 21.4157 5.33158C21.8157 5.76316 22.0263 6.23684 22.0263 6.81579V18.3947C22.0263 18.9737 21.8157 19.4474 21.4157 19.8789C21.0263 20.2895 20.5315 20.5 19.921 20.5H3.0789C2.46837 20.5 1.97363 20.2895 1.58416 19.8789C1.18416 19.4474 0.973633 18.9737 0.973633 18.3947V6.81579C0.973633 6.23684 1.18416 5.76316 1.58416 5.33158C1.97363 4.92105 2.46837 4.71053 3.0789 4.71053H7.28942V2.60526C7.28942 1.99474 7.49995 1.5 7.89995 1.11053C8.28942 0.710526 8.78416 0.5 9.39469 0.5H13.6052C14.2157 0.5 14.7105 0.710526 15.0999 1.11053C15.4999 1.5 15.7105 1.99474 15.7105 2.60526V4.71053H19.921ZM3.0789 6.81579V18.3947H19.921V6.81579H3.0789ZM13.6052 4.71053V2.60526H9.39469V4.71053H13.6052Z" fill="black"/>
</svg>
