<svg width="19" height="21" viewBox="0 0 19 21" fill="none" xmlns="http://www.w3.org/2000/svg">
<path d="M16.8 2.1H15.75V0H13.65V2.1H5.25V0H3.15V2.1H2.1C1.54305 2.1 1.0089 2.32125 0.615076 2.71508C0.221249 3.1089 0 3.64305 0 4.2V18.9C0 19.457 0.221249 19.9911 0.615076 20.3849C1.0089 20.7787 1.54305 21 2.1 21H16.8C17.357 21 17.8911 20.7787 18.2849 20.3849C18.6787 19.9911 18.9 19.457 18.9 18.9V4.2C18.9 3.64305 18.6787 3.1089 18.2849 2.71508C17.8911 2.32125 17.357 2.1 16.8 2.1ZM16.8 18.9H2.1V8.4H16.8V18.9ZM2.1 6.3V4.2H16.8V6.3H2.1ZM4.2 10.5H14.7V12.6H4.2V10.5ZM4.2 14.7H11.55V16.8H4.2V14.7Z" fill="#C4C4C4"/>
</svg>
