<svg width="34" height="28" viewBox="0 0 34 28" fill="none" xmlns="http://www.w3.org/2000/svg">
<g clip-path="url(#clip0_216_2127)">
<path d="M0.199924 7.65744C0.282286 7.5957 0.257066 7.49689 0.280699 7.41546C0.63572 6.18926 1.43377 5.44683 2.68489 5.22827C2.90217 5.1903 2.95914 5.12094 2.94785 4.92083C2.93533 4.70156 2.94009 4.48069 2.94767 4.26089C2.96637 3.72248 3.31292 3.33485 3.85066 3.32208C4.76881 3.30026 5.68819 3.29902 6.60635 3.32297C7.14108 3.33698 7.47847 3.7246 7.50033 4.27136C7.50862 4.47998 7.51727 4.69056 7.4998 4.89812C7.47688 5.17203 7.61303 5.18622 7.81726 5.12857C8.37351 4.97157 8.79097 4.64018 9.05287 4.12181C9.31512 3.60291 9.5712 3.08063 9.82446 2.55712C10.3938 1.38059 11.3304 0.800657 12.6272 0.80048C15.5365 0.80048 18.4457 0.798706 21.355 0.801189C22.6086 0.802254 23.5306 1.35894 24.1024 2.48775C24.3602 2.9969 24.6216 3.50427 24.8727 4.01661C25.2604 4.80747 25.8923 5.19297 26.7639 5.19279C28.0764 5.19261 29.3887 5.19013 30.7012 5.1935C32.5892 5.19829 33.7992 6.4158 33.7994 8.30851C33.7999 13.5563 33.7999 18.8038 33.7994 24.0516C33.7992 25.9602 32.5791 27.188 30.6828 27.188C22.5895 27.1884 14.4962 27.1882 6.40265 27.1875C6.27196 27.1875 6.13545 27.198 6.01165 27.1655C5.76068 27.0999 5.62065 26.9265 5.63987 26.6567C5.65892 26.3888 5.815 26.237 6.07637 26.2061C6.206 26.1907 6.33845 26.1985 6.46966 26.1985C14.5302 26.1983 22.5907 26.1983 30.6513 26.1981C32.053 26.1981 32.8147 25.4286 32.8149 24.0124C32.8151 18.7426 32.8158 13.473 32.8142 8.20331C32.8139 7.22405 32.2611 6.47984 31.3742 6.2423C31.1488 6.18198 30.9194 6.18411 30.6903 6.18376C29.3996 6.18216 28.1092 6.17897 26.8185 6.18411C25.509 6.18926 24.5595 5.61412 23.9759 4.4312C23.7283 3.92933 23.4759 3.42994 23.2237 2.93037C22.8405 2.17091 22.2228 1.79127 21.3774 1.7911C18.4462 1.79003 15.5152 1.78985 12.584 1.79127C11.7394 1.79163 11.1193 2.16648 10.7398 2.93055C10.4909 3.43171 10.2426 3.93323 9.99782 4.43652C9.42552 5.61305 8.48286 6.18376 7.18782 6.1834C5.88625 6.18287 4.58486 6.18074 3.2833 6.18411C1.95721 6.18748 1.18404 6.96628 1.18386 8.29449C1.18333 13.5532 1.18333 18.8118 1.18386 24.0705C1.18404 25.4133 1.96709 26.1974 3.30605 26.1985C3.55754 26.1987 3.80957 26.1914 4.06053 26.2036C4.33919 26.2173 4.50585 26.3725 4.53319 26.6546C4.55911 26.9232 4.3794 27.1666 4.09968 27.1762C3.46777 27.1974 2.82616 27.2569 2.2133 27.0427C1.18562 26.6837 0.537308 25.9643 0.268883 24.902C0.250541 24.8291 0.26465 24.7457 0.199219 24.6884C0.199924 19.0114 0.199924 13.3343 0.199924 7.65744ZM5.22012 4.30294C4.99067 4.30294 4.76105 4.30294 4.5316 4.30294C3.91679 4.30294 3.92861 4.30311 3.9235 4.90646C3.92156 5.14453 4.00374 5.2029 4.22543 5.19758C4.78239 5.18427 5.34005 5.19314 5.89736 5.19314C6.55538 5.19314 6.54744 5.1935 6.52363 4.53835C6.51658 4.34551 6.44691 4.29495 6.26931 4.3001C5.91976 4.31021 5.56985 4.30311 5.22012 4.30294Z" fill="#696969"/>
<path d="M17.002 7.42365C21.6199 7.42791 25.3648 11.2078 25.3502 15.8499C25.3355 20.4902 21.6044 24.2347 16.9965 24.2329C12.3765 24.2311 8.63437 20.456 8.64848 15.8113C8.66276 11.1752 12.4033 7.41939 17.002 7.42365ZM16.9875 8.41373C12.9013 8.43112 9.60896 11.7677 9.63294 15.8675C9.65693 19.9646 12.9583 23.2576 17.0274 23.2428C21.0945 23.2281 24.3832 19.8974 24.3659 15.8109C24.3484 11.7147 21.0388 8.39653 16.9875 8.41373Z" fill="#696969"/>
<path d="M4.11234 10.6479C3.22593 10.649 2.50372 9.92875 2.50196 9.04192C2.50037 8.15721 3.22399 7.42808 4.10652 7.42542C4.98975 7.42276 5.71178 8.14674 5.71284 9.03624C5.7139 9.92911 5.00139 10.6467 4.11234 10.6479ZM4.72714 9.04404C4.72979 8.69971 4.44937 8.4171 4.10652 8.41888C3.76666 8.42047 3.48148 8.71212 3.48836 9.05043C3.49524 9.38022 3.76543 9.64881 4.09646 9.65484C4.44425 9.66141 4.72432 9.39016 4.72714 9.04404Z" fill="#E68A00"/>
<path d="M16.9669 4.30277C16.2127 4.30277 15.4586 4.30472 14.7044 4.30206C14.2951 4.30064 14.0646 4.11561 14.0704 3.80303C14.0759 3.50358 14.3069 3.31447 14.6884 3.31394C16.2295 3.31145 17.7705 3.31145 19.3118 3.31394C19.6929 3.31447 19.9241 3.50393 19.9294 3.80356C19.9349 4.10852 19.7109 4.29993 19.3278 4.30171C18.5407 4.30526 17.7538 4.3026 16.9669 4.30277Z" fill="#696969"/>
<path d="M30.1441 7.92073C30.275 7.92073 30.4071 7.90849 30.5364 7.92321C30.8113 7.95461 30.9748 8.11303 30.984 8.39635C30.9933 8.68268 30.8307 8.86381 30.5628 8.89361C30.272 8.9259 29.9729 8.92395 29.6813 8.89592C29.4108 8.87002 29.2528 8.68942 29.2462 8.40717C29.2401 8.13893 29.4321 7.9429 29.7189 7.92144C29.8598 7.91079 30.0023 7.91966 30.1439 7.91966C30.1441 7.91984 30.1441 7.9202 30.1441 7.92073Z" fill="#E68A00"/>
<path d="M23.0463 15.8462C23.0407 19.0256 20.5761 21.6921 17.4452 21.907C14.2641 22.1253 11.4753 19.87 11.0135 16.7062C10.6453 14.1818 11.8821 11.6999 14.117 10.4789C16.3304 9.26953 19.0813 9.5736 20.9737 11.2369C20.9984 11.2586 21.0224 11.2811 21.0465 11.3034C21.3678 11.6002 21.4209 11.8867 21.1984 12.1241C20.9841 12.3528 20.7146 12.3267 20.3963 12.0466C17.6358 9.61689 13.3897 10.715 12.2091 14.1641C11.244 16.9832 12.8837 20.0432 15.7522 20.7769C18.6354 21.5144 21.5278 19.5952 22.0008 16.6292C22.1497 15.6959 22.049 14.7883 21.6955 13.9123C21.6088 13.6971 21.559 13.4944 21.7179 13.2928C21.9633 12.9819 22.407 13.0682 22.5775 13.4711C22.8987 14.2288 23.0592 15.0207 23.0463 15.8462Z" fill="#E68A00"/>
</g>
<defs>
<clipPath id="clip0_216_2127">
<rect width="33.6" height="26.4" fill="white" transform="translate(0.199219 0.799988)"/>
</clipPath>
</defs>
</svg>
