<svg width="34" height="28" viewBox="0 0 34 28" fill="none" xmlns="http://www.w3.org/2000/svg">
<g clip-path="url(#clip0_204_546)">
<path d="M0.199924 7.65747C0.282286 7.59574 0.257066 7.49692 0.280699 7.41549C0.63572 6.18929 1.43377 5.44686 2.68489 5.2283C2.90217 5.19033 2.95914 5.12097 2.94785 4.92086C2.93533 4.70159 2.94009 4.48072 2.94767 4.26092C2.96637 3.72251 3.31292 3.33488 3.85066 3.32211C4.76881 3.30029 5.68819 3.29905 6.60635 3.323C7.14108 3.33701 7.47847 3.72464 7.50033 4.27139C7.50862 4.48002 7.51727 4.69059 7.4998 4.89815C7.47688 5.17206 7.61303 5.18625 7.81726 5.1286C8.37351 4.9716 8.79097 4.64021 9.05287 4.12184C9.31512 3.60294 9.5712 3.08066 9.82446 2.55715C10.3938 1.38062 11.3304 0.800687 12.6272 0.80051C15.5365 0.80051 18.4457 0.798736 21.355 0.80122C22.6086 0.802284 23.5306 1.35897 24.1024 2.48779C24.3602 2.99693 24.6216 3.5043 24.8727 4.01664C25.2604 4.8075 25.8923 5.193 26.7639 5.19282C28.0764 5.19264 29.3887 5.19016 30.7012 5.19353C32.5892 5.19832 33.7992 6.41583 33.7994 8.30854C33.7999 13.5563 33.7999 18.8038 33.7994 24.0516C33.7992 25.9603 32.5791 27.1881 30.6828 27.1881C22.5895 27.1884 14.4962 27.1882 6.40265 27.1875C6.27196 27.1875 6.13545 27.198 6.01165 27.1655C5.76068 27.0999 5.62065 26.9266 5.63987 26.6567C5.65892 26.3889 5.815 26.237 6.07637 26.2061C6.206 26.1907 6.33845 26.1985 6.46966 26.1985C14.5302 26.1983 22.5907 26.1983 30.6513 26.1982C32.053 26.1982 32.8147 25.4286 32.8149 24.0124C32.8151 18.7426 32.8158 13.4731 32.8142 8.20334C32.8139 7.22408 32.2611 6.47987 31.3742 6.24233C31.1488 6.18201 30.9194 6.18414 30.6903 6.18379C29.3996 6.18219 28.1092 6.179 26.8185 6.18414C25.509 6.18929 24.5595 5.61415 23.9759 4.43123C23.7283 3.92936 23.4759 3.42997 23.2237 2.9304C22.8405 2.17094 22.2228 1.7913 21.3774 1.79113C18.4462 1.79006 15.5152 1.78988 12.584 1.7913C11.7394 1.79166 11.1193 2.16651 10.7398 2.93058C10.4909 3.43174 10.2426 3.93326 9.99782 4.43655C9.42552 5.61309 8.48286 6.18379 7.18782 6.18343C5.88625 6.1829 4.58486 6.18077 3.2833 6.18414C1.95721 6.18751 1.18404 6.96631 1.18386 8.29452C1.18333 13.5533 1.18333 18.8118 1.18386 24.0706C1.18404 25.4133 1.96709 26.1975 3.30605 26.1985C3.55754 26.1987 3.80957 26.1914 4.06053 26.2037C4.33919 26.2173 4.50585 26.3725 4.53319 26.6546C4.55911 26.9232 4.3794 27.1666 4.09968 27.1762C3.46777 27.1975 2.82616 27.2569 2.2133 27.0428C1.18562 26.6837 0.537308 25.9643 0.268883 24.9021C0.250541 24.8291 0.26465 24.7458 0.199219 24.6885C0.199924 19.0114 0.199924 13.3344 0.199924 7.65747ZM5.22012 4.30297C4.99067 4.30297 4.76105 4.30297 4.5316 4.30297C3.91679 4.30297 3.92861 4.30314 3.9235 4.90649C3.92156 5.14457 4.00374 5.20293 4.22543 5.19761C4.78239 5.1843 5.34005 5.19317 5.89736 5.19317C6.55538 5.19317 6.54744 5.19353 6.52363 4.53838C6.51658 4.34554 6.44691 4.29498 6.26931 4.30013C5.91976 4.31024 5.56985 4.30315 5.22012 4.30297Z" fill="white"/>
<path d="M17.0029 7.42368C21.6209 7.42794 25.3658 11.2079 25.3511 15.85C25.3365 20.4903 21.6053 24.2347 16.9975 24.2329C12.3774 24.2312 8.63534 20.456 8.64945 15.8113C8.66374 11.1752 12.4042 7.41942 17.0029 7.42368ZM16.9885 8.41376C12.9023 8.43115 9.60993 11.7677 9.63392 15.8675C9.6579 19.9646 12.9593 23.2576 17.0283 23.2429C21.0955 23.2281 24.3841 19.8974 24.3668 15.8109C24.3494 11.7147 21.0397 8.39656 16.9885 8.41376Z" fill="white"/>
<path d="M4.11234 10.648C3.22593 10.649 2.50372 9.92878 2.50196 9.04195C2.50037 8.15724 3.22399 7.42811 4.10652 7.42545C4.98975 7.42279 5.71178 8.14677 5.71284 9.03627C5.7139 9.92914 5.00139 10.6467 4.11234 10.648ZM4.72714 9.04408C4.72979 8.69974 4.44937 8.41713 4.10652 8.41891C3.76666 8.4205 3.48148 8.71216 3.48836 9.05046C3.49524 9.38025 3.76543 9.64884 4.09646 9.65487C4.44425 9.66144 4.72432 9.39019 4.72714 9.04408Z" fill="#E68A00"/>
<path d="M16.9669 4.30282C16.2127 4.30282 15.4586 4.30477 14.7044 4.30211C14.2951 4.30069 14.0646 4.11566 14.0704 3.80308C14.0759 3.50362 14.3069 3.31451 14.6884 3.31398C16.2295 3.3115 17.7705 3.3115 19.3118 3.31398C19.6929 3.31451 19.9241 3.50398 19.9294 3.80361C19.9349 4.10856 19.7109 4.29998 19.3278 4.30175C18.5407 4.3053 17.7538 4.30264 16.9669 4.30282Z" fill="white"/>
<path d="M30.1441 7.92076C30.275 7.92076 30.4071 7.90852 30.5364 7.92324C30.8113 7.95464 30.9748 8.11306 30.984 8.39638C30.9933 8.68271 30.8307 8.86384 30.5628 8.89364C30.272 8.92593 29.9729 8.92398 29.6813 8.89595C29.4108 8.87005 29.2528 8.68945 29.2462 8.4072C29.2401 8.13897 29.4321 7.94293 29.7189 7.92147C29.8598 7.91082 30.0023 7.91969 30.1439 7.91969C30.1441 7.91987 30.1441 7.92023 30.1441 7.92076Z" fill="#E68A00"/>
<path d="M23.0463 15.8462C23.0407 19.0256 20.5761 21.6922 17.4452 21.907C14.2641 22.1254 11.4753 19.8701 11.0135 16.7063C10.6453 14.1818 11.8821 11.7 14.117 10.4789C16.3304 9.26956 19.0813 9.57363 20.9737 11.237C20.9984 11.2586 21.0224 11.2811 21.0465 11.3035C21.3678 11.6003 21.4209 11.8868 21.1984 12.1241C20.9841 12.3528 20.7146 12.3267 20.3963 12.0466C17.6358 9.61692 13.3897 10.715 12.2091 14.1641C11.244 16.9832 12.8837 20.0432 15.7522 20.7769C18.6354 21.5144 21.5278 19.5953 22.0008 16.6293C22.1497 15.696 22.049 14.7884 21.6955 13.9124C21.6088 13.6972 21.559 13.4944 21.7179 13.2929C21.9633 12.9819 22.407 13.0683 22.5775 13.4712C22.8987 14.2288 23.0592 15.0208 23.0463 15.8462Z" fill="#E68A00"/>
</g>
<defs>
<clipPath id="clip0_204_546">
<rect width="33.6" height="26.4" fill="white" transform="translate(0.200195 0.800003)"/>
</clipPath>
</defs>
</svg>
