<svg width="31" height="32" viewBox="0 0 31 32" fill="none" xmlns="http://www.w3.org/2000/svg">
<rect x="0.5" y="0.5" width="30" height="31" rx="15" fill="#FCFCFC" stroke="#F4F4F4"/>
<path d="M6.41974 17.32C5.09974 16.22 5.97974 14.02 7.73974 14.02C9.49974 14.02 10.3797 16.22 9.05974 17.32C8.39974 18.2 7.07974 18.2 6.41974 17.32Z" fill="black"/>
<path d="M13.8997 17.32C12.7997 16.22 13.6797 14.02 15.2197 14.02C16.9797 14.02 17.8597 16.22 16.7597 17.32C15.8797 18.2 14.7797 18.2 13.8997 17.32Z" fill="black"/>
<path d="M20.9393 17.32C19.6193 16.22 20.4993 14.02 22.2593 14.02C24.0193 14.02 24.8993 16.22 23.5793 17.32C22.9193 18.2 21.5993 18.2 20.9393 17.32Z" fill="black"/>
</svg>
