<svg width="22" height="23" viewBox="0 0 22 23" fill="none" xmlns="http://www.w3.org/2000/svg">
<path d="M6.44375 17.6847C5.23708 17.6847 4.25 18.6852 4.25 19.9084C4.25 21.1315 5.23708 22.1321 6.44375 22.1321C7.65042 22.1321 8.63755 21.1315 8.63755 19.9084C8.6375 18.6852 7.65037 17.6847 6.44375 17.6847ZM0.03125 0.237305V2.46099H2.225L6.17391 10.569L4.5229 13.2927C4.35847 13.5706 4.24868 13.9599 4.24868 14.3492C4.24868 15.8379 5.25195 16.5729 6.6125 16.5729H19.4375V14.4347H6.88108C6.71665 14.4347 6.60686 14.3234 6.60686 14.1568C6.60686 14.1014 6.72324 13.8788 6.72324 13.8788L7.81917 12.1255H15.9906C16.8133 12.1255 17.5266 11.6809 17.9101 10.9583L21.859 4.07343C21.9242 3.94188 21.9688 3.73955 21.9688 3.51756C21.9688 2.90573 21.4749 2.46104 20.8719 2.46104H4.63834L3.59609 0.237305H0.03125ZM17.2437 17.6847C16.037 17.6847 15.0499 18.6852 15.0499 19.9084C15.0499 21.1315 16.037 22.1321 17.2437 22.1321C18.4504 22.1321 19.4375 21.1315 19.4375 19.9084C19.4375 18.6852 18.4504 17.6847 17.2437 17.6847Z" fill="white"/>
</svg>
