<svg width="25" height="24" viewBox="0 0 25 24" fill="none" xmlns="http://www.w3.org/2000/svg">
<path d="M19.2562 19.2C17.9242 19.2 16.8562 20.268 16.8562 21.6C16.8562 22.2365 17.109 22.847 17.5591 23.2971C18.0092 23.7471 18.6196 24 19.2562 24C19.8927 24 20.5031 23.7471 20.9532 23.2971C21.4033 22.847 21.6562 22.2365 21.6562 21.6C21.6562 20.268 20.5762 19.2 19.2562 19.2ZM0.0561523 0V2.4H2.45615L6.77615 11.508L5.14415 14.448C4.96415 14.784 4.85615 15.18 4.85615 15.6C4.85615 16.2365 5.10901 16.847 5.5591 17.2971C6.00918 17.7471 6.61963 18 7.25615 18H21.6562V15.6H7.76015C7.68059 15.6 7.60428 15.5684 7.54802 15.5121C7.49176 15.4559 7.46015 15.3796 7.46015 15.3C7.46015 15.24 7.47215 15.192 7.49615 15.156L8.57615 13.2H17.5162C18.4162 13.2 19.2082 12.696 19.6162 11.964L23.9122 4.2C23.9962 4.008 24.0562 3.804 24.0562 3.6C24.0562 3.28174 23.9297 2.97652 23.7047 2.75147C23.4796 2.52643 23.1744 2.4 22.8562 2.4H5.10815L3.98015 0H0.0561523ZM7.25615 19.2C5.92415 19.2 4.85615 20.268 4.85615 21.6C4.85615 22.2365 5.10901 22.847 5.5591 23.2971C6.00918 23.7471 6.61963 24 7.25615 24C7.89267 24 8.50312 23.7471 8.95321 23.2971C9.4033 22.847 9.65615 22.2365 9.65615 21.6C9.65615 20.268 8.57615 19.2 7.25615 19.2Z" fill="#696969"/>
</svg>
