<svg width="24" height="24" viewBox="0 0 24 24" fill="none" xmlns="http://www.w3.org/2000/svg">
<path d="M-9.53674e-07 12C-9.53674e-07 8.8174 1.26428 5.76515 3.51472 3.51472C5.76515 1.26428 8.8174 -9.53674e-07 12 -9.53674e-07C13.5759 -9.53674e-07 15.1363 0.310387 16.5922 0.913444C18.0481 1.5165 19.371 2.40041 20.4853 3.51472C22.7357 5.76515 24 8.8174 24 12C24 15.1826 22.7357 18.2348 20.4853 20.4853C18.2348 22.7357 15.1826 24 12 24C10.4241 24 8.8637 23.6896 7.4078 23.0866C5.95189 22.4835 4.62902 21.5996 3.51472 20.4853C2.40041 19.371 1.5165 18.0481 0.913444 16.5922C0.310387 15.1363 -9.53674e-07 13.5759 -9.53674e-07 12ZM2.4 12C2.4 14.5461 3.41142 16.9879 5.21177 18.7882C7.01212 20.5886 9.45392 21.6 12 21.6C14.5461 21.6 16.9879 20.5886 18.7882 18.7882C20.5886 16.9879 21.6 14.5461 21.6 12C21.6 9.45392 20.5886 7.01212 18.7882 5.21177C16.9879 3.41142 14.5461 2.4 12 2.4C9.45392 2.4 7.01212 3.41142 5.21177 5.21177C3.41142 7.01212 2.4 9.45392 2.4 12ZM19.2 14.4L12 7.2L4.8 14.4L6.48 16.08L12 10.56L17.52 16.08L19.2 14.4Z" fill="#E68A00"/>
</svg>
