<svg width="19" height="18" viewBox="0 0 19 18" fill="none" xmlns="http://www.w3.org/2000/svg">
<path d="M9.56165 0C4.72101 0 0.808228 4.023 0.808228 9C0.808228 13.977 4.72101 18 9.56165 18C14.4023 18 18.3151 13.977 18.3151 9C18.3151 4.023 14.4023 0 9.56165 0ZM9.56165 16.2C5.70139 16.2 2.55891 12.969 2.55891 9C2.55891 5.031 5.70139 1.8 9.56165 1.8C13.4219 1.8 16.5644 5.031 16.5644 9C16.5644 12.969 13.4219 16.2 9.56165 16.2ZM12.7041 4.5L9.56165 7.731L6.41917 4.5L5.18494 5.769L8.32742 9L5.18494 12.231L6.41917 13.5L9.56165 10.269L12.7041 13.5L13.9384 12.231L10.7959 9L13.9384 5.769L12.7041 4.5Z" fill="#FF3232"/>
</svg>
