<svg width="17" height="21" viewBox="0 0 17 21" fill="none" xmlns="http://www.w3.org/2000/svg">
<path d="M2.5 0.5C1.96957 0.5 1.46086 0.710714 1.08579 1.08579C0.710714 1.46086 0.5 1.96957 0.5 2.5V18.5C0.5 19.0304 0.710714 19.5391 1.08579 19.9142C1.46086 20.2893 1.96957 20.5 2.5 20.5H14.5C15.0304 20.5 15.5391 20.2893 15.9142 19.9142C16.2893 19.5391 16.5 19.0304 16.5 18.5V6.5L10.5 0.5H2.5ZM2.5 2.5H9.5V7.5H14.5V18.5H2.5V2.5ZM4.5 10.5V12.5H12.5V10.5H4.5ZM4.5 14.5V16.5H9.5V14.5H4.5Z" fill="black"/>
</svg>
