<svg width="62" height="66" viewBox="0 0 62 66" fill="none" xmlns="http://www.w3.org/2000/svg">
<g filter="url(#filter0_d_2322_145)">
<path d="M28.9553 0C12.9565 0 0 12.9541 0 28.9499C0 43.078 10.1277 54.8314 23.5245 57.3796C25.2858 57.7131 27.1005 57.8999 28.9553 57.8999C43.7398 57.8999 55.9224 46.8269 57.6837 32.512C57.8305 31.338 57.9105 30.1506 57.9105 28.9499C57.8972 12.9541 44.9407 0 28.9553 0ZM35.1733 27.7359C36.8146 27.7359 38.4558 27.7359 40.097 27.7359C40.2171 27.7359 40.3506 27.7359 40.4707 27.7359C40.484 27.7092 40.4973 27.6692 40.524 27.6425C40.1237 27.2423 39.7101 26.8554 39.3098 26.4552C38.7627 25.9082 38.7227 25.1744 39.2164 24.6675C39.7101 24.1605 40.4707 24.1872 41.0311 24.7475C42.1252 25.8281 43.2061 26.9221 44.3002 28.0161C44.8873 28.6031 44.8873 29.2835 44.3002 29.8838C43.2194 30.9778 42.1252 32.0584 41.0311 33.1523C40.484 33.686 39.7368 33.726 39.2431 33.2457C38.736 32.7521 38.7627 31.9917 39.3365 31.4314C39.7368 31.0311 40.1504 30.6442 40.5641 30.244C40.3906 30.1239 40.2705 30.164 40.1504 30.164C38.4958 30.164 36.8412 30.164 35.2 30.164C34.3994 30.164 33.839 29.6703 33.839 28.9633C33.7989 28.2295 34.346 27.7359 35.1733 27.7359ZM28.9286 31.378C27.6076 31.3647 26.5268 30.284 26.5268 28.9633C26.5268 27.6292 27.6076 26.5352 28.9553 26.5352C30.2896 26.5352 31.3838 27.6292 31.3704 28.9633C31.3704 30.2974 30.2763 31.378 28.9286 31.378ZM24.632 17.0364C25.7929 15.8491 26.9538 14.6884 28.1413 13.5278C28.6083 13.0742 29.3155 13.0875 29.7826 13.5411C30.9568 14.6884 32.1177 15.8491 33.2652 17.0231C33.7189 17.49 33.6922 18.2505 33.2385 18.6907C32.7848 19.131 32.0376 19.1577 31.5572 18.7174C31.1036 18.2905 30.6899 17.8369 30.2629 17.3966C30.2229 17.41 30.1962 17.4233 30.1562 17.4367C30.1562 17.5567 30.1562 17.6768 30.1562 17.7969C30.1562 19.4512 30.1562 21.1054 30.1562 22.7597C30.1562 23.5602 29.6625 24.1072 28.9419 24.1072C28.2347 24.1072 27.741 23.5602 27.7277 22.7464C27.7277 20.9854 27.7277 19.211 27.7277 17.45C27.5809 17.41 27.5409 17.5301 27.4741 17.5968C27.0872 17.9703 26.7136 18.3705 26.3133 18.7441C25.8196 19.1843 25.0857 19.1577 24.6453 18.6907C24.2183 18.2238 24.1917 17.49 24.632 17.0364ZM22.7506 30.164C20.9892 30.164 19.2279 30.164 17.3465 30.164C17.8268 30.6442 18.2271 31.0578 18.6408 31.458C18.881 31.6982 19.0411 31.9783 19.0411 32.3252C19.0544 32.8455 18.8276 33.2324 18.3606 33.4592C17.8936 33.6726 17.4132 33.646 17.0529 33.2858C15.852 32.1117 14.6644 30.9244 13.4902 29.7237C13.0499 29.2701 13.0632 28.6031 13.5036 28.1495C14.6644 26.9621 15.8387 25.7748 17.0396 24.6141C17.4933 24.1605 18.2405 24.2139 18.6808 24.6541C19.1345 25.1077 19.1745 25.8415 18.7208 26.3218C18.2939 26.7754 17.8135 27.1889 17.3331 27.6292C17.5333 27.7492 17.6667 27.7226 17.7868 27.7226C19.4414 27.7226 21.096 27.7226 22.7506 27.7226C23.5512 27.7226 24.0983 28.2295 24.0983 28.9366C24.0983 29.6703 23.5512 30.164 22.7506 30.164ZM33.2652 40.8901C32.7181 41.4504 32.1577 41.9974 31.6106 42.5577C31.0368 43.1314 30.4764 43.7051 29.8893 44.2654C29.3022 44.8524 28.6083 44.839 28.0212 44.252C27.8077 44.0386 27.5942 43.8251 27.3807 43.6117C26.5001 42.7312 25.6194 41.864 24.7521 40.9835C24.205 40.4365 24.1783 39.6894 24.672 39.1958C25.1657 38.7022 25.913 38.7289 26.46 39.2625C26.8604 39.6627 27.2607 40.0763 27.6476 40.4765C27.6743 40.4632 27.7143 40.4499 27.741 40.4365C27.741 40.2898 27.741 40.143 27.741 39.9963C27.741 38.3687 27.741 36.7411 27.741 35.1135C27.741 34.313 28.2481 33.766 28.9686 33.7794C29.6625 33.7927 30.1562 34.3397 30.1562 35.1135C30.1562 36.7678 30.1562 38.422 30.1562 40.063C30.1562 40.183 30.1562 40.3165 30.1562 40.5432C30.6365 40.063 31.0502 39.6627 31.4505 39.2492C31.6773 39.0224 31.9442 38.8623 32.2778 38.8356C32.8115 38.8089 33.2118 39.0224 33.452 39.5027C33.7055 39.9562 33.6255 40.5166 33.2652 40.8901Z" fill="#E68A00"/>
</g>
<path d="M22.7637 27.7351C21.1091 27.7351 19.4545 27.7351 17.7999 27.7351C17.6798 27.7351 17.5597 27.7751 17.3463 27.6417C17.8266 27.1881 18.2936 26.7745 18.734 26.3343C19.1876 25.854 19.161 25.1069 18.6939 24.6667C18.2403 24.2264 17.5064 24.173 17.0527 24.6266C15.8651 25.7873 14.6909 26.9747 13.5167 28.162C13.0764 28.6156 13.063 29.296 13.5033 29.7362C14.6776 30.9369 15.8651 32.1243 17.066 33.2983C17.4263 33.6585 17.9067 33.6852 18.3737 33.4717C18.8407 33.2449 19.0542 32.858 19.0542 32.3377C19.0409 31.9909 18.8941 31.7107 18.6539 31.4706C18.2403 31.057 17.8266 30.6434 17.3596 30.1765C19.2277 30.1765 20.989 30.1765 22.7637 30.1765C23.5643 30.1765 24.1247 29.6829 24.1247 28.9758C24.1114 28.242 23.5643 27.7351 22.7637 27.7351Z" fill="white"/>
<path d="M32.291 38.8612C31.9575 38.8745 31.6906 39.0346 31.4637 39.2747C31.0501 39.6883 30.6365 40.1019 30.1694 40.5688C30.1694 40.342 30.1694 40.2086 30.1694 40.0885C30.1694 38.4342 30.1694 36.78 30.1694 35.139C30.1694 34.3652 29.6757 33.8183 28.9819 33.8049C28.2613 33.7916 27.7543 34.3386 27.7543 35.139C27.7543 36.7666 27.7543 38.3942 27.7543 40.0218C27.7543 40.1686 27.7543 40.3153 27.7543 40.4621C27.7276 40.4754 27.6876 40.4888 27.6609 40.5021C27.2606 40.1019 26.8736 39.6883 26.4733 39.2881C25.9262 38.7411 25.179 38.7277 24.6853 39.2214C24.1916 39.715 24.2183 40.4621 24.7653 41.0091C25.646 41.8896 26.5133 42.7701 27.394 43.6372C27.6075 43.8507 27.821 44.0641 28.0345 44.2776C28.6216 44.8646 29.3155 44.8646 29.9026 44.2909C30.4763 43.7306 31.0501 43.157 31.6239 42.5833C32.171 42.0363 32.7314 41.4893 33.2785 40.9157C33.6387 40.5421 33.7188 39.9818 33.492 39.5415C33.2251 39.0479 32.8248 38.8345 32.291 38.8612Z" fill="white"/>
<path d="M29.7825 13.5403C29.3155 13.0867 28.6083 13.0734 28.1413 13.527C26.9537 14.6743 25.7928 15.8483 24.6319 17.0356C24.1783 17.4892 24.2183 18.223 24.6586 18.6766C25.1123 19.1435 25.8462 19.1835 26.3266 18.7299C26.7269 18.3697 27.1005 17.9695 27.4874 17.5826C27.5542 17.5159 27.5942 17.3958 27.741 17.4359C27.741 19.1969 27.741 20.9712 27.741 22.7322C27.741 23.5327 28.2347 24.093 28.9552 24.093C29.6758 24.093 30.1695 23.546 30.1695 22.7456C30.1695 21.0913 30.1695 19.437 30.1695 17.7827C30.1695 17.6627 30.1695 17.5426 30.1695 17.4225C30.2095 17.4092 30.2362 17.3958 30.2762 17.3825C30.7032 17.8228 31.1169 18.2763 31.5705 18.7033C32.0376 19.1569 32.7981 19.1302 33.2518 18.6766C33.7055 18.223 33.7322 17.4759 33.2785 17.009C32.1176 15.8483 30.9567 14.6876 29.7825 13.5403Z" fill="white"/>
<path d="M44.273 28.0145C43.1922 26.9205 42.098 25.8399 41.0039 24.7459C40.4434 24.1856 39.6829 24.1589 39.1892 24.6659C38.7088 25.1595 38.7355 25.8933 39.2826 26.4536C39.6829 26.8538 40.0965 27.2407 40.4968 27.6409C40.4835 27.6676 40.4701 27.7076 40.4434 27.7343C40.3233 27.7343 40.1899 27.7343 40.0698 27.7343C38.4286 27.7343 36.7873 27.7343 35.1461 27.7343C34.3188 27.7343 33.7584 28.2279 33.7717 28.9617C33.7717 29.6688 34.3321 30.1624 35.1327 30.1624C36.7873 30.1624 38.4419 30.1624 40.0832 30.1624C40.2033 30.1624 40.3234 30.1224 40.4968 30.2424C40.0832 30.6427 39.6695 31.0295 39.2692 31.4298C38.7088 31.9901 38.6688 32.7372 39.1758 33.2442C39.6695 33.7244 40.4168 33.6977 40.9638 33.1508C42.058 32.0701 43.1388 30.9762 44.233 29.8822C44.8601 29.2819 44.8601 28.6148 44.273 28.0145Z" fill="white"/>
<path d="M31.37 28.9632C31.37 27.6291 30.2892 26.5352 28.9549 26.5352C27.6205 26.5352 26.5264 27.6291 26.5264 28.9632C26.5264 30.284 27.6072 31.3646 28.9282 31.3779C30.2759 31.3779 31.37 30.2973 31.37 28.9632Z" fill="white"/>
<defs>
<filter id="filter0_d_2322_145" x="-4" y="0" width="65.9102" height="65.9004" filterUnits="userSpaceOnUse" color-interpolation-filters="sRGB">
<feFlood flood-opacity="0" result="BackgroundImageFix"/>
<feColorMatrix in="SourceAlpha" type="matrix" values="0 0 0 0 0 0 0 0 0 0 0 0 0 0 0 0 0 0 127 0" result="hardAlpha"/>
<feOffset dy="4"/>
<feGaussianBlur stdDeviation="2"/>
<feComposite in2="hardAlpha" operator="out"/>
<feColorMatrix type="matrix" values="0 0 0 0 0 0 0 0 0 0 0 0 0 0 0 0 0 0 0.25 0"/>
<feBlend mode="normal" in2="BackgroundImageFix" result="effect1_dropShadow_2322_145"/>
<feBlend mode="normal" in="SourceGraphic" in2="effect1_dropShadow_2322_145" result="shape"/>
</filter>
</defs>
</svg>
