<svg width="18" height="18" viewBox="0 0 18 18" fill="none" xmlns="http://www.w3.org/2000/svg">
<path d="M6.63158 17.0526H1.89474C0.843158 17.0526 0 16.2095 0 15.1579V1.89474C0 0.843158 0.843158 0 1.89474 0H15.1579C16.2095 0 17.0526 0.843158 17.0526 1.89474V6.94421C16.7684 6.83053 16.4558 6.76421 16.1432 6.76421C15.7926 6.76421 15.4611 6.84 15.1579 6.98211V1.89474H1.89474V15.1579H6.73579L6.63158 15.2621V17.0526ZM3.78947 5.68421H13.2632V3.78947H3.78947V5.68421ZM3.78947 13.2632H8.63053L10.4211 11.4821V11.3684H3.78947V13.2632ZM3.78947 9.47368H12.4295L13.2632 8.64V7.57895H3.78947V9.47368ZM17.7158 10.0232L16.5032 8.81053C16.3042 8.61158 15.9726 8.61158 15.7737 8.81053L14.8263 9.7579L16.7684 11.7L17.7158 10.7526C17.9147 10.5537 17.9147 10.2221 17.7158 10.0232ZM8.52632 18H10.4779L16.2095 12.2495L14.2674 10.3074L8.52632 16.0484V18Z" fill="#238F23"/>
</svg>
