<svg width="24" height="24" viewBox="0 0 24 24" fill="none" xmlns="http://www.w3.org/2000/svg">
<path d="M8.8421 22.7368H2.52632C1.12421 22.7368 0 21.6126 0 20.2105V2.52632C0 1.12421 1.12421 0 2.52632 0H20.2105C21.6126 0 22.7368 1.12421 22.7368 2.52632V9.25895C22.3579 9.10737 21.9411 9.01895 21.5242 9.01895C21.0568 9.01895 20.6147 9.12 20.2105 9.30947V2.52632H2.52632V20.2105H8.98105L8.8421 20.3495V22.7368ZM5.05263 7.57895H17.6842V5.05263H5.05263V7.57895ZM5.05263 17.6842H11.5074L13.8947 15.3095V15.1579H5.05263V17.6842ZM5.05263 12.6316H16.5726L17.6842 11.52V10.1053H5.05263V12.6316ZM23.6211 13.3642L22.0042 11.7474C21.7389 11.4821 21.2968 11.4821 21.0316 11.7474L19.7684 13.0105L22.3579 15.6L23.6211 14.3368C23.8863 14.0716 23.8863 13.6295 23.6211 13.3642ZM11.3684 24H13.9705L21.6126 16.3326L19.0232 13.7432L11.3684 21.3979V24Z" fill="#00B4DC"/>
</svg>
