<svg width="58" height="50" viewBox="0 0 58 50" fill="none" xmlns="http://www.w3.org/2000/svg">
<rect x="0.5" y="0.5" width="57" height="49" rx="9.5" fill="#FBFBFB" stroke="#E6E6E6"/>
<path d="M45.0542 11.7773H29.9434V38.2214H45.0542C45.5765 38.2214 45.9987 37.7992 45.9987 37.2769V12.7218C45.9987 12.1995 45.5765 11.7773 45.0542 11.7773Z" fill="#4CAF50"/>
<path d="M36.5544 16.5H43.1654V19.3333H36.5544V16.5ZM36.5544 25.9443H43.1654V28.7776H36.5544V25.9443ZM36.5544 30.6664H43.1654V33.4997H36.5544V30.6664ZM36.5544 21.2221H43.1654V24.0554H36.5544V21.2221ZM29.9434 16.5H34.6655V19.3333H29.9434V16.5ZM29.9434 25.9443H34.6655V28.7776H29.9434V25.9443ZM29.9434 30.6664H34.6655V33.4997H29.9434V30.6664ZM29.9434 21.2221H34.6655V24.0554H29.9434V21.2221Z" fill="white"/>
<path d="M31.833 41.9994L12 38.2217V11.7777L31.833 8V41.9994Z" fill="#2E7D32"/>
<path d="M24.3986 31.6107L22.1216 27.3031C22.0347 27.1416 21.9459 26.847 21.8534 26.4173H21.8184C21.775 26.6203 21.673 26.9282 21.5124 27.3419L19.226 31.6107H15.6777L19.8918 24.9987L16.0357 18.3887H19.6594L21.5492 22.3515C21.6966 22.6641 21.8288 23.0362 21.9459 23.465H21.9837C22.0574 23.209 22.1952 22.8228 22.3983 22.3128L24.5006 18.3887H27.8203L23.8546 24.9421L27.9308 31.6088H24.3986V31.6107V31.6107Z" fill="white"/>
</svg>
