<svg width="34" height="34" viewBox="0 0 34 34" fill="none" xmlns="http://www.w3.org/2000/svg">
<path d="M33.0542 3.77734H17.9434V30.2214H33.0542C33.5765 30.2214 33.9987 29.7992 33.9987 29.2769V4.72177C33.9987 4.1995 33.5765 3.77734 33.0542 3.77734Z" fill="#4CAF50"/>
<path d="M24.5544 8.5H31.1654V11.3333H24.5544V8.5ZM24.5544 17.9443H31.1654V20.7776H24.5544V17.9443ZM24.5544 22.6664H31.1654V25.4997H24.5544V22.6664ZM24.5544 13.2221H31.1654V16.0554H24.5544V13.2221ZM17.9434 8.5H22.6655V11.3333H17.9434V8.5ZM17.9434 17.9443H22.6655V20.7776H17.9434V17.9443ZM17.9434 22.6664H22.6655V25.4997H17.9434V22.6664ZM17.9434 13.2221H22.6655V16.0554H17.9434V13.2221Z" fill="white"/>
<path d="M19.833 33.9994L0 30.2217V3.77772L19.833 0V33.9994Z" fill="#2E7D32"/>
<path d="M12.3986 23.6107L10.1216 19.3031C10.0347 19.1416 9.94591 18.847 9.85336 18.4173H9.81841C9.77497 18.6203 9.67297 18.9282 9.51242 19.3419L7.22595 23.6107H3.67773L7.89178 16.9987L4.03567 10.3887H7.65945L9.54925 14.3515C9.69658 14.6641 9.8288 15.0362 9.94591 15.465H9.98369C10.0574 15.209 10.1952 14.8228 10.3983 14.3128L12.5006 10.3887H15.8203L11.8546 16.9421L15.9308 23.6088H12.3986V23.6107Z" fill="white"/>
</svg>
