<svg width="23" height="23" viewBox="0 0 23 23" fill="none" xmlns="http://www.w3.org/2000/svg">
<path d="M22.9995 11.5126C22.9995 14.2374 23.0003 16.9629 22.9995 19.6877C22.9987 21.6314 21.6311 22.999 19.685 22.999C14.225 22.9998 8.76511 22.9998 3.30519 22.999C1.37825 22.999 0.00106908 21.6266 0.00106916 19.7069C0.000268314 14.2366 0.000268553 8.76704 0.00106988 3.29672C0.00106996 1.37378 1.37665 0.000599222 3.30119 0.000599306C8.77071 -0.000200678 14.241 -0.000200439 19.7106 0.000600023C21.6167 0.000600107 22.9979 1.37778 22.9987 3.27751C23.0011 6.02228 22.9995 8.76784 22.9995 11.5126ZM11.5011 11.499C8.19775 11.499 4.89523 11.5022 1.59191 11.4934C1.34304 11.4926 1.27582 11.5566 1.27662 11.8071C1.28623 14.4214 1.28063 17.0357 1.28463 19.6501C1.28463 19.8581 1.29663 20.0718 1.34705 20.2726C1.57991 21.1969 2.31851 21.717 3.38601 21.7178C8.79472 21.7194 14.2034 21.7186 19.6113 21.7178C19.8402 21.7178 20.0699 21.7122 20.2931 21.6506C21.1942 21.401 21.7135 20.6816 21.7151 19.6517C21.7183 17.0469 21.7119 14.443 21.7223 11.8383C21.7231 11.5662 21.6535 11.4926 21.3782 11.4934C18.0869 11.5022 14.794 11.499 11.5011 11.499ZM11.4851 10.217C14.7796 10.217 18.0733 10.2146 21.3678 10.2218C21.6279 10.2226 21.7271 10.1722 21.7247 9.88255C21.7119 7.71635 21.7183 5.55014 21.7167 3.38394C21.7167 3.15508 21.7111 2.92541 21.6487 2.70135C21.3958 1.7923 20.6724 1.28336 19.6153 1.28256C14.205 1.28096 8.79392 1.28176 3.38361 1.28256C3.15475 1.28256 2.92508 1.28816 2.70102 1.34977C1.80237 1.59864 1.28383 2.32205 1.28223 3.35273C1.27903 5.51894 1.28863 7.68514 1.27262 9.85134C1.27022 10.1706 1.37265 10.2226 1.66073 10.2218C4.93684 10.213 8.21056 10.217 11.4851 10.217Z" fill="black"/>
</svg>
