<svg width="37" height="24" viewBox="0 0 37 24" fill="none" xmlns="http://www.w3.org/2000/svg">
<path fill-rule="evenodd" clip-rule="evenodd" d="M0.679676 9.88783C4.91672 4.74817 11.7015 0 18.5001 0C25.4478 0 32.2542 4.86792 36.3924 10.2915C37.2029 11.3538 37.2026 12.8343 36.3911 13.8958C35.1559 15.5115 33.7809 17.0213 32.2568 18.352C28.659 21.4934 23.3153 24 18.5 24C14.1826 24 8.7559 21.3861 5.4586 18.7267C3.70734 17.3142 2.11777 15.6926 0.679439 13.9475C-0.226499 12.8483 -0.226381 10.9869 0.679676 9.88783ZM18.5001 6.35579C21.5292 6.35579 23.9847 8.88278 23.9847 12C23.9847 15.1172 21.5292 17.6442 18.5001 17.6442C15.471 17.6442 13.0155 15.1172 13.0155 12C13.0155 8.88278 15.471 6.35579 18.5001 6.35579ZM28.4128 5.67888C30.7995 9.63404 30.7378 14.6738 28.2617 18.5647C30.7353 16.9564 32.7638 14.945 34.6553 12.4905C34.8391 12.2545 34.8391 11.9313 34.6553 11.6952C32.8866 9.37487 30.7888 7.28223 28.4128 5.67888ZM8.50394 18.1813C6.23939 14.3118 6.2885 9.43676 8.6247 5.61735C6.27913 7.16003 4.17709 9.15891 2.36391 11.3581C2.15881 11.6075 2.15881 12.2278 2.36391 12.4773C4.21363 14.724 6.27237 16.6758 8.50394 18.1813ZM18.5001 2.47559C23.6115 2.47559 27.7552 6.73985 27.7552 11.9999C27.7552 17.255 23.6195 21.5159 18.5148 21.5242C13.3759 21.4507 9.24511 17.3389 9.24511 11.9999C9.24511 6.73972 13.3888 2.47559 18.5001 2.47559Z" fill="#C4C4C4"/>
</svg>
