<svg width="38" height="24" viewBox="0 0 38 24" fill="none" xmlns="http://www.w3.org/2000/svg">
<path fill-rule="evenodd" clip-rule="evenodd" d="M1.10839 9.88783C5.34543 4.74817 12.1302 0 18.9288 0C25.8766 0 32.6829 4.86792 36.8211 10.2915C37.6316 11.3538 37.6313 12.8343 36.8198 13.8958C35.5846 15.5115 34.2096 17.0213 32.6855 18.352C29.0877 21.4934 23.744 24 18.9287 24C14.6113 24 9.18461 21.3861 5.88731 18.7267C4.13605 17.3142 2.54648 15.6926 1.10815 13.9475C0.202211 12.8483 0.20233 10.9869 1.10839 9.88783ZM18.9288 6.35579C21.9579 6.35579 24.4134 8.88278 24.4134 12C24.4134 15.1172 21.9579 17.6442 18.9288 17.6442C15.8997 17.6442 13.4442 15.1172 13.4442 12C13.4442 8.88278 15.8997 6.35579 18.9288 6.35579ZM28.8415 5.67888C31.2282 9.63404 31.1665 14.6738 28.6905 18.5647C31.164 16.9564 33.1925 14.945 35.084 12.4905C35.2679 12.2545 35.2679 11.9313 35.084 11.6952C33.3153 9.37487 31.2175 7.28223 28.8415 5.67888ZM8.93265 18.1813C6.6681 14.3118 6.71721 9.43676 9.05341 5.61735C6.70784 7.16003 4.60581 9.15891 2.79262 11.3581C2.58752 11.6075 2.58752 12.2278 2.79262 12.4773C4.64234 14.724 6.70108 16.6758 8.93265 18.1813ZM18.9288 2.47559C24.0402 2.47559 28.1839 6.73985 28.1839 11.9999C28.1839 17.255 24.0482 21.5159 18.9435 21.5242C13.8046 21.4507 9.67382 17.3389 9.67382 11.9999C9.67382 6.73972 13.8175 2.47559 18.9288 2.47559Z" fill="white"/>
</svg>
