<svg width="61" height="60" viewBox="0 0 61 60" fill="none" xmlns="http://www.w3.org/2000/svg">
<circle cx="30.6971" cy="29.9393" r="29.9393" fill="#1C1B1B"/>
<path d="M27.6588 29.7748V41.6407C27.6588 41.8113 27.7983 41.9498 27.9702 41.9498H32.4098C32.5817 41.9498 32.7213 41.8113 32.7213 41.6407V29.5813H35.9394C36.1009 29.5813 36.2358 29.4588 36.2497 29.2985L36.5588 25.6649C36.5738 25.484 36.4308 25.3295 36.2485 25.3295H32.7201V22.7514C32.7201 22.1469 33.2138 21.6569 33.8228 21.6569H36.3039C36.4757 21.6569 36.6153 21.5184 36.6153 21.3478V17.7153C36.6153 17.5448 36.4757 17.4062 36.3039 17.4062H32.1122C29.6531 17.4062 27.6588 19.3856 27.6588 21.8264V25.3295H25.4384C25.2665 25.3295 25.127 25.468 25.127 25.6386V29.2722C25.127 29.4428 25.2665 29.5813 25.4384 29.5813H27.6588V29.7748Z" fill="white"/>
</svg>
