<svg width="41" height="41" viewBox="0 0 41 41" fill="none" xmlns="http://www.w3.org/2000/svg">
<g clip-path="url(#clip0_201_204)">
<path d="M2.16211 13.5068V38.4127H5.85613V20.3202C5.85613 20.1796 5.912 20.0447 6.01145 19.9453C6.1109 19.8459 6.24578 19.79 6.38642 19.79H35.1135C35.2541 19.79 35.389 19.8459 35.4884 19.9453C35.5879 20.0447 35.6438 20.1796 35.6438 20.3202V38.4127H38.9804V13.5068L20.5707 1.70493L2.16211 13.5068ZM24.5309 9.00704V15.8649C24.5309 16.0055 24.4751 16.1403 24.3756 16.2398C24.2762 16.3392 24.1413 16.395 24.0006 16.395H17.1408C17.0001 16.395 16.8652 16.3392 16.7658 16.2398C16.6663 16.1403 16.6105 16.0055 16.6105 15.8649V9.00704C16.6105 8.86644 16.6663 8.73159 16.7658 8.63217C16.8652 8.53275 17.0001 8.4769 17.1408 8.4769H24.0006C24.1413 8.4769 24.2762 8.53275 24.3756 8.63217C24.4751 8.73159 24.5309 8.86644 24.5309 9.00704V9.00704Z" stroke="#E68A00"/>
<path d="M20.8571 0.629804C20.7718 0.575215 20.6726 0.546204 20.5713 0.546204C20.47 0.546204 20.3708 0.575215 20.2854 0.629804L1.3455 12.771C1.27067 12.819 1.20911 12.885 1.16648 12.963C1.12386 13.041 1.10153 13.1285 1.10156 13.2174V38.9428C1.10156 39.0834 1.15743 39.2183 1.25688 39.3177C1.35633 39.4171 1.49121 39.473 1.63186 39.473H39.5107C39.6513 39.473 39.7862 39.4171 39.8857 39.3177C39.9851 39.2183 40.041 39.0834 40.041 38.9428V13.2174C40.0409 13.1284 40.0184 13.0409 39.9756 12.9629C39.9328 12.8849 39.871 12.8189 39.796 12.771L20.8571 0.629804ZM34.5832 22.8871H6.91676V20.8503H34.5832V22.8871ZM6.91676 23.9474H34.5832V25.9852H6.91676V23.9474ZM6.91676 27.0455H34.5832V29.0833H6.91676V27.0455ZM6.91676 30.1436H34.5832V32.1804H6.91676V30.1436ZM6.91676 33.2407H34.5832V35.2775H6.91676V33.2407ZM6.91676 38.4127V36.3377H34.5832V38.4127H6.91676ZM38.9804 38.4127H35.6438V20.3202C35.6438 20.1796 35.5879 20.0447 35.4885 19.9453C35.389 19.8459 35.2541 19.79 35.1135 19.79H6.38646C6.24582 19.79 6.11094 19.8459 6.01149 19.9453C5.91204 20.0447 5.85617 20.1796 5.85617 20.3202V38.4127H2.16215V13.5068L20.5707 1.70492L38.9804 13.5068V38.4127Z" fill="#E68A00" stroke="#E68A00" stroke-width="0.5"/>
<path d="M16.6104 9.00704V15.8649C16.6104 16.0055 16.6662 16.1403 16.7657 16.2398C16.8651 16.3392 17 16.395 17.1406 16.395H24.0005C24.1412 16.395 24.276 16.3392 24.3755 16.2398C24.4749 16.1403 24.5308 16.0055 24.5308 15.8649V9.00704C24.5308 8.86643 24.4749 8.73159 24.3755 8.63217C24.276 8.53275 24.1412 8.4769 24.0005 8.4769H17.1406C17 8.4769 16.8651 8.53275 16.7657 8.63217C16.6662 8.73159 16.6104 8.86643 16.6104 9.00704ZM17.6709 9.53717H23.4702V15.3348H17.6709V9.53717Z" fill="#E68A00" stroke="#E68A00"/>
</g>
<defs>
<clipPath id="clip0_201_204">
<rect width="40" height="40.0031" fill="white" transform="translate(0.571289)"/>
</clipPath>
</defs>
</svg>
