<svg width="24" height="24" viewBox="0 0 24 24" fill="none" xmlns="http://www.w3.org/2000/svg">
<path d="M21.3333 21.3333H2.66667V2.66667H21.3333V21.3333ZM21.3333 0H2.66667C1.95942 0 1.28115 0.280951 0.781048 0.781048C0.280951 1.28115 0 1.95942 0 2.66667V21.3333C0 22.0406 0.280951 22.7189 0.781048 23.219C1.28115 23.719 1.95942 24 2.66667 24H21.3333C22.0406 24 22.7189 23.719 23.219 23.219C23.719 22.7189 24 22.0406 24 21.3333V2.66667C24 1.95942 23.719 1.28115 23.219 0.781048C22.7189 0.280951 22.0406 0 21.3333 0ZM5.33333 8H8.41333L8.84 4H11.5067L11.08 8H13.7467L14.1733 4H16.84L16.4133 8H18.6667V10.6667H16.1333L15.8667 13.3333H18.6667V16H15.5867L15.16 20H12.4933L12.92 16H10.2533L9.82667 20H7.16L7.58667 16H5.33333V13.3333H7.86667L8.13333 10.6667H5.33333V8ZM10.8 10.6667L10.5333 13.3333H13.2L13.4667 10.6667H10.8Z" fill="#696969"/>
</svg>
