<svg width="25" height="21" viewBox="0 0 25 21" fill="none" xmlns="http://www.w3.org/2000/svg">
<path d="M14.7224 6.05556H13.0557V11.6111L17.8113 14.4333L18.6113 13.0889L14.7224 10.7778V6.05556ZM14.1668 0.5C11.5147 0.5 8.97113 1.55357 7.09576 3.42893C5.2204 5.3043 4.16683 7.84784 4.16683 10.5H0.833496L5.2335 14.9778L9.72239 10.5H6.38905C6.38905 8.43721 7.20849 6.4589 8.66711 5.00028C10.1257 3.54166 12.104 2.72222 14.1668 2.72222C16.2296 2.72222 18.2079 3.54166 19.6665 5.00028C21.1252 6.4589 21.9446 8.43721 21.9446 10.5C21.9446 12.5628 21.1252 14.5411 19.6665 15.9997C18.2079 17.4583 16.2296 18.2778 14.1668 18.2778C12.0224 18.2778 10.0779 17.4 8.67794 15.9889L7.10016 17.5667C8.91127 19.3889 11.3891 20.5 14.1668 20.5C16.819 20.5 19.3625 19.4464 21.2379 17.5711C23.1133 15.6957 24.1668 13.1522 24.1668 10.5C24.1668 7.84784 23.1133 5.3043 21.2379 3.42893C19.3625 1.55357 16.819 0.5 14.1668 0.5Z" fill="black"/>
</svg>
