<svg width="61" height="60" viewBox="0 0 61 60" fill="none" xmlns="http://www.w3.org/2000/svg">
<circle cx="30.576" cy="29.9393" r="29.9393" fill="#1C1B1B"/>
<path d="M38.1545 23.7968C38.1545 24.5581 37.5328 25.1752 36.7657 25.1752C35.9987 25.1752 35.377 24.5581 35.377 23.7968C35.377 23.0355 35.9987 22.4185 36.7657 22.4185C37.5328 22.4185 38.1545 23.0355 38.1545 23.7968Z" fill="white"/>
<path d="M30.591 24.186C27.374 24.186 24.7568 26.7836 24.7568 29.9765C24.7568 33.1693 27.374 35.7669 30.591 35.7669C33.808 35.7669 36.4251 33.1693 36.4251 29.9765C36.424 26.7836 33.808 24.186 30.591 24.186ZM30.591 33.6857C28.5309 33.6857 26.8538 32.0222 26.8538 29.9765C26.8538 27.9318 28.5298 26.2673 30.591 26.2673C32.6511 26.2673 34.3282 27.9307 34.3282 29.9765C34.3282 32.0211 32.6511 33.6857 30.591 33.6857Z" fill="white"/>
<path d="M35.2463 18.1025H25.8549C21.9251 18.1025 18.7393 21.2645 18.7393 25.1649V34.487C18.7393 38.3874 21.9251 41.5494 25.8549 41.5494H35.2463C39.1761 41.5494 42.3619 38.3874 42.3619 34.487V25.1649C42.3619 21.2645 39.1761 18.1025 35.2463 18.1025ZM40.1335 34.4859C40.1335 37.1648 37.9454 39.3365 35.2463 39.3365H25.8549C23.1558 39.3365 20.9677 37.1648 20.9677 34.4859V25.1637C20.9677 22.4849 23.1558 20.3132 25.8549 20.3132H35.2463C37.9454 20.3132 40.1335 22.4849 40.1335 25.1637V34.4859Z" fill="white"/>
</svg>
