<svg width="21" height="21" viewBox="0 0 21 21" fill="none" xmlns="http://www.w3.org/2000/svg">
<path d="M15.8311 0C16.0634 0 16.2957 0 16.5286 0C16.5532 0.0104096 16.5773 0.0257501 16.6031 0.0301331C18.2358 0.321054 19.2429 1.51925 19.2451 3.17712C19.2462 3.94907 19.2484 4.72158 19.2429 5.49353C19.2418 5.62776 19.2807 5.72364 19.3793 5.81568C19.7294 6.14166 20.0713 6.47642 20.4176 6.80624C20.8093 7.17989 21.0011 7.63352 21.0005 8.17702C20.9978 11.8396 21 15.5026 20.9984 19.1652C20.9978 20.2072 20.2351 20.9912 19.1958 20.994C16.6058 21.0011 14.0159 21.0011 11.4254 20.994C10.3959 20.9912 9.63596 20.2133 9.62884 19.1822C9.625 18.6354 9.62884 18.0886 9.62664 17.5424C9.62664 17.4936 9.65459 17.4339 9.58336 17.3857C9.16476 17.8048 8.74562 18.225 8.32592 18.6441C7.51886 19.4495 6.48059 19.4512 5.67791 18.6485C4.07365 17.0444 2.47323 15.4358 0.86185 13.8387C0.47284 13.4552 0.116155 13.063 0 12.508C0 12.3441 0 12.1798 0 12.016C0.0936913 11.61 0.267924 11.2522 0.568723 10.952C3.15647 8.36987 5.74092 5.785 8.32428 3.19849C8.7122 2.81004 9.17079 2.61938 9.72034 2.62267C10.786 2.62925 11.8522 2.61829 12.9179 2.63034C13.1086 2.63253 13.1623 2.57172 13.205 2.3964C13.4883 1.23052 14.2142 0.473363 15.3583 0.117793C15.5133 0.06958 15.6733 0.038899 15.8311 0ZM15.7489 6.99909C15.7489 6.15207 15.7505 5.30451 15.7484 4.4575C15.7473 3.93921 15.47 3.60939 14.9643 3.51954C14.6799 3.46914 14.3918 3.50804 14.1057 3.49708C14.0104 3.49324 13.9945 3.55077 13.9951 3.62912C13.9967 3.82745 14.0049 4.02578 13.9923 4.22356C13.9825 4.37806 14.0285 4.46188 14.1764 4.53694C14.7013 4.80157 14.9632 5.38724 14.8421 5.97018C14.726 6.53175 14.2367 6.94813 13.6351 6.99799C13.0866 7.04346 12.5398 6.6868 12.336 6.15098C12.13 5.60968 12.2747 4.95004 12.776 4.66186C13.1255 4.46079 13.1469 4.21972 13.1239 3.90305C13.119 3.83512 13.1157 3.76554 13.125 3.69815C13.1475 3.53762 13.0866 3.49105 12.9239 3.49269C11.8785 3.49982 10.8331 3.50256 9.78773 3.49324C9.4294 3.48996 9.14887 3.60775 8.8941 3.86306C6.34745 6.41889 3.79477 8.96814 1.24374 11.519C0.740764 12.022 0.742956 12.4795 1.25086 12.9873C2.92251 14.6595 4.59416 16.331 6.26636 18.0026C6.75016 18.4864 7.24601 18.4885 7.72761 18.0064C9.06997 16.6625 10.4107 15.3169 11.7536 13.973C12.9656 12.7594 14.1764 11.5448 15.3939 10.3367C15.6371 10.0951 15.7544 9.82173 15.7511 9.47931C15.7434 8.65257 15.7489 7.82583 15.7489 6.99909ZM16.6349 4.38902C16.6349 4.52872 16.6349 4.60762 16.6349 4.68651C16.6349 6.26494 16.6283 7.84336 16.6382 9.42178C16.642 10.0442 16.4382 10.5531 15.9911 10.9958C14.1994 12.7698 12.422 14.5586 10.6359 16.3387C10.5356 16.439 10.4951 16.5376 10.4962 16.6784C10.5022 17.4914 10.4989 18.3045 10.4995 19.1181C10.4995 19.7508 10.8655 20.1239 11.5043 20.1245C14.0395 20.1272 16.5751 20.1272 19.1103 20.1245C19.7596 20.1239 20.1261 19.7514 20.1266 19.1055C20.1272 18.0256 20.1266 16.9463 20.1266 15.8664C20.1266 13.3177 20.1255 10.7685 20.1277 8.21975C20.1277 7.94143 20.0691 7.68941 19.8631 7.49163C18.8057 6.47313 17.7455 5.45627 16.6349 4.38902ZM18.3734 4.84594C18.3734 4.24054 18.3728 3.68883 18.3739 3.13658C18.3745 2.97879 18.3613 2.82319 18.335 2.6676C18.1695 1.6754 17.3077 0.932481 16.253 0.875502C15.2952 0.824002 14.3309 1.53021 14.0822 2.45721C14.0433 2.6024 14.086 2.62979 14.2224 2.62705C14.5298 2.62103 14.8383 2.64404 15.1446 2.6276C15.773 2.59363 16.2842 2.81717 16.7253 3.2593C17.2507 3.78636 17.7964 4.29204 18.3734 4.84594ZM13.9918 5.71597C14.0055 5.46668 13.8247 5.26287 13.5803 5.25137C13.348 5.24096 13.1431 5.42395 13.1261 5.6568C13.1086 5.89841 13.2981 6.10879 13.5414 6.11756C13.7858 6.12632 13.9786 5.95374 13.9918 5.71597Z" fill="#238F23"/>
</svg>
