<svg width="20" height="20" viewBox="0 0 20 20" fill="none" xmlns="http://www.w3.org/2000/svg">
<path d="M4.67312 20H1.56314C0.701296 20 0 19.2988 0 18.4363L6.50998e-05 9.06385C6.50998e-05 8.202 0.701294 7.50012 1.56314 7.50012H4.67312C5.53497 7.50012 6.23685 8.202 6.23685 9.06385V18.4363C6.23685 19.2988 5.53497 20 4.67312 20H4.67312ZM1.56314 8.75008C1.39061 8.75008 1.24999 8.89071 1.24999 9.06381V18.4363C1.25006 18.6087 1.39068 18.75 1.56314 18.75H4.67312C4.84624 18.75 4.98685 18.6087 4.98685 18.4363V9.06381C4.98685 8.8907 4.84623 8.75008 4.67312 8.75008H1.56314Z" fill="black"/>
<path d="M16.1282 20H8.55321C8.1676 20 7.782 19.9087 7.43635 19.7363L5.33137 18.6838C5.02265 18.5294 4.89765 18.1538 5.052 17.8451C5.20635 17.5364 5.58136 17.4114 5.89073 17.5657L7.99572 18.6182C8.16825 18.7044 8.36068 18.75 8.5532 18.75H16.1282C16.3563 18.75 16.5688 18.6269 16.6825 18.4281L17.3881 17.1931C18.27 15.65 18.7363 13.8938 18.7363 12.1163V10.0013C18.7363 9.3113 18.175 8.75003 17.4851 8.75003H12.7808C12.3664 8.75003 11.9801 8.54502 11.7476 8.20192C11.5157 7.85882 11.4688 7.42379 11.6226 7.03943C12.1957 5.60695 12.4864 4.09761 12.4864 2.55312V1.82877C12.4864 1.51002 12.227 1.24999 11.9076 1.24999H11.5188C11.2619 1.24999 11.0332 1.42253 10.9626 1.66939L10.7176 2.52629C10.1926 4.36194 9.32199 6.0481 8.12947 7.53942C7.5145 8.30869 6.59699 8.74997 5.61131 8.74997H3.73632C3.39134 8.74997 3.11133 8.46995 3.11133 8.12497C3.11133 7.77999 3.39134 7.49997 3.73632 7.49997H5.61131C6.21444 7.49997 6.77694 7.22934 7.15382 6.75811C8.24197 5.39685 9.03698 3.85746 9.51564 2.18247L9.76062 1.32558C9.98381 0.54563 10.7069 0 11.5188 0H11.9075C12.9163 0 13.7363 0.819979 13.7363 1.82882V2.55317C13.7363 4.25749 13.4151 5.92315 12.7832 7.50381L17.485 7.50003C18.8644 7.50003 19.9862 8.62189 19.9862 10.0012V12.1162C19.9862 14.1112 19.4631 16.0818 18.473 17.8136L17.7674 19.0487C17.4318 19.6355 16.8037 19.9999 16.1281 19.9999L16.1282 20Z" fill="black"/>
<path d="M3.73632 16.875C3.73632 17.2202 3.45651 17.5 3.11132 17.5C2.76614 17.5 2.48633 17.2202 2.48633 16.875C2.48633 16.5298 2.76614 16.25 3.11132 16.25C3.45651 16.25 3.73632 16.5298 3.73632 16.875Z" fill="black"/>
</svg>
