<svg width="61" height="60" viewBox="0 0 61 60" fill="none" xmlns="http://www.w3.org/2000/svg">
<circle cx="30.8182" cy="29.9393" r="29.9393" fill="#1C1B1B"/>
<path d="M24.5759 26.0029H20.0371V40.4951H24.5759V26.0029Z" fill="white"/>
<path d="M22.3076 18.7988C20.8531 18.7988 19.6777 19.97 19.6777 21.4124C19.6777 23.0758 21.243 24.3752 22.9962 23.9356C23.8832 23.7135 24.611 22.998 24.844 22.1211C25.3066 20.3741 23.9893 18.7988 22.3076 18.7988Z" fill="white"/>
<path d="M36.1335 25.6445C33.9258 25.6445 32.446 26.8443 31.8404 27.9845H31.7781V26.0029H27.4238V40.495H31.9603V33.3273C31.9603 31.4373 32.3214 29.6044 34.6825 29.6044C37.0125 29.6044 37.0413 31.767 37.0413 33.4475V40.495H41.5778V32.5466C41.5778 28.6451 40.7289 25.6445 36.1335 25.6445Z" fill="white"/>
</svg>
