<svg width="13" height="18" viewBox="0 0 13 18" fill="none" xmlns="http://www.w3.org/2000/svg">
<path d="M6.44246 4.05C7.02285 4.05 7.57947 4.28705 7.98986 4.70901C8.40026 5.13097 8.63082 5.70326 8.63082 6.3C8.63082 6.59547 8.57421 6.88806 8.46424 7.16104C8.35426 7.43402 8.19307 7.68206 7.98986 7.89099C7.78665 8.09992 7.54541 8.26566 7.27991 8.37873C7.01441 8.4918 6.72984 8.55 6.44246 8.55C5.86207 8.55 5.30546 8.31295 4.89506 7.89099C4.48466 7.46903 4.2541 6.89674 4.2541 6.3C4.2541 5.70326 4.48466 5.13097 4.89506 4.70901C5.30546 4.28705 5.86207 4.05 6.44246 4.05ZM6.44246 0C8.06755 0 9.62607 0.663748 10.7752 1.84523C11.9243 3.02671 12.5699 4.62914 12.5699 6.3C12.5699 11.025 6.44246 18 6.44246 18C6.44246 18 0.315063 11.025 0.315063 6.3C0.315063 4.62914 0.960627 3.02671 2.10974 1.84523C3.25885 0.663748 4.81737 0 6.44246 0V0ZM6.44246 1.8C5.28168 1.8 4.16845 2.27411 3.34766 3.11802C2.52687 3.96193 2.06575 5.10653 2.06575 6.3C2.06575 7.2 2.06575 9 6.44246 15.039C10.8192 9 10.8192 7.2 10.8192 6.3C10.8192 5.10653 10.3581 3.96193 9.53726 3.11802C8.71647 2.27411 7.60324 1.8 6.44246 1.8V1.8Z" fill="#696969"/>
</svg>
