<svg width="16" height="20" viewBox="0 0 16 20" fill="none" xmlns="http://www.w3.org/2000/svg">
<path d="M7.61905 15.2381C8.12422 15.2381 8.60871 15.0374 8.96592 14.6802C9.32313 14.323 9.52381 13.8385 9.52381 13.3333C9.52381 12.2762 8.66667 11.4286 7.61905 11.4286C7.11387 11.4286 6.62939 11.6293 6.27218 11.9865C5.91497 12.3437 5.71429 12.8282 5.71429 13.3333C5.71429 13.8385 5.91497 14.323 6.27218 14.6802C6.62939 15.0374 7.11387 15.2381 7.61905 15.2381ZM13.3333 6.66667C13.8385 6.66667 14.323 6.86735 14.6802 7.22456C15.0374 7.58177 15.2381 8.06625 15.2381 8.57143V18.0952C15.2381 18.6004 15.0374 19.0849 14.6802 19.4421C14.323 19.7993 13.8385 20 13.3333 20H1.90476C1.39959 20 0.915104 19.7993 0.557892 19.4421C0.20068 19.0849 0 18.6004 0 18.0952V8.57143C0 7.51429 0.857143 6.66667 1.90476 6.66667H2.85714V4.7619C2.85714 3.49897 3.35884 2.28776 4.25187 1.39473C5.1449 0.501699 6.35611 0 7.61905 0C8.24439 0 8.86361 0.12317 9.44135 0.362478C10.0191 0.601787 10.544 0.952546 10.9862 1.39473C11.4284 1.83691 11.7792 2.36186 12.0185 2.9396C12.2578 3.51734 12.381 4.13656 12.381 4.7619V6.66667H13.3333ZM7.61905 1.90476C6.86129 1.90476 6.13456 2.20578 5.59874 2.7416C5.06292 3.27742 4.7619 4.00414 4.7619 4.7619V6.66667H10.4762V4.7619C10.4762 4.00414 10.1752 3.27742 9.63935 2.7416C9.10353 2.20578 8.37681 1.90476 7.61905 1.90476Z" fill="#C4C4C4"/>
</svg>
