<svg width="26" height="24" viewBox="0 0 26 24" fill="none" xmlns="http://www.w3.org/2000/svg">
<path d="M20.3746 6.77912C20.2889 6.77912 20.2086 6.7577 20.1336 6.71486C20.0586 6.67202 19.9997 6.59706 19.9569 6.48996L19.0894 4.69076L17.2581 3.82329C17.1724 3.78046 17.1082 3.7162 17.0653 3.63052C17.0225 3.54485 17.0011 3.45917 17.0011 3.37349C17.0011 3.28782 17.0225 3.2075 17.0653 3.13253C17.1082 3.05756 17.1724 2.99866 17.2581 2.95582L19.0894 2.08835L19.9569 0.289157C19.9997 0.182061 20.0586 0.107095 20.1336 0.064257C20.2086 0.0214189 20.2889 0 20.3746 0C20.4602 0 20.5459 0.0214189 20.6316 0.064257C20.7173 0.107095 20.7815 0.182061 20.8244 0.289157L21.6597 2.08835L23.491 2.95582C23.5981 2.99866 23.6731 3.05756 23.7159 3.13253C23.7588 3.2075 23.7802 3.28782 23.7802 3.37349C23.7802 3.45917 23.7588 3.54485 23.7159 3.63052C23.6731 3.7162 23.5981 3.78046 23.491 3.82329L21.6597 4.69076L20.8244 6.48996C20.7815 6.59706 20.7173 6.67202 20.6316 6.71486C20.5459 6.7577 20.4602 6.77912 20.3746 6.77912ZM23.0412 16.1928C22.9555 16.1928 22.8699 16.1714 22.7842 16.1285C22.6985 16.0857 22.6343 16.0214 22.5914 15.9357L22.1416 14.9076L21.1135 14.4578C21.0707 14.4364 20.985 14.2865 20.8565 14.008C20.8565 13.9224 20.8779 13.8367 20.9207 13.751C20.9636 13.6653 21.0278 13.6011 21.1135 13.5582L22.1416 13.0763L22.5914 12.0803C22.6128 12.0375 22.7628 11.9518 23.0412 11.8233C23.1269 11.8233 23.2126 11.8447 23.2982 11.8876C23.3839 11.9304 23.4482 11.9946 23.491 12.0803L23.9408 13.0763L24.9689 13.5582C25.0118 13.5797 25.0974 13.7296 25.226 14.008C25.226 14.0937 25.2045 14.1794 25.1617 14.2651C25.1189 14.3507 25.0546 14.415 24.9689 14.4578L23.9408 14.9076L23.491 15.9357C23.4696 15.9786 23.3197 16.0643 23.0412 16.1928ZM7.65166 24C7.41605 24 7.21257 23.9197 7.04122 23.759C6.86987 23.5984 6.77348 23.4003 6.75206 23.1647L6.52716 21.2369C6.18446 21.1513 5.82033 21.012 5.43479 20.8193C5.04925 20.6265 4.72796 20.4016 4.47094 20.1446L2.83238 20.8835C2.61819 20.9906 2.404 21.0013 2.18981 20.9157C1.97562 20.83 1.80427 20.6908 1.67576 20.498L0.165716 18.0562C0.0157826 17.842 -0.0324104 17.6118 0.0211371 17.3655C0.0746847 17.1191 0.219263 16.9317 0.454872 16.8032L1.99704 15.743C1.88995 15.3146 1.8364 14.9398 1.8364 14.6185C1.8364 14.2972 1.88995 13.9224 1.99704 13.494L0.454872 12.4337C0.219263 12.2838 0.0746847 12.0964 0.0211371 11.8715C-0.0324104 11.6466 0.0157826 11.4163 0.165716 11.1807L1.67576 8.73896C1.80427 8.54619 1.97562 8.41232 2.18981 8.33735C2.404 8.26238 2.61819 8.27845 2.83238 8.38554L4.47094 9.06024C4.72796 8.82463 5.04925 8.61044 5.43479 8.41767C5.82033 8.2249 6.18446 8.08568 6.52716 8L6.75206 6.07229C6.77348 5.83668 6.86987 5.63855 7.04122 5.47791C7.21257 5.31727 7.41605 5.23695 7.65166 5.23695H10.5432C10.7788 5.23695 10.9823 5.31727 11.1537 5.47791C11.325 5.63855 11.4321 5.83668 11.475 6.07229L11.6999 8C12.0211 8.08568 12.3746 8.2249 12.7601 8.41767C13.1456 8.61044 13.4776 8.82463 13.7561 9.06024L15.3946 8.38554C15.5874 8.27845 15.7962 8.26238 16.0211 8.33735C16.246 8.41232 16.412 8.54619 16.5191 8.73896L18.0613 11.1807C18.1898 11.4163 18.2273 11.6466 18.1737 11.8715C18.1202 12.0964 17.9863 12.2838 17.7721 12.4337L16.1978 13.494C16.3049 13.9224 16.3585 14.2972 16.3585 14.6185C16.3585 14.9398 16.3049 15.3146 16.1978 15.743L17.7721 16.8032C17.9863 16.9317 18.1202 17.1191 18.1737 17.3655C18.2273 17.6118 18.1898 17.842 18.0613 18.0562L16.5191 20.498C16.412 20.6908 16.246 20.83 16.0211 20.9157C15.7962 21.0013 15.5874 20.9906 15.3946 20.8835L13.7561 20.1446C13.4776 20.4016 13.1456 20.6265 12.7601 20.8193C12.3746 21.012 12.0211 21.1513 11.6999 21.2369L11.475 23.1647C11.4321 23.4003 11.325 23.5984 11.1537 23.759C10.9823 23.9197 10.7788 24 10.5432 24H7.65166ZM9.09744 18.0241C10.0827 18.0241 10.8966 17.6975 11.5392 17.0442C12.1818 16.3909 12.5031 15.5823 12.5031 14.6185C12.5031 13.6546 12.1818 12.8514 11.5392 12.2088C10.8966 11.5663 10.0827 11.245 9.09744 11.245C8.13359 11.245 7.33037 11.5663 6.6878 12.2088C6.04523 12.8514 5.72395 13.6546 5.72395 14.6185C5.72395 15.5823 6.04523 16.3909 6.6878 17.0442C7.33037 17.6975 8.13359 18.0241 9.09744 18.0241ZM9.09744 16.5462C8.54055 16.5462 8.08004 16.3641 7.71592 16C7.35179 15.6359 7.16973 15.1754 7.16973 14.6185C7.16973 14.0616 7.35179 13.6011 7.71592 13.2369C8.08004 12.8728 8.54055 12.6908 9.09744 12.6908C9.65434 12.6908 10.1202 12.8728 10.495 13.2369C10.8699 13.6011 11.0573 14.0616 11.0573 14.6185C11.0573 15.1754 10.8699 15.6359 10.495 16C10.1202 16.3641 9.65434 16.5462 9.09744 16.5462ZM8.0372 22.5542H10.1577L10.4147 20.1446C11.0359 19.9732 11.5928 19.7537 12.0854 19.4859C12.578 19.2182 13.0385 18.8594 13.4669 18.4096L15.5553 19.3414L16.6155 17.6707L14.6235 16.2892C14.8592 15.7537 14.977 15.1968 14.977 14.6185C14.977 14.0402 14.8592 13.494 14.6235 12.9799L16.5834 11.5663L15.5553 9.89558L13.4669 10.8273C13.0385 10.3775 12.578 10.0134 12.0854 9.73494C11.5928 9.45649 11.0359 9.2423 10.4147 9.09237L10.1577 6.71486H8.0372L7.78017 9.09237C7.15902 9.2423 6.60213 9.45649 6.10949 9.73494C5.61685 10.0134 5.15634 10.3775 4.72796 10.8273L2.63961 9.89558L1.6115 11.5663L3.57134 12.9799C3.35715 13.494 3.25005 14.0402 3.25005 14.6185C3.25005 15.1968 3.35715 15.7537 3.57134 16.2892L1.6115 17.6707L2.63961 19.3414L4.72796 18.4096C5.15634 18.8594 5.61685 19.2182 6.10949 19.4859C6.60213 19.7537 7.15902 19.9732 7.78017 20.1446L8.0372 22.5542Z" fill="#696969"/>
</svg>
