<svg width="18" height="32" viewBox="0 0 18 32" fill="none" xmlns="http://www.w3.org/2000/svg">
<path d="M11.6683 2.18097H6.33081C5.93003 2.43883 5.56809 2.75417 5.25586 3.11301H12.7432C12.431 2.75417 12.0691 2.43883 11.6683 2.18097Z" fill="#E68A00"/>
<path d="M13.6178 4.57166H4.38131C4.26636 4.86991 4.18092 5.18214 4.125 5.50369H13.8741C13.8182 5.18214 13.7328 4.86991 13.6178 4.57166Z" fill="#E68A00"/>
<path d="M13.9448 6.96387H4.05273V7.89591H13.9448V6.96387Z" fill="#E68A00"/>
<path d="M13.9448 9.35455H4.05273V10.2866H13.9448V9.35455Z" fill="#E68A00"/>
<path d="M16.9303 13.0611V18.0991C16.9303 22.472 13.3726 26.0299 8.99948 26.0299C4.62651 26.0299 1.06876 22.4722 1.06876 18.0991V13.0611H0.136719V18.0991C0.136719 22.8298 3.86223 26.7063 8.53346 26.9496V31.0679H3.9615V32H14.0376V31.0679H9.46565V26.9496C14.1369 26.7063 17.8625 22.8298 17.8625 18.0991V13.0611H16.9303Z" fill="#696969"/>
<path d="M9.00033 24.4427C12.4986 24.4427 15.3444 21.5969 15.3444 18.0986V6.34408C15.3444 2.84583 12.4986 0 9.00033 0C5.50208 0 2.65625 2.84583 2.65625 6.34408V18.0986C2.65625 21.5969 5.50208 24.4427 9.00033 24.4427ZM3.58829 6.34408C3.58829 6.05825 3.61004 5.77709 3.65353 5.50369C3.70324 5.18214 3.78246 4.87146 3.88654 4.57165C4.06984 4.0435 4.33392 3.55262 4.66169 3.11301C4.91955 2.76816 5.2178 2.45437 5.54868 2.18097C6.48538 1.40117 7.68926 0.932039 9.00033 0.932039C10.3114 0.932039 11.5153 1.40117 12.452 2.18097C12.7829 2.45437 13.0811 2.76816 13.339 3.11301C13.6667 3.55262 13.9308 4.0435 14.1141 4.57165C14.2182 4.87146 14.2974 5.18214 14.3471 5.50369C14.3906 5.77709 14.4124 6.05825 14.4124 6.34408V18.0986C14.4124 21.0827 11.9844 23.5107 9.00033 23.5107C6.01625 23.5107 3.58829 21.0827 3.58829 18.0986V6.34408Z" fill="#696969"/>
</svg>
