<svg width="46" height="28" viewBox="0 0 46 28" fill="none" xmlns="http://www.w3.org/2000/svg">
<path d="M6.16187 21.2128L5.82138 20.4829C5.43003 20.4842 5.05496 20.6396 4.77746 20.9156L5.13865 21.6886L4.32812 22.0666C4.34827 22.4566 4.52021 22.8231 4.80716 23.0879L5.61405 22.7118L5.97524 23.4848C6.3646 23.4475 6.72384 23.2591 6.97585 22.9599L6.63727 22.2339L7.33321 21.9105C7.31319 21.5202 7.14183 21.1532 6.85552 20.8872L6.16187 21.2128Z" fill="white"/>
<path d="M5.83028 18.7904C5.19788 18.7904 4.57969 18.9779 4.05386 19.3292C3.52804 19.6806 3.11822 20.18 2.87621 20.7642C2.6342 21.3485 2.57088 21.9914 2.69425 22.6116C2.81763 23.2319 3.12216 23.8016 3.56933 24.2488C4.0165 24.696 4.58624 25.0005 5.20649 25.1239C5.82674 25.2472 6.46964 25.1839 7.0539 24.9419C7.63816 24.6999 8.13754 24.2901 8.48888 23.7643C8.84022 23.2384 9.02775 22.6202 9.02775 21.9878C9.02654 21.1402 8.68927 20.3276 8.08989 19.7282C7.49051 19.1289 6.67793 18.7916 5.83028 18.7904V18.7904ZM7.23156 23.5085C6.95 23.7685 6.6016 23.945 6.22539 24.0182C6.09526 24.0434 5.96303 24.0563 5.83047 24.0565C5.33925 24.0559 4.86421 23.8809 4.49008 23.5626C4.11596 23.2442 3.86709 22.8034 3.78787 22.3186C3.7706 22.209 3.76182 22.0983 3.76161 21.9875C3.76217 21.4847 3.94572 20.9993 4.278 20.622C4.61027 20.2447 5.06854 20.0013 5.5672 19.9372C5.65434 19.9241 5.74235 19.9177 5.83047 19.918C6.32179 19.9194 6.7967 20.0949 7.17072 20.4135C7.54474 20.7321 7.79362 21.173 7.87308 21.6579V21.6598C7.89041 21.768 7.89925 21.8775 7.89953 21.9871C7.89953 22.2731 7.84017 22.556 7.72519 22.8179C7.61021 23.0798 7.44212 23.3149 7.23156 23.5085V23.5085Z" fill="white"/>
<path d="M39.7207 21.2128L39.3802 20.4829C38.989 20.485 38.6142 20.6403 38.3362 20.9156L38.6974 21.6886L37.8867 22.0666C37.9069 22.4566 38.0788 22.8231 38.3658 23.0879L39.1726 22.7118L39.5338 23.4848C39.9233 23.448 40.2827 23.2595 40.5344 22.9599L40.1959 22.2339L40.8918 21.9105C40.8718 21.5202 40.7004 21.1532 40.4141 20.8872L39.7207 21.2128Z" fill="white"/>
<path d="M39.3889 18.7904C38.7565 18.7904 38.1383 18.9779 37.6125 19.3292C37.0866 19.6806 36.6768 20.18 36.4348 20.7642C36.1928 21.3485 36.1295 21.9914 36.2528 22.6116C36.3762 23.2319 36.6808 23.8016 37.1279 24.2488C37.5751 24.696 38.1448 25.0005 38.7651 25.1239C39.3853 25.2472 40.0282 25.1839 40.6125 24.9419C41.1968 24.6999 41.6961 24.2901 42.0475 23.7643C42.3988 23.2384 42.5863 22.6202 42.5863 21.9878C42.5851 21.1402 42.2479 20.3276 41.6485 19.7282C41.0491 19.1289 40.2365 18.7916 39.3889 18.7904ZM40.7902 23.5095C40.5088 23.7698 40.1603 23.9464 39.784 24.0191C39.6539 24.0444 39.5216 24.0572 39.3891 24.0575C38.8978 24.0569 38.4228 23.8818 38.0487 23.5635C37.6746 23.2452 37.4257 22.8043 37.3465 22.3195C37.3292 22.21 37.3204 22.0993 37.3202 21.9884C37.3208 21.4857 37.5043 21.0003 37.8366 20.623C38.1689 20.2457 38.6271 20.0022 39.1258 19.9381C39.2129 19.9251 39.301 19.9186 39.3891 19.919C39.8804 19.9203 40.3553 20.0959 40.7293 20.4145C41.1033 20.7331 41.3522 21.174 41.4317 21.6588V21.6608C41.4489 21.769 41.4577 21.8784 41.4579 21.988C41.4579 22.2739 41.3986 22.5566 41.2836 22.8183C41.1687 23.0801 41.0006 23.3151 40.7902 23.5085V23.5095Z" fill="white"/>
<path d="M25.4304 13.1707C25.4995 13.1974 25.5733 13.2102 25.6474 13.2084C25.7215 13.2066 25.7945 13.1902 25.8623 13.1601C25.93 13.1301 25.9912 13.087 26.0423 13.0332C26.0933 12.9795 26.1333 12.9162 26.1599 12.847L26.8788 10.9817L27.5004 11.2202L27.8672 10.152L27.2847 9.92836L28.0044 8.06069C28.0582 7.92094 28.0542 7.76554 27.9934 7.62868C27.9327 7.49183 27.82 7.38472 27.6802 7.33093C27.5405 7.27714 27.3851 7.28107 27.2482 7.34185C27.1114 7.40263 27.0043 7.51529 26.9505 7.65505L25.106 12.4414C25.0794 12.5106 25.0666 12.5843 25.0685 12.6584C25.0704 12.7325 25.0869 12.8055 25.1171 12.8733C25.1472 12.941 25.1904 13.0021 25.2441 13.0531C25.2979 13.1042 25.3612 13.1441 25.4304 13.1707V13.1707Z" fill="white"/>
<path d="M12.4086 15.1474L11.6751 14.1355L10.0312 17.163C10.3313 17.4215 10.6053 17.7087 10.8494 18.0206L12.4086 15.1474Z" fill="white"/>
<path d="M10.526 18.5267C10.2988 18.2164 10.0404 17.9303 9.75478 17.6728C9.14901 17.1196 8.4321 16.7022 7.652 16.4484C6.50517 16.0713 5.26955 16.0594 4.1157 16.4145C2.96185 16.7696 1.94667 17.4741 1.21029 18.4308C0.473907 19.3874 0.052632 20.5491 0.00461538 21.7554C-0.0434012 22.9616 0.284208 24.1531 0.942222 25.1653C1.60024 26.1774 2.55621 26.9604 3.67818 27.406C4.80016 27.8517 6.03281 27.9381 7.20599 27.6534C8.37917 27.3686 9.43503 26.7267 10.2278 25.8162C11.0206 24.9058 11.5113 23.7717 11.632 22.5705C11.6512 22.3789 11.6602 22.185 11.6602 21.9874C11.6602 21.8031 11.6508 21.6233 11.6338 21.4419C11.5379 20.3871 11.1548 19.3789 10.526 18.5267V18.5267ZM5.82956 26.6894C4.71132 26.6894 3.62969 26.2909 2.7788 25.5653C1.92791 24.8397 1.36348 23.8346 1.18682 22.7304C1.01015 21.6262 1.23281 20.4952 1.81483 19.5404C2.39686 18.5855 3.30014 17.8694 4.36256 17.5205C5.3161 17.207 6.34494 17.207 7.29848 17.5205C8.24015 17.8281 9.06021 18.426 9.64104 19.2285C10.2219 20.0309 10.5336 20.9968 10.5316 21.9874V22.01C10.5245 23.2528 10.0261 24.4423 9.14521 25.319C8.26429 26.1957 7.07237 26.6883 5.82956 26.6894V26.6894Z" fill="white"/>
<path d="M35.7641 13.1817L36.5335 16.2667C36.8114 16.1278 37.0993 16.0096 37.3948 15.9132C37.4607 15.8925 37.5264 15.8718 37.5923 15.853L36.9339 13.2066L38.5176 13.2386C38.6235 13.241 38.7261 13.2761 38.8113 13.3391C38.8965 13.4021 38.9601 13.4899 38.9934 13.5904L39.6554 15.6011C40.2458 15.6249 40.8301 15.7306 41.3915 15.9151C41.4968 15.949 41.6001 15.9866 41.7038 16.0261L42.0385 12.8192C42.0878 12.361 41.971 11.9004 41.7093 11.5211C41.4477 11.1417 41.0587 10.8689 40.6129 10.7521L35.0025 9.26245L34.2632 9.06681L33.8156 8.39903L29.715 2.28826C29.6731 2.22566 29.619 2.17211 29.5561 2.13078C29.4931 2.08944 29.4224 2.06115 29.3483 2.04759L18.1105 0.0139882L18.0841 0.00843152C18.0708 0.00651537 18.0614 0.00459936 18.0484 0.00287483H18.0442H18.0316C18.0156 0.00153353 17.9997 0 17.9825 0C17.9731 0 17.9633 0.00172462 17.9541 0.00249108C17.9368 0.00340572 17.9196 0.00519639 17.9024 0.00785626C17.8977 0.00760804 17.893 0.00812635 17.8884 0.00938979C17.8752 0.0113059 17.8629 0.0151379 17.8501 0.0180121C17.8373 0.0208863 17.8284 0.0220356 17.8181 0.0252931C17.8164 0.0252931 17.8146 0.0252932 17.8129 0.0264429C17.8088 0.0285909 17.8043 0.029894 17.7997 0.0302753L17.7583 0.0471376L17.7263 0.0622748L13.0358 2.08515C12.9486 2.12319 12.8723 2.18248 12.8139 2.2576L8.04768 8.44023L7.62076 8.99323H3.16899C2.82185 8.99274 2.4834 9.10173 2.20179 9.3047C1.92018 9.50767 1.70975 9.79428 1.60043 10.1238L1.44714 10.5836C1.16736 11.4318 1.17991 12.3493 1.48278 13.1896L1.52973 13.3193C1.66557 13.6897 1.91163 14.0096 2.23479 14.2359C2.55796 14.4622 2.9427 14.5841 3.33722 14.5851H5.44287C5.55564 14.5852 5.66582 14.5513 5.75908 14.4879C5.85234 14.4245 5.92437 14.3346 5.96579 14.2297L6.53201 12.8171C6.6293 12.573 6.80492 12.3681 7.0313 12.2346C7.25768 12.1012 7.52198 12.0467 7.78268 12.0798L10.587 12.4333C10.7793 12.4581 10.9646 12.5218 11.1315 12.6207C11.2983 12.7195 11.4433 12.8513 11.5575 13.0081L11.9731 13.5818L12.7066 14.5956L15.1535 17.9717L15.8288 21.425L15.2551 21.4269L12.2005 21.4382C12.2174 21.6187 12.2251 21.8011 12.2251 21.9855C12.2251 22.1811 12.2157 22.3767 12.1986 22.5666L15.5503 22.5534L17.4707 22.5459L23.8392 22.5233C23.8803 22.5237 23.9213 22.5192 23.9614 22.5101L32.1656 20.6556C32.179 20.6528 32.1922 20.649 32.2051 20.6443C32.2322 20.6366 32.2586 20.6266 32.284 20.6143C32.3097 20.6028 32.3343 20.5889 32.3574 20.5729C32.3574 20.5724 32.3576 20.5719 32.358 20.5715C32.3583 20.5712 32.3588 20.571 32.3593 20.571C32.3682 20.5657 32.3764 20.5592 32.3837 20.5518C32.3969 20.5424 32.4097 20.5324 32.422 20.5217C32.5301 20.4245 32.5956 20.2887 32.6044 20.1437C32.606 20.1394 32.6066 20.1349 32.6063 20.1304L32.7945 16.1506L34.4535 13.1526L35.7641 13.1817ZM32.2869 8.14495L32.7176 8.78629L29.6104 8.27084C29.4787 8.24964 29.3437 8.27554 29.2292 8.34398C29.1147 8.41241 29.028 8.51902 28.9842 8.64507L28.3971 10.3548L28.0285 11.4231L27.6993 12.3823C27.6716 12.4623 27.6623 12.5475 27.6723 12.6315C27.6823 12.7155 27.7111 12.7962 27.7568 12.8675L29.3968 15.4518L28.9336 16.3075L28.4126 16.0876L21.9744 13.3716L20.673 10.8852C20.2399 10.0641 19.5537 9.40449 18.7162 9.00411C17.8787 8.60373 16.9344 8.48394 16.0234 8.6625V8.6625L18.3711 1.2087L28.9118 3.11565L32.2869 8.14495ZM27.4251 17.9196L20.4451 15.5183L16.0587 9.81315C16.7528 9.63266 17.4876 9.69198 18.1438 9.9815C18.8 10.271 19.3391 10.7738 19.6737 11.4081L21.0692 14.0733C21.1305 14.1891 21.2294 14.2807 21.3495 14.3329L27.8742 17.0864L28.3971 17.3064L27.9645 18.1058L27.4251 17.9196ZM13.6171 3.06334L17.0741 1.572L14.7364 8.9938H9.04407L13.6171 3.06334ZM23.7727 21.3978L17.5537 21.42L16.9788 21.4219L16.2373 17.6356C16.222 17.5555 16.1892 17.4798 16.1415 17.4137L13.2617 13.4414L12.8668 12.8978L12.4699 12.3486C12.2654 12.0668 12.0054 11.8298 11.7059 11.6523C11.4064 11.4747 11.0737 11.3602 10.7284 11.316L7.92581 10.9625C7.41722 10.8981 6.90165 11.0043 6.45986 11.2643C6.01808 11.5244 5.67503 11.9236 5.48445 12.3996L5.06118 13.4584H3.33665C3.1736 13.458 3.0146 13.4076 2.88101 13.3141C2.74742 13.2207 2.64564 13.0885 2.58935 12.9355L2.54241 12.8058C2.32571 12.2048 2.31707 11.5484 2.51788 10.9419L2.67213 10.4792C2.70674 10.375 2.77336 10.2843 2.8625 10.2201C2.95165 10.156 3.05877 10.1216 3.1686 10.1218H14.8714L19.6526 16.3399C19.7202 16.4282 19.8125 16.4943 19.9178 16.5298L27.1252 19.0126L28.0298 19.323L28.0787 19.3398L28.972 19.6483L29.982 19.9963L23.7727 21.3978ZM33.6303 12.3116L31.7419 15.7235C31.6995 15.7991 31.6751 15.8834 31.6705 15.9699L31.5126 19.3291L29.5867 18.6652L29.045 18.4789L30.5478 15.699C30.595 15.6103 30.618 15.5107 30.6144 15.4103C30.6107 15.3099 30.5806 15.2122 30.5271 15.1272L28.857 12.4934L29.2671 11.2953L29.2839 11.2445L29.8971 9.46345L33.7905 10.1086L33.7961 10.1105L34.7158 10.3531L40.3245 11.8427C40.5098 11.8914 40.6715 12.0049 40.7802 12.1626C40.8889 12.3204 40.9375 12.5118 40.917 12.7023L40.6679 15.0647L40.0661 13.2365C39.9592 12.9142 39.7552 12.6329 39.4821 12.4312C39.209 12.2294 38.8801 12.1172 38.5406 12.1098L34.1358 12.0196C34.0334 12.0191 33.9327 12.0458 33.8441 12.097C33.7554 12.1482 33.682 12.2221 33.6313 12.311L33.6303 12.3116Z" fill="white"/>
<path d="M41.6407 16.6088C41.5016 16.5513 41.3587 16.496 41.2119 16.449C40.7691 16.3022 40.3098 16.2113 39.8445 16.1783C39.1313 16.1212 38.4137 16.1963 37.7278 16.3998C37.6731 16.4149 37.6205 16.4318 37.568 16.4486C37.2591 16.5499 36.959 16.6763 36.6708 16.8267C35.4979 17.4439 34.5703 18.4422 34.0406 19.6572C33.511 20.8721 33.4109 22.2312 33.757 23.5106C34.103 24.79 34.8745 25.9134 35.9444 26.6957C37.0143 27.478 38.3187 27.8725 39.6428 27.8144C40.9669 27.7562 42.2316 27.2488 43.2288 26.3757C44.226 25.5026 44.896 24.316 45.1285 23.0111C45.3611 21.7063 45.1423 20.3612 44.5082 19.1974C43.874 18.0336 42.8624 17.1205 41.64 16.6084L41.6407 16.6088ZM39.3892 26.6895C38.271 26.6895 37.1894 26.2909 36.3385 25.5653C35.4876 24.8398 34.9232 23.8347 34.7465 22.7305C34.5698 21.6263 34.7925 20.4953 35.3745 19.5404C35.9565 18.5856 36.8598 17.8694 37.9222 17.5205C38.3954 17.3638 38.8908 17.2844 39.3892 17.2854C39.7636 17.2853 40.1366 17.3295 40.5006 17.4171H40.5025C40.6135 17.4452 40.7225 17.4745 40.8298 17.5111C40.8392 17.515 40.849 17.5167 40.858 17.5205C40.8712 17.5244 40.8861 17.5299 40.8994 17.5338C41.9546 17.8919 42.8483 18.6131 43.4213 19.5689C43.9943 20.5246 44.2093 21.6528 44.0279 22.7523C43.8465 23.8517 43.2806 24.8511 42.431 25.5722C41.5814 26.2933 40.5034 26.6892 39.3891 26.6895H39.3892Z" fill="white"/>
</svg>
