<svg width="144" height="85" viewBox="0 0 144 85" fill="none" xmlns="http://www.w3.org/2000/svg">
<path d="M112.435 23.8705C110.448 23.8705 108.53 24.0765 106.663 24.4371C99.9503 10.5809 85.8217 1 69.4326 1C47.7516 1 29.9753 17.7408 28.2114 39.0145C26.9612 38.7913 25.6768 38.6711 24.3753 38.6711C11.8907 38.6711 1.76953 48.8186 1.76953 61.3355C1.76953 73.8525 11.8907 84 24.3753 84C32.0304 84 104.951 84 112.435 84C128.995 84 142.422 70.5387 142.422 53.9352C142.422 37.3146 128.995 23.8705 112.435 23.8705Z" fill="white" stroke="#E68A00" stroke-width="2" stroke-linecap="round" stroke-linejoin="round"/>
<path d="M86.2309 52.6738V67.2479H57.803V52.6738H51.5693V72.9344H92.4646V52.6738H86.2309Z" stroke="#E68A00" stroke-width="2" stroke-linecap="round" stroke-linejoin="round"/>
<path d="M85.4121 46.4189L72.1163 33.0938L58.8008 46.4189L62.3948 50.0155L69.4453 42.9795V59.3509H74.7872V42.9795L81.8181 50.0155L85.4121 46.4189Z" stroke="#E68A00" stroke-width="2" stroke-linecap="round" stroke-linejoin="round"/>
</svg>
