<svg width="18" height="18" viewBox="0 0 18 18" fill="none" xmlns="http://www.w3.org/2000/svg">
<path d="M16.9315 12.5C15.7644 12.5 14.5 12.3 13.4302 11.9H13.1384C12.8466 11.9 12.6521 12 12.4576 12.2L10.3178 14.4C7.59454 12.9 5.26029 10.6 3.89865 7.8L6.03837 5.6C6.33015 5.3 6.42741 4.9 6.23289 4.6C5.94111 3.5 5.74659 2.2 5.74659 1C5.74659 0.5 5.26029 0 4.77399 0H1.36988C0.883579 0 0.397278 0.5 0.397278 1C0.397278 10.4 7.78906 18 16.9315 18C17.4178 18 17.9041 17.5 17.9041 17V13.5C17.9041 13 17.4178 12.5 16.9315 12.5ZM2.34248 2H3.80139C3.89865 2.9 4.09317 3.8 4.28769 4.6L3.12057 5.8C2.73152 4.6 2.43974 3.3 2.34248 2ZM15.9589 16C14.6945 15.9 13.4302 15.6 12.263 15.2L13.4302 14C14.2082 14.2 15.0836 14.4 15.9589 14.4V16ZM12.0685 9H14.0137C14.0137 7.67392 13.5014 6.40215 12.5894 5.46447C11.6774 4.52678 10.4405 4 9.1507 4V6C9.92455 6 10.6667 6.31607 11.2139 6.87868C11.7611 7.44129 12.0685 8.20435 12.0685 9ZM15.9589 9H17.9041C17.9041 4 13.9845 0 9.1507 0V2C12.9049 2 15.9589 5.13 15.9589 9Z" fill="#696969"/>
</svg>
