<svg width="20" height="15" viewBox="0 0 20 15" fill="none" xmlns="http://www.w3.org/2000/svg">
<path d="M17.2727 3.63636H14.5455V0H1.81818C0.818182 0 0 0.818182 0 1.81818V11.8182H1.81818C1.81818 13.3273 3.03636 14.5455 4.54545 14.5455C6.05455 14.5455 7.27273 13.3273 7.27273 11.8182H12.7273C12.7273 13.3273 13.9455 14.5455 15.4545 14.5455C16.9636 14.5455 18.1818 13.3273 18.1818 11.8182H20V7.27273L17.2727 3.63636ZM16.8182 5L18.6 7.27273H14.5455V5H16.8182ZM4.54545 12.7273C4.04545 12.7273 3.63636 12.3182 3.63636 11.8182C3.63636 11.3182 4.04545 10.9091 4.54545 10.9091C5.04545 10.9091 5.45455 11.3182 5.45455 11.8182C5.45455 12.3182 5.04545 12.7273 4.54545 12.7273ZM6.56364 10C6.06364 9.44545 5.35455 9.09091 4.54545 9.09091C3.73636 9.09091 3.02727 9.44545 2.52727 10H1.81818V1.81818H12.7273V10H6.56364ZM15.4545 12.7273C14.9545 12.7273 14.5455 12.3182 14.5455 11.8182C14.5455 11.3182 14.9545 10.9091 15.4545 10.9091C15.9545 10.9091 16.3636 11.3182 16.3636 11.8182C16.3636 12.3182 15.9545 12.7273 15.4545 12.7273Z" fill="black"/>
</svg>
