<svg width="45" height="49" viewBox="0 0 45 49" fill="none" xmlns="http://www.w3.org/2000/svg">
<path d="M6.49019 42.3137C10.6382 46.491 16.1807 48.7904 22.1007 48.7904L22.1347 48.7903C28.0468 48.7816 33.6115 46.4841 37.8037 42.3214C41.9837 38.1708 44.2914 32.6303 44.3014 26.7203C44.3116 20.7824 42.0048 15.2003 37.8059 11.0023C36.982 10.1789 35.6464 10.1789 34.8227 11.0027C33.999 11.8265 33.9991 13.1621 34.823 13.9858C38.2229 17.3851 40.0908 21.905 40.0826 26.7131C40.0744 31.4932 38.2093 35.9732 34.831 39.3278C31.4327 42.7021 26.9215 44.5645 22.1284 44.5715L22.1009 44.5716C17.3135 44.5714 12.8333 42.7146 9.47836 39.3357C6.08719 35.9451 4.21922 31.4444 4.21875 26.6626C4.21828 21.8806 6.08531 17.3796 9.47578 13.9884C10.2995 13.1646 10.2994 11.829 9.47554 11.0053C8.65172 10.1818 7.31613 10.1818 6.49242 11.0056C2.3052 15.1937 -0.000585826 20.7542 1.11645e-07 26.663C0.000586049 32.5717 2.30742 38.1319 6.49019 42.3137Z" fill="black"/>
<path d="M21.9373 1.09061e-08C20.7723 0.000117198 19.828 0.944649 19.8281 2.10961L19.8306 23.5147C19.8307 24.6797 20.7752 25.624 21.9402 25.6239C23.1052 25.6238 24.0495 24.6792 24.0493 23.5143L24.0469 2.10914C24.0468 0.944179 23.1022 -0.000117177 21.9373 1.09061e-08Z" fill="black"/>
</svg>
