<svg width="21" height="21" viewBox="0 0 21 21" fill="none" xmlns="http://www.w3.org/2000/svg">
<path d="M11.4762 0.5V0.52003V2.52303C15.8728 3.06385 18.9875 7.05984 18.4467 11.4564C17.986 15.1019 15.1217 17.9962 11.4762 18.4269V20.4299C16.9845 19.8791 20.9905 14.9917 20.4397 9.48348C19.989 4.72634 16.2133 0.970706 11.4762 0.5ZM9.47321 0.530045C7.52028 0.72033 5.65749 1.47146 4.1352 2.73335L5.56735 4.21557C6.68903 3.31422 8.04106 2.73335 9.47321 2.53305V0.530045ZM2.72309 4.14547C1.46119 5.66775 0.710066 7.52053 0.509766 9.48348H2.51277C2.70306 8.06134 3.2639 6.70931 4.15523 5.57762L2.72309 4.14547ZM0.519781 11.4865C0.720081 13.4494 1.49124 15.3022 2.7331 16.8245L4.15523 15.3923C3.27391 14.2606 2.70306 12.9086 2.52279 11.4865H0.519781ZM5.56735 16.8645L4.1352 18.2366C5.64747 19.4985 7.51027 20.2897 9.47321 20.5V18.497C8.05108 18.3167 6.69905 17.7459 5.56735 16.8645ZM15.302 13.6798L11.1858 9.5636C11.5964 8.52203 11.366 7.3002 10.5048 6.44892C9.60341 5.53756 8.25138 5.35729 7.15974 5.85804L9.10266 7.80095L7.75063 9.163L5.75764 7.21006C5.21683 8.3017 5.4672 9.65373 6.34852 10.5651C7.20982 11.4264 8.43165 11.6467 9.47321 11.2461L13.5894 15.3523C13.7697 15.5426 14.0401 15.5426 14.2203 15.3523L15.2619 14.3207C15.4822 14.1405 15.4822 13.82 15.302 13.6798Z" fill="black"/>
</svg>
