<svg width="53" height="28" viewBox="0 0 53 28" fill="none" xmlns="http://www.w3.org/2000/svg">
<path d="M48.7201 14.0708C49.1255 14.2699 49.5109 14.5071 49.8712 14.7794C49.8114 14.8719 49.7293 14.9478 49.6324 15.0001C49.5355 15.0525 49.427 15.0796 49.3169 15.0789C49.2471 15.0793 49.1777 15.0688 49.1112 15.0476C48.9425 14.9926 48.8023 14.8733 48.7211 14.7155C48.6399 14.5577 48.6243 14.3742 48.6776 14.2049L48.7201 14.0708Z" fill="white"/>
<path d="M51.2323 10.6307L50.1124 14.1222C49.7388 13.8554 49.3424 13.622 48.9277 13.4248L49.9023 10.3826L49.462 8.01547C49.4453 7.92859 49.4459 7.83927 49.4639 7.75264C49.4819 7.66601 49.5168 7.5838 49.5667 7.51073C49.6166 7.43767 49.6804 7.3752 49.7546 7.32692C49.8287 7.27865 49.9117 7.24552 49.9987 7.22944C50.0857 7.21337 50.175 7.21467 50.2615 7.23327C50.348 7.25187 50.4299 7.28741 50.5026 7.33782C50.5753 7.38824 50.6373 7.45255 50.6851 7.52703C50.7328 7.60152 50.7653 7.68472 50.7808 7.77183L51.2524 10.3044C51.2727 10.4132 51.2657 10.5253 51.2323 10.6307Z" fill="white"/>
<path d="M45.5015 17.6629C44.9268 17.6629 44.365 17.8333 43.8871 18.1526C43.4093 18.4719 43.0368 18.9257 42.8169 19.4567C42.597 19.9876 42.5394 20.5719 42.6515 21.1356C42.7637 21.6993 43.0404 22.217 43.4468 22.6234C43.8532 23.0298 44.371 23.3066 44.9346 23.4187C45.4983 23.5308 46.0826 23.4733 46.6136 23.2533C47.1445 23.0334 47.5984 22.661 47.9177 22.1831C48.237 21.7052 48.4074 21.1434 48.4074 20.5687C48.4059 19.7985 48.0993 19.0602 47.5546 18.5156C47.01 17.971 46.2718 17.6643 45.5015 17.6629V17.6629ZM45.5015 22.1356C45.1922 22.1356 44.8897 22.0439 44.6325 21.8721C44.3752 21.7002 44.1747 21.456 44.0562 21.1702C43.9377 20.8844 43.9066 20.57 43.9668 20.2665C44.027 19.963 44.1758 19.6842 44.3944 19.4653C44.613 19.2464 44.8915 19.0972 45.1949 19.0366C45.4983 18.976 45.8128 19.0066 46.0988 19.1247C46.3847 19.2428 46.6292 19.443 46.8014 19.7C46.9736 19.957 47.0658 20.2593 47.0662 20.5687C47.0662 20.9839 46.9014 21.3821 46.6081 21.6759C46.3147 21.9697 45.9167 22.135 45.5015 22.1356V22.1356Z" fill="white"/>
<path d="M11.982 17.6628C11.4073 17.6628 10.8455 17.8332 10.3676 18.1525C9.88975 18.4718 9.5173 18.9256 9.29737 19.4566C9.07743 19.9875 9.01989 20.5718 9.13201 21.1355C9.24413 21.6992 9.52088 22.2169 9.92727 22.6233C10.3337 23.0297 10.8514 23.3065 11.4151 23.4186C11.9788 23.5307 12.563 23.4732 13.094 23.2532C13.625 23.0333 14.0788 22.6608 14.3981 22.183C14.7174 21.7051 14.8878 21.1433 14.8878 20.5686C14.8867 19.7983 14.5802 19.0598 14.0355 18.5151C13.4908 17.9704 12.7523 17.6639 11.982 17.6628V17.6628ZM11.982 22.1355C11.6726 22.1355 11.3702 22.0438 11.113 21.872C10.8557 21.7001 10.6551 21.4559 10.5366 21.1701C10.4182 20.8843 10.387 20.5698 10.4472 20.2664C10.5074 19.9629 10.6562 19.6841 10.8748 19.4652C11.0934 19.2463 11.372 19.0971 11.6754 19.0365C11.9788 18.9759 12.2933 19.0065 12.5792 19.1246C12.8652 19.2427 13.1097 19.4429 13.2819 19.6999C13.4541 19.9569 13.5462 20.2592 13.5467 20.5686C13.5467 20.9838 13.3819 21.382 13.0885 21.6758C12.7952 21.9696 12.3972 22.1349 11.982 22.1355V22.1355Z" fill="white"/>
<path d="M6.70811 7.02298H3.57428L1.48878 3.5561C1.36414 3.34884 1.31664 3.10424 1.35467 2.8654C1.47314 2.10318 1.55584 1.63825 1.61172 1.35437C3.18981 1.49966 8.41584 2.10765 15.8615 3.01069C16.2006 3.05238 16.5248 3.17456 16.8071 3.36703C17.0894 3.55951 17.3216 3.8167 17.4843 4.11715L17.909 4.90396H19.4334L18.6645 3.4801C18.4002 2.99068 18.0223 2.57183 17.5625 2.25873C17.1028 1.94563 16.5746 1.74741 16.0224 1.68072C14.0956 1.44601 10.3784 0.996728 7.14846 0.61897C0.921029 -0.107489 0.923264 -0.107489 0.632681 0.176389C0.45386 0.350739 0.380097 0.422267 0.0291615 2.65529C-0.0581019 3.20655 0.0519226 3.77092 0.339862 4.24903L2.61982 8.03779C2.67926 8.13715 2.76341 8.21943 2.86407 8.27662C2.96474 8.33381 3.07851 8.36396 3.19429 8.36414H6.36835C6.39364 7.8993 6.50904 7.4438 6.70811 7.02298V7.02298Z" fill="white"/>
<path d="M49.8711 14.7793C49.5108 14.5071 49.1253 14.2698 48.72 14.0707C48.4954 13.9589 48.2648 13.8597 48.0293 13.7734C47.9421 13.7399 47.8549 13.7109 47.7677 13.6818C47.4299 13.5694 47.0839 13.4835 46.7328 13.4247C45.0468 13.1343 43.3124 13.449 41.836 14.3132C40.3595 15.1774 39.2358 16.5356 38.6635 18.1478C38.5137 18.5701 38.4044 19.0058 38.3372 19.4488C38.2788 19.8192 38.2496 20.1936 38.25 20.5686C38.2505 21.8035 38.5663 23.0178 39.1676 24.0964C39.7689 25.175 40.6356 26.0822 41.6857 26.732C42.7358 27.3817 43.9344 27.7526 45.168 27.8093C46.4016 27.866 47.6292 27.6068 48.7345 27.0562C49.8398 26.5055 50.7862 25.6817 51.4839 24.6629C52.1817 23.644 52.6076 22.4639 52.7215 21.2342C52.8353 20.0046 52.6332 18.7663 52.1344 17.6367C51.6356 16.507 50.8565 15.5235 49.8711 14.7793V14.7793ZM48.3757 25.7298L48.0874 25.1822L46.9005 25.8058L47.1329 26.2484C46.0721 26.5539 44.9468 26.5554 43.8851 26.2529L44.0706 25.6583L42.7898 25.2627L42.6423 25.7388C41.6767 25.203 40.8795 24.4089 40.34 23.4454L40.8898 23.1548L40.2662 21.9679L39.8214 22.2026C39.6683 21.6714 39.5908 21.1214 39.5912 20.5686C39.5913 20.0222 39.6665 19.4785 39.8147 18.9525L40.4137 19.1381L40.8094 17.8573L40.3288 17.7075C40.8617 16.7383 41.6585 15.94 42.6266 15.4052L42.9172 15.9573L44.1041 15.3337L43.8694 14.8888C44.9315 14.5864 46.0566 14.5848 47.1195 14.8844L46.934 15.4812L48.2148 15.8768L48.3623 15.3985C49.3325 15.9299 50.1317 16.726 50.6669 17.6941L50.1125 17.9847L50.7384 19.1716L51.1832 18.9369C51.4864 19.9989 51.4872 21.1245 51.1854 22.187L50.5909 22.0014L50.193 23.2822L50.6713 23.4298C50.1347 24.3948 49.3397 25.1913 48.3757 25.7298V25.7298Z" fill="white"/>
<path d="M18.8251 18.1703C18.4849 17.19 17.9368 16.2947 17.2184 15.5459C16.5001 14.7971 15.6284 14.2123 14.6631 13.8316C14.5267 13.778 14.3904 13.7266 14.2495 13.6819C13.9638 13.5858 13.6718 13.5096 13.3756 13.4539C11.9096 13.1666 10.3906 13.3391 9.02639 13.9479C7.66218 14.5567 6.51931 15.572 5.75405 16.855C4.98879 18.138 4.63851 19.6261 4.75109 21.1157C4.86368 22.6054 5.43363 24.0239 6.38303 25.1773C7.33242 26.3307 8.61491 27.1627 10.0551 27.5595C11.4953 27.9563 13.023 27.8986 14.4291 27.3943C15.8353 26.8899 17.0514 25.9635 17.9111 24.7418C18.7707 23.52 19.232 22.0626 19.2319 20.5687C19.2318 19.7521 19.0943 18.9413 18.8251 18.1703V18.1703ZM14.8575 25.7299L14.5692 25.1823L13.3823 25.8059L13.6147 26.2485C12.5531 26.5539 11.4271 26.5555 10.3647 26.253L10.5502 25.6584L9.26939 25.2627L9.12186 25.7389C8.15698 25.2027 7.36111 24.4076 6.82402 23.4432L7.37165 23.1549L6.74578 21.968L6.3032 22.2004C6.15016 21.6701 6.07266 21.1207 6.07297 20.5687C6.07311 20.0223 6.14832 19.4785 6.2965 18.9526L6.89331 19.1381L7.29118 17.8573L6.8106 17.7076C7.34333 16.739 8.13917 15.9408 9.10621 15.4053L9.3968 15.9574L10.5837 15.3337L10.349 14.8889C11.4118 14.5865 12.5377 14.5849 13.6013 14.8844L13.4158 15.4813L14.6966 15.8769L14.8441 15.3986C15.8127 15.931 16.6115 16.7259 17.1487 17.6919L16.5943 17.9847L17.2202 19.1717L17.6628 18.9392C17.966 19.9997 17.9668 21.1239 17.665 22.1848L17.0727 22.0015L16.6748 23.2823L17.1509 23.4298C16.6151 24.3948 15.8209 25.1913 14.8575 25.7299V25.7299Z" fill="white"/>
<path d="M37.7919 13.3398L40.8162 10.8967H47.542L46.9385 12.7788C47.2916 12.8426 47.6397 12.9315 47.9802 13.0448C48.0651 13.0738 48.15 13.1029 48.235 13.1342L49.1023 10.4318C49.1021 10.4306 49.1022 10.4293 49.1026 10.4282C49.103 10.427 49.1036 10.4259 49.1045 10.4251C49.1135 10.3936 49.1203 10.3614 49.1246 10.3289C49.131 10.2951 49.134 10.2606 49.1335 10.2261C49.1335 10.1789 49.129 10.1317 49.1201 10.0853L48.6507 7.57063C48.6364 7.49329 48.6084 7.41912 48.568 7.35158H48.5703L48.264 6.833C47.9074 6.23599 47.4024 5.74146 46.798 5.39755C46.1936 5.05363 45.5104 4.87204 44.815 4.87044H38.3104L35.9545 0.531809C35.9031 0.437844 35.83 0.35755 35.7412 0.297648C35.6524 0.237746 35.5506 0.199978 35.4442 0.187503C35.3378 0.175028 35.23 0.18821 35.1298 0.225945C35.0296 0.263681 34.9399 0.324873 34.8681 0.4044L33.5764 1.83698L32.0944 0.834463C31.9603 0.744003 31.7981 0.704882 31.6375 0.724265L29.2044 1.02088C29.0279 1.04243 28.8671 1.13323 28.7575 1.2733C28.6479 1.41338 28.5985 1.59125 28.62 1.76779C28.6416 1.94434 28.7324 2.10509 28.8724 2.21469C29.0125 2.32429 29.1904 2.37375 29.3669 2.3522L31.551 2.08531L32.6686 2.84195L32.0897 3.48347L31.3722 4.27922C30.724 4.69721 24.9257 8.24456 19.8852 5.73661C19.8249 5.70978 19.7667 5.68072 19.7086 5.64943C19.6118 5.5997 19.5045 5.57365 19.3957 5.57343H10.5619C10.4837 5.57231 8.59268 5.56114 7.60023 6.84641C7.55552 6.90453 7.51305 6.96264 7.47506 7.023C7.21492 7.42452 7.06322 7.88658 7.03471 8.36415C7.00482 8.89592 7.06605 9.42888 7.21577 9.94001H7.218C7.2571 10.0813 7.34145 10.2059 7.45812 10.2948C7.57479 10.3836 7.71736 10.4317 7.86399 10.4318H9.99866C11.3607 10.4307 12.7111 10.6816 13.9819 11.1716L13.5482 12.8034C13.8568 12.8657 14.1613 12.9463 14.4602 13.0448C14.5876 13.0872 14.7128 13.132 14.8358 13.1789L15.2202 11.7372C17.6732 13.0353 19.546 15.2114 20.4641 17.8305L19.4896 18.0339C19.6328 18.459 19.739 18.8958 19.807 19.3393L20.8374 19.1247C21.0654 20.0478 21.1615 20.6648 21.1638 20.6715C21.1883 20.8294 21.2684 20.9735 21.3897 21.0776C21.511 21.1817 21.6656 21.239 21.8254 21.2392H35.532C35.685 21.2392 35.8333 21.1868 35.9524 21.0909C36.0716 20.9949 36.1543 20.8612 36.1869 20.7117L36.5602 18.9995L37.6846 19.2834C37.7555 18.8419 37.8647 18.4073 38.0109 17.9847L36.8441 17.6896L37.7919 13.3398ZM46.7284 7.023H39.348L38.968 6.2116H44.815C45.1719 6.21263 45.525 6.28494 45.8536 6.42428C46.1821 6.56361 46.4796 6.76717 46.7284 7.023ZM35.228 2.00708L37.3046 5.8249L38.0954 7.51051L34.1193 10.8453C34.0069 10.9377 33.929 11.0652 33.898 11.2074L32.8765 15.5974L31.7119 13.6461C31.6634 13.5653 31.5986 13.4956 31.5217 13.4413C31.4447 13.3871 31.3572 13.3495 31.2649 13.3309L26.1819 12.3317L25.3929 12.1775L32.2842 5.27055C32.2909 5.26161 32.2998 5.25491 32.3065 5.24597L32.3289 5.21914L33.0844 4.38316L34.1864 3.16047L35.228 2.00708ZM25.0218 13.4941L25.0419 13.4739L30.7128 14.5893L31.9712 16.6994H24.3624C24.7558 15.8657 25.1716 14.6609 25.0218 13.4941ZM9.99866 9.09061H8.40269C8.31104 8.48709 8.39598 8.01098 8.65751 7.66899C9.23644 6.9157 10.5374 6.91123 10.553 6.9157H19.2325C22.534 8.58321 26.0098 8.01769 28.5312 7.13252L23.8081 11.8646L23.1755 11.7416L14.9699 10.1278C13.4021 9.44274 11.7095 9.08961 9.99866 9.09061ZM34.9933 19.8981H22.3865C22.3038 19.4913 22.1719 18.8922 21.9752 18.1769C21.3255 15.8204 19.9886 13.7108 18.135 12.1171L23.5734 13.1856C24.0964 14.5312 23.0056 16.5228 22.7217 16.9252C22.6619 16.9933 22.6162 17.0726 22.5874 17.1586C22.5586 17.2446 22.5473 17.3355 22.5541 17.4259L23.0302 18.0138L23.2224 17.9512V18.0406H33.1537C33.3052 18.041 33.4523 17.9899 33.5709 17.8957C33.6895 17.8014 33.7726 17.6697 33.8064 17.522L35.152 11.7282L39.1665 8.36415H47.4348L47.656 9.55554H40.5792C40.4253 9.555 40.276 9.60793 40.1568 9.70531L36.7659 12.4457C36.647 12.5419 36.5649 12.6761 36.5334 12.8257L34.9933 19.8981Z" fill="white"/>
</svg>
