<svg width="32" height="29" viewBox="0 0 32 29" fill="none" xmlns="http://www.w3.org/2000/svg">
<g clip-path="url(#clip0_1724_268)">
<path d="M32 27.8185C31.9906 27.8313 31.9782 27.8442 31.9735 27.8586C31.7818 28.5973 31.2815 28.9988 30.5396 28.9988C27.248 29.0004 23.9564 29.0004 20.6647 28.9988C19.781 28.9988 19.2028 28.3982 19.2028 27.4941C19.2028 22.0294 19.1966 16.5647 19.2075 11.1C19.2106 9.70454 19.5909 8.39095 20.166 7.13839C21.2102 4.8597 22.8685 3.17998 24.9834 1.95793C26.6012 1.02333 28.3421 0.445223 30.1547 0.072666C30.2295 0.0566061 30.3074 0.0517901 30.3776 0.0277022C30.4945 -0.0124437 30.5365 0.00682437 30.535 0.149746C30.5303 1.34289 30.5319 2.53764 30.5334 3.73079C30.5334 3.81268 30.5303 3.87049 30.4321 3.90422C28.6008 4.54977 27.2948 5.80715 26.4531 7.58322C25.8796 8.79402 25.6084 10.0851 25.6037 11.4324C25.5991 12.8392 25.6037 14.2459 25.5991 15.6526C25.5991 15.7827 25.6302 15.8212 25.7596 15.8196C27.2823 15.8148 28.8065 15.8164 30.3292 15.8164C31.3033 15.8164 31.6836 16.0926 32 17.0224C32 20.6195 32 24.2182 32 27.8185Z" fill="black" fill-opacity="0.05"/>
<path d="M0.00437917 19.2093C0.0043794 16.6528 0.0184044 14.0979 -0.000297927 11.5414C-0.0127661 9.90825 0.365961 8.37948 1.06575 6.9294C2.13647 4.70691 3.80099 3.07697 5.89567 1.89346C7.48227 0.995794 9.1842 0.435352 10.9516 0.0740374C11.0731 0.0499495 11.229 -0.0415842 11.3085 0.0242556C11.388 0.0917014 11.3319 0.266739 11.3334 0.395206C11.335 1.50003 11.3319 2.60325 11.3365 3.70807C11.3365 3.82851 11.3007 3.87508 11.19 3.91522C9.38525 4.57202 8.08854 5.81815 7.25628 7.57816C6.68273 8.78897 6.41155 10.0801 6.40687 11.4274C6.40064 12.8229 6.40999 14.2183 6.40064 15.6138C6.39908 15.7921 6.45207 15.8194 6.60792 15.8194C8.18517 15.813 9.76397 15.8146 11.3412 15.8162C12.0285 15.8178 12.574 16.2192 12.7501 16.8455C12.7907 16.9916 12.8047 17.141 12.8047 17.2935C12.8047 20.7012 12.8047 24.1104 12.8031 27.518C12.8031 28.3883 12.2156 28.9986 11.3662 28.9986C9.15146 29.0002 6.93677 28.9986 4.72208 28.9986C3.60149 28.9986 2.4809 29.0034 1.36031 28.9954C0.744685 28.9905 0.221015 28.5634 0.0573684 27.9644C0.0137282 27.807 0.00593579 27.6448 0.0059358 27.4826C0.00593604 24.7238 0.00437893 21.9666 0.00437917 19.2093Z" fill="black" fill-opacity="0.05"/>
</g>
<defs>
<clipPath id="clip0_1724_268">
<rect width="32" height="29" fill="white" transform="translate(32 29) rotate(-180)"/>
</clipPath>
</defs>
</svg>
