<svg width="24" height="24" viewBox="0 0 24 24" fill="none" xmlns="http://www.w3.org/2000/svg">
<path fill-rule="evenodd" clip-rule="evenodd" d="M2.01684 0.101312C1.10911 0.356993 0.445041 0.996336 0.119024 1.9286C0.011298 2.23666 0.00772234 2.43064 0.00772234 8.00905V13.7712L0.135427 13.9558C0.205637 14.0573 0.335215 14.193 0.42336 14.2572C0.58143 14.3725 0.631547 14.3743 4.22176 14.3896C7.12759 14.402 7.86925 14.3908 7.90602 14.3338C7.96528 14.2419 7.96641 12.777 7.90733 12.6855C7.87282 12.632 7.17504 12.6129 4.85751 12.6017L1.85235 12.5872V7.47809V2.36894L1.98863 2.18093C2.0636 2.07758 2.22962 1.94619 2.35755 1.88901C2.57794 1.79057 2.82234 1.78504 7.00494 1.78387C11.8049 1.78253 11.6326 1.77159 11.9333 2.09684C12.2053 2.39094 12.2106 2.45661 12.2106 5.4982C12.2106 8.05585 12.2202 8.36312 12.3004 8.39344C12.4174 8.43755 13.8202 8.43755 13.9371 8.39344C14.0174 8.36312 14.0269 8.04842 14.0269 5.41377C14.0269 3.70179 14.0033 2.34577 13.9707 2.17624C13.8316 1.45476 13.2442 0.673873 12.573 0.31841C11.9655 -0.00349505 11.9773 -0.00282501 6.96055 0.000636935C2.76121 0.0035405 2.3332 0.0122512 2.01684 0.101312ZM18.0567 1.23286C17.9076 1.27363 17.5447 1.59453 16.6022 2.51875C15.2193 3.87472 15.1558 3.96596 15.2783 4.42081C15.3327 4.62272 15.5216 4.83574 16.5406 5.84378C17.1997 6.4958 17.8206 7.06746 17.9206 7.11409C18.4408 7.35698 19.0417 7.07729 19.1938 6.52154C19.2878 6.17825 19.1829 5.91324 18.7894 5.49932L18.4483 5.14061L20.4519 5.12252C22.7013 5.1022 22.7493 5.09444 23.0174 4.70631C23.3008 4.29601 23.1865 3.75383 22.7493 3.43499C22.5947 3.32226 22.5174 3.31762 20.5216 3.30221C19.3844 3.29344 18.454 3.2705 18.454 3.25112C18.454 3.2318 18.6047 3.06161 18.7889 2.87288C19.1746 2.47771 19.2799 2.21617 19.1883 1.88136C19.1026 1.56811 18.8412 1.30495 18.5424 1.23091C18.4037 1.19657 18.2824 1.17072 18.2728 1.17345C18.2632 1.17624 18.166 1.20294 18.0567 1.23286ZM3.99286 4.26781C3.71043 4.38848 3.64022 4.61652 3.64022 5.4131C3.64022 6.51009 3.71679 6.58469 4.84207 6.58469C6.04397 6.58469 6.08081 6.54862 6.08081 5.37145C6.08081 4.52645 6.04936 4.42466 5.73964 4.26709C5.51578 4.15324 4.25973 4.15374 3.99286 4.26781ZM8.2376 4.30729C7.97674 4.48 7.90387 4.70742 7.9016 5.35626C7.89927 6.0358 7.96199 6.29964 8.16376 6.45878C8.31111 6.57497 8.37973 6.58413 9.10049 6.58441C10.2742 6.58486 10.3508 6.52193 10.3851 5.52925C10.4099 4.81408 10.3542 4.55013 10.1355 4.34783C9.99664 4.21929 9.94437 4.21058 9.21231 4.19372C8.47582 4.17674 8.42615 4.18255 8.2376 4.30729ZM4.09627 8.44442C3.98196 8.48317 3.84358 8.59295 3.76588 8.70652C3.63909 8.89202 3.63318 8.94088 3.65044 9.66543C3.66758 10.3856 3.67643 10.437 3.80709 10.5737C4.01272 10.7888 4.28102 10.8436 5.00797 10.8193C6.01701 10.7855 6.08098 10.7101 6.08052 9.55543C6.08024 8.84634 6.07093 8.77883 5.95282 8.63388C5.87574 8.53929 5.73572 8.4571 5.59837 8.42583C5.27876 8.35307 4.33119 8.36485 4.09627 8.44442ZM8.4152 8.4241C8.01789 8.52321 7.89978 8.79268 7.89978 9.59993C7.89978 10.1695 7.96358 10.4719 8.11512 10.621C8.2275 10.7316 8.22824 10.7311 8.39573 10.459C8.81472 9.77844 9.30641 9.2864 9.94346 8.91005C10.1134 8.80966 10.2501 8.70491 10.2473 8.67732C10.2444 8.64968 10.1741 8.57726 10.0911 8.51634C9.96406 8.42292 9.83534 8.40321 9.27343 8.39098C8.90661 8.38294 8.52043 8.39791 8.4152 8.4241ZM11.3252 9.65755C10.5064 9.81719 9.71348 10.4629 9.36805 11.2513L9.17411 11.6938V17.5612V23.4284L9.3336 23.6341C9.64202 24.032 9.2005 24.0091 16.2449 23.9928C22.5816 23.9782 22.5892 23.978 22.7493 23.8613C22.8374 23.7971 22.9669 23.6614 23.0372 23.5599L23.1649 23.3753V17.6425C23.1649 11.3262 23.1835 11.674 22.8098 10.9796C22.4737 10.355 21.6866 9.79296 20.9575 9.65694C20.5906 9.58848 11.6765 9.58904 11.3252 9.65755ZM20.9048 11.5424C21.0275 11.6175 21.1621 11.7688 21.2314 11.9097C21.3484 12.1473 21.3492 12.1871 21.3347 17.1702L21.3203 22.1913H16.1553H10.9904L10.9744 17.2497C10.9629 13.6932 10.9765 12.2431 11.0228 12.0761C11.0946 11.8177 11.3557 11.5429 11.6147 11.4531C11.7297 11.4133 13.2318 11.3975 16.2405 11.4044L20.6959 11.4147L20.9048 11.5424ZM13.2607 13.8253C13.0935 13.8692 12.943 14.0154 12.8555 14.2187C12.7497 14.4646 12.751 15.5699 12.8573 15.8203C13.0001 16.1564 13.1037 16.1888 14.0364 16.1888C14.8212 16.1888 14.8809 16.1811 15.02 16.0631C15.2049 15.9062 15.2728 15.6247 15.2728 15.0162C15.2728 14.4153 15.2084 14.143 15.0229 13.9605C14.8807 13.8205 14.851 13.8153 14.125 13.8056C13.7121 13.8 13.3231 13.8089 13.2607 13.8253ZM17.5052 13.8243C17.4361 13.8389 17.3148 13.9265 17.2356 14.019C17.0968 14.1813 17.0918 14.2142 17.0918 14.962C17.0918 16.1537 17.1271 16.1888 18.3251 16.1888C19.4545 16.1888 19.5324 16.1139 19.5324 15.0273C19.5324 13.8942 19.4628 13.8213 18.3689 13.8072C17.9631 13.8021 17.5744 13.8097 17.5052 13.8243ZM4.4472 16.8959C4.22869 17.0018 4.04922 17.2313 3.97333 17.5017C3.88428 17.8189 3.99848 18.098 4.38273 18.5021L4.72339 18.8603L2.69191 18.8786C0.4195 18.8991 0.430341 18.8973 0.151263 19.3013C-0.128042 19.7057 -0.0109511 20.2502 0.423303 20.5669C0.578025 20.6798 0.654705 20.6843 2.6868 20.6997L4.79008 20.7156L4.41951 21.0932C3.9575 21.5641 3.86056 21.8163 4.00171 22.18C4.18606 22.6549 4.63377 22.9026 5.08363 22.7787C5.28841 22.7223 5.51663 22.523 6.57681 21.4746C7.95024 20.1164 8.01392 20.0251 7.8953 19.5846C7.83967 19.3782 7.65839 19.1735 6.63204 18.1581C5.97297 17.5061 5.35198 16.9344 5.25203 16.8878C5.01756 16.7783 4.68269 16.7817 4.4472 16.8959ZM13.0687 18.1225C12.8468 18.2753 12.7782 18.5307 12.7782 19.204C12.7782 19.8773 12.8468 20.1327 13.0687 20.2855C13.1763 20.3598 13.3557 20.3766 14.0364 20.3766C14.8212 20.3766 14.8809 20.369 15.02 20.251C15.2049 20.0941 15.2728 19.8125 15.2728 19.204C15.2728 18.5955 15.2049 18.314 15.02 18.1571C14.8809 18.0391 14.8212 18.0314 14.0364 18.0314C13.3557 18.0314 13.1763 18.0483 13.0687 18.1225ZM17.2565 18.2049L17.0918 18.3783V19.204V20.0298L17.2565 20.2032L17.4211 20.3766H18.2966C19.1322 20.3766 19.1774 20.3709 19.2884 20.251C19.5031 20.0191 19.5324 19.8932 19.5324 19.204C19.5324 18.5148 19.5031 18.389 19.2884 18.1571C19.1774 18.0371 19.1322 18.0314 18.2966 18.0314H17.4211L17.2565 18.2049Z" fill="white"/>
</svg>
