<svg width="13" height="12" viewBox="0 0 13 12" fill="none" xmlns="http://www.w3.org/2000/svg">
<path d="M4.86603 6.35433C4.7243 6.2126 4.5117 6.2126 4.36997 6.35433C4.22824 6.49606 4.22824 6.70866 4.36997 6.85039L6.40147 8.88189L8.43296 6.85039C8.57469 6.70866 8.57469 6.49606 8.43296 6.35433C8.29123 6.2126 8.07863 6.2126 7.9369 6.35433L6.7558 7.53543V0.354331C6.7558 0.165354 6.59044 0 6.40147 0C6.21249 0 6.04714 0.165354 6.04714 0.354331V7.51181L4.86603 6.35433Z" fill="black"/>
<path d="M11.2205 3.54325H7.88976C7.70079 3.54325 7.53543 3.7086 7.53543 3.89758C7.53543 4.08655 7.70079 4.25191 7.88976 4.25191H11.2205C11.5748 4.25191 11.8583 4.53537 11.8583 4.8897V10.6771C11.8583 11.0314 11.5748 11.3149 11.2205 11.3149H1.34646C0.992126 11.3149 0.708661 11.0314 0.708661 10.6771V3.30703C0.708661 2.9527 0.992126 2.66923 1.34646 2.66923H2.90551C3.16535 2.66923 3.40157 2.83459 3.49606 3.07081L3.61417 3.37789C3.80315 3.89758 4.32283 4.25191 4.86614 4.25191C5.05512 4.25191 5.22047 4.08655 5.22047 3.89758C5.22047 3.7086 5.05512 3.54325 4.86614 3.54325C4.6063 3.54325 4.37008 3.37789 4.27559 3.14167L4.15748 2.83459C3.9685 2.3149 3.44882 1.96057 2.90551 1.96057H1.34646C0.614173 1.96057 0 2.55112 0 3.30703V10.6535C0 11.3858 0.590551 11.9999 1.34646 11.9999H11.1968C11.9291 11.9999 12.5433 11.4094 12.5433 10.6535V4.86608C12.5433 4.1338 11.9528 3.54325 11.2205 3.54325Z" fill="black"/>
</svg>
