<svg width="18" height="18" viewBox="0 0 18 18" fill="none" xmlns="http://www.w3.org/2000/svg">
<path d="M12.8571 11L18 16L16.4571 17.5L11.3143 12.5V11.71L11.0366 11.43C9.864 12.41 8.34171 13 6.68571 13C4.91255 13 3.21202 12.3152 1.9582 11.0962C0.704386 9.87721 0 8.22391 0 6.5C0 4.77609 0.704386 3.12279 1.9582 1.90381C3.21202 0.684819 4.91255 0 6.68571 0C8.45888 0 10.1594 0.684819 11.4132 1.90381C12.667 3.12279 13.3714 4.77609 13.3714 6.5C13.3714 8.11 12.7646 9.59 11.7566 10.73L12.0446 11H12.8571ZM6.68571 11C9.25714 11 11.3143 9 11.3143 6.5C11.3143 4 9.25714 2 6.68571 2C4.11429 2 2.05714 4 2.05714 6.5C2.05714 9 4.11429 11 6.68571 11ZM9.25714 7H7.2V9H6.17143V7H4.11429V6H6.17143V4H7.2V6H9.25714V7Z" fill="black"/>
</svg>
