<svg width="25" height="24" viewBox="0 0 25 24" fill="none" xmlns="http://www.w3.org/2000/svg">
<path d="M11.0633 20.526C13.3405 20.5255 15.5521 19.7632 17.3459 18.3605L22.9857 24L24.7998 22.186L19.16 16.5465C20.5635 14.7526 21.3263 12.5407 21.3269 10.263C21.3269 4.60423 16.7224 0 11.0633 0C5.40428 0 0.799805 4.60423 0.799805 10.263C0.799805 15.9217 5.40428 20.526 11.0633 20.526ZM11.0633 2.56575C15.3086 2.56575 18.761 6.01796 18.761 10.263C18.761 14.508 15.3086 17.9602 11.0633 17.9602C6.81809 17.9602 3.36569 14.508 3.36569 10.263C3.36569 6.01796 6.81809 2.56575 11.0633 2.56575Z" fill="white"/>
</svg>
