<svg width="31" height="31" viewBox="0 0 31 31" fill="none" xmlns="http://www.w3.org/2000/svg">
<circle cx="15.5" cy="15.5" r="15.5" fill="#EFEFEF"/>
<path d="M15.8779 11.6442C16.8672 11.6442 17.816 12.0372 18.5155 12.7367C19.2151 13.4363 19.6081 14.3851 19.6081 15.3744C19.6081 16.3637 19.2151 17.3125 18.5155 18.0121C17.816 18.7116 16.8672 19.1046 15.8779 19.1046C14.8885 19.1046 13.9397 18.7116 13.2402 18.0121C12.5406 17.3125 12.1476 16.3637 12.1476 15.3744C12.1476 14.3851 12.5406 13.4363 13.2402 12.7367C13.9397 12.0372 14.8885 11.6442 15.8779 11.6442V11.6442ZM15.8779 13.5093C15.3832 13.5093 14.9088 13.7058 14.559 14.0556C14.2092 14.4054 14.0127 14.8798 14.0127 15.3744C14.0127 15.8691 14.2092 16.3435 14.559 16.6932C14.9088 17.043 15.3832 17.2395 15.8779 17.2395C16.3725 17.2395 16.8469 17.043 17.1967 16.6932C17.5465 16.3435 17.743 15.8691 17.743 15.3744C17.743 14.8798 17.5465 14.4054 17.1967 14.0556C16.8469 13.7058 16.3725 13.5093 15.8779 13.5093ZM14.0127 24.7C13.7796 24.7 13.5838 24.5321 13.5465 24.3083L13.2014 21.837C12.6139 21.6039 12.1103 21.2868 11.6254 20.9138L9.30332 21.8557C9.09816 21.9303 8.84637 21.8557 8.73446 21.6505L6.86934 18.4239C6.74811 18.2187 6.80406 17.9669 6.98125 17.827L8.94895 16.279L8.88367 15.3744L8.94895 14.4419L6.98125 12.9218C6.80406 12.7819 6.74811 12.5301 6.86934 12.3249L8.73446 9.09829C8.84637 8.89313 9.09816 8.8092 9.30332 8.89313L11.6254 9.82569C12.1103 9.46199 12.6139 9.14492 13.2014 8.91178L13.5465 6.4405C13.5838 6.21669 13.7796 6.04883 14.0127 6.04883H17.743C17.9761 6.04883 18.172 6.21669 18.2093 6.4405L18.5543 8.91178C19.1418 9.14492 19.6454 9.46199 20.1303 9.82569L22.4524 8.89313C22.6576 8.8092 22.9093 8.89313 23.0213 9.09829L24.8864 12.3249C25.0076 12.5301 24.9517 12.7819 24.7745 12.9218L22.8068 14.4419L22.872 15.3744L22.8068 16.307L24.7745 17.827C24.9517 17.9669 25.0076 18.2187 24.8864 18.4239L23.0213 21.6505C22.9093 21.8557 22.6576 21.9396 22.4524 21.8557L20.1303 20.9231C19.6454 21.2868 19.1418 21.6039 18.5543 21.837L18.2093 24.3083C18.172 24.5321 17.9761 24.7 17.743 24.7H14.0127ZM15.1784 7.91394L14.8334 10.3479C13.7143 10.5811 12.7258 11.1779 12.0077 12.0079L9.76027 11.038L9.06086 12.2503L11.0286 13.6958C10.6555 14.7869 10.6555 15.9712 11.0286 17.053L9.05153 18.5078L9.75095 19.7201L12.0171 18.7503C12.7351 19.5709 13.7143 20.1678 14.8241 20.3916L15.1691 22.8349H16.5866L16.9316 20.4009C18.0414 20.1678 19.0206 19.5709 19.7386 18.7503L22.0048 19.7201L22.7042 18.5078L20.7272 17.0623C21.1002 15.9713 21.1002 14.7869 20.7272 13.6958L22.6949 12.2503L21.9954 11.038L19.748 12.0079C19.0299 11.1779 18.0414 10.5811 16.9223 10.3572L16.5773 7.91394H15.1784Z" fill="#696969"/>
</svg>
