<svg width="19" height="19" viewBox="0 0 19 19" fill="none" xmlns="http://www.w3.org/2000/svg">
<path d="M9.87786 5.64418C10.8672 5.64418 11.816 6.03718 12.5155 6.73674C13.2151 7.43629 13.6081 8.38509 13.6081 9.37441C13.6081 10.3637 13.2151 11.3125 12.5155 12.0121C11.816 12.7116 10.8672 13.1046 9.87786 13.1046C8.88854 13.1046 7.93974 12.7116 7.24018 12.0121C6.54063 11.3125 6.14762 10.3637 6.14762 9.37441C6.14762 8.38509 6.54063 7.43629 7.24018 6.73674C7.93974 6.03718 8.88854 5.64418 9.87786 5.64418ZM9.87786 7.5093C9.3832 7.5093 8.9088 7.7058 8.55902 8.05558C8.20924 8.40535 8.01274 8.87975 8.01274 9.37441C8.01274 9.86907 8.20924 10.3435 8.55902 10.6932C8.9088 11.043 9.3832 11.2395 9.87786 11.2395C10.3725 11.2395 10.8469 11.043 11.1967 10.6932C11.5465 10.3435 11.743 9.86907 11.743 9.37441C11.743 8.87975 11.5465 8.40535 11.1967 8.05558C10.8469 7.7058 10.3725 7.5093 9.87786 7.5093ZM8.01274 18.7C7.7796 18.7 7.58376 18.5321 7.54646 18.3083L7.20142 15.837C6.6139 15.6039 6.11032 15.2868 5.62539 14.9138L3.30332 15.8557C3.09816 15.9303 2.84637 15.8557 2.73446 15.6505L0.869343 12.4239C0.748111 12.2187 0.804064 11.9669 0.98125 11.827L2.94895 10.279L2.88367 9.37441L2.94895 8.44185L0.98125 6.92178C0.804064 6.7819 0.748111 6.53011 0.869343 6.32495L2.73446 3.09829C2.84637 2.89313 3.09816 2.8092 3.30332 2.89313L5.62539 3.82569C6.11032 3.46199 6.6139 3.14492 7.20142 2.91178L7.54646 0.440503C7.58376 0.216689 7.7796 0.0488281 8.01274 0.0488281H11.743C11.9761 0.0488281 12.172 0.216689 12.2093 0.440503L12.5543 2.91178C13.1418 3.14492 13.6454 3.46199 14.1303 3.82569L16.4524 2.89313C16.6576 2.8092 16.9093 2.89313 17.0213 3.09829L18.8864 6.32495C19.0076 6.53011 18.9517 6.7819 18.7745 6.92178L16.8068 8.44185L16.872 9.37441L16.8068 10.307L18.7745 11.827C18.9517 11.9669 19.0076 12.2187 18.8864 12.4239L17.0213 15.6505C16.9093 15.8557 16.6576 15.9396 16.4524 15.8557L14.1303 14.9231C13.6454 15.2868 13.1418 15.6039 12.5543 15.837L12.2093 18.3083C12.172 18.5321 11.9761 18.7 11.743 18.7H8.01274ZM9.17844 1.91394L8.83339 4.34792C7.71432 4.58106 6.72581 5.1779 6.00774 6.00788L3.76027 5.03802L3.06086 6.25034L5.02855 7.69581C4.65553 8.7869 4.65553 9.97125 5.02855 11.053L3.05153 12.5078L3.75095 13.7201L6.01707 12.7503C6.73514 13.5709 7.71432 14.1678 8.82407 14.3916L9.16911 16.8349H10.5866L10.9316 14.4009C12.0414 14.1678 13.0206 13.5709 13.7386 12.7503L16.0048 13.7201L16.7042 12.5078L14.7272 11.0623C15.1002 9.97125 15.1002 8.7869 14.7272 7.69581L16.6949 6.25034L15.9954 5.03802L13.748 6.00788C13.0299 5.1779 12.0414 4.58106 10.9223 4.35725L10.5773 1.91394H9.17844Z" fill="#696969"/>
</svg>
