<svg width="12" height="13" viewBox="0 0 12 13" fill="none" xmlns="http://www.w3.org/2000/svg">
<path d="M9.36156 8.43814C8.70824 8.39797 8.10374 8.67503 7.70696 9.12881L4.51757 7.00635C4.62707 6.78083 4.69825 6.51196 4.71498 6.23975C4.73172 5.96753 4.69402 5.69197 4.61297 5.45473L8.03835 3.73899C8.39016 4.23879 8.94256 4.58698 9.59587 4.62715C10.7256 4.69661 11.6935 3.84077 11.763 2.71108C11.8325 1.5814 10.9766 0.613413 9.84693 0.543954C8.71724 0.474495 7.74926 1.33034 7.6798 2.46003C7.66307 2.73224 7.70077 3.0078 7.78182 3.24504L4.35643 4.96079C4.00462 4.46098 3.45222 4.11279 2.79891 4.07262C1.66923 4.00316 0.701244 4.85901 0.631785 5.98869C0.562326 7.11838 1.41817 8.08636 2.54786 8.15582C3.20117 8.19599 3.80567 7.91893 4.20245 7.46515L7.39185 9.58761C7.28234 9.81313 7.21117 10.082 7.19443 10.3542C7.12497 11.4839 7.98081 12.4519 9.1105 12.5213C10.2402 12.5908 11.2082 11.7349 11.2776 10.6053C11.3471 9.47558 10.4912 8.5076 9.36156 8.43814ZM9.81346 1.08838C10.6437 1.13943 11.2696 1.84736 11.2186 2.67761C11.1675 3.50786 10.4596 4.13377 9.62935 4.08273C8.7991 4.03168 8.17318 3.32375 8.22423 2.4935C8.27528 1.66325 8.98321 1.03733 9.81346 1.08838ZM2.58133 7.61139C1.75108 7.56034 1.12516 6.85242 1.17621 6.02216C1.22726 5.19191 1.93519 4.566 2.76544 4.61705C3.59569 4.66809 4.2216 5.37602 4.17056 6.20627C4.11951 7.03652 3.41158 7.66244 2.58133 7.61139ZM9.14397 11.9769C8.31372 11.9259 7.68781 11.2179 7.73885 10.3877C7.7899 9.55743 8.49783 8.93152 9.32808 8.98256C10.1583 9.03361 10.7842 9.74154 10.7332 10.5718C10.6822 11.402 9.97422 12.028 9.14397 11.9769Z" fill="black"/>
</svg>
