<svg width="18" height="22" viewBox="0 0 18 22" fill="none" xmlns="http://www.w3.org/2000/svg">
<path d="M8.86098 0C6.76568 0.0406734 4.74966 0.808389 3.15805 2.17173C1.56642 3.535 0.498101 5.40908 0.135942 7.47321C-0.226166 9.53738 0.140377 11.6632 1.17284 13.4869C2.20537 15.3106 3.83962 16.7187 5.79589 17.4703C5.85325 17.4929 5.91451 17.5039 5.97616 17.5028C6.03781 17.5016 6.09862 17.4883 6.15509 17.4635C6.21154 17.4388 6.26254 17.4031 6.30514 17.3585C6.34774 17.314 6.3811 17.2614 6.4033 17.2039C6.42509 17.1466 6.43537 17.0855 6.43354 17.0241C6.43171 16.9628 6.41782 16.9024 6.39266 16.8464C6.36749 16.7905 6.33155 16.74 6.28687 16.6979C6.2422 16.6558 6.18968 16.623 6.1323 16.6012C4.32914 15.9091 2.83254 14.5956 1.91227 12.8976C0.992006 11.1995 0.708627 9.22851 1.11322 7.33995C1.51787 5.45138 2.58387 3.7695 4.11906 2.59748C5.65425 1.42549 7.55762 0.840477 9.48605 0.9479C11.4145 1.05532 13.2411 1.84811 14.6366 3.18336C16.0322 4.51859 16.9048 6.30847 17.0971 8.23029C17.2894 10.1521 16.7888 12.0795 15.6857 13.6648C14.5826 15.2503 12.9493 16.3894 11.0804 16.8768C10.9609 16.9086 10.8589 16.9865 10.7967 17.0933C10.7346 17.2001 10.7173 17.3273 10.7486 17.4469C10.776 17.5488 10.8371 17.6385 10.9219 17.7012C11.0068 17.764 11.1104 17.7962 11.2158 17.7926C11.2561 17.7995 11.2971 17.7995 11.3373 17.7926C13.4566 17.2157 15.2932 15.8865 16.5037 14.0538C17.7142 12.221 18.2158 10.0101 17.9146 7.83444C17.6135 5.65874 16.5302 3.66722 14.8673 2.23224C13.2044 0.797236 11.0758 0.0170343 8.87952 0.0375286L8.86098 0Z" fill="#696969"/>
<path d="M11.7576 11.4152C11.8446 11.3277 11.8934 11.2093 11.8934 11.0858C11.8934 10.9624 11.8446 10.8439 11.7576 10.7564L9.03356 8.02306C8.99378 7.98258 8.94606 7.95077 8.89339 7.92961H8.85134C8.81343 7.91736 8.77424 7.90952 8.73453 7.90625H8.68781C8.63669 7.90654 8.58604 7.91604 8.53829 7.93428C8.4886 7.9583 8.4429 7.98982 8.40279 8.02773L5.66944 10.7611C5.62569 10.8045 5.59096 10.8561 5.56724 10.913C5.54352 10.9698 5.53129 11.0308 5.53125 11.0924C5.53118 11.1541 5.54332 11.2151 5.56695 11.272C5.59058 11.3289 5.62524 11.3806 5.66894 11.424C5.71261 11.4675 5.76445 11.5019 5.82147 11.5252C5.87849 11.5486 5.93957 11.5604 6.00118 11.56C6.063 11.5598 6.12415 11.5473 6.18109 11.5232C6.23804 11.4991 6.28964 11.464 6.33292 11.4199L8.26729 9.48552V20.6619C8.26729 20.8288 8.35635 20.983 8.50091 21.0665C8.57194 21.1075 8.65252 21.1291 8.73453 21.1291C8.81655 21.1291 8.89712 21.1075 8.96815 21.0665C9.03917 21.0255 9.09815 20.9665 9.13915 20.8955C9.18016 20.8245 9.20176 20.7439 9.20177 20.6619V9.48085L11.1361 11.4152C11.2217 11.4914 11.3323 11.5335 11.4469 11.5335C11.5614 11.5335 11.672 11.4914 11.7576 11.4152Z" fill="#696969"/>
</svg>
