<svg width="23" height="23" viewBox="0 0 23 23" fill="none" xmlns="http://www.w3.org/2000/svg">
<path d="M11.5126 0.000522595C14.2374 0.000522595 16.9629 -0.000277628 19.6877 0.000522595C21.6314 0.00132282 22.999 1.3689 22.999 3.31505C22.9998 8.77497 22.9998 14.2349 22.999 19.6948C22.999 21.6217 21.6266 22.9989 19.7069 22.9989C14.2366 22.9997 8.76704 22.9997 3.29672 22.9989C1.37378 22.9989 0.000600167 21.6233 0.000600167 19.6988C-0.000200056 14.2293 -0.000200056 8.75896 0.000600167 3.28944C0.000600167 1.38331 1.37778 0.00212304 3.27751 0.00132282C6.02228 -0.00107785 8.76784 0.000522595 11.5126 0.000522595ZM11.499 11.4989C11.499 14.8022 11.5022 18.1048 11.4934 21.4081C11.4926 21.657 11.5566 21.7242 11.8071 21.7234C14.4214 21.7138 17.0357 21.7194 19.6501 21.7154C19.8581 21.7154 20.0718 21.7034 20.2726 21.653C21.1969 21.4201 21.717 20.6815 21.7178 19.614C21.7194 14.2053 21.7186 8.79657 21.7178 3.38867C21.7178 3.1598 21.7122 2.93014 21.6506 2.70688C21.401 1.80583 20.6816 1.28648 19.6517 1.28488C17.0469 1.28168 14.443 1.28808 11.8383 1.27768C11.5662 1.27688 11.4926 1.3465 11.4934 1.62177C11.5022 4.91309 11.499 8.20601 11.499 11.4989ZM10.217 11.5149C10.217 8.22041 10.2146 4.92669 10.2218 1.63218C10.2226 1.3721 10.1722 1.27288 9.88255 1.27528C7.71635 1.28808 5.55014 1.28168 3.38394 1.28328C3.15508 1.28328 2.92541 1.28888 2.70135 1.3513C1.7923 1.60417 1.28336 2.32757 1.28256 3.38467C1.28096 8.79497 1.28176 14.2061 1.28256 19.6164C1.28256 19.8453 1.28816 20.0749 1.34978 20.299C1.59864 21.1976 2.32205 21.7162 3.35273 21.7178C5.51894 21.721 7.68514 21.7114 9.85134 21.7274C10.1706 21.7298 10.2226 21.6273 10.2218 21.3393C10.213 18.0632 10.217 14.7894 10.217 11.5149Z" fill="black"/>
<path d="M5.71948 10.2332C4.92085 10.2332 4.12303 10.2348 3.32441 10.2324C2.85068 10.2308 2.5578 9.97873 2.5586 9.58182C2.5586 9.18491 2.85068 8.93364 3.32601 8.93284C4.94246 8.93124 6.55891 8.93124 8.17536 8.93284C8.64989 8.93364 8.94117 9.18491 8.94117 9.58262C8.94117 9.97953 8.64909 10.2308 8.17456 10.2324C7.35593 10.2356 6.5373 10.2332 5.71948 10.2332Z" fill="black"/>
<path d="M5.77399 3.83255C6.59181 3.83255 7.41044 3.83095 8.22827 3.83335C8.66599 3.83495 8.93807 4.07902 8.94047 4.46473C8.94287 4.83843 8.686 5.10651 8.26748 5.10891C6.59101 5.11771 4.91535 5.11771 3.23888 5.10971C2.80436 5.10731 2.54429 4.83283 2.55709 4.44552C2.5691 4.07422 2.83957 3.83495 3.25889 3.83415C4.09832 3.83095 4.93615 3.83255 5.77399 3.83255Z" fill="black"/>
<path d="M5.12136 7.66423C4.50359 7.66423 3.88502 7.66583 3.26725 7.66343C2.83433 7.66183 2.55905 7.41216 2.55665 7.02965C2.55505 6.65755 2.81272 6.39107 3.23044 6.38787C4.48598 6.37827 5.74233 6.37827 6.99868 6.38947C7.4156 6.39347 7.67007 6.66395 7.66447 7.03845C7.65887 7.40656 7.38279 7.66183 6.97548 7.66423C6.35771 7.66663 5.73993 7.66423 5.12136 7.66423Z" fill="black"/>
<path d="M5.11156 12.7714C4.45377 12.7714 3.79599 12.7842 3.13821 12.7658C2.81252 12.7562 2.59886 12.5249 2.56365 12.2217C2.52764 11.9104 2.68608 11.6399 2.97576 11.5391C3.05818 11.5103 3.15101 11.5023 3.23903 11.5023C4.48498 11.4998 5.73093 11.499 6.97687 11.5014C7.38339 11.5022 7.65866 11.7599 7.66347 12.1288C7.66827 12.5033 7.413 12.7666 6.99528 12.7762C6.3679 12.7898 5.73973 12.7794 5.11156 12.7794C5.11156 12.7778 5.11156 12.7746 5.11156 12.7714Z" fill="black"/>
</svg>
