<svg width="49" height="28" viewBox="0 0 49 28" fill="none" xmlns="http://www.w3.org/2000/svg">
<path d="M46.6686 24.3882L43.1749 26.1345C42.5751 26.4335 41.9141 26.5895 41.2439 26.5903H35.2171L34.4896 25.0594L38.1765 20.8662L36.5861 20.815L33.9157 23.8523L33.4546 22.8829C33.2686 23.1487 32.9849 23.33 32.6655 23.3871L32.3602 23.4424L33.8563 26.5903H28.8066V27.82H41.2447C42.1055 27.8189 42.9542 27.6185 43.7246 27.2345L47.2172 25.4881L46.6686 24.3882Z" fill="white"/>
<path d="M22.1746 21.8881L22.7915 22.589C23.0672 22.963 23.2337 23.4062 23.2725 23.8693C23.3113 24.3323 23.2208 24.797 23.0111 25.2117C22.8014 25.6264 22.4808 25.9747 22.0849 26.218C21.689 26.4612 21.2334 26.5898 20.7687 26.5895H3.74417C3.22682 26.5899 2.72196 26.4306 2.29851 26.1334C1.87505 25.8361 1.55363 25.4155 1.3781 24.9288C1.20258 24.4422 1.18151 23.9132 1.31777 23.4141C1.45403 22.915 1.74098 22.4701 2.13946 22.1402L7.6996 18.8303L5.92478 18.4553L1.47339 21.1073L1.4037 21.1544C0.798246 21.6391 0.358315 22.2999 0.144728 23.0455C-0.0688596 23.7911 -0.0455545 24.5847 0.211422 25.3164C0.468398 26.0482 0.946352 26.6821 1.57921 27.1304C2.21208 27.5788 2.96859 27.8195 3.74417 27.8192H20.7689C21.4183 27.82 22.0567 27.6516 22.6213 27.3306C23.1858 27.0096 23.657 26.5471 23.9883 25.9886C24.3197 25.4301 24.4999 24.7949 24.5111 24.1456C24.5222 23.4963 24.3641 22.8553 24.0521 22.2857L22.1746 21.8881Z" fill="white"/>
<path d="M24.2652 1.22967H28.4502L29.9914 5.17075L30.9895 4.34687L29.4421 0.391444C29.3969 0.27605 29.318 0.176966 29.2156 0.107132C29.1133 0.0372981 28.9922 -3.81085e-05 28.8683 2.91882e-08H24.2652C24.1022 2.91882e-08 23.9458 0.0647773 23.8305 0.180081C23.7152 0.295385 23.6504 0.45177 23.6504 0.614834C23.6504 0.777898 23.7152 0.934284 23.8305 1.04959C23.9458 1.16489 24.1022 1.22967 24.2652 1.22967V1.22967Z" fill="white"/>
<path d="M33.6502 4.05218L34.2938 3.09099L39.1879 5.14454V7.65101L40.4175 8.45029V4.73629C40.4173 4.6151 40.3814 4.49665 40.3144 4.3957C40.2473 4.29476 40.152 4.21577 40.0404 4.16859L34.302 1.76254C34.1707 1.70708 34.0243 1.69905 33.8878 1.73981C33.7513 1.78058 33.6332 1.8676 33.5539 1.98593L32.5312 3.51277C32.7408 3.52581 32.9435 3.59288 33.1194 3.70747L33.6502 4.05218Z" fill="white"/>
<path d="M1.83029 15.0782L1.58845 14.3466L13.9815 16.1255C17.539 16.6384 21.1614 15.8338 24.1672 13.8629L27.2106 11.8688L27.6451 10.1145L24.409 12.2336H24.407L23.7538 12.3975C19.4791 13.4593 14.9704 13.0366 10.9675 11.1988L7.50069 9.60209C7.467 9.58648 7.43195 9.57399 7.39597 9.56479C6.79432 9.41083 6.16742 9.38234 5.55428 9.48109C4.94114 9.57984 4.35489 9.80371 3.832 10.1388C3.30911 10.4739 2.86077 10.913 2.51488 11.4288C2.169 11.9446 1.93297 12.526 1.82147 13.137V13.137L0.782406 12.9874C0.678726 12.9726 0.572986 12.9844 0.475117 13.0216C0.377248 13.0589 0.290461 13.1205 0.222907 13.2005C0.156205 13.2812 0.110911 13.3774 0.0912092 13.4802C0.0715078 13.583 0.078035 13.6891 0.110188 13.7887L0.663538 15.461L0.983457 16.4284C1.01111 16.5404 1.06982 16.6424 1.15285 16.7225C1.23588 16.8026 1.33984 16.8577 1.45278 16.8813L6.70551 17.9921H6.70756L8.48033 18.3672H8.48238L21.4964 21.1155L23.5048 21.5397H23.5069L25.0071 21.8574C24.9344 21.4576 24.9469 21.0469 25.044 20.6523L25.0542 20.6113L2.05388 15.7521L1.83029 15.0782ZM4.42345 11.2214C4.80248 10.9646 5.2308 10.7896 5.68115 10.7073C6.13151 10.6251 6.59405 10.6374 7.03936 10.7436L10.4523 12.3156C13.1578 13.5585 16.1002 14.2014 19.0776 14.2C19.7288 14.2 20.3794 14.1689 21.0295 14.1066L21.0274 14.1084C18.845 14.9665 16.4768 15.242 14.1557 14.9077L3.04356 13.3118C3.21032 12.4605 3.70617 11.7093 4.42345 11.2214Z" fill="white"/>
<path d="M48.08 14.1658L40.4172 9.18565L39.1875 8.38636L33.3056 4.56415L32.783 4.22394C32.6737 4.15201 32.5441 4.11716 32.4134 4.12454C32.2828 4.13193 32.158 4.18115 32.0575 4.26493L31.9878 4.32231L31.2254 4.94944L30.2273 5.77332L29.2805 6.55211C29.1781 6.63601 29.1061 6.75122 29.0755 6.88002L28.3992 9.62013L27.9668 11.3724L25.8026 20.142L25.655 20.7384L25.6407 20.7999C25.5598 21.1251 25.5527 21.4642 25.6197 21.7926C25.6867 22.1209 25.8262 22.4301 26.028 22.6976C26.0772 22.7612 26.1284 22.8227 26.1838 22.8821C26.394 23.107 26.6482 23.2864 26.9305 23.4091C27.2129 23.5318 27.5175 23.5951 27.8254 23.5953C27.9594 23.5952 28.0932 23.5829 28.225 23.5584L32.0862 22.8657L32.5575 22.7817C32.6631 22.7628 32.7618 22.7165 32.8438 22.6475C32.9259 22.5784 32.9883 22.489 33.0248 22.3882L33.1088 22.1566V22.1545L34.5107 18.3241L35.7198 19.9411C35.7754 20.0149 35.8467 20.0752 35.9287 20.1178C36.0106 20.1603 36.101 20.184 36.1933 20.1871L37.1114 20.2158H37.1135L38.7038 20.267L43.6799 20.4248C43.7831 20.4281 43.8854 20.4048 43.977 20.3572L48.0247 18.3057C48.1257 18.2543 48.2106 18.176 48.2699 18.0794C48.3292 17.9829 48.3607 17.8718 48.3608 17.7585V14.6802C48.361 14.5778 48.3354 14.4769 48.2863 14.387C48.2373 14.2971 48.1663 14.221 48.08 14.1658V14.1658ZM47.1314 17.3793L43.5612 19.191L36.5275 18.9677L35.261 17.2748L35.2466 17.2564L34.8162 16.6805C34.7886 16.6436 34.757 16.61 34.722 16.58L34.7179 16.5759L34.142 15.832L32.9348 14.2765C32.8348 14.1477 32.6877 14.0638 32.5259 14.0435C32.3641 14.0231 32.2008 14.0678 32.072 14.1679C31.9432 14.2679 31.8594 14.415 31.839 14.5768C31.8186 14.7386 31.8634 14.9018 31.9634 15.0307L33.1787 16.5985L33.6235 17.1703L31.9921 21.634L28.01 22.3472C27.8704 22.3743 27.7267 22.3711 27.5884 22.3378C27.4502 22.3046 27.3207 22.2421 27.2087 22.1545C27.1625 22.1207 27.1199 22.0823 27.0816 22.0398C26.9635 21.9163 26.8788 21.7647 26.8354 21.5995C26.792 21.4342 26.7914 21.2606 26.8336 21.095L26.971 20.5355L30.2214 7.3723L31.3486 6.44185L32.4922 5.50115L47.1314 15.0143V17.3793Z" fill="white"/>
</svg>
