<svg width="26" height="26" viewBox="0 0 26 26" fill="none" xmlns="http://www.w3.org/2000/svg">
<g clip-path="url(#clip0_1216_490)">
<path d="M25.2502 22.1461C25.168 22.1381 25.0857 22.1389 25.0067 22.1397H20.3252C20.1164 22.1397 19.9785 22.1397 19.9382 22.1004C19.8978 22.0611 19.897 21.9238 19.8954 21.7167C19.8857 20.5144 19.0705 19.699 17.8675 19.6869C17.3902 19.6821 16.9039 19.6837 16.4347 19.6845C16.1379 19.6853 15.8412 19.6861 15.5437 19.6853C15.5421 19.6853 15.5396 19.6853 15.538 19.6853C15.0075 19.6853 14.5535 19.8498 14.1899 20.1733C13.7028 20.6075 13.4835 21.1838 13.5383 21.8877C13.5464 21.9944 13.5359 22.0627 13.5053 22.0956C13.4722 22.1301 13.398 22.1437 13.2706 22.1453C11.6959 22.1373 10.0945 22.1381 8.54638 22.1389L5.76778 22.1397C4.17528 22.1397 2.58279 22.1397 0.9911 22.1413C0.849993 22.1413 0.700016 22.1437 0.555684 22.1726C0.225896 22.2376 0.00657542 22.5113 0.00980073 22.8532C0.0138324 23.2818 0.318624 23.5379 0.824997 23.5379C3.90516 23.5387 6.98533 23.5387 10.0663 23.5387H12.9538C13.2336 23.5387 13.4029 23.5387 13.4617 23.5965C13.5214 23.6551 13.5262 23.826 13.5343 24.1101C13.5641 25.1559 14.4059 25.9851 15.4518 25.9971C15.7574 26.0011 16.067 26.0019 16.3734 26.0019C16.5903 26.0019 16.8056 26.0011 17.0184 26.0011C17.341 26.0003 17.6643 25.9995 17.9868 26.0003C17.9885 26.0003 17.9901 26.0003 17.9917 26.0003C18.1949 26.0003 18.3948 25.9642 18.6029 25.8895C19.4197 25.5958 19.8914 24.8863 19.8954 23.9448C19.8962 23.7457 19.897 23.6141 19.9349 23.5772C19.9728 23.5395 20.1067 23.5395 20.3091 23.5395H21.5984C22.7982 23.5395 23.9972 23.5403 25.197 23.5379C25.6276 23.5371 25.9259 23.269 25.9388 22.8717C25.9509 22.472 25.6808 22.1879 25.2502 22.1461ZM14.951 21.6541C14.9534 21.297 15.155 21.0891 15.5058 21.0835C15.9081 21.077 16.3129 21.0738 16.7161 21.0738C17.1176 21.0738 17.5184 21.077 17.9151 21.0835C18.2747 21.0891 18.4747 21.301 18.4787 21.679C18.4819 21.9423 18.4811 22.2103 18.4803 22.4696C18.4803 22.586 18.4795 22.7023 18.4795 22.8187C18.4795 22.9415 18.4795 23.0643 18.4803 23.1879C18.4811 23.46 18.4819 23.7417 18.4787 24.0186C18.4739 24.3967 18.2812 24.5909 17.9054 24.5941C17.1273 24.6013 16.3266 24.6013 15.5251 24.5941C15.1405 24.5909 14.9526 24.4047 14.951 24.0243C14.9462 23.2184 14.9462 22.4206 14.951 21.6541Z" fill="black"/>
<path d="M0.539145 3.82872C0.689928 3.85921 0.845549 3.86162 1.0044 3.86162C5.14246 3.86243 9.28053 3.86243 13.4186 3.86243H15.5779C15.7876 3.86243 15.9255 3.86243 15.9658 3.90175C16.0061 3.94108 16.0061 4.07753 16.0069 4.2846C16.0117 5.4813 16.8124 6.29676 18.0001 6.31442C18.3057 6.31924 18.6138 6.32004 18.9202 6.32004C19.1709 6.32004 19.4209 6.31924 19.6668 6.31843C19.9063 6.31763 20.1458 6.31683 20.3853 6.31683C20.9118 6.31683 21.3649 6.14587 21.7326 5.80797C22.1713 5.40506 22.3809 4.87212 22.3728 4.17866C22.372 4.12649 22.3712 4.08154 22.3696 4.04221C22.3672 3.96677 22.3648 3.88971 22.3728 3.87446C22.3922 3.86162 22.4849 3.86243 22.5825 3.86323C22.6164 3.86323 22.6535 3.86323 22.6954 3.86323C22.9961 3.86243 23.2977 3.86243 23.5985 3.86323C24.0839 3.86403 24.5862 3.86483 25.0797 3.85921C25.5441 3.8536 25.8667 3.56305 25.8626 3.15211C25.8594 2.74919 25.5336 2.46667 25.07 2.46507C24.5701 2.46346 24.0702 2.46346 23.5702 2.46427H22.9276C22.6583 2.46427 22.4954 2.46427 22.439 2.41049C22.3825 2.35671 22.3769 2.19619 22.368 1.92972C22.3309 0.823715 21.5004 0.0130717 20.3933 0.00344029C19.7741 -0.00217803 19.1451 0.000229818 18.5363 0.00263767C18.3203 0.00344029 18.1042 0.0042429 17.8881 0.00504552C17.4559 0.00584814 17.0584 0.155938 16.706 0.450498C16.1907 0.881504 15.9569 1.47223 16.0109 2.20743C16.019 2.3214 16.0085 2.39042 15.9779 2.42333C15.9456 2.45704 15.8722 2.4755 15.7545 2.47309C13.8395 2.46346 11.893 2.46427 10.0103 2.46507C9.44099 2.46507 8.87172 2.46587 8.30165 2.46587H1.27129C1.21646 2.46667 1.15679 2.46507 1.09954 2.46507C0.946339 2.46346 0.789106 2.46186 0.632679 2.47149C0.280314 2.49316 0.0206768 2.75642 0.00132499 3.11118C-0.0188332 3.47717 0.192424 3.75969 0.539145 3.82872ZM17.422 2.77167C17.4212 2.50359 17.4204 2.22589 17.4244 1.953C17.4301 1.60145 17.6163 1.41364 17.9631 1.41043C18.767 1.4016 19.5878 1.4016 20.4038 1.41043C20.7554 1.41444 20.9497 1.6159 20.9529 1.97868C20.9577 2.6906 20.9577 3.4563 20.9537 4.31911C20.9513 4.69474 20.7473 4.91305 20.3933 4.91947C19.6088 4.93312 18.7984 4.93312 17.984 4.91947C17.5268 4.91225 17.4277 4.5912 17.4252 4.32313C17.4228 4.05265 17.4228 3.78136 17.4236 3.51088C17.4236 3.39209 17.4244 3.2725 17.4244 3.15371C17.4228 3.0253 17.4228 2.89848 17.422 2.77167Z" fill="black"/>
<path d="M5.72478 12.3027H4.55561C3.38644 12.3027 2.21807 12.3027 1.0489 12.3035H1.03196C0.915853 12.3035 0.796517 12.3035 0.678793 12.318C0.29982 12.3645 0.0498592 12.6639 0.07163 13.0459C0.0950135 13.4593 0.393354 13.6969 0.889244 13.6985C2.05197 13.7009 3.21469 13.7009 4.37741 13.7001H5.68527C5.8933 13.7001 6.03118 13.7001 6.07069 13.7402C6.11101 13.7803 6.11182 13.9184 6.11343 14.1271C6.12149 15.3294 6.93508 16.1448 8.13811 16.1561C8.41065 16.1585 8.68641 16.1593 8.95976 16.1593C9.16295 16.1593 9.36615 16.1585 9.56531 16.1585C9.86365 16.1577 10.1628 16.1569 10.4611 16.1577C10.8216 16.1585 11.082 16.1087 11.3183 15.9956C12.0706 15.6336 12.4592 15.0228 12.4753 14.18V14.1688C12.4794 13.9336 12.4826 13.7916 12.5302 13.7458C12.5785 13.6993 12.7261 13.6993 12.9704 13.6993H20.1564C21.7731 13.6993 23.3906 13.6993 25.0073 13.6985H25.0306C25.1556 13.6993 25.283 13.6985 25.4088 13.6816C25.7547 13.6351 25.9982 13.3573 25.9998 13.005C26.0023 12.6494 25.762 12.3677 25.4169 12.3204C25.2846 12.3019 25.1508 12.3019 25.0218 12.3027H24.9847C21.5425 12.3019 18.1003 12.3019 14.6581 12.3019H13.0696C12.7825 12.3019 12.61 12.3019 12.5487 12.2441C12.4882 12.1871 12.4834 12.0282 12.4753 11.7393C12.4447 10.691 11.6489 9.8812 10.6232 9.85471C9.80318 9.83384 8.96943 9.84267 8.16392 9.8507L7.96637 9.8523C7.42613 9.85792 6.95685 10.0883 6.57223 10.5377C6.25776 10.9053 6.10698 11.3596 6.11262 11.9271C6.11424 12.0972 6.11585 12.2321 6.08118 12.2666C6.0457 12.3027 5.9183 12.3027 5.72478 12.3027ZM11.0602 12.6534L11.0594 13.0114L11.0602 13.3573C11.061 13.6222 11.061 13.8871 11.0594 14.1519C11.0562 14.5516 10.8772 14.7499 10.5119 14.7571C9.69916 14.7748 8.87913 14.7748 8.07361 14.7563C7.62771 14.7467 7.53256 14.4345 7.53095 14.1752C7.52692 13.4288 7.52611 12.6414 7.53095 11.8348C7.53337 11.4495 7.72286 11.2513 8.09538 11.2432C8.49773 11.2352 8.89928 11.2312 9.2968 11.2312C9.7048 11.2312 10.108 11.2352 10.5039 11.244C10.874 11.2521 11.0554 11.4471 11.0594 11.842C11.061 12.1125 11.061 12.383 11.0602 12.6534Z" fill="black"/>
</g>
<defs>
<clipPath id="clip0_1216_490">
<rect width="26" height="26" fill="white"/>
</clipPath>
</defs>
</svg>
