<svg width="26" height="24" viewBox="0 0 26 24" fill="none" xmlns="http://www.w3.org/2000/svg">
<path d="M1.40625 10.3623L8.15378 8.12845L12.6215 1.42773L15.8786 8.12845L23.2314 10.5922L18.252 15.6644L18.7177 22.2723L12.2026 19.0612L5.64151 22.2723L6.15315 15.1987L1.40625 10.3623Z" fill="white"/>
<path d="M16.9273 7.59508C13.8065 0 12.8793 0 12.3808 0C11.9225 0 10.9781 0 7.57721 7.48995C0.477361 8.73335 0.194024 9.57351 0.0609792 9.98168C-0.093419 10.4441 -0.377577 11.2957 5.21689 15.8176C3.75257 22.8805 4.62887 23.365 5.05264 23.6016C5.22308 23.6933 5.41427 23.7397 5.60782 23.7363C6.88078 23.7363 10.487 21.4301 12.3808 20.158C15.1107 21.9763 18.3473 24.0007 19.2367 23.9999C19.4451 24.0032 19.6482 23.9345 19.8116 23.8052C20.1738 23.5162 20.623 23.1573 19.341 16.0853C25.3453 10.9056 25.1819 10.5007 24.9577 9.93651C24.7869 9.5037 24.6226 9.09225 16.9273 7.59508ZM17.9802 15.1902C17.8758 15.2797 17.7968 15.3951 17.7511 15.5249C17.7054 15.6546 17.6946 15.7941 17.7199 15.9293C18.1387 18.205 18.537 20.8462 18.6233 22.1504C17.3914 21.5205 14.9169 19.9724 12.8153 18.5615C12.6854 18.4734 12.532 18.4263 12.3751 18.4263C12.2181 18.4263 12.0648 18.4734 11.9349 18.5615C10.0475 19.9007 8.04886 21.0758 5.96096 22.074C6.0591 19.916 6.35601 17.7716 6.84793 15.6681C6.87814 15.5258 6.86819 15.3778 6.81917 15.2407C6.77015 15.1037 6.684 14.983 6.57034 14.892C4.84882 13.5644 3.24096 12.0955 1.76347 10.5007C3.88166 9.81756 6.05131 9.30564 8.25147 8.96988C8.3783 8.94802 8.49784 8.89542 8.59964 8.81668C8.70143 8.73794 8.78238 8.63545 8.83539 8.51818C9.8324 6.18696 11.0136 3.93888 12.3677 1.79529C13.6377 3.96551 14.73 6.23496 15.6338 8.58142C15.6828 8.70191 15.761 8.80833 15.8614 8.89106C15.9617 8.97379 16.0811 9.03023 16.2087 9.05529C18.8097 9.55708 21.6759 10.1829 23.0187 10.5697C22.0644 11.5741 19.9044 13.5394 17.9802 15.1902Z" fill="white"/>
</svg>
