<svg width="24" height="24" viewBox="0 0 24 24" fill="none" xmlns="http://www.w3.org/2000/svg">
<path d="M5.17986 3.86763C4.78849 3.86763 4.44892 4.00576 4.16115 4.28201C3.87338 4.55827 3.7295 4.9036 3.7295 5.31799C3.7295 5.73237 3.87338 6.08345 4.16115 6.37122C4.44892 6.65899 4.8 6.80288 5.21439 6.80288C5.60576 6.80288 5.94532 6.65899 6.23309 6.37122C6.52086 6.08345 6.66475 5.73237 6.66475 5.31799C6.66475 4.9036 6.52086 4.55827 6.23309 4.28201C5.94532 4.00576 5.59424 3.86763 5.17986 3.86763ZM5.17986 17.1626C4.78849 17.1626 4.44892 17.3065 4.16115 17.5942C3.87338 17.882 3.7295 18.2331 3.7295 18.6475C3.7295 19.0619 3.87338 19.4072 4.16115 19.6835C4.44892 19.9597 4.8 20.0978 5.21439 20.0978C5.60576 20.0978 5.94532 19.9597 6.23309 19.6835C6.52086 19.4072 6.66475 19.0619 6.66475 18.6475C6.66475 18.2331 6.52086 17.882 6.23309 17.5942C5.94532 17.3065 5.59424 17.1626 5.17986 17.1626ZM1.0705 0H22.4115C22.7108 0 22.964 0.0978415 23.1712 0.293525C23.3784 0.489208 23.482 0.759712 23.482 1.10504V9.32374C23.482 9.73813 23.3784 10.0662 23.1712 10.3079C22.964 10.5496 22.7108 10.6705 22.4115 10.6705H1.0705C0.771223 10.6705 0.517985 10.5496 0.310791 10.3079C0.103597 10.0662 0 9.73813 0 9.32374V1.10504C0 0.759712 0.103597 0.489208 0.310791 0.293525C0.517985 0.0978415 0.771223 0 1.0705 0ZM1.55396 1.55396V9.11655H21.9281V1.55396H1.55396ZM1.0705 13.295H22.2388C22.5842 13.295 22.8777 13.4273 23.1194 13.6921C23.3612 13.9568 23.482 14.2504 23.482 14.5727V22.6532C23.482 23.0676 23.3612 23.3957 23.1194 23.6374C22.8777 23.8791 22.5842 24 22.2388 24H1.24317C0.87482 24 0.57554 23.8791 0.345324 23.6374C0.115108 23.3957 0 23.0676 0 22.6532V14.5727C0 14.2504 0.0978419 13.9568 0.293525 13.6921C0.489209 13.4273 0.748202 13.295 1.0705 13.295ZM1.55396 14.8489V22.4115H21.9281V14.8489H1.55396ZM1.55396 1.55396V9.11655V1.55396ZM1.55396 14.8489V22.4115V14.8489Z" fill="#696969"/>
</svg>
