<svg width="24" height="24" viewBox="0 0 24 24" fill="none" xmlns="http://www.w3.org/2000/svg">
<path d="M2.81277 24C2.46552 24 2.17035 23.8785 1.92727 23.6356C1.68419 23.3926 1.56265 23.0976 1.56265 22.7505C1.56265 22.3803 1.68419 22.0738 1.92727 21.8308C2.17035 21.5879 2.46552 21.4664 2.81277 21.4664H5.90335L2.22244 9.07592C1.52793 8.75199 0.983891 8.31815 0.590335 7.7744C0.196778 7.23066 0 6.50759 0 5.60521C0 4.61027 0.364618 3.74259 1.09386 3.00217C1.82309 2.26175 2.69702 1.89154 3.71564 1.89154C4.6648 1.89154 5.4577 2.16341 6.09434 2.70716C6.73097 3.2509 7.15347 3.9624 7.36182 4.84165H12.5707V2.62039C12.5707 2.38901 12.6517 2.19812 12.8137 2.04772C12.9758 1.89732 13.161 1.82213 13.3693 1.82213C13.5777 1.82213 13.7513 1.90889 13.8902 2.08243C14.0291 2.25597 14.0986 2.44685 14.0986 2.6551V2.86334L16.703 0.364425C16.8882 0.17932 17.1139 0.0636298 17.3801 0.0173536C17.6464 -0.0289226 17.9068 0.0173535 18.1615 0.156182L23.5439 2.72451C23.7291 2.81706 23.8623 2.95011 23.9433 3.12364C24.0243 3.29718 24.0185 3.4765 23.9259 3.6616C23.8102 3.84671 23.6655 3.95662 23.4918 3.99132C23.3182 4.02603 23.1388 3.99711 22.9536 3.90456L17.5364 1.30152L14.168 4.63341V6.50759L17.5364 9.90889L22.9536 7.27115C23.162 7.1786 23.3472 7.15546 23.5092 7.20174C23.6713 7.24801 23.8102 7.3637 23.9259 7.54881C23.9954 7.75705 23.9954 7.95372 23.9259 8.13883C23.8565 8.32393 23.7291 8.46276 23.5439 8.55532L18.2656 11.0195C17.9878 11.1584 17.7158 11.222 17.4496 11.2104C17.1834 11.1988 16.9345 11.0889 16.703 10.8807L14.0986 8.41649V8.59002C14.0986 8.86768 14.0291 9.07592 13.8902 9.21475C13.7513 9.35358 13.5777 9.42299 13.3693 9.42299C13.161 9.42299 12.9758 9.34779 12.8137 9.1974C12.6517 9.047 12.5707 8.86768 12.5707 8.65944V6.40347H7.29237C7.29237 6.7274 7.20556 7.05134 7.03193 7.37527C6.8583 7.6992 6.65573 7.95372 6.42423 8.13883L13.4041 21.4664H17.6406C18.011 21.4664 18.3177 21.5879 18.5608 21.8308C18.8039 22.0738 18.9254 22.3803 18.9254 22.7505C18.9254 23.0976 18.8039 23.3926 18.5608 23.6356C18.3177 23.8785 18.011 24 17.6406 24H2.81277ZM3.71564 7.75705C4.31755 7.75705 4.82685 7.54881 5.24356 7.13232C5.66027 6.71584 5.86862 6.2068 5.86862 5.60521C5.86862 5.00362 5.66027 4.50036 5.24356 4.09544C4.82685 3.69053 4.31755 3.48807 3.71564 3.48807C3.11373 3.48807 2.60442 3.69053 2.18771 4.09544C1.771 4.50036 1.56265 5.00362 1.56265 5.60521C1.56265 6.2068 1.771 6.71584 2.18771 7.13232C2.60442 7.54881 3.11373 7.75705 3.71564 7.75705ZM7.63963 21.4664H11.6331L5.06993 8.86768C4.95418 8.93709 4.77477 9.00651 4.53169 9.07592C4.28861 9.14534 4.08604 9.18004 3.92399 9.18004L7.63963 21.4664Z" fill="#696969"/>
</svg>
