<svg width="22" height="22" viewBox="0 0 22 22" fill="none" xmlns="http://www.w3.org/2000/svg">
<path d="M22 3.498L9.449 16.06L4.785 11.396L6.336 9.845L9.449 12.958L20.449 1.958L22 3.498ZM19.569 9.042C19.712 9.669 19.8 10.329 19.8 11C19.8 15.862 15.862 19.8 11 19.8C6.138 19.8 2.2 15.862 2.2 11C2.2 6.138 6.138 2.2 11 2.2C12.738 2.2 14.344 2.706 15.708 3.575L17.292 1.991C15.51 0.737 13.343 0 11 0C4.928 0 0 4.928 0 11C0 17.072 4.928 22 11 22C17.072 22 22 17.072 22 11C22 9.691 21.758 8.437 21.34 7.271L19.569 9.042Z" fill="#696969"/>
</svg>
