<svg width="15" height="10" viewBox="0 0 15 10" fill="none" xmlns="http://www.w3.org/2000/svg">
<path fill-rule="evenodd" clip-rule="evenodd" d="M14.6833 0.292799C14.8861 0.480335 15 0.734654 15 0.999829C15 1.265 14.8861 1.51932 14.6833 1.70686L6.03099 9.7072C5.82817 9.89468 5.55312 10 5.26633 10C4.97955 10 4.7045 9.89468 4.50168 9.7072L0.303602 5.56854C0.10659 5.37993 -0.00242333 5.12732 4.08852e-05 4.86511C0.0025051 4.60291 0.11625 4.35208 0.316777 4.16667C0.517304 3.98125 0.788569 3.87608 1.07215 3.8738C1.35572 3.87152 1.62892 3.97232 1.83291 4.15448L5.26633 7.58611L13.154 0.292799C13.3569 0.10532 13.6319 0 13.9187 0C14.2055 0 14.4805 0.10532 14.6833 0.292799Z" fill="black"/>
</svg>
