<svg width="15" height="21" viewBox="0 0 15 21" fill="none" xmlns="http://www.w3.org/2000/svg">
<path d="M5.5 6.5C5.5 6.23478 5.60536 5.98043 5.79289 5.79289C5.98043 5.60536 6.23478 5.5 6.5 5.5C6.76522 5.5 7.01957 5.60536 7.20711 5.79289C7.39464 5.98043 7.5 6.23478 7.5 6.5V10.97L8.71 11.1L13.65 13.29C14.18 13.53 14.5 14.06 14.5 14.64V19C14.47 19.82 13.82 20.47 13 20.5H6.5C6.12 20.5 5.76 20.35 5.5 20.07L0.6 15.87L1.34 15.1C1.53 14.89 1.8 14.78 2.08 14.78H2.3L5.5 16.5V6.5ZM6.5 2.5C7.56087 2.5 8.57828 2.92143 9.32843 3.67157C10.0786 4.42172 10.5 5.43913 10.5 6.5C10.5 8 9.7 9.27 8.5 9.96V8.74C9.11 8.19 9.5 7.39 9.5 6.5C9.5 5.70435 9.18393 4.94129 8.62132 4.37868C8.05871 3.81607 7.29565 3.5 6.5 3.5C5.70435 3.5 4.94129 3.81607 4.37868 4.37868C3.81607 4.94129 3.5 5.70435 3.5 6.5C3.5 7.39 3.89 8.19 4.5 8.74V9.96C3.3 9.27 2.5 8 2.5 6.5C2.5 5.43913 2.92143 4.42172 3.67157 3.67157C4.42172 2.92143 5.43913 2.5 6.5 2.5ZM6.5 0.5C8.0913 0.5 9.61742 1.13214 10.7426 2.25736C11.8679 3.38258 12.5 4.9087 12.5 6.5C12.5 8.2 11.79 9.73 10.66 10.83L9.66 10.38C10.78 9.46 11.5 8.06 11.5 6.5C11.5 5.17392 10.9732 3.90215 10.0355 2.96447C9.09785 2.02678 7.82608 1.5 6.5 1.5C5.17392 1.5 3.90215 2.02678 2.96447 2.96447C2.02678 3.90215 1.5 5.17392 1.5 6.5C1.5 8.55 2.73 10.31 4.5 11.08V12.16C2.17 11.33 0.5 9.11 0.5 6.5C0.5 4.9087 1.13214 3.38258 2.25736 2.25736C3.38258 1.13214 4.9087 0.5 6.5 0.5Z" fill="black"/>
</svg>
