<svg width="18" height="20" viewBox="0 0 18 20" fill="none" xmlns="http://www.w3.org/2000/svg">
<path fill-rule="evenodd" clip-rule="evenodd" d="M7.5 0C7.26792 0.000123936 7.04046 0.0648539 6.84309 0.18694C6.64572 0.309027 6.48624 0.483649 6.3825 0.69125L5.4775 2.5H1.25C0.918479 2.5 0.600537 2.6317 0.366116 2.86612C0.131696 3.10054 0 3.41848 0 3.75C0 4.08152 0.131696 4.39946 0.366116 4.63388C0.600537 4.8683 0.918479 5 1.25 5V17.5C1.25 18.163 1.51339 18.7989 1.98223 19.2678C2.45107 19.7366 3.08696 20 3.75 20H13.75C14.413 20 15.0489 19.7366 15.5178 19.2678C15.9866 18.7989 16.25 18.163 16.25 17.5V5C16.5815 5 16.8995 4.8683 17.1339 4.63388C17.3683 4.39946 17.5 4.08152 17.5 3.75C17.5 3.41848 17.3683 3.10054 17.1339 2.86612C16.8995 2.6317 16.5815 2.5 16.25 2.5H12.0225L11.1175 0.69125C11.0138 0.483649 10.8543 0.309027 10.6569 0.18694C10.4595 0.0648539 10.2321 0.000123936 10 0H7.5ZM5 7.5C5 7.16848 5.1317 6.85054 5.36612 6.61612C5.60054 6.3817 5.91848 6.25 6.25 6.25C6.58152 6.25 6.89946 6.3817 7.13388 6.61612C7.3683 6.85054 7.5 7.16848 7.5 7.5V15C7.5 15.3315 7.3683 15.6495 7.13388 15.8839C6.89946 16.1183 6.58152 16.25 6.25 16.25C5.91848 16.25 5.60054 16.1183 5.36612 15.8839C5.1317 15.6495 5 15.3315 5 15V7.5ZM11.25 6.25C10.9185 6.25 10.6005 6.3817 10.3661 6.61612C10.1317 6.85054 10 7.16848 10 7.5V15C10 15.3315 10.1317 15.6495 10.3661 15.8839C10.6005 16.1183 10.9185 16.25 11.25 16.25C11.5815 16.25 11.8995 16.1183 12.1339 15.8839C12.3683 15.6495 12.5 15.3315 12.5 15V7.5C12.5 7.16848 12.3683 6.85054 12.1339 6.61612C11.8995 6.3817 11.5815 6.25 11.25 6.25Z" fill="#C4C4C4"/>
</svg>
