<svg width="60" height="60" viewBox="0 0 60 60" fill="none" xmlns="http://www.w3.org/2000/svg">
<circle cx="29.9393" cy="29.9393" r="29.9393" fill="#1C1B1B"/>
<path d="M43.525 21.4951C43.525 21.4951 43.525 21.5065 43.525 21.5191C43.525 21.5889 43.5342 21.7607 43.3889 21.9541C42.7453 22.8127 42.0601 23.582 41.1985 24.2254C41.0739 24.3182 40.8628 24.4166 40.8628 24.5929C40.8628 29.1046 39.7013 33.6106 36.3874 36.879C32.1681 41.0404 25.838 42.1714 20.2172 40.6317C19.1295 40.3329 18.0879 39.915 17.0902 39.3907C16.7592 39.2121 16.435 39.0266 16.1155 38.8171C16.0348 38.7519 15.9748 38.6924 16.044 38.65C16.1121 38.6157 16.1651 38.6134 16.4166 38.65C17.9887 38.8034 19.607 38.5722 21.095 38.0558C21.9128 37.7719 23.6683 37.2018 24.1747 36.4359C24.1862 36.4188 24.1989 36.4188 24.2105 36.4005C24.0051 36.3524 23.801 36.3524 23.5968 36.3169C22.0696 35.8841 20.0315 35.124 19.0868 32.5688C19.0268 32.42 19.0868 32.3421 19.2437 32.3719C20.501 32.4692 20.952 32.4016 21.3903 32.3055C21.1434 32.2643 20.892 32.1807 20.6624 32.0845C18.7385 31.3576 17.3336 29.4961 17.0775 27.4824C17.0475 27.25 17.0291 27.052 17.0418 26.8379C17.0533 26.6891 17.1202 26.641 17.2528 26.7245C18.2413 27.2328 19.3521 27.3519 19.4409 27.3336C19.1941 27.1424 18.9657 26.934 18.7443 26.7245C17.0787 25.155 16.4304 21.9644 17.765 19.9782C17.8734 19.8168 17.9449 19.8168 18.0776 19.9667C21.1284 23.4172 24.8864 25.0268 29.4206 25.6965C29.5406 25.7148 29.5521 25.6965 29.5348 25.5649C29.4171 24.7726 29.401 23.9965 29.5936 23.2123C29.7932 22.3995 30.1842 21.6336 30.7148 20.9845C31.2269 20.3571 31.8705 19.8362 32.5914 19.463C33.3112 19.0898 34.1071 18.8631 34.9179 18.8105C35.7507 18.7567 36.5962 18.8895 37.3702 19.202C37.9596 19.4401 38.4821 19.763 38.9689 20.174C39.0715 20.2575 39.1615 20.3594 39.2572 20.467C39.3172 20.5266 39.3887 20.5506 39.4844 20.5266C40.6437 20.2392 41.7325 19.8328 42.7856 19.273C42.8341 19.2489 42.8721 19.2364 42.9333 19.2604C42.9817 19.2959 42.9633 19.3566 42.939 19.4046C42.751 20.0148 42.4165 20.5804 42.014 21.0772C41.7498 21.4023 41.0901 22.2071 40.6425 22.2815C41.586 22.1247 42.548 21.8866 43.4212 21.4939C43.5342 21.4447 43.525 21.4229 43.525 21.4951Z" fill="white"/>
<path d="M24.1848 41.1914C23.7303 41.1914 24.149 41.1949 24.1848 41.1914C24.1121 41.1914 24.1848 41.1914 24.1848 41.1914Z" fill="white"/>
<path d="M25.1113 41.2157C25.5992 41.2157 25.1113 41.1699 25.1113 41.2157C25.1713 41.2157 25.1113 41.1916 25.1113 41.2157Z" fill="white"/>
<path d="M34.7285 18.832C34.77 18.8561 34.8127 18.8561 34.8427 18.832C34.8116 18.832 34.77 18.832 34.7285 18.832Z" fill="white"/>
</svg>
