<svg width="62" height="62" viewBox="0 0 62 62" fill="none" xmlns="http://www.w3.org/2000/svg">
<g filter="url(#filter0_d_201_216)">
<rect x="6" y="3" width="50" height="50" rx="25" fill="black" fill-opacity="0.5"/>
<path d="M48.6762 10.3222C43.9776 5.68299 37.6344 3.09101 31.0315 3.1121C24.4285 3.13318 18.1021 5.76563 13.4332 10.4348C8.76431 15.1039 6.13219 21.4305 6.11145 28.0334C6.09071 34.6364 8.68303 40.9794 13.3225 45.6778C18.0211 50.317 24.3643 52.909 30.9672 52.8879C37.5701 52.8668 43.8966 50.2343 48.5655 45.5652C53.2344 40.8961 55.8665 34.5695 55.8872 27.9665C55.908 21.3636 53.3157 15.0206 48.6762 10.3222ZM18.5317 46.2018C19.0489 43.2712 20.582 40.6163 22.8618 38.7036C25.1416 36.7908 28.0225 35.7424 30.9984 35.7424C33.9744 35.7424 36.8552 36.7908 39.135 38.7036C41.4149 40.6163 42.948 43.2712 43.4651 46.2018C39.796 48.7215 35.4494 50.0703 30.9984 50.0703C26.5474 50.0703 22.2009 48.7215 18.5317 46.2018ZM23.0503 24.8629C23.051 23.2912 23.5177 21.7549 24.3914 20.4484C25.2652 19.1419 26.5066 18.1237 27.9589 17.5226C29.4112 16.9216 31.0091 16.7646 32.5506 17.0715C34.0921 17.3785 35.508 18.1356 36.6193 19.2471C37.7305 20.3586 38.4873 21.7747 38.7939 23.3163C39.1005 24.8578 38.9431 26.4557 38.3417 27.9078C37.7403 29.36 36.7219 30.6012 35.4151 31.4747C34.1084 32.3481 32.572 32.8144 31.0003 32.8148C28.8935 32.8109 26.8741 31.9722 25.3844 30.4825C23.8947 28.9928 23.056 26.9734 23.0521 24.8667L23.0503 24.8629ZM46.0003 44.1704C45.3571 41.8967 44.2062 39.7986 42.6344 38.0344C41.0626 36.2701 39.1108 34.8856 36.9262 33.9852C38.8933 32.7073 40.3945 30.8278 41.2062 28.627C42.0178 26.4262 42.0962 24.022 41.4299 21.773C40.7635 19.5239 39.3879 17.5505 37.5084 16.1471C35.6288 14.7437 33.346 13.9855 31.0003 13.9855C28.6546 13.9855 26.3717 14.7437 24.4922 16.1471C22.6126 17.5505 21.2371 19.5239 20.5707 21.773C19.9043 24.022 19.9828 26.4262 20.7944 28.627C21.606 30.8278 23.1073 32.7073 25.0743 33.9852C22.8896 34.8854 20.9378 36.2699 19.366 38.0342C17.7941 39.7985 16.6433 41.8966 16.0003 44.1704C12.7457 41.1549 10.4755 37.2286 9.4859 32.9036C8.49629 28.5786 8.83318 24.0557 10.4526 19.925C12.0721 15.7943 14.8989 12.2477 18.5643 9.74766C22.2297 7.24767 26.5635 5.91044 31.0003 5.91044C35.4371 5.91044 39.7708 7.24767 43.4362 9.74766C47.1016 12.2477 49.9285 15.7943 51.5479 19.925C53.1674 24.0557 53.5043 28.5786 52.5146 32.9036C51.525 37.2286 49.2548 41.1549 46.0003 44.1704Z" fill="white"/>
</g>
<defs>
<filter id="filter0_d_201_216" x="0" y="0" width="62" height="62" filterUnits="userSpaceOnUse" color-interpolation-filters="sRGB">
<feFlood flood-opacity="0" result="BackgroundImageFix"/>
<feColorMatrix in="SourceAlpha" type="matrix" values="0 0 0 0 0 0 0 0 0 0 0 0 0 0 0 0 0 0 127 0" result="hardAlpha"/>
<feOffset dy="3"/>
<feGaussianBlur stdDeviation="3"/>
<feComposite in2="hardAlpha" operator="out"/>
<feColorMatrix type="matrix" values="0 0 0 0 0 0 0 0 0 0 0 0 0 0 0 0 0 0 0.1 0"/>
<feBlend mode="normal" in2="BackgroundImageFix" result="effect1_dropShadow_201_216"/>
<feBlend mode="normal" in="SourceGraphic" in2="effect1_dropShadow_201_216" result="shape"/>
</filter>
</defs>
</svg>
