<svg width="50" height="50" viewBox="0 0 50 50" fill="none" xmlns="http://www.w3.org/2000/svg">
<path d="M42.6757 7.32221C37.9771 2.68299 31.6339 0.0910092 25.031 0.112097C18.4281 0.133184 12.1016 2.76563 7.43271 7.43476C2.76382 12.1039 0.131705 18.4305 0.110963 25.0334C0.0902217 31.6364 2.68254 37.9794 7.322 42.6778C12.0206 47.317 18.3638 49.909 24.9667 49.8879C31.5697 49.8668 37.8961 47.2343 42.565 42.5652C47.2339 37.8961 49.866 31.5695 49.8867 24.9665C49.9075 18.3636 47.3152 12.0206 42.6757 7.32221ZM12.5313 43.2018C13.0484 40.2712 14.5815 37.6163 16.8613 35.7036C19.1411 33.7908 22.022 32.7424 24.9979 32.7424C27.9739 32.7424 30.8547 33.7908 33.1346 35.7036C35.4144 37.6163 36.9475 40.2712 37.4646 43.2018C33.7955 45.7215 29.4489 47.0703 24.9979 47.0703C20.5469 47.0703 16.2004 45.7215 12.5313 43.2018ZM17.0498 21.8629C17.0505 20.2912 17.5172 18.7549 18.391 17.4484C19.2647 16.1419 20.5062 15.1237 21.9584 14.5226C23.4107 13.9216 25.0086 13.7646 26.5501 14.0715C28.0916 14.3785 29.5075 15.1356 30.6188 16.2471C31.73 17.3586 32.4868 18.7747 32.7934 20.3163C33.1 21.8578 32.9426 23.4557 32.3412 24.9078C31.7398 26.36 30.7214 27.6012 29.4146 28.4747C28.1079 29.3481 26.5715 29.8144 24.9998 29.8148C22.893 29.8109 20.8736 28.9722 19.3839 27.4825C17.8942 25.9928 17.0555 23.9734 17.0516 21.8667L17.0498 21.8629ZM39.9998 41.1704C39.3566 38.8967 38.2057 36.7986 36.6339 35.0344C35.0621 33.2701 33.1103 31.8856 30.9257 30.9852C32.8928 29.7073 34.3941 27.8278 35.2057 25.627C36.0173 23.4262 36.0958 21.022 35.4294 18.773C34.763 16.5239 33.3874 14.5505 31.5079 13.1471C29.6283 11.7437 27.3455 10.9855 24.9998 10.9855C22.6541 10.9855 20.3712 11.7437 18.4917 13.1471C16.6121 14.5505 15.2366 16.5239 14.5702 18.773C13.9038 21.022 13.9823 23.4262 14.7939 25.627C15.6055 27.8278 17.1068 29.7073 19.0739 30.9852C16.8892 31.8854 14.9373 33.2699 13.3655 35.0342C11.7937 36.7985 10.6428 38.8966 9.99978 41.1704C6.74521 38.1549 4.47503 34.2286 3.48542 29.9036C2.4958 25.5786 2.83269 21.0557 4.45215 16.925C6.0716 12.7943 8.89842 9.24765 12.5638 6.74766C16.2292 4.24767 20.563 2.91044 24.9998 2.91044C29.4366 2.91044 33.7704 4.24767 37.4358 6.74766C41.1011 9.24765 43.928 12.7943 45.5474 16.925C47.1669 21.0557 47.5038 25.5786 46.5141 29.9036C45.5245 34.2286 43.2544 38.1549 39.9998 41.1704Z" fill="#474747"/>
</svg>
