<svg width="21" height="21" viewBox="0 0 21 21" fill="none" xmlns="http://www.w3.org/2000/svg">
<path d="M11.4749 0.535015V2.53501C15.8649 3.07501 18.9749 7.06502 18.4349 11.455C17.9749 15.095 15.1149 17.985 11.4749 18.415V20.415C16.9749 19.865 20.9749 14.985 20.4249 9.48501C19.9749 4.73501 16.2049 0.985015 11.4749 0.515015V0.535015ZM4.1449 18.225C5.6549 19.485 7.5149 20.275 9.4749 20.485V18.485C8.0549 18.305 6.7049 17.735 5.5749 16.855L4.1449 18.225ZM5.5749 4.22501C6.6949 3.32501 8.0449 2.74501 9.4749 2.54501V0.545015C7.5249 0.735015 5.6649 1.48501 4.1449 2.74501L5.5749 4.22501ZM4.1649 5.58501L2.7349 4.15501C1.4749 5.67501 0.724902 7.52501 0.524902 9.48501H2.5249C2.7149 8.06501 3.2749 6.71501 4.1649 5.58501ZM2.5349 11.485H0.534902C0.734902 13.445 1.5049 15.295 2.7449 16.815L4.1649 15.385C3.2849 14.255 2.7149 12.905 2.5349 11.485ZM8.4749 14.985L14.4749 10.485L8.4749 5.98501V14.985Z" fill="white"/>
</svg>
